<?xml version="1.0" encoding="utf-8"?>
<!-- Generator: Adobe Illustrator 16.0.0, SVG Export Plug-In . SVG Version: 6.00 Build 0)  -->
<!DOCTYPE svg PUBLIC "-//W3C//DTD SVG 1.1//EN" "http://www.w3.org/Graphics/SVG/1.1/DTD/svg11.dtd">
<svg version="1.1" id="Layer_1" xmlns="http://www.w3.org/2000/svg" xmlns:xlink="http://www.w3.org/1999/xlink" x="0px" y="0px"
	 width="800px" height="1000px" viewBox="0 0 800 1000" enable-background="new 0 0 800 1000" xml:space="preserve">
<title>astronaut_DL</title>
<desc>Created with Sketch.</desc>
<g id="astronaut_DL">
	
		<g id="astronaut" transform="translate(399.500000, 433.000000) rotate(26.000000) translate(-399.500000, -433.000000) translate(267.000000, 248.000000)">
		<path id="Path-3" fill="#ffffff" d="M76.801,50.039c-5.953-25.12-2.084-37.68,11.606-37.68
			c20.535,0.001,98.926-16.437,107.371-5.535c5.63,7.268,9.832,19.902,12.606,37.902c27.825-12.172,41.738-12.172,41.738,0
			c0,18.258,26.211,160.16,7.949,167.731c-12.174,5.047-21.677,9.315-28.507,12.804l-33.786,125.41L76.801,362.289l18.34-11.618
			L46.695,245.18c-4.643,9.511-9.23,9.511-13.761,0C26.137,230.914,5.477,55.352,26.086,50.039
			C39.825,46.497,56.73,46.497,76.801,50.039z"/>
		<g id="Group-21" transform="translate(40.000000, 0.000000)">
			<path id="Fill-1" fill="#000000" d="M123.022,132.868c-0.2,0.011-0.399,0.022-0.6,0.032
				C122.623,132.889,122.823,132.879,123.022,132.868z M145.876,126.563c-0.116,0.073-0.231,0.146-0.347,0.219
				C145.645,126.71,145.76,126.636,145.876,126.563z M129.919,14.013c3.103-0.083,6.237-0.124,9.315,0.318
				c1.619,0.442,3.158,1.019,4.681,1.732c1.1,0.658,2.147,1.354,3.144,2.163c1.634,1.668,3.07,3.497,4.412,5.404
				c2.958,4.94,5.357,10.244,7.223,15.684c1.486,5.408,2.711,10.953,3.408,16.518c0.674,5.363,1.145,10.748,1.449,16.146
				c0.158,4.471,0.24,8.924,0.069,13.4c-0.162,4.315-0.982,8.622-1.838,12.854c-0.482,2.121-0.983,4.239-1.624,6.316
				c-0.635,2.053-1.477,3.995-2.415,5.915c-1.148,2.081-2.358,4.118-3.651,6.116c-1.579,2.437-3.099,4.948-4.944,7.197
				c-1.417,1.354-2.963,2.484-4.576,3.607c-0.205,0.129-0.409,0.258-0.614,0.385c-1.239,0.779-2.551,1.362-3.916,1.857
				c-3.009,0.875-6.077,1.602-9.128,2.306c-2.307,0.535-4.679,0.749-7.044,0.889c-4.445,0.136-8.853,0.298-13.259,0.961
				c-1.997,0.304-3.965,0.764-5.962,1.073c-2.102,0.326-4.208,0.648-6.324,0.906c-1.941,0.235-3.891,0.354-5.833,0.612
				c-2.203,0.294-4.392,0.685-6.595,0.961c-2.31,0.29-4.614,0.607-6.91,0.985c-1.883,0.312-3.755,0.635-5.652,0.845
				c-0.657,0.015-1.312,0.018-1.974-0.013c-0.748-0.031-1.491-0.159-2.228-0.306c-0.89-0.239-1.765-0.491-2.649-0.77
				c-1.011-0.323-1.977-0.806-2.97-1.187c-1.651-0.637-3.32-1.219-4.937-1.936c-0.728-0.429-1.431-0.883-2.098-1.404
				c-1.422-1.493-2.612-3.156-3.762-4.868c-1.72-2.937-3.172-6.036-4.505-9.159c-1.339-3.123-2.607-6.289-3.706-9.509
				c-1.578-5.301-2.669-10.685-3.451-16.163c-0.733-5.123-1.312-10.317-1.629-15.486c-0.276-7.117-0.226-14.251-0.271-21.37
				c-0.023-3.649-0.036-7.301-0.008-10.95c0.016-2.788-0.062-5.588,0.397-8.34c0.825-3.459,1.733-6.928,3.211-10.158
				c0.813-1.435,1.718-2.825,2.759-4.098c0.11-0.105,0.223-0.21,0.335-0.313c2.813-0.701,5.604-1.409,8.352-2.335
				c2.165-0.733,4.329-1.455,6.499-2.161c2.886-0.862,5.799-1.64,8.694-2.482c3.069-0.886,6.188-1.268,9.36-1.499
				c2.262-0.107,4.523-0.225,6.783-0.355c5.67-0.182,11.324,0.258,16.993,0.391c2.893,0.07,5.786,0.083,8.674,0.075
				c3.015-0.017,6.031-0.239,9.039-0.412C123.468,14.228,126.694,14.095,129.919,14.013z M90.202,0.137
				c-3.887,0.004-7.76,0.372-11.632,0.611C75,0.97,71.49,1.306,68.036,2.276C64.283,3.33,60.53,4.531,56.845,5.79
				c-3.113,1.065-6.143,2.358-9.231,3.476c-0.134,0.039-0.268,0.078-0.403,0.117c-2.497-1.383-5.745-1.209-8.034,0.71
				c-0.713,0.598-1.44,1.173-2.148,1.781c-0.924,0.799-1.72,1.743-2.553,2.641c-1.113,1.2-1.997,2.663-2.829,4.071
				c-1.701,2.889-2.971,5.88-3.874,9.1c-0.859,3.074-1.624,6.183-2.198,9.32c-0.405,2.223-0.207,4.578-0.174,6.823
				c0.179,12.009-0.033,24.031,0.681,36.024c0.161,2.688,0.51,5.365,0.854,8.034c0.364,2.773,0.728,5.552,1.173,8.317
				c1.013,6.258,2.364,12.446,4.352,18.468c1.789,5.433,4.025,10.761,6.578,15.881c1.485,2.978,3.21,5.884,5.262,8.512
				c1.425,1.831,2.994,3.469,4.765,4.982c1.587,1.358,3.667,2.288,5.515,3.184c1.04,0.506,2.158,0.87,3.234,1.275
				c1.204,0.456,2.382,0.975,3.579,1.454c1.214,0.483,2.456,0.823,3.72,1.154c2.213,0.584,4.638,1.063,6.928,0.98
				c1.697-0.064,3.413-0.078,5.092-0.335c1.278-0.189,2.548-0.405,3.818-0.611c2.834-0.465,5.681-0.797,8.519-1.225
				c2.691-0.4,5.364-0.823,8.067-1.118c2.7-0.289,5.378-0.699,8.055-1.145c2.442-0.4,4.844-1.022,7.281-1.45
				c2.45-0.427,4.886-0.71,7.36-0.896c2.945-0.112,5.906-0.192,8.831-0.566c3.027-0.386,5.944-1.108,8.897-1.873
				c2.792-0.727,5.583-1.436,8.284-2.462c1.513-0.58,2.879-1.477,4.236-2.336c0.677-0.428,1.37-0.833,2.029-1.294
				c0.625-0.442,1.256-0.883,1.881-1.32c1.853-1.302,3.398-2.981,4.88-4.675c1.122-1.283,2.047-2.779,2.98-4.196
				c3.491-5.319,6.896-10.696,9.199-16.655c1.058-2.723,1.661-5.663,2.337-8.498c0.811-3.381,1.482-6.809,1.942-10.255
				c0.818-6.104,0.721-12.251,0.556-18.388c-0.17-6.432-0.749-12.882-1.518-19.267c-0.35-2.884-0.925-5.746-1.472-8.594
				c-0.658-3.4-1.504-6.781-2.571-10.076c-1.826-5.626-4.256-11.078-7.098-16.263c-1.899-3.465-4.286-6.818-7.097-9.603
				c-3.169-3.137-6.964-5.295-11.08-6.946c-1.858-0.746-3.901-1.077-5.851-1.458c-1.477-0.286-3.004-0.299-4.498-0.354
				c-2.862-0.111-5.713-0.092-8.57-0.046c-6.084,0.092-12.17,0.442-18.255,0.4c-3.004-0.024-6.013-0.06-9.016-0.176
				c-2.976-0.113-5.956-0.275-8.933-0.275L90.202,0.137z"/>
			<path id="Fill-3" fill="#000000" d="M67.859,138.57c-3.418,0.649-6.739,1.656-10,2.862c-1.311,0.483-2.659,0.942-3.924,1.555
				c-2.871,1.39-5.593,3.017-8.059,5.052c-1.66,1.371-3.1,3.022-4.503,4.642c-0.846,0.971-1.582,2.024-2.286,3.096
				c-0.855,1.303-1.678,2.618-2.428,3.98c-1.638,2.973-3.262,5.99-4.393,9.202c-1.164,3.317-1.909,6.689-2.64,10.125
				c-0.612,2.858-1.183,5.715-1.66,8.595c-0.989,5.889-1.402,11.874-2.126,17.8c-0.362,2.944-0.763,5.884-1.089,8.839
				c-0.34,3.105-0.557,6.215-0.759,9.334c-0.386,5.921-0.717,11.825-0.851,17.758c-0.068,3.106-0.147,6.211,0.005,9.317
				c0.161,3.294,0.538,6.56,0.755,9.849c0.17,2.684,0.405,5.36,0.603,8.042c0.202,2.794,0.391,5.572,0.777,8.346
				c0.662,4.725,1.426,9.442,2.273,14.138c0.395,2.223,0.869,4.426,1.393,6.618c0.577,2.413,1.434,4.763,2.222,7.117
				c0.777,2.731,1.433,5.489,2.193,8.225c0.75,2.691,1.624,5.341,2.268,8.065c0.787,3.344,1.587,6.643,2.768,9.877
				c0.484,1.315,1.068,2.577,1.708,3.819c0.303,0.589,0.635,1.155,0.97,1.725c0.809,1.391,1.537,2.366,2.755,3.419
				c0.763,0.662,1.619,1.117,2.575,1.468c2.7,0.998,5.832,0.009,7.497-2.333c1.003-1.417,1.404-3.211,1.095-4.918
				c-0.262-1.426-1.109-3.077-2.351-3.948c-1.008-1.815-1.841-3.688-2.585-5.64c-0.538-1.931-1.011-3.872-1.48-5.824
				c-0.562-2.309-1.252-4.582-1.945-6.856c-0.723-2.351-1.27-4.752-1.923-7.126c-0.672-2.458-1.466-4.877-2.288-7.291
				c-1.063-3.589-1.796-7.251-2.4-10.946c-0.671-4.108-1.375-8.213-1.982-12.33c-0.548-3.707-0.663-7.467-0.957-11.201
				c-0.305-3.818-0.564-7.639-0.822-11.461c-0.158-5.833,0.116-11.704,0.409-17.529c0.303-6.022,0.795-12.068,1.458-18.058
				c0.33-2.972,0.704-5.935,1.057-8.902c0.364-3.014,0.534-6.05,0.814-9.072c0.281-2.978,0.538-5.959,0.956-8.922
				c0.405-2.904,0.984-5.779,1.555-8.659c0.099-0.5,0.201-1.002,0.303-1.505c0.443-1.872,0.971-3.701,1.62-5.525
				c0.604-1.7,1.374-3.334,2.18-4.947c1.745-3.102,3.576-6.09,5.904-8.786c1.232-1.204,2.533-2.281,3.942-3.263
				c3.173-1.819,6.628-3.05,10.095-4.209c1.203-0.314,2.401-0.584,3.624-0.82c3.472-0.671,5.874-4.048,5.234-7.559
				c-0.565-3.081-3.349-5.342-6.407-5.344C68.628,138.462,68.243,138.497,67.859,138.57"/>
			<path id="Fill-5" fill="#000000" d="M112.648,353.195c-0.025,0.01-0.05,0.018-0.075,0.025L112.648,353.195z M164.974,350.392
				l0.03,0.01c-2.425,0.071-4.851,0.115-7.277,0.118c1.521-0.081,3.041-0.181,4.561-0.27
				C163.2,350.233,164.084,350.272,164.974,350.392z M149.593,133.516c-1.274,1.059-2.084,2.619-2.217,4.27
				c0.027,0.54,0.055,1.073,0.082,1.606c0.198,1.063,0.64,2.011,1.325,2.848c0.234,0.354,0.465,0.708,0.695,1.064
				c1.659,2.824,2.817,5.874,3.967,8.937c0.659,2.132,1.266,4.263,1.833,6.428c0.621,2.356,1.059,4.762,1.487,7.159
				c0.914,5.116,1.549,10.31,2.663,15.389c1.205,5.48,2.52,10.931,3.725,16.411c1.099,5.033,1.434,10.198,1.739,15.329
				c0.275,5.688,0.588,11.377,0.75,17.069c0.179,6.404,0.314,12.804,0.364,19.207c0.022,3.336,0.046,6.673,0.022,10.004
				c-0.027,3.201-0.304,6.389-0.589,9.577c-0.538,6.028-1.417,12.036-2.41,18.009c-0.178,1.066-0.386,2.132-0.59,3.195
				c-1.964,8.462-4.62,16.789-7.772,24.877c-1.506,3.87-2.853,7.85-4.688,11.572c-1.619,3.283-3.149,6.615-4.815,9.872
				c-0.802,1.494-1.634,2.971-2.397,4.482c-0.134,0.267-0.244,0.533-0.326,0.819c-0.212,0.585-0.327,1.178-0.359,1.785
				c-0.087,1.26,0.212,2.051,0.617,3.221c0.487,1.412,2.221,2.851,3.642,3.312c0.425,0.134,0.849,0.248,1.275,0.341
				c-2.265-0.095-4.526-0.202-6.79-0.268c-4.306-0.118-8.592-0.524-12.902-0.321c-2.347,0.11-4.664,0.35-6.997,0.616
				c-0.626,0.069-1.246,0.139-1.867,0.217c-1.518,0.184-3.053,0.833-4.457,1.441c-0.931,0.4-1.803,0.93-2.715,1.368
				c-1.996,0.424-3.694,2.048-4.382,3.932c-0.381,1.058-0.474,2.135-0.276,3.239c0.267,1.472,1.182,3.179,2.516,3.961
				c1.178,0.686,2.134,1.159,3.523,1.214c1.629,0.065,3.166-0.413,4.582-1.195c0.946-0.519,1.895-1.01,2.89-1.421
				c2.206-0.429,4.512-0.549,6.765-0.697c2.722-0.063,5.419,0.081,8.145,0.25c2.838,0.179,5.685,0.225,8.528,0.345
				c3.307,0.137,6.61,0.331,9.921,0.386c2.856,0.047,5.735-0.028,8.592-0.156c3.951-0.18,7.972-0.285,11.853-1.091
				c4.503-0.93,9.277-3.437,10-8.424c0.589-4.072-2.25-7.444-5.418-9.547c-1.109-0.736-2.227-1.398-3.258-2.24
				c-2.529-2.088-5.596-3.381-8.798-3.997c-2.535-0.484-5.12-0.221-7.673,0.018c-0.539,0.05-1.078,0.102-1.618,0.152
				c0.558-1.077,1.109-2.159,1.659-3.241c1.394-2.638,2.786-5.262,3.969-8.004c1.09-2.517,2.135-5.061,3.161-7.605
				c2.331-5.792,4.305-11.698,6.187-17.652c1.904-6.036,3.187-12.251,4.244-18.485c1.055-6.207,1.969-12.463,2.337-18.753
				c0.381-6.478,0.235-12.985,0.18-19.471c-0.051-6.266-0.259-12.526-0.493-18.789c-0.248-6.684-0.649-13.374-1.095-20.049
				c-0.428-6.381-1.94-12.62-3.509-18.799c-1.112-4.375-2.087-8.768-2.949-13.199c-0.847-4.367-1.592-8.747-2.442-13.107
				c-0.919-4.726-2.47-9.326-4.015-13.867c-0.735-2.162-1.78-4.256-2.76-6.313c-1.081-2.263-2.563-4.329-3.947-6.413
				c-0.869-1.316-2.759-2.097-4.268-2.222c-0.161-0.013-0.322-0.019-0.484-0.019C152.121,132.09,150.7,132.598,149.593,133.516z"/>
			<path id="Fill-7" fill="#000000" d="M115.688,348.656c0.019,0.027,0.036,0.056,0.054,0.084
				C115.724,348.712,115.707,348.683,115.688,348.656 M102.326,289.786c-1.274,1.053-2.36,2.843-2.363,4.545
				c-0.005,5.111-0.144,10.218-0.203,15.33c-0.033,2.769-0.019,5.516,0.082,8.286c0.097,2.746,0.345,5.488,0.599,8.225
				c0.464,5.066,0.808,10.141,1.228,15.21c0.193,2.292,0.566,4.559,1.016,6.809c0.704,3.525,1.554,7.71,4.724,9.873
				c2.331,1.588,5.446,1.532,7.64-0.29c1.293-1.072,2.116-2.65,2.249-4.325c-0.027-0.543-0.056-1.081-0.083-1.624
				c-0.097-0.523-0.254-1.018-0.467-1.486c-0.193-1.182-0.319-2.372-0.49-3.556c-0.225-1.559-0.478-3.114-0.671-4.679
				c-0.377-3.004-0.519-6.037-0.773-9.05c-0.285-3.39-0.649-6.777-1.016-10.158c-0.294-2.675-0.509-5.338-0.68-8.019
				c-0.056-6.494-0.007-12.996-0.016-19.493c0-1.771-0.336-3.337-1.5-4.739c-1.127-1.357-2.783-2.219-4.544-2.36
				c-0.173-0.016-0.346-0.021-0.519-0.022C105.013,288.264,103.504,288.805,102.326,289.786"/>
			<path id="Fill-9" fill="#000000" d="M99.355,286.318c-1.209,1.004-2.397,2.843-2.331,4.486c0.068,1.712,0.096,3.423,0.091,5.135
				c0.001,1.844-0.216,3.685-0.414,5.516c-0.152,1.421-0.341,2.839-0.515,4.26c-0.354,2.807-0.691,5.612-0.999,8.429
				c-0.566,5.128-0.819,10.291-0.759,15.454c0.065,5.084,0.217,10.167,0.369,15.245c0.056,1.758,0.105,3.514,0.127,5.27
				c-1.373-0.104-2.752-0.106-4.147-0.061c-2.177,0.071-4.357,0.223-6.534,0.357c-4.057,0.129-8.113,0.125-12.174,0.2
				c-4.192,0.08-8.342,0.865-12.51,1.266c-4.652,0.153-9.33,0.213-13.938,0.874c-2.415,0.345-4.743,0.865-7.093,1.509
				c-2.183,0.595-4.311,1.37-6.453,2.089c-1.335,0.372-2.684,0.695-4.043,0.961c-3.21,0.627-5.432,3.736-4.838,6.988
				c0.275,1.532,1.159,2.926,2.428,3.828c0.479,0.249,0.952,0.497,1.431,0.746c1.016,0.367,2.06,0.459,3.127,0.265
				c1.79-0.092,3.537-0.596,5.258-1.076c1.775-0.492,3.532-1.068,5.322-1.518c1.829-0.46,3.675-0.947,5.547-1.173
				c1.854-0.223,3.705-0.366,5.566-0.484c3.64-0.117,7.279-0.089,10.91-0.358c2.947-0.218,5.872-0.645,8.816-0.897
				c0.746-0.004,1.493-0.005,2.242-0.004c2.175,0,4.351,0,6.517-0.112c2.18-0.106,4.36-0.198,6.535-0.368
				c1.508-0.118,3.014-0.251,4.522-0.355c1.899-0.042,3.761,0.065,5.644,0.383c1.827,0.314,3.625,0.654,5.483,0.29
				c2.135-0.423,4.049-1.919,4.756-4.016c0.287-0.844,0.377-1.488,0.38-2.175c0.001,0.006,0.001,0.01,0.002,0.017
				c-0.001-0.006-0.001-0.013-0.001-0.02c0.001-0.217-0.007-0.439-0.018-0.672c-0.022-1.568,0.118-3.122,0.191-4.694
				c0.096-2.127,0.055-4.257,0.068-6.382c0.033-5.13-0.073-10.255-0.143-15.381c-0.059-4.981,0.147-9.979,0.626-14.933
				c0.257-2.632,0.529-5.259,0.832-7.886c0.143-1.238,0.28-2.479,0.423-3.722c0.451-3.919,0.502-7.807,0.336-11.751l-0.083-1.683
				c-0.212-1.119-0.676-2.116-1.399-2.995c-1.107-1.34-2.746-2.191-4.483-2.329c-0.175-0.013-0.348-0.02-0.521-0.02
				C102.004,284.821,100.517,285.354,99.355,286.318"/>
			<path id="Fill-11" fill="#000000" d="M48.611,338.384c-3.703,1.979-7.429,3.934-11.025,6.096
				c-1.913,1.149-3.74,2.365-5.437,3.813c-0.663,0.567-1.297,1.174-1.91,1.795c-0.584,0.592-1.185,1.209-1.724,1.835
				c-0.699,0.815-1.155,1.735-1.629,2.706c-0.354,0.984-0.441,1.992-0.257,3.022c0.272,1.477,1.122,2.821,2.345,3.69
				c1.265,0.902,2.875,1.26,4.402,0.979c1.52-0.277,2.661-1.106,3.623-2.265c1.73-1.675,3.654-3.125,5.664-4.459
				c3.633-2.17,7.337-4.231,11.068-6.231c1.443-0.778,2.557-1.845,3.132-3.418c0.547-1.504,0.473-3.184-0.202-4.633
				c-0.982-2.105-3.287-3.535-5.593-3.535C50.228,337.78,49.388,337.97,48.611,338.384"/>
			<path id="Fill-13" fill="#000000" d="M171.579,245.527c-2.133,0.161-4.263,0.377-6.356,0.852
				c-2.545,0.575-5.084,1.154-7.627,1.743c-4.116,0.949-8.284,1.32-12.484,1.578c-3.94,0.153-7.89,0.309-11.817,0.662
				c-3.974,0.363-7.943,0.707-11.926,0.972c-6.248,0.293-12.485,0.659-18.731,1.026c-3.021,0.179-6.044,0.316-9.051,0.657
				c-3.146,0.359-6.294,0.76-9.439,1.086c-3.1,0.318-6.205,0.525-9.301,0.852c-2.934,0.313-5.846,0.805-8.781,1.108
				c-5.975,0.622-11.987,0.875-17.948,1.634c-4.393,0.562-8.78,1.311-13.119,2.208c-2.915,0.608-5.178,2.972-5.417,5.991
				c-0.139,1.711,0.408,3.441,1.503,4.761c1.016,1.229,2.899,2.452,4.568,2.375c3.113-0.14,6.132-0.572,9.199-1.1
				c2.738-0.474,5.521-0.768,8.285-1.087c6.14-0.7,12.327-1.131,18.449-1.991c2.894-0.405,5.768-0.866,8.68-1.119
				c2.944-0.251,5.888-0.519,8.817-0.883c3.074-0.381,6.141-0.782,9.222-1.034c3.373-0.282,6.744-0.446,10.119-0.654
				c3.423-0.207,6.85-0.437,10.276-0.63c-0.571,0.032-1.141,0.059-1.706,0.088c5.077-0.253,10.137-0.562,15.197-1.055
				c4.691-0.449,9.36-0.823,14.065-1.067c4.495-0.234,9.01-0.754,13.385-1.835c2.456-0.608,4.917-1.211,7.373-1.809
				c2.244-0.543,4.503-0.847,6.798-1.026c1.537-0.119,3.12-1.321,3.979-2.531c0.972-1.361,1.353-3.092,1.054-4.738
				c-0.29-1.592-1.206-3.041-2.526-3.979c-0.496-0.258-0.987-0.516-1.485-0.779c-0.7-0.251-1.41-0.377-2.13-0.377
				C172.332,245.426,171.957,245.46,171.579,245.527"/>
			<path id="Fill-15" fill="#000000" d="M117.699,38.956c0.111,0.057,0.221,0.115,0.332,0.173
				C117.92,39.071,117.809,39.013,117.699,38.956 M90.571,36.029c2.731-0.562,5.38-1.407,8.152-1.71
				c2.052,0.038,4.066,0.339,6.102,0.614c1.734,0.235,3.48,0.409,5.2,0.706c2.307,0.667,4.441,1.66,6.562,2.743
				c3.603,2.067,6.884,4.814,9.98,7.612c1.48,1.521,2.641,3.268,3.781,5.052c1.098,1.755,2.149,3.505,3.061,5.373
				c0.497,1.016,0.856,2.135,1.233,3.202c0.383,1.071,0.751,2.145,1.116,3.222c0.973,3.302,1.763,6.629,2.458,10.009
				c0.726,3.527,1.409,7.062,1.705,10.655c0.023,1.556-0.093,3.08-0.356,4.609c-0.709,2.697-1.677,5.366-2.853,7.898
				c-0.734,1.231-1.56,2.361-2.489,3.452c-1.783,1.777-3.739,3.364-5.704,4.941c-1.753,1.41-3.561,2.711-5.428,3.955
				c-1.736,1.008-3.508,1.847-5.39,2.529c-2.817,0.776-5.656,1.47-8.416,2.428c-2.824,0.975-5.479,2.357-8.279,3.38
				c-1.607,0.437-3.216,0.746-4.881,0.917c-0.89,0.086-1.787,0.124-2.679,0.167c0.364-0.019,0.728-0.039,1.092-0.057
				c-3.714,0.149-7.423,0.387-11.133,0.585c-2.197,0.107-4.391,0.226-6.585,0.351c-1.002,0.007-1.994-0.024-2.984-0.152
				c-0.156-0.051-0.313-0.105-0.467-0.163c-0.312-0.205-0.611-0.422-0.907-0.652c-0.855-0.935-1.601-1.948-2.365-2.965
				c-0.617-0.815-1.242-1.62-1.834-2.454c-0.991-1.865-1.716-3.812-2.536-5.763c-0.391-0.929-0.869-1.825-1.247-2.759
				c-0.284-0.705-0.544-1.407-0.794-2.116c-1.85-6.887-2.948-13.897-3.431-21.013c-0.12-3.092-0.146-6.181-0.154-9.274
				c-0.003-3.012,0.189-5.99,0.656-8.961c0.268-0.97,0.577-1.926,1.005-2.845c0.607-1.311,1.265-2.599,1.881-3.905
				c0.335-0.922,0.463-1.86,0.395-2.817c0.582-0.376,1.092-0.856,1.427-1.417c1.054-1.748,2.145-3.44,3.444-5.003
				c1.713-1.669,3.592-3.052,5.565-4.399c2.659-1.617,5.331-3.138,8.264-4.228C85.309,37.042,87.951,36.573,90.571,36.029
				 M92.407,22.061c-2.622,0.773-5.229,1.564-7.875,2.268c-2.81,0.75-5.584,1.601-8.228,2.829c-1.375,0.635-2.663,1.454-3.942,2.264
				c-0.042,0.027-0.084,0.054-0.125,0.081c-0.323,0.203-0.643,0.404-0.966,0.609l-1.283,0.815c-2.207,1.393-4.334,2.995-6.315,4.692
				c-3.073,2.623-5.355,5.82-7.402,9.252c-0.372,0.623-0.666,1.247-0.846,1.895c-1.487,0.385-2.839,1.259-3.721,2.605
				c-1.035,1.578-2.006,3.22-2.745,4.959c-0.603,1.422-1.003,2.875-1.339,4.379c-0.681,3.051-0.92,6.137-0.989,9.262
				c-0.06,2.87,0.05,5.773,0.156,8.645c0.119,3.321,0.259,6.647,0.606,9.956c0.632,6.027,1.693,11.957,3.303,17.8
				c0.483,1.757,1.117,3.474,1.79,5.167c0.579,1.453,1.279,2.856,1.839,4.325c0.603,1.582,1.279,3.1,2.112,4.577
				c1.117,1.983,2.567,3.75,3.928,5.563c2.379,3.161,5.272,5.853,9.09,7.131c2.961,0.988,6.002,0.884,9.061,0.691
				c3.376-0.207,6.752-0.438,10.129-0.69c3.799-0.287,7.653-0.318,11.424-0.852c5.188-0.737,9.771-3.411,14.621-5.212
				c3.883-1.112,7.843-2.034,11.501-3.788c2.314-1.104,4.429-2.612,6.568-4.021c1.251-0.823,2.437-1.789,3.607-2.733
				c3.427-2.761,6.686-5.585,9.433-9.063c1.896-2.406,3.115-5.319,4.259-8.138c1.049-2.587,1.867-5.3,2.355-8.048
				c0.852-4.803,0.24-9.822-0.56-14.602c-0.52-3.096-1.158-6.164-1.817-9.234c-0.722-3.372-1.817-6.652-2.888-9.927
				c-0.911-2.789-1.974-5.457-3.436-8.001c-0.639-1.119-1.358-2.2-2.043-3.289c-1.117-1.776-2.216-3.561-3.463-5.246
				c-0.975-1.325-2.273-2.447-3.486-3.542c-0.519-0.47-1.035-0.948-1.564-1.404c-0.99-0.859-1.988-1.711-2.99-2.558
				c-1.578-1.33-3.201-2.58-4.944-3.685c-1.293-0.819-2.687-1.504-4.044-2.216c-1.742-0.912-3.458-1.772-5.313-2.425
				c-2.663-0.948-5.505-1.265-8.297-1.573c-1.459-0.157-2.912-0.336-4.369-0.502c-0.98-0.113-1.962-0.167-2.941-0.167
				C97.603,20.909,94.962,21.312,92.407,22.061"/>
			<path id="Fill-17" fill="#000000" d="M24.157,280.328c0.011,0.2,0.02,0.402,0.029,0.603
				C24.165,280.73,24.156,280.529,24.157,280.328 M42.884,149.862c-1.632,1.094-3.247,2.222-4.862,3.344
				c-0.523,0.364-1.011,0.787-1.513,1.178c-0.648,0.511-1.342,0.989-1.955,1.542c-1.223,1.103-2.447,2.203-3.67,3.308
				c-1.619,1.463-3.096,3.138-4.541,4.765c-1.513,1.716-2.815,3.608-4.011,5.553c-2.212,3.617-3.974,7.528-5.653,11.41
				c-1.247,2.884-2.341,5.829-3.444,8.768c-1.054,2.816-2.019,5.664-2.912,8.529c-0.888,2.849-1.537,5.771-2.249,8.664
				c-1.458,5.899-2.949,11.783-4.269,17.713c-0.474,2.13-0.902,4.246-1.242,6.396c-0.258,1.606-0.391,3.234-0.565,4.849
				c-0.171,1.582-0.378,3.16-0.576,4.738c-0.165,1.334-0.353,2.665-0.427,4.008c-0.153,2.727,0.657,5.188,1.507,7.716
				c1.156,3.759,2.147,7.56,3.253,11.335c0.726,2.475,1.592,4.922,2.673,7.264c0.468,1.008,0.988,1.974,1.559,2.926
				c0.525,0.88,1.072,1.754,1.731,2.538c-0.265,0.9-0.484,1.814-0.594,2.785c-0.189,1.629,0.244,3.193,0.749,4.711
				c0.419,1.257,1.073,2.319,1.817,3.414c1.178,1.72,2.591,3.155,4.246,4.43c2.189,1.685,5.036,2.116,7.681,2.495
				c3.52,0.505,6.748-2.605,7.019-5.978c0.138-1.683-0.405-3.386-1.481-4.687c-1.196-1.445-2.705-2.02-4.493-2.333
				c-0.208-0.034-0.416-0.07-0.623-0.108c-0.156-0.048-0.31-0.1-0.46-0.155c-0.089-0.067-0.176-0.136-0.261-0.203
				c-0.338-0.371-0.657-0.755-0.963-1.152c0.067-0.191,0.137-0.384,0.206-0.576c0.68-1.905,1.044-3.865,0.547-5.853
				c-0.405-1.619-1.201-2.971-2.364-4.139c-0.491-0.487-0.921-1.005-1.326-1.551c-1.236-2.238-2.168-4.581-3.012-6.997
				c-0.531-1.813-1.026-3.635-1.545-5.457c-0.781-2.732-1.627-5.443-2.518-8.141c-0.13-0.491-0.232-0.973-0.316-1.469
				c0.073-1.521,0.319-3.032,0.505-4.537c0.171-1.371,0.335-2.742,0.483-4.112c0.311-2.907,0.677-5.778,1.242-8.641
				c1.828-8.224,3.812-16.431,5.98-24.572c0.533-1.996,1.247-3.984,1.942-5.93c0.849-2.388,1.72-4.771,2.607-7.145
				c1.508-4.035,3.268-7.945,5.13-11.826c1.637-2.926,3.481-5.644,5.699-8.164c1.931-1.992,3.96-3.919,6.116-5.653
				c2.336-1.873,4.747-3.594,7.227-5.268c1.337-0.905,2.138-2.81,2.263-4.361c0.132-1.633-0.392-3.28-1.435-4.54
				c-1.082-1.303-2.673-2.131-4.361-2.269c-0.169-0.014-0.333-0.021-0.496-0.021C45.399,148.401,44.17,148.995,42.884,149.862"/>
			<path id="Fill-19" fill="#000000" d="M184.943,264.076c0.006,0.084,0.011,0.169,0.013,0.252
				C184.953,264.244,184.948,264.16,184.943,264.076 M184.948,263.255c0.089,0.235,0.166,0.476,0.228,0.724
				C185.102,263.736,185.025,263.494,184.948,263.255 M160.536,146.611c-1.499,0.698-2.671,1.977-3.238,3.533
				c-0.565,1.555-0.487,3.29,0.213,4.789l0.855,1.352c0.722,0.866,1.615,1.496,2.677,1.887c0.464,0.233,0.925,0.467,1.388,0.7
				c1.766,0.974,3.425,2.036,4.97,3.336c1.278,1.322,2.398,2.744,3.429,4.266c2.544,4.373,4.388,9.148,6.147,13.879
				c1.234,3.314,2.39,6.637,3.512,9.986c0.485,1.806,0.97,3.617,1.455,5.423c0.272,1.021,0.432,2.089,0.65,3.123
				c0.183,0.87,0.41,1.744,0.547,2.623c0.304,1.978,0.736,3.97,0.92,5.963c0.186,2.039,0.374,4.081,0.561,6.122
				c0.092,2.391,0.188,4.78,0.152,7.174c-0.042,2.971-0.119,5.94-0.221,8.911c-0.086,2.728-0.12,5.462-0.313,8.184
				c-0.163,2.363-0.534,4.657-0.993,6.966c-0.396,1.602-0.802,3.2-1.191,4.799c-0.447,1.84-0.934,3.672-1.086,5.562
				c-0.116,1.407,0.138,3.056,0.741,4.348c0.665,1.426,1.858,2.347,3.057,3.276c0.005,0.012,0.008,0.021,0.014,0.033
				c0.032,0.154,0.058,0.31,0.082,0.465c-0.023,0.546-0.073,1.073-0.151,1.613c-1.064,3.982-2.838,7.771-4.708,11.448
				c-0.154,0.261-0.314,0.517-0.475,0.772c-0.92,1.476-1.388,3.055-1.071,4.808c0.294,1.615,1.223,3.077,2.562,4.03
				c2.773,1.97,6.899,1.362,8.841-1.49c2.075-3.06,3.578-6.589,5.041-9.971c0.63-1.448,1.136-2.953,1.569-4.471
				c0.584-2.066,1.048-4.196,1.025-6.343c-0.023-2.49-0.556-4.808-1.711-7.017c-0.436-0.836-0.977-1.576-1.592-2.251
				c0.606-2.145,1.269-4.274,1.776-6.444c0.456-1.955,0.898-3.903,1.224-5.88c0.252-1.501,0.382-2.995,0.53-4.51
				c0.285-2.971,0.294-5.993,0.404-8.976c0.106-2.961,0.272-5.966,0.156-8.929c-0.151-3.91-0.304-7.803-0.676-11.699
				c-0.125-1.315-0.226-2.632-0.432-3.939c-0.272-1.694-0.455-3.422-0.819-5.102c-0.382-1.772-0.763-3.548-1.149-5.324
				c-0.345-1.605-0.869-3.183-1.31-4.765c-0.888-3.171-1.947-6.344-3.133-9.414c-1.808-4.665-3.587-9.339-5.722-13.866
				c-1.218-2.581-2.722-5.02-4.329-7.385c-1.614-2.382-3.697-4.379-5.859-6.261c-2.774-2.416-6.261-3.911-9.526-5.539
				c-0.578-0.29-1.263-0.412-1.965-0.412C162.362,145.992,161.333,146.24,160.536,146.611"/>
		</g>
		<g id="Group-38" transform="translate(0.000000, 24.000000)">
			<path id="Fill-22" fill="#000000" d="M138.262,10.42c-1.396,0.017-2.798,0.016-4.197,0.003c0.341,0.192,0.669,0.407,0.984,0.645
				c1.366-0.294,2.796-0.276,4.11,0.087c0.685,0.188,1.337,0.465,1.949,0.813c0.726-0.463,1.517-0.822,2.345-1.047
				c1.227-0.33,2.46-0.39,3.687-0.183c0.14-0.172,0.285-0.339,0.433-0.502C144.468,10.296,141.364,10.381,138.262,10.42"/>
			<path id="Fill-24" fill="#000000" d="M207.794,10.49c-1.375,0.101-2.745,0.27-4.105,0.496c-0.497,0.078-0.989,0.161-1.486,0.239
				c0.046,0.409,0.097,0.818,0.143,1.227c0.957,3.312,1.867,6.635,2.612,10.002c0.156,0.726,0.317,1.451,0.478,2.178
				c1.614-0.271,3.232-0.519,4.869-0.688c1.715,0.003,3.38,0.16,5.08,0.441c0.556,0.143,1.114,0.29,1.669,0.45
				c1.196,0.345,2.349,0.836,3.471,1.388c2.059,1.19,3.977,2.564,5.775,4.117c1.117,1.099,2.193,2.26,3.131,3.501
				c0.873,1.158,1.691,2.329,2.487,3.529c3.095,5.77,5.788,11.716,8.042,17.862c1.553,5.518,2.735,11.104,4.046,16.688
				c1.471,6.267,2.909,12.509,4.055,18.846c0.561,3.083,0.868,6.225,1.223,9.34c0.335,2.922,0.589,5.872,0.791,8.803
				c0.41,5.917,0.819,11.839,1.145,17.761c0.148,3.529,0.252,7.053,0.474,10.578c0.202,3.326,0.441,6.652,0.629,9.982
				c0.147,3.694,0.267,7.389,0.189,11.087c-0.078,3.68-0.737,7.37-1.431,10.985c-0.408,1.705-0.855,3.396-1.342,5.081
				c-0.616,2.1-1.247,4.254-2.146,6.259c-0.759,1.184-1.605,2.302-2.524,3.367c-0.893,0.868-1.831,1.639-2.851,2.348
				c-2.771,1.585-5.765,2.995-8.777,4.075c-3.42,0.918-6.97,1.268-10.478,1.672c-2.98,0.344-5.964,0.651-8.957,0.817
				c-2.956,0.166-5.913,0.299-8.85,0.644c-0.195,0.023-0.393,0.046-0.589,0.07c0,0.029,0.001,0.057,0,0.087
				c-0.009,1.603-0.084,3.201-0.129,4.806c-0.013,0.524-0.033,1.051-0.047,1.575c0.009,0.119,0.015,0.24,0.019,0.354
				c0.074,1.638,0.152,3.286,0.18,4.934c2.104-0.234,4.208-0.456,6.32-0.619c2.942-0.133,5.894-0.262,8.841-0.442
				c3.064-0.188,6.124-0.602,9.173-0.973c1.693-0.207,3.375-0.437,5.049-0.767c3.145-0.63,6.101-1.911,9.003-3.239
				c1.319-0.602,2.61-1.282,3.898-1.948c3.302-1.714,5.964-4.104,8.369-6.901c1.622-1.893,2.873-3.956,3.925-6.226
				c0.769-1.654,1.26-3.491,1.826-5.219c1.099-3.345,1.852-6.786,2.547-10.231c0.598-2.936,0.966-5.914,1.215-8.9
				c0.224-2.743,0.091-5.549,0.041-8.303c-0.092-4.572-0.345-9.129-0.603-13.691c-0.262-6.225-0.396-12.455-0.731-18.681
				c-0.34-6.245-0.612-12.492-1.159-18.723c-0.561-6.405-1.408-12.764-2.737-19.057c-1.269-6.023-2.707-12.005-4.035-18.015
				c-0.718-3.226-1.413-6.455-2.3-9.639c-0.988-3.552-2.248-6.965-3.641-10.374c-2.491-6.092-5.407-12.13-9.302-17.45
				c-3.089-4.222-7.012-7.82-11.461-10.558c-2.861-1.764-5.921-3.087-9.168-3.929c-2.01-0.518-4.019-0.872-6.074-1.12
				c-0.634-0.078-1.283-0.106-1.931-0.106C210.36,10.278,209.044,10.394,207.794,10.49"/>
			<path id="Fill-26" fill="#000000" d="M78.142,13.752c-4.023,0.244-8,0.955-12.018,1.236c-2.147,0.087-4.289,0.207-6.423,0.523
				c-2.051,0.304-4.115,0.496-6.184,0.648c-1.168,0.009-2.335-0.014-3.499-0.036c-0.28-0.009-0.551,0-0.823,0.013
				c-1.319-0.478-2.658-0.767-4.087-1.034c-1.471-0.276-3.021-0.046-4.498,0.093c-1.848,0.17-3.683,0.808-5.393,1.507
				c-1.981,0.808-3.852,2.109-5.499,3.464c-0.629,0.52-1.189,1.135-1.77,1.713c-1.167,1.171-2.275,2.412-3.195,3.796
				c-1.734,2.605-2.308,5.361-2.956,8.347c-0.57,2.646-1.085,5.311-1.242,8.022c-0.174,3.073-0.142,6.124-0.056,9.198
				c0.171,6,0.033,12.015,0.097,18.014c0.069,6.175,0.166,12.354,0.253,18.529c0.065,4.449,0.05,8.896-0.032,13.343
				c-0.074,4.19-0.359,8.38-0.492,12.57c-0.147,4.561-0.326,9.128-0.198,13.695c0.138,5.11,0.468,10.205,0.809,15.309
				c0.258,5.99,0.34,11.978,0.492,17.978c0.083,3.373,0.243,6.755,0.542,10.117c0.272,3.064,0.755,6.088,1.316,9.111
				c0.533,2.894,1.052,5.789,1.636,8.669c0.668,3.29,1.353,6.575,2.455,9.749c0.943,2.712,2.088,5.343,3.218,7.985
				c0.484,1.13,1.003,2.247,1.531,3.359c0.764,1.608,1.765,3.087,2.718,4.59c0.653,1.033,1.319,2.039,2.041,3.023
				c1.462,2.012,3.463,3.634,5.554,4.958c1.866,1.176,3.839,2.21,5.95,2.863c1.792,0.551,3.709,0.973,5.581,1.181
				c3.104,0.34,6.391,0.357,9.484-0.084c2.934-0.427,5.835-1.029,8.75-1.584c1.406-0.269,2.816-0.52,4.227-0.758
				c-3.108-2.602-3.346-7.394-3.685-11.24c-4.106,0.701-8.186,1.64-12.335,2.05c-2.157,0.032-4.265-0.088-6.394-0.446
				c-1.107-0.289-2.184-0.634-3.232-1.099c-1.109-0.648-2.185-1.359-3.186-2.164c-0.658-0.706-1.237-1.47-1.794-2.264
				c-1.279-2.113-2.436-4.26-3.388-6.552c-1.113-2.669-2.215-5.356-3.158-8.091c-1.163-4.342-1.877-8.789-2.631-13.209
				c-0.381-2.224-0.781-4.446-1.122-6.675c-0.33-2.174-0.524-4.351-0.685-6.543c-0.216-5.923-0.152-11.845-0.17-17.767
				c-0.019-6.093-0.561-12.167-0.653-18.254c-0.051-3.593-0.023-7.153,0.07-10.747c0.078-2.968,0.266-5.94,0.432-8.908
				c0.34-6.023,0.575-12.032,0.634-18.065c0.107-10.209-0.142-20.427-0.202-30.635c-0.027-4.999-0.106-9.993-0.212-14.992
				c-0.051-2.417,0.101-4.87,0.373-7.268c0.188-1.714,0.514-3.409,0.873-5.095c0.207-0.767,0.432-1.489,0.717-2.215
				c0.294-0.432,0.607-0.841,0.933-1.235c0.773-0.744,1.555-1.443,2.414-2.072c0.552-0.289,1.104-0.547,1.678-0.776
				c0.524-0.106,1.039-0.193,1.564-0.258c0.303,0.027,0.602,0.06,0.901,0.106c0.446,0.138,0.878,0.294,1.337,0.473
				c2.166,0.841,4.543,0.427,6.377-0.813l1.186,0.013c1.701,0.005,3.416-0.174,5.113-0.316c2.313-0.197,4.598-0.625,6.92-0.805
				c2.238-0.091,4.468-0.219,6.703-0.458c1.232-0.138,2.465-0.253,3.701-0.354c-0.023-1.227,0-2.481,0.345-3.639
				c0.341-1.158,0.819-2.155,1.438-3.036c0.176-0.758,0.299-1.535,0.419-2.307c0.119-1.126,0.235-2.256,0.469-3.345
				c0.082-0.39,0.198-0.767,0.345-1.13C78.4,13.733,78.27,13.743,78.142,13.752"/>
			<path id="Fill-28" fill="#000000" d="M78.649,18.956c-0.018,0.019-0.031,0.041-0.046,0.06c0.056-0.051,0.106-0.101,0.162-0.152
				C78.728,18.897,78.686,18.924,78.649,18.956"/>
			<path id="Fill-30" fill="#000000" d="M17.203,51.705c-0.092,0.1-0.186,0.199-0.279,0.299c0.084-0.101,0.173-0.198,0.266-0.29
				C17.195,51.711,17.2,51.707,17.203,51.705 M27.502,41.979c0.622,0.033,1.231,0.094,1.85,0.18
				c1.698,0.453,3.356,1.036,5.029,1.594c1.961,0.657,3.925,1.332,5.809,2.193c0.651,0.393,1.268,0.82,1.867,1.294
				c0.539,0.587,1.033,1.199,1.498,1.844c0.567,1.007,1.055,2.031,1.48,3.107c0.175,0.713,0.314,1.422,0.42,2.149
				c-0.022,0.621-0.079,1.231-0.167,1.847c-0.228,0.715-0.492,1.401-0.799,2.081c-0.904,1.492-1.918,2.858-3.058,4.178
				c-2.048,2.078-4.282,3.916-6.697,5.562c-2.248,1.334-4.575,2.456-7.035,3.35c-2.015,0.573-4.048,0.976-6.135,1.189
				c-1.034-0.001-2.046-0.063-3.067-0.207c-0.356-0.111-0.704-0.234-1.051-0.369c-0.235-0.161-0.462-0.328-0.686-0.502
				c-0.109-0.127-0.213-0.258-0.315-0.389c-0.442-0.819-0.812-1.655-1.141-2.529c-0.624-2.275-1.014-4.555-1.276-6.909
				c-0.015-0.521-0.024-1.042-0.016-1.565c0.019-1.249,0.207-2.476,0.421-3.7c0.172-0.629,0.37-1.246,0.614-1.856
				c0.663-1.032,1.434-1.957,2.246-2.873c1.87-1.297,2.995-3.489,2.943-5.766c1.049-0.825,2.172-1.569,3.273-2.31
				c0.911-0.532,1.834-1.006,2.808-1.396C26.712,42.094,27.105,42.029,27.502,41.979 M25.406,29.542
				c-2.234,0.216-4.454,1.222-6.399,2.292c-2.732,1.508-5.2,3.465-7.61,5.427c-0.754,0.611-1.457,1.328-2.142,2.017
				c-1.205,1.198-2.404,2.402-3.604,3.606c-0.901,0.904-1.6,1.83-1.957,2.975c-1.097,1.583-1.92,3.45-2.462,5.286
				C0.405,53.961-0.005,56.989,0,59.92c0,2.087,0.239,4.186,0.479,6.254c0.17,1.451,0.569,2.89,0.915,4.309
				c0.473,1.953,1.172,3.873,1.977,5.711c0.459,1.052,1.228,2.219,1.88,3.133c0.933,1.301,2.06,2.316,3.241,3.395
				c0.892,0.818,2.198,1.456,3.26,1.957c0.891,0.418,1.751,0.726,2.703,0.993c2.28,0.639,4.579,0.868,6.938,0.803
				c4.712-0.123,9.121-1.217,13.521-2.875c3.849-1.447,7.421-3.758,10.699-6.207c1.734-1.291,3.324-2.779,4.823-4.333
				c1.71-1.774,3.329-3.611,4.694-5.665c2.543-3.827,4.23-8.399,4.004-13.034c-0.118-2.477-0.529-4.76-1.406-7.094
				c-0.851-2.248-2.014-4.195-3.338-6.203c-1.052-1.598-2.468-2.844-3.866-4.135c-1.447-1.341-3.357-2.209-5.108-3.054
				c-2.087-1.012-4.4-1.59-6.611-2.27c-2.285-0.699-4.587-1.411-6.942-1.856c-1.279-0.243-2.517-0.345-3.77-0.345
				C27.211,29.404,26.322,29.455,25.406,29.542"/>
			<path id="Fill-32" fill="#000000" d="M144.537,66.519c-3.186-1.866-4.277-6.064-2.428-9.253c0.686-1.176,1.328-2.371,1.96-3.574
				c1.139-2.169,3.498-3.322,5.856-3.321c1.186,0,2.377,0.294,3.403,0.895c1.512,0.887,2.643,2.352,3.107,4.044
				c0.502,1.815,0.181,3.574-0.68,5.209c-0.629,1.204-1.274,2.398-1.959,3.574c-1.242,2.133-3.549,3.328-5.895,3.328
				C146.749,67.42,145.585,67.131,144.537,66.519 M153.355,47.476c0-3.685,3.08-6.763,6.767-6.763c3.688,0,6.769,3.078,6.768,6.763
				c0,3.683-3.08,6.762-6.767,6.762C156.435,54.239,153.354,51.16,153.355,47.476 M112.247,50.586
				c-0.901-0.091-1.824-0.198-2.574-0.749c-0.386-0.192-0.427-1.432-0.422-1.676c0.036-1.884,0.854-3.593,2.087-4.994
				c1.595-1.807,3.835-2.74,6.211-2.941c0.185-0.014,0.383-0.024,0.584-0.024c1.003,0,2.189,0.207,2.892,0.868
				c0.345,0.327,0.387,1.012,0.383,1.438c-0.005,0.69-0.096,1.411-0.323,2.063c-0.672,1.962-1.99,4.002-3.922,4.935
				c-1.291,0.622-2.787,1.114-4.256,1.114C112.686,50.62,112.466,50.609,112.247,50.586 M128.095,36.311
				c-0.685-0.371-0.524-1.644-0.381-2.223c0.179-0.759,0.607-1.691,1.223-2.196c0.827-0.681,1.908-1.27,2.994-1.269
				c0.4,0,0.796,0.079,1.181,0.262c0.69,0.33,0.548,1.627,0.442,2.188c-0.147,0.803-0.539,1.529-1.076,2.14
				c-0.7,0.791-1.945,1.401-3.104,1.401C128.918,36.614,128.481,36.522,128.095,36.311 M172.761,20.341
				c-0.028,0.019-0.054,0.033-0.083,0.051C172.707,20.374,172.734,20.36,172.761,20.341 M100.431,41.724
				c-2.527-2.527-2.712-7.062,0-9.566c5.077-4.681,10.576-8.872,15.995-13.14c0.842-0.836,1.84-1.42,2.984-1.741
				c0.603-0.079,1.2-0.161,1.804-0.239c1.787,0,3.521,0.716,4.786,1.979c1.259,1.263,1.982,2.996,1.981,4.784
				c0.001,1.608-0.657,3.734-1.981,4.782c-5.425,4.268-10.924,8.454-15.995,13.14c-1.38,1.268-3.141,1.943-4.887,1.943
				C103.429,43.667,101.747,43.037,100.431,41.724 M155.199,1.724c-1.261,1.507-2.547,2.986-3.775,4.522
				c-1.099,1.369-2.161,2.765-3.214,4.172c-0.4-1.025-1.107-1.94-1.982-2.559c-1.438-1.02-3.319-1.287-4.979-0.731
				c0.019-0.128,0.032-0.257,0.046-0.386c0.101-1.268-0.35-2.325-0.754-3.487c-0.119-0.34-0.302-0.666-0.528-0.97
				c-0.129-0.023-0.257-0.05-0.386-0.074c-1.922-0.381-3.811-0.919-5.733-1.305c-0.4-0.018-0.795-0.022-1.191-0.008
				c-0.216,0.133-0.418,0.289-0.602,0.464c-0.626,0.575-1.251,1.144-1.858,1.728c-0.164-0.555-0.418-1.085-0.744-1.557
				c-1.563,0.395-3.122,0.836-4.661,1.232c-2.304,0.588-4.645,1.176-6.898,1.962c-0.643,0.303-1.278,0.625-1.907,0.955
				c-0.598,0.809-1.25,1.58-1.843,2.385c-1.421,1.911-2.755,3.886-4.088,5.857c-1.199,1.76-2.34,3.557-3.476,5.358
				c-1.056-0.179-2.166-0.069-3.039,0.455c-0.868,0.523-1.724,1.061-2.561,1.635c-0.478,0.409-0.924,0.846-1.333,1.318
				c-0.547,0.566-1.076,1.149-1.581,1.747c-0.681,0.781-1.343,1.58-2.009,2.374c-1.205,1.439-2.359,2.909-3.514,4.393
				c-0.919,1.176-1.742,2.43-2.561,3.676c-1.214,1.846-2.133,3.886-2.35,6.096c-0.113,1.166,0.217,2.343,0.673,3.4
				c0.068,0.166,0.165,0.34,0.275,0.514c0.075,0.423,0.129,0.846,0.171,1.282c0.046,1.595,0.046,3.194,0.184,4.788
				c0.138,1.63,0.33,3.252,0.538,4.874c0.33,2.624,0.552,5.261,0.786,7.893c-0.004,0.652-0.051,1.282-0.152,1.938
				c-0.229,0.906-0.492,1.792-0.823,2.68c-1.012,2.738,0.473,5.867,3.204,6.864c2.833,1.029,5.747-0.505,6.864-3.203
				c0.193-0.477,0.373-0.959,0.537-1.446c0.157,0.285,0.342,0.545,0.538,0.785c1.531,1.842,4.478,2.683,6.668,1.493
				c0.546-0.28,1.076-0.593,1.585-0.933c-0.026,0.05-0.05,0.106-0.077,0.156c-0.791,1.526-1.467,3.119-2.13,4.709
				c-0.868,2.076-1.604,4.185-1.833,6.437c-0.148,1.428,0.362,2.926,1.273,4.023c1.342,1.617,3.282,2.165,5.309,1.935
				c0.286-0.031,0.561-0.087,0.824-0.156c-0.773,1.76-0.198,4.066,0.984,5.491c1.236,1.489,3.425,2.411,5.36,1.948
				c0.405-0.096,0.8-0.193,1.182-0.308c-0.092,1.375,0.304,2.739,1.223,3.841c1.307,1.576,3.196,2.099,5.164,1.879
				c1.145-0.134,2.175-0.611,3.154-1.208c0.037,0.1,0.069,0.201,0.105,0.302c0.423,1.282,1.848,2.362,3.062,2.803
				c1.278,0.464,2.924,0.482,4.147-0.179c0.897-0.482,1.748-0.983,2.525-1.64c0.304-0.253,0.607-0.593,0.888-0.878
				c0.716-0.735,1.42-1.47,2.12-2.223c0.969-1.047,1.934-2.095,2.872-3.175c1.187-1.365,2.378-2.743,3.512-4.162
				c0.097,0.211,0.207,0.418,0.337,0.621c0.235,0.376,0.474,0.748,0.708,1.125c0.602,0.716,1.343,1.239,2.225,1.562
				c1.182,0.432,2.851,0.496,3.977-0.175c1.035-0.615,1.995-1.282,2.947-2.008c0.257-0.197,0.519-0.386,0.786-0.574
				c0.929-0.497,1.916-0.874,2.837-1.384c1.949-1.084,3.54-2.521,5.048-4.153c1.112-1.203,2.184-2.413,3.232-3.671
				c1.935-2.333,3.78-4.75,5.641-7.144c2.202-2.835,4.436-5.633,6.698-8.417c1.996-2.452,4.083-4.833,6.107-7.268
				c0.863-1.043,1.121-2.682,0.887-3.978c-0.244-1.333-1.017-2.545-2.125-3.336c-1.145-0.813-2.597-1.135-3.981-0.882
				c-1.42,0.258-2.432,1.038-3.338,2.118c-0.722,0.864-1.448,1.723-2.179,2.577c0.055,1.287-0.207,2.67-0.921,3.625
				c-1.806,2.393-3.705,4.723-5.451,7.158c-1.753,2.439-3.44,4.921-5.049,7.462c-1.972,3.11-5.99,4.336-9.261,2.426
				c-3.097-1.81-4.404-6.137-2.427-9.253c1.609-2.54,3.292-5.016,5.048-7.462c1.746-2.434,3.646-4.764,5.453-7.157
				c0.598-1.017,1.411-1.824,2.427-2.427c0.538-0.225,1.075-0.455,1.613-0.68c0.589-0.161,1.192-0.243,1.795-0.243
				c1.194,0,2.385,0.312,3.424,0.923c1.196,0.703,2.157,1.769,2.731,3.023c0.612-0.844,1.218-1.69,1.829-2.536
				c1.788-2.485,3.719-4.999,5.21-7.672c0.569-0.809,0.895-1.709,0.984-2.693c0.11-1.397-0.337-2.802-1.227-3.882
				c-1.555-1.865-4.406-2.495-6.562-1.415c0.111-0.537,0.221-1.075,0.337-1.604c0.174-0.803-0.171-2.435-0.511-3.155
				c-0.477-1.034-1.237-1.682-2.096-2.381c-0.727-0.588-2.212-0.996-3.123-1.07l-0.031,0c1.503-3.538,2.768-7.19,3.558-10.943
				c0.074-0.966-0.097-1.889-0.501-2.766c-0.658-1.415-1.734-2.196-3.104-2.844c-0.675-0.318-1.415-0.4-2.141-0.557
				c-0.782-0.164-1.61,0.055-2.373,0.34c0.28-0.735,0.557-1.479,0.828-2.219c0.161-0.441,0.327-0.886,0.487-1.332
				c-0.644-0.088-1.288-0.179-1.925-0.28c-0.313-0.079-0.632-0.156-0.948-0.24c-2.308-0.794-4.524-1.801-6.56-3.151
				c-1.2-0.795-2.35-1.645-3.526-2.472c-0.088-0.06-0.17-0.12-0.258-0.185C155.681,1.145,155.443,1.435,155.199,1.724"/>
			<path id="Fill-34" fill="#000000" d="M104.044,71.378c0.076,0.071,0.151,0.141,0.228,0.212c-0.004,0.003-0.007,0.008-0.01,0.012
				C104.191,71.527,104.118,71.453,104.044,71.378 M100.69,60.286c-0.083,1.26-0.126,2.505-0.138,3.75
				c-1.766-0.047-3.672,0.847-4.695,2.278c-1.042,1.475-1.286,3.285-1.3,5.036c-0.006,0.801,0.045,1.61,0.155,2.408
				c-0.179,0.457-0.296,0.951-0.339,1.479c-0.069,0.602-0.06,1.204,0.032,1.805c0.179,0.657,0.372,1.31,0.543,1.966
				c0.402,1.52,0.93,3.018,1.433,4.509c-0.387,0.647-0.64,1.366-0.671,2.149c-0.046,1.176,0.051,2.234,0.396,3.349
				c0.294,0.952,0.616,1.801,1.072,2.683c0.341,0.542,0.68,1.089,1.026,1.627c0.371,0.552,0.832,1.02,1.369,1.415
				c0.545,0.502,1.175,0.892,1.849,1.167c0.012,0.014,0.024,0.028,0.036,0.042c0.63,0.748,1.191,1.553,1.77,2.343
				c0.791,1.089,1.766,1.787,3.007,2.288c0.887,0.322,1.793,0.395,2.722,0.229c0.754-0.138,2.17-0.702,2.722-1.276
				c0.405-0.419,0.809-0.846,1.199-1.282c0.465-0.799,0.902-1.6,1.247-2.458c0.359-0.901,0.579-1.838,0.818-2.771
				c0.492-1.897,0.74-3.758,0.809-5.705c0.037-1.121,0.028-2.242,0.064-3.364c0.028-1.015,0.088-2.025,0.106-3.042
				c0.046-2.259,0.11-4.69-1.591-6.44c-0.589-0.703-1.314-1.218-2.18-1.535c-0.6-0.217-1.234-0.317-1.863-0.302
				c0.291-0.747,0.44-1.544,0.53-2.357c0.096-0.906-0.059-1.848-0.105-2.757c-0.014-0.227-0.027-0.453-0.042-0.678
				c-0.057-1.92-0.006-3.821,0.119-5.745c0.18-2.752-1.861-5.228-4.643-5.454c-0.13-0.01-0.258-0.016-0.386-0.016
				C103.185,55.626,100.865,57.664,100.69,60.286"/>
			<path id="Fill-36" fill="#000000" d="M151.995,74.926c-0.125,0.092-0.258,0.177-0.397,0.252
				C151.73,75.093,151.863,75.009,151.995,74.926 M147.293,45.371c0.041,0.066,0.083,0.131,0.127,0.196
				c-0.062,0.137-0.124,0.275-0.188,0.414c-0.054-0.078-0.109-0.153-0.165-0.225C147.142,45.628,147.218,45.499,147.293,45.371
				 M156.996,29.611c-1.136,0.05-2.267,0.106-3.319,0.615c-0.616,0.272-1.196,0.607-1.743,1.007
				c-0.134,0.126-0.263,0.257-0.389,0.389c-0.657-0.157-1.336-0.255-1.974-0.362c-0.681-0.06-1.365-0.046-2.046,0.032
				c-0.915,0.092-1.945,0.328-2.781,0.718c-2.019,0.937-3.288,2.729-4.404,4.567c-1.113,1.823-2.212,3.656-3.316,5.486
				c-0.404,0.664-0.816,1.324-1.225,1.985c-0.057,0.011-0.112,0.023-0.167,0.035c-0.589,0.134-1.164,0.308-1.725,0.52
				c-0.533,0.321-1.063,0.661-1.577,1.01c-0.308,0.335-0.62,0.67-0.934,1.002c-0.418,0.4-0.777,0.844-1.07,1.341
				c-0.613,0.869-1.156,1.783-1.707,2.688c-1.291,2.127-2.468,4.383-3.117,6.791c-0.276,1.029-0.45,2.04-0.496,3.097
				c-0.06,1.437,0.253,2.729,0.855,4.02c1.273,2.738,4.861,3.974,7.582,2.705c0.847-0.395,1.517-0.99,2.101-1.672
				c-0.015,1.321,0.019,2.641,0.231,3.946c0.188,1.157,0.745,2.22,1.375,3.175c0.386,0.583,0.837,1.011,1.334,1.503
				c0.615,0.74,1.375,1.272,2.279,1.608c1.238,0.45,2.902,0.487,4.083-0.18c0.735-0.417,1.517-0.812,2.197-1.318l0.062-0.048
				c-0.041,0.274-0.08,0.547-0.118,0.821l-0.068,0.854c0.019,0.735,0.047,1.47,0.097,2.201c0.404,2.031,1.241,4.048,2.956,5.325
				c0.525,0.432,1.103,0.772,1.738,1.02c0.997,0.362,2.431,0.427,3.476,0.234c1.512-0.275,2.984-1.084,4.092-2.127
				c0.937-0.879,1.756-1.882,2.453-2.965c0.329-0.176,0.64-0.371,0.94-0.586c0.104,0.146,0.211,0.292,0.322,0.436
				c0.611,0.731,1.366,1.258,2.262,1.59c0.575,0.325,1.2,0.504,1.88,0.542c1.121,0.032,2.148,0.022,3.19-0.465
				c0.874-0.405,1.922-1.268,2.464-2.058c0.671-0.969,1.269-1.962,1.853-2.987c1.881-3.294,3.633-6.754,5.035-10.282
				c0.68-1.718,1.052-3.533,1.443-5.333c0.497-2.316,0.29-4.83-0.014-7.154c-0.123-0.975-0.413-1.921-0.702-2.858
				c-0.345-1.111-0.709-2.205-1.173-3.271c-0.359-0.832-0.925-1.576-1.458-2.302c-0.639-0.874-1.687-1.457-2.597-1.995
				c-0.791-0.555-1.674-0.877-2.639-0.96c-0.914-0.073-2.095,0.112-3.001,0.603c-0.042-0.634-0.103-1.265-0.175-1.89
				c-0.171-1.484-0.685-2.926-1.182-4.328c-0.386-1.088-1.141-2.136-1.872-3.013c-0.501-0.478-1.011-0.942-1.521-1.406
				c-0.611-0.551-1.737-1.149-2.456-1.428c-1.089-0.429-2.243-0.644-3.401-0.822c-0.386-0.067-0.774-0.1-1.159-0.1
				C157.512,29.566,157.254,29.58,156.996,29.611"/>
		</g>
	</g>
</g>
</svg>
