<?xml version="1.0" encoding="UTF-8"?>
<svg width="800px" height="1000px" viewBox="0 0 800 1000" version="1.1" xmlns="http://www.w3.org/2000/svg" xmlns:xlink="http://www.w3.org/1999/xlink">
    <!-- Generator: Sketch 51.1 (57501) - http://www.bohemiancoding.com/sketch -->
    <title>astronaut_DL</title>
    <desc>Created with Sketch.</desc>
    <defs></defs>
    <g id="astronaut_DL" stroke="none" stroke-width="1" fill="none" fill-rule="evenodd">
        <g id="logo-footer" transform="translate(441.000000, 752.000000)">
            <g>
                <path d="M110.812545,8.25651402 C110.904572,8.56348079 110.810146,8.81874549 110.573746,9.09365441 C110.548096,9.12348237 110.524607,9.14951827 110.482164,9.19539003 C110.410296,9.27306357 110.388406,9.29969141 110.394575,9.28699974 C110.158488,9.77253772 109.949286,10.3963755 109.78094,11.1092981 C109.323962,13.0450464 110.241419,14.6677006 112.137009,15.2172501 C114.194676,15.8138908 116.608374,14.6870388 117.500673,12.7424366 C118.556971,10.4412591 118.361229,8.87677042 116.832238,7.67717368 C114.960938,6.20902274 112.357851,6.27012948 111.072216,7.83985899 L110.795491,8.1777337 C110.794947,8.20051389 110.804056,8.228204 110.812545,8.25651402 Z M110.106083,6.26944954 C110.423589,5.88663707 110.955421,5.49967933 111.419965,5.30848582 C112.37958,4.91358991 113.68037,4.90617957 115.133698,5.23840657 C117.932917,5.87841333 120.108577,8.22064492 119.995807,10.6570534 C119.760531,15.7499925 113.426094,19.0246323 109.732148,15.5763745 C107.943744,13.9068501 107.553768,11.8021869 108.499361,9.2850154 C108.62423,8.95356867 108.851111,8.49010331 109.049811,8.18524994 C109.270059,7.84733807 109.481086,7.64146186 109.750777,7.55562368 C109.778602,7.54676715 109.806094,7.5393618 109.833231,7.53336632 C109.647627,7.16965375 109.747904,6.70130236 110.106083,6.26944954 Z" id="Fill-4" fill="#000000" fill-rule="nonzero"></path>
                <path d="M116,2.36382675 C116.035222,2.23410526 116.077249,2.03952302 116.14169,1.8509661 C116.280178,1.44230796 116.378641,1.03435869 116.377039,0.600890425 C116.376639,0.410561355 116.256963,0.110004457 116.623996,0.0412449782 C116.938196,-0.017590452 117.272408,-0.0501980398 117.512961,0.20711836 C117.655051,0.358460099 117.796741,0.518308165 117.8896,0.694814455 C118.216208,1.3175485 117.776729,2.53572545 117.114308,2.89086461 C116.612389,3.15987721 116.012808,2.911776 116,2.36382675" id="Fill-103" fill="#000000" fill-rule="nonzero"></path>
                <path d="M113.597281,1.30015424 C113.547641,1.6054057 113.484683,1.90995301 113.451993,2.21696486 C113.409214,2.61727733 113.068594,2.79366831 112.724342,2.93802021 C112.426905,3.06335991 112.146418,3.01090032 112.073774,2.6669203 C111.908307,1.88389925 112.059649,1.1040469 112.154086,0.329475719 C112.197269,-0.0278832593 112.773982,-0.106396611 113.167067,0.152380579 C113.512933,0.380527 113.619074,0.676272361 113.597281,1.30015424" id="Fill-107" fill="#000000" fill-rule="nonzero"></path>
                <path d="M112.19066,11.6823452 C110.632914,12.6206952 108.591708,13.9682577 107.051494,14.9237702 C106.603919,15.2015633 106.260092,15.3386205 105.847581,15.6483439 C105.453117,15.9444969 105.00264,16.1407116 104.673147,15.8744932 C104.334372,15.6006913 103.968388,15.4738054 104.253536,15.0032335 C104.507231,14.584149 104.804932,14.5525935 105.343775,14.3418539 C106.408054,13.9255633 108.032176,12.8044553 108.976827,12.2352987 C109.267132,12.0600815 109.780582,11.6912496 110.031699,11.4841022 C110.690685,10.9400907 110.546085,10.7856194 109.803565,10.2635599 C108.494872,9.34277154 106.87805,8.31351987 105.559045,7.40151231 C105.221301,7.16842154 104.87376,6.94291422 104.554064,6.69585398 C103.681603,6.022525 103.837029,5.29651112 105.037953,5.02270928 C105.314335,4.95964705 105.519044,5.02949445 105.664454,5.21269422 C106.875175,6.74015718 109.059218,7.93310366 110.770108,9.0590438 C111.354328,9.44340412 111.803432,9.85804585 112.62433,10.0292717 C113.067264,10.1214703 112.94712,10.4970498 112.994043,10.9392837 C113.057467,11.2214672 112.602656,11.4340876 112.19066,11.6823452 Z" id="chevron" fill="#000000" fill-rule="nonzero" transform="translate(108.500000, 10.500000) rotate(-2.000000) translate(-108.500000, -10.500000) "></path>
                <path d="M4.80555555,7.71270718 L2.78703703,7.71270718 L2.78703703,12.9005525 L2.01851852,12.9005525 L2.01851852,7.71270718 L0,7.71270718 L0,7.09944751 L4.80555555,7.09944751 L4.80555555,7.71270718 Z M9.97657951,10.2403315 L6.8654684,10.2403315 L6.8654684,12.9005525 L6.09694989,12.9005525 L6.09694989,7.09944751 L6.8654684,7.09944751 L6.8654684,9.62707182 L9.97657951,9.62707182 L9.97657951,7.09944751 L10.745098,7.09944751 L10.745098,12.9005525 L9.97657951,12.9005525 L9.97657951,10.2403315 Z M12.6568627,7.09944751 L16.1846405,7.09944751 L16.1846405,7.71270718 L13.4253813,7.71270718 L13.4253813,9.61049724 L15.953159,9.61049724 L15.953159,10.2237569 L13.4253813,10.2237569 L13.4253813,12.2872928 L16.2309368,12.2872928 L16.2309368,12.9005525 L12.6568627,12.9005525 L12.6568627,7.09944751 Z M20.7674291,7.09944751 C20.8847137,7.08287284 21.0158852,7.07044203 21.1609477,7.0621547 C21.3060102,7.05386736 21.4572432,7.04834254 21.6146514,7.04558011 C21.7720596,7.04281768 21.926379,7.04005525 22.0776143,7.03729282 C22.2288497,7.03453039 22.3692805,7.03314917 22.4989106,7.03314917 C23.0174317,7.03314917 23.4665011,7.10497164 23.8461328,7.24861878 C24.2257645,7.39226593 24.539033,7.59254015 24.7859476,7.84944751 C25.0328623,8.10635488 25.2165027,8.41436285 25.3368736,8.77348066 C25.4572445,9.13259848 25.5174291,9.52762215 25.5174291,9.95856354 C25.5174291,10.3508307 25.4603309,10.7278988 25.3461328,11.089779 C25.2319348,11.4516593 25.0513808,11.7720981 24.8044662,12.051105 C24.5575516,12.3301119 24.236567,12.5538666 23.8415032,12.7223757 C23.4464394,12.8908848 22.9680495,12.9751381 22.406318,12.9751381 C22.3075521,12.9751381 22.179467,12.9737569 22.0220588,12.9709945 C21.8646506,12.968232 21.7026152,12.9627072 21.5359477,12.9544199 C21.3692802,12.9461326 21.2149607,12.9392266 21.0729847,12.9337017 C20.9310087,12.9281767 20.8291578,12.9198895 20.7674291,12.9088398 L20.7674291,7.09944751 Z M22.5174291,7.64640884 L22.2535402,7.64640884 C22.1578608,7.64640884 22.0637259,7.64917122 21.9711328,7.65469613 C21.8785398,7.66022104 21.7936641,7.66574581 21.7165032,7.67127072 C21.6393424,7.67679563 21.5791578,7.6823204 21.5359477,7.6878453 L21.5359477,12.3287293 C21.566812,12.3342542 21.6254534,12.3383978 21.7118736,12.3411602 C21.7982938,12.3439227 21.887799,12.3466851 21.9803921,12.3494475 C22.0729851,12.3522099 22.1624904,12.3549724 22.2489106,12.3577348 C22.3353309,12.3604972 22.3939723,12.3618785 22.4248365,12.3618785 C22.8569374,12.3618785 23.2195881,12.2955808 23.5127995,12.1629834 C23.8060109,12.0303861 24.0405762,11.852211 24.2165032,11.628453 C24.3924302,11.404695 24.5174286,11.1477915 24.5915032,10.8577348 C24.6655778,10.5676781 24.7026143,10.2679574 24.7026143,9.95856354 C24.7026143,9.68784397 24.6686642,9.41574724 24.6007625,9.14226519 C24.5328607,8.86878315 24.4155783,8.62154807 24.2489106,8.40055249 C24.0822429,8.17955691 23.8584801,7.99861948 23.5776143,7.85773481 C23.2967486,7.71685014 22.9433571,7.64640884 22.5174291,7.64640884 Z M26.892157,10 C26.892157,9.03314434 27.1205495,8.29143904 27.5773422,7.77486188 C28.0341344,7.25828471 28.6853622,7 29.5310459,7 C29.9878381,7 30.3828957,7.07182247 30.7162311,7.21546961 C31.0495659,7.35911676 31.3257979,7.56215336 31.5449348,7.82458564 C31.7640716,8.08701791 31.9261071,8.40193186 32.0310459,8.76933702 C32.1359847,9.13674217 32.1884533,9.54695907 32.1884533,10 C32.1884533,10.9668557 31.9585171,11.708561 31.4986385,12.2251381 C31.0387594,12.7417153 30.3829019,13 29.5310459,13 C29.080426,13 28.6899981,12.9281775 28.3597496,12.7845304 C28.0295006,12.6408832 27.7548124,12.4378466 27.5356755,12.1754144 C27.3165387,11.9129821 27.1545032,11.5980681 27.0495644,11.230663 C26.9446256,10.8632578 26.892157,10.4530409 26.892157,10 Z M27.7069718,10 C27.7069718,10.3204436 27.7424651,10.624308 27.8134533,10.9116022 C27.884441,11.1988965 27.9940078,11.4516564 28.142157,11.6698895 C28.2903057,11.8881227 28.4801184,12.0621541 28.7116014,12.191989 C28.943084,12.3218238 29.2162295,12.3867403 29.5310459,12.3867403 C30.1051225,12.3867403 30.5557352,12.1919909 30.8828977,11.8024862 C31.2100598,11.4129815 31.3736385,10.8121587 31.3736385,10 C31.3736385,9.68508131 31.3381447,9.38259816 31.267157,9.09254144 C31.1961688,8.80248476 31.0850587,8.54834365 30.9338237,8.3301105 C30.7825881,8.11187735 30.5912321,7.93784595 30.3597496,7.80801105 C30.1282666,7.67817615 29.8520351,7.61325967 29.5310459,7.61325967 C28.9631416,7.61325967 28.5171585,7.80800912 28.1930829,8.19751381 C27.8690068,8.58701851 27.7069718,9.18784125 27.7069718,10 Z M33.5631807,10 C33.5631807,9.03314434 33.7915737,8.29143904 34.2483658,7.77486188 C34.7051585,7.25828471 35.3563864,7 36.2020695,7 C36.6588622,7 37.0539198,7.07182247 37.3872547,7.21546961 C37.7205896,7.35911676 37.9968216,7.56215336 38.2159584,7.82458564 C38.4350953,8.08701791 38.5971308,8.40193186 38.7020695,8.76933702 C38.8070083,9.13674217 38.8594769,9.54695907 38.8594769,10 C38.8594769,10.9668557 38.6295412,11.708561 38.1696621,12.2251381 C37.7097835,12.7417153 37.053926,13 36.2020695,13 C35.7514502,13 35.3610217,12.9281775 35.0307732,12.7845304 C34.7005248,12.6408832 34.425836,12.4378466 34.2066992,12.1754144 C33.9875623,11.9129821 33.8255268,11.5980681 33.7205881,11.230663 C33.6156493,10.8632578 33.5631807,10.4530409 33.5631807,10 Z M34.3779955,10 C34.3779955,10.3204436 34.4134893,10.624308 34.484477,10.9116022 C34.5554651,11.1988965 34.665032,11.4516564 34.8131807,11.6698895 C34.9613298,11.8881227 35.1511426,12.0621541 35.3826251,12.191989 C35.6141076,12.3218238 35.8872532,12.3867403 36.2020695,12.3867403 C36.7761467,12.3867403 37.2267594,12.1919909 37.5539214,11.8024862 C37.8810834,11.4129815 38.0446621,10.8121587 38.0446621,10 C38.0446621,9.68508131 38.0091688,9.38259816 37.9381806,9.09254144 C37.867193,8.80248476 37.7560829,8.54834365 37.6048473,8.3301105 C37.4536122,8.11187735 37.2622558,7.93784595 37.0307732,7.80801105 C36.7992907,7.67817615 36.5230587,7.61325967 36.2020695,7.61325967 C35.6341657,7.61325967 35.1881822,7.80800912 34.8641066,8.19751381 C34.540031,8.58701851 34.3779955,9.18784125 34.3779955,10 Z M40.5027233,7.09944751 C40.6200078,7.08287284 40.7511791,7.07044203 40.8962419,7.0621547 C41.0413041,7.05386736 41.1925371,7.04834254 41.3499456,7.04558011 C41.5073535,7.04281768 41.6616729,7.04005525 41.8129085,7.03729282 C41.9641436,7.03453039 42.1045747,7.03314917 42.2342048,7.03314917 C42.7527259,7.03314917 43.2017954,7.10497164 43.581427,7.24861878 C43.9610587,7.39226593 44.2743267,7.59254015 44.5212419,7.84944751 C44.7681565,8.10635488 44.9517969,8.41436285 45.0721678,8.77348066 C45.1925387,9.13259848 45.2527233,9.52762215 45.2527233,9.95856354 C45.2527233,10.3508307 45.1956251,10.7278988 45.081427,11.089779 C44.967229,11.4516593 44.786675,11.7720981 44.5397604,12.051105 C44.2928452,12.3301119 43.9718612,12.5538666 43.5767974,12.7223757 C43.1817336,12.8908848 42.7033432,12.9751381 42.1416122,12.9751381 C42.0428463,12.9751381 41.9147609,12.9737569 41.757353,12.9709945 C41.5999445,12.968232 41.437909,12.9627072 41.2712419,12.9544199 C41.1045742,12.9461326 40.9502547,12.9392266 40.8082789,12.9337017 C40.6663026,12.9281767 40.5644517,12.9198895 40.5027233,12.9088398 L40.5027233,7.09944751 Z M42.2527233,7.64640884 L41.9888344,7.64640884 C41.8931549,7.64640884 41.7990201,7.64917122 41.706427,7.65469613 C41.6138339,7.66022104 41.5289584,7.66574581 41.4517974,7.67127072 C41.3746364,7.67679563 41.3144517,7.6823204 41.2712419,7.6878453 L41.2712419,12.3287293 C41.3021061,12.3342542 41.3607475,12.3383978 41.4471678,12.3411602 C41.533588,12.3439227 41.6230932,12.3466851 41.7156863,12.3494475 C41.8082794,12.3522099 41.8977846,12.3549724 41.9842048,12.3577348 C42.0706251,12.3604972 42.1292665,12.3618785 42.1601307,12.3618785 C42.5922316,12.3618785 42.9548823,12.2955808 43.2480937,12.1629834 C43.5413051,12.0303861 43.7758705,11.852211 43.9517974,11.628453 C44.1277244,11.404695 44.2527228,11.1477915 44.3267974,10.8577348 C44.400872,10.5676781 44.4379085,10.2679574 44.4379085,9.95856354 C44.4379085,9.68784397 44.4039584,9.41574724 44.3360567,9.14226519 C44.2681549,8.86878315 44.150872,8.62154807 43.9842048,8.40055249 C43.8175371,8.17955691 43.5937743,7.99861948 43.3129085,7.85773481 C43.0320428,7.71685014 42.6786513,7.64640884 42.2527233,7.64640884 Z M50.7293025,12.9005525 L46.8959692,12.9005525 L46.8959692,7.09944751 L47.6644877,7.09944751 L47.6644877,12.2872928 L50.7293025,12.2872928 L50.7293025,12.9005525 Z M52.0206971,7.09944751 L55.5484749,7.09944751 L55.5484749,7.71270718 L52.7892156,7.71270718 L52.7892156,9.61049724 L55.3169934,9.61049724 L55.3169934,10.2237569 L52.7892156,10.2237569 L52.7892156,12.2872928 L55.5947712,12.2872928 L55.5947712,12.9005525 L52.0206971,12.9005525 L52.0206971,7.09944751 Z M63.9645968,12.9005525 L60.1312634,12.9005525 L60.1312634,7.09944751 L60.8997819,7.09944751 L60.8997819,12.2872928 L63.9645968,12.2872928 L63.9645968,12.9005525 Z M65.4319172,7.09944751 L66.2004357,7.09944751 L66.2004357,12.9005525 L65.4319172,12.9005525 L65.4319172,7.09944751 Z M72.1955335,8.42541436 C72.1955335,8.5635366 72.1708426,8.70441915 72.1214594,8.8480663 C72.0720767,8.99171344 71.9980031,9.12569001 71.8992372,9.25 C71.8004712,9.37431004 71.6739296,9.48342495 71.5196075,9.57734807 C71.365286,9.67127118 71.1831888,9.74309369 70.9733113,9.79281768 L70.9733113,9.82596685 C71.1584975,9.8535913 71.3359651,9.90055216 71.5057187,9.96685083 C71.6754728,10.0331495 71.8251626,10.1243088 71.9547927,10.2403315 C72.0844234,10.3563542 72.1893606,10.4972367 72.2696075,10.6629834 C72.349855,10.8287301 72.3899779,11.0248607 72.3899779,11.2513812 C72.3899779,11.5497252 72.3205345,11.8080099 72.1816446,12.0262431 C72.0427552,12.2444762 71.8606585,12.4226512 71.6353483,12.5607735 C71.4100386,12.6988957 71.1523251,12.8011047 70.8622001,12.8674033 C70.5720757,12.933702 70.2757819,12.9668508 69.9733113,12.9668508 L69.6029409,12.9668508 C69.4609651,12.9668508 69.3128185,12.9627072 69.1584964,12.9544199 C69.0041749,12.9461326 68.8498555,12.935083 68.6955335,12.9212707 C68.541212,12.9074585 68.4054111,12.8867405 68.2881261,12.859116 L68.2881261,7.14917127 C68.5165227,7.11602192 68.7819517,7.08839788 69.0844224,7.06629834 C69.386893,7.0441988 69.7171369,7.03314917 70.0751631,7.03314917 C70.3159054,7.03314917 70.5612732,7.05110479 70.8112742,7.08701657 C71.0612758,7.12292836 71.288125,7.19198844 71.4918298,7.2941989 C71.6955345,7.39640935 71.8637428,7.53867311 71.9964594,7.72099448 C72.1291765,7.90331584 72.1955335,8.13812012 72.1955335,8.42541436 Z M70.0473853,12.3701657 C70.2449172,12.3701657 70.4362737,12.3494477 70.6214594,12.308011 C70.8066456,12.2665744 70.9702243,12.2002767 71.1122001,12.109116 C71.2541765,12.0179553 71.3668298,11.906078 71.4501631,11.7734807 C71.533497,11.6408833 71.5751631,11.4834263 71.5751631,11.301105 C71.5751631,11.0745845 71.5242377,10.8922659 71.4223853,10.7541436 C71.320533,10.6160214 71.1878185,10.5082877 71.0242372,10.4309392 C70.8606564,10.3535908 70.677016,10.3011051 70.4733113,10.2734807 C70.2696065,10.2458562 70.0659049,10.2320442 69.8622001,10.2320442 L69.0566446,10.2320442 L69.0566446,12.3121547 C69.099855,12.3232045 69.1615829,12.3314917 69.2418298,12.3370166 C69.3220772,12.3425415 69.4084964,12.3480663 69.501089,12.3535912 C69.5936821,12.3591161 69.6893601,12.3632597 69.7881261,12.3660221 C69.886892,12.3687845 69.9733113,12.3701657 70.0473853,12.3701657 Z M69.5381261,9.6519337 C69.6430649,9.6519337 69.769607,9.64917132 69.9177557,9.64364641 C70.0659049,9.6381215 70.1893601,9.6298343 70.2881261,9.61878453 C70.4362752,9.57458541 70.5751626,9.52071855 70.7047927,9.45718232 C70.8344234,9.39364609 70.9501626,9.31906119 71.052015,9.23342541 C71.1538673,9.14778964 71.2341137,9.04834309 71.2927557,8.93508287 C71.3513982,8.82182265 71.3807187,8.69889567 71.3807187,8.56629834 C71.3807187,8.38397698 71.3421389,8.23342601 71.2649779,8.11464088 C71.1878174,7.99585576 71.0844234,7.90055285 70.9547927,7.82872928 C70.8251626,7.75690571 70.677016,7.70580124 70.5103483,7.67541436 C70.3436811,7.64502749 70.1739296,7.62983425 70.001089,7.62983425 C69.7973843,7.62983425 69.610658,7.63397785 69.4409038,7.64226519 C69.2711502,7.65055253 69.1430649,7.66298333 69.0566446,7.67955801 L69.0566446,9.6519337 L69.5381261,9.6519337 Z M74.0332243,7.15745856 C74.2677932,7.11878435 74.5378524,7.08839788 74.8434095,7.06629834 C75.1489666,7.0441988 75.428285,7.03314917 75.6813725,7.03314917 C75.9653246,7.03314917 76.2353838,7.0607732 76.4915576,7.1160221 C76.747732,7.17127099 76.9730381,7.26243029 77.1674836,7.38950276 C77.361929,7.51657523 77.5177917,7.68231943 77.6350762,7.88674033 C77.7523606,8.09116123 77.8110021,8.33977753 77.8110021,8.63259669 C77.8110021,9.08563762 77.6721147,9.45303725 77.3943354,9.73480663 C77.1165561,10.016576 76.7647078,10.2044194 76.3387799,10.2983425 L76.7832243,10.6049724 L78.3943354,12.9005525 L77.4961873,12.9005525 L75.7091502,10.3977901 L74.8017428,10.2734807 L74.8017428,12.9005525 L74.0332243,12.9005525 L74.0332243,7.15745856 Z M75.699891,7.62983425 L75.449891,7.62983425 C75.3634707,7.62983425 75.2801384,7.63259664 75.199891,7.63812155 C75.1196436,7.64364645 75.0440273,7.64917122 74.9730391,7.65469613 C74.902051,7.66022104 74.8449527,7.66850824 74.8017428,7.67955801 L74.8017428,9.81767956 L75.5239651,9.81767956 C75.949893,9.81767956 76.3017413,9.72375783 76.5795206,9.5359116 C76.8572999,9.34806538 76.9961873,9.0552506 76.9961873,8.65745856 C76.9961873,8.35911455 76.8819908,8.11326064 76.6535947,7.9198895 C76.4251986,7.72651837 76.1073004,7.62983425 75.699891,7.62983425 Z M82.722767,11.2928177 L80.3338781,11.2928177 L79.68573,12.9005525 L78.9264707,12.9005525 L81.3801744,7.00828729 L81.7320263,7.00828729 L84.1949892,12.9005525 L83.3894337,12.9005525 L82.722767,11.2928177 Z M80.5838781,10.6961326 L82.4912855,10.6961326 L81.7690633,8.93093923 L81.5375818,8.05248619 L81.5283226,8.05248619 L81.2968411,8.94751381 L80.5838781,10.6961326 Z M85.3937907,7.15745856 C85.6283596,7.11878435 85.8984187,7.08839788 86.2039758,7.06629834 C86.5095329,7.0441988 86.7888514,7.03314917 87.0419388,7.03314917 C87.325891,7.03314917 87.5959501,7.0607732 87.852124,7.1160221 C88.1082984,7.17127099 88.3336044,7.26243029 88.5280499,7.38950276 C88.7224954,7.51657523 88.878358,7.68231943 88.9956425,7.88674033 C89.112927,8.09116123 89.1715684,8.33977753 89.1715684,8.63259669 C89.1715684,9.08563762 89.0326811,9.45303725 88.7549018,9.73480663 C88.477123,10.016576 88.1252742,10.2044194 87.6993462,10.2983425 L88.1437906,10.6049724 L89.7549018,12.9005525 L88.8567536,12.9005525 L87.0697166,10.3977901 L86.1623092,10.2734807 L86.1623092,12.9005525 L85.3937907,12.9005525 L85.3937907,7.15745856 Z M87.0604573,7.62983425 L86.8104573,7.62983425 C86.7240371,7.62983425 86.6407047,7.63259664 86.5604573,7.63812155 C86.4802099,7.64364645 86.4045936,7.64917122 86.3336055,7.65469613 C86.2626178,7.66022104 86.2055196,7.66850824 86.1623092,7.67955801 L86.1623092,9.81767956 L86.8845314,9.81767956 C87.3104594,9.81767956 87.6623081,9.72375783 87.9400869,9.5359116 C88.2178663,9.34806538 88.3567536,9.0552506 88.3567536,8.65745856 C88.3567536,8.35911455 88.2425571,8.11326064 88.014161,7.9198895 C87.7857649,7.72651837 87.4678668,7.62983425 87.0604573,7.62983425 Z M92.1111111,10.5966851 L89.9722222,7.09944751 L90.8703704,7.09944751 L92.3888889,9.63535912 L92.5462963,10.140884 L92.5555556,10.140884 L92.7222222,9.61878453 L94.1759259,7.09944751 L95,7.09944751 L92.8796296,10.5883978 L92.8796296,12.9005525 L92.1111111,12.9005525 L92.1111111,10.5966851 Z" id="the-Doodle-Library" fill="#666666" fill-rule="nonzero" opacity="0.595278533"></path>
            </g>
        </g>
        <g id="astronaut" transform="translate(399.500000, 433.000000) rotate(26.000000) translate(-399.500000, -433.000000) translate(267.000000, 248.000000)">
            <path d="M76.8007813,50.0390625 C70.8476563,24.9192708 74.7161458,12.359375 88.40625,12.359375 C108.941406,12.359375 187.332031,-4.078125 195.777344,6.82421875 C201.407552,14.0924479 205.609375,26.7265625 208.382813,44.7265625 C236.208333,32.5546875 250.121094,32.5546875 250.121094,44.7265625 C250.121094,62.984375 276.332031,204.886719 258.070313,212.457031 C245.895833,217.503906 236.393229,221.772135 229.5625,225.261719 L195.777344,350.671875 L76.8007813,362.289062 L95.140625,350.671875 L46.6953125,245.179688 C42.0520833,254.690104 37.4648438,254.690104 32.9335938,245.179688 C26.1367188,230.914063 5.4765625,55.3515625 26.0859375,50.0390625 C39.8255208,46.4973958 56.7304688,46.4973958 76.8007813,50.0390625 Z" id="Path-3" fill="#FFFFFF"></path>
            <g id="Group-21" transform="translate(40.000000, 0.000000)" fill="#2C2C2C">
                <path d="M123.021564,132.867989 C122.821387,132.878589 122.622387,132.889189 122.422209,132.898611 C122.622387,132.889189 122.822564,132.878589 123.021564,132.867989 Z M145.875949,126.563344 C145.760553,126.636367 145.645156,126.709389 145.528582,126.782411 C145.645156,126.709389 145.760553,126.636367 145.875949,126.563344 Z M129.919446,14.0125444 C133.022198,13.9301 136.156742,13.8888778 139.233588,14.3317222 C140.853849,14.7733889 142.391683,15.3505 143.915387,16.0630556 C145.015186,16.7214333 146.061996,17.4175 147.059351,18.2266333 C148.693742,19.8943667 150.13031,21.7234556 151.471499,23.6302778 C154.429417,28.5698778 156.829192,33.8745889 158.694375,39.3147444 C160.180399,44.7231 161.406192,50.2669 162.10328,55.8330778 C162.776819,61.1966778 163.247825,66.5803 163.551624,71.9792333 C163.709411,76.4500778 163.791837,80.9032556 163.621097,85.3788111 C163.4586,89.6941889 162.63905,94.0013222 161.781819,98.2330778 C161.300215,100.354256 160.799772,102.4719 160.158026,104.5495 C159.523346,106.602367 158.681422,108.544522 157.742943,110.4643 C156.594866,112.545433 155.384381,114.581811 154.09147,116.5805 C152.5136,119.017322 150.993428,121.528344 149.147085,123.776722 C147.730535,125.131167 146.184458,126.260656 144.571263,127.384256 C144.366375,127.513811 144.162665,127.642189 143.957778,127.769389 C142.719032,128.549078 141.406103,129.1309 140.041363,129.626744 C137.032813,130.501833 133.964209,131.228522 130.913269,131.932833 C128.606517,132.467544 126.233825,132.6819 123.869375,132.820878 C119.424257,132.9575 115.015641,133.118856 110.610559,133.781944 C108.614671,134.085811 106.645866,134.546322 104.648801,134.8549 C102.546937,135.181144 100.440363,135.502678 98.3243692,135.760611 C96.3838249,135.994989 94.4338604,136.115122 92.4921385,136.373056 C90.2890083,136.6675 88.1000083,137.058522 85.8968781,137.334122 C83.5877716,137.623856 81.2833751,137.941856 78.9872213,138.318744 C77.1043751,138.630856 75.2321266,138.953567 73.3351503,139.164389 C72.678097,139.1797 72.0233988,139.182056 71.3616355,139.151433 C70.6139136,139.119633 69.8709018,138.992433 69.1337775,138.845211 C68.2435763,138.606122 67.3686828,138.354078 66.4855467,138.074944 C65.4740615,137.752233 64.5084994,137.269344 63.5146769,136.887744 C61.8638012,136.250567 60.1952627,135.668744 58.5773574,134.951478 C57.8496533,134.522767 57.1454994,134.068144 56.479026,133.547567 C55.0577657,132.054144 53.8672982,130.391122 52.7168663,128.679811 C50.9965172,125.742433 49.5446414,122.6437 48.2116947,119.520233 C46.8728604,116.396767 45.6046769,113.2309 44.5060556,110.010856 C42.9281858,104.709678 41.8366296,99.3260556 41.0547598,93.8482111 C40.321168,88.7248778 39.7430083,83.5308778 39.4250793,78.3616111 C39.1495408,71.2454778 39.1989964,64.1105 39.1542509,56.9920111 C39.1318781,53.3432556 39.1177479,49.6909667 39.1460083,46.0422111 C39.1624935,43.2544111 39.0836,40.4548333 39.5428308,37.7023667 C40.3682686,34.2432333 41.2761325,30.7746778 42.7539136,27.5440333 C43.5663988,26.1095 44.4719077,24.7197222 45.5128308,23.4465444 C45.6235172,23.3405444 45.7353811,23.2369 45.8484225,23.1332556 C48.6615053,22.4324778 51.4522154,21.7246333 54.2005349,20.7989 C56.3648071,20.0663222 58.5290793,19.3443444 60.6992391,18.6376778 C63.5841503,17.7755444 66.4973219,16.9982111 69.3928308,16.1561 C72.4626118,15.2704111 75.580671,14.8888111 78.7540734,14.6567889 C81.0160793,14.5496111 83.2769077,14.4318333 85.5365586,14.3022778 C91.2062923,14.1209 96.8607183,14.5602111 102.529275,14.6933 C105.422428,14.7627889 108.315582,14.7757444 111.204026,14.7675 C114.218464,14.7510111 117.234079,14.5284111 120.24263,14.3552778 C123.467843,14.2280778 126.694233,14.0949889 129.919446,14.0125444 Z M90.2018722,0.137144444 C86.3148959,0.141855556 82.4420497,0.509322222 78.5692036,0.748411111 C75.0001562,0.969833333 71.4899846,1.3055 68.0363337,2.27598889 C64.2824166,3.3301 60.5296769,4.53025556 56.8452331,5.79047778 C53.731884,6.85518889 50.7021385,8.14838889 47.6135172,9.2661 C47.4792805,9.30496667 47.3450438,9.34383333 47.2108071,9.3827 C44.7144757,7.99881111 41.4657124,8.17312222 39.1778012,10.0929 C38.4642272,10.6912111 37.7377006,11.2659667 37.0300142,11.8737 C36.1056651,12.6734111 35.3096651,13.6168111 34.4771621,14.5142778 C33.3632331,15.7144333 32.480097,17.1772333 31.6475941,18.5858556 C29.9460852,21.4749444 28.6767243,24.4653222 27.7747479,27.6853667 C26.9151621,30.7593667 26.150955,33.8687 25.5763278,37.0063 C25.1712627,39.2287667 25.3690852,41.5843222 25.4020556,43.8291667 C25.5810379,55.8377889 25.3690852,67.8593667 26.0826592,79.8526778 C26.2439787,82.5403667 26.5925231,85.2174556 26.9375349,87.8863 C27.301387,90.6599667 27.6652391,93.4383444 28.1103396,96.2037667 C29.1230024,102.4613 30.4747893,108.649344 32.4624343,114.671322 C34.2510793,120.104411 36.4871799,125.432678 39.040032,130.552478 C40.5248781,133.5299 42.2499373,136.436656 44.301168,139.064278 C45.7271385,140.894544 47.2955882,142.532833 49.0665704,144.046278 C50.6538604,145.404256 52.7333515,146.333522 54.5820497,147.229811 C55.6217953,147.736256 56.7392568,148.100189 57.8155053,148.504167 C59.020103,148.959967 60.1976178,149.479367 61.3939728,149.958722 C62.6079905,150.441611 63.8502686,150.781989 65.1149195,151.112944 C67.3274698,151.697122 69.7519728,152.176478 72.0422391,152.092856 C73.7390379,152.029256 75.4546769,152.015122 77.133813,151.757189 C78.4125941,151.568744 79.681955,151.352033 80.951316,151.145922 C83.7855941,150.6807 86.6328249,150.349744 89.4706355,149.921033 C92.1612568,149.521767 94.8342154,149.097767 97.5377893,148.803322 C100.237831,148.513589 102.915499,148.1049 105.591991,147.658522 C108.034156,147.258078 110.436286,146.636211 112.873742,146.208678 C115.322973,145.782322 117.759251,145.498478 120.233209,145.312389 C123.178174,145.2005 126.139624,145.120411 129.06457,144.745878 C132.090783,144.359567 135.007488,143.637589 137.960695,142.873211 C140.752582,142.146522 143.54447,141.4375 146.244511,140.411656 C147.757618,139.832189 149.123535,138.934722 150.480032,138.074944 C151.157103,137.647411 151.850659,137.242256 152.50889,136.781744 C153.13415,136.340078 153.764121,135.898411 154.390559,135.461456 C156.243967,134.160011 157.788866,132.4805 159.27018,130.786856 C160.392351,129.504256 161.316701,128.008478 162.25047,126.591611 C165.741801,121.272767 169.145996,115.895033 171.450393,109.936656 C172.507801,107.213633 173.110689,104.2739 173.786582,101.438989 C174.596712,98.0575889 175.267896,94.6302556 175.728304,91.1840778 C176.546677,85.0796556 176.450121,78.9328333 176.284091,72.7954333 C176.114529,66.3635889 175.535192,59.9140778 174.766275,53.5281667 C174.416553,50.6437889 173.841925,47.7817889 173.294381,44.9339222 C172.637328,41.5336778 171.790695,38.1522778 170.723866,34.8580333 C168.897541,29.2317889 166.468328,23.7798556 163.625807,18.5952778 C161.726476,15.1302556 159.339653,11.7771222 156.528925,8.99285556 C153.360233,5.85525556 149.565103,3.69756667 145.448511,2.04632222 C143.590393,1.30078889 141.547405,0.969833333 139.59744,0.588233333 C138.120837,0.302033333 136.5936,0.289077778 135.099334,0.233722222 C132.237973,0.123011111 129.386032,0.141855556 126.529381,0.187788889 C120.445162,0.279655556 114.359766,0.629455556 108.274369,0.588233333 C105.270529,0.564677778 102.261979,0.528166667 99.2581385,0.412744444 C96.2825586,0.299677778 93.3022686,0.137144444 90.3255112,0.137144444 L90.2018722,0.137144444 Z" id="Fill-1"></path>
                <path d="M67.8582935,138.569964 C64.4411456,139.21892 61.1193763,140.22592 57.8588379,141.431964 C56.5482639,141.914853 55.2000095,142.374187 53.9353586,142.986631 C51.0645775,144.376409 48.3421633,146.004098 45.8764473,148.03812 C44.2161515,149.409053 42.7760509,151.060298 41.3736308,152.679742 C40.5269976,153.651409 39.7910509,154.704342 39.086897,155.77612 C38.2320213,157.078742 37.4089385,158.39432 36.6588615,159.755831 C35.0209385,162.728542 33.3971456,165.746009 32.2655538,168.957809 C31.1021692,172.274431 30.3568024,175.646409 29.6255657,179.083164 C29.0144355,181.940453 28.4433408,184.797742 27.9652698,187.677409 C26.9761574,193.566298 26.5628497,199.551764 25.8398556,205.477164 C25.4771811,208.421609 25.076826,211.361342 24.7506544,214.315209 C24.4103527,217.421009 24.1936899,220.530342 23.9911574,223.650276 C23.6049325,229.570964 23.2740509,235.473987 23.1398142,241.408809 C23.0715183,244.514609 22.9926249,247.619231 23.1445243,250.725031 C23.3058438,254.019276 23.6826485,257.285253 23.8993112,260.574787 C24.0688734,263.257764 24.3043763,265.934853 24.5021988,268.616653 C24.7047314,271.410342 24.8931337,274.18872 25.2793586,276.962387 C25.9411219,281.687631 26.705329,286.403453 27.5519621,291.100431 C27.9464296,293.322898 28.420968,295.52652 28.9449621,297.717187 C29.5219444,300.130453 30.3791751,302.48012 31.1669325,304.834498 C31.9440923,307.565764 32.599968,310.32412 33.3606426,313.060098 C34.1107195,315.75132 34.9844355,318.40132 35.6285361,321.12552 C36.415116,324.469231 37.215826,327.768187 38.3968734,331.002364 C38.880832,332.317942 39.4648793,333.579342 40.1042698,334.82072 C40.4080686,335.409609 40.7389503,335.97612 41.074542,336.546164 C41.8834947,337.935942 42.6111988,338.911142 43.8299266,339.965253 C44.5929562,340.627164 45.4490095,341.082964 46.4051515,341.432764 C49.1051929,342.430342 52.2373822,341.442187 53.9023882,339.099587 C54.9056308,337.68272 55.3059858,335.888964 54.9974769,334.181187 C54.7348911,332.756076 53.888258,331.104831 52.6459799,330.233276 C51.6380272,328.41832 50.8055243,326.545653 50.0613349,324.594076 C49.5232107,322.66252 49.0498497,320.721542 48.5811988,318.769964 C48.0195243,316.460342 47.3295006,314.187231 46.6359444,311.91412 C45.9129503,309.563276 45.3654059,307.161787 44.7130627,304.787387 C44.0407018,302.329364 43.2470568,299.910209 42.4251515,297.496942 C41.3630331,293.908253 40.6294414,290.245364 40.0253763,286.550676 C39.3541929,282.442587 38.6500391,278.338031 38.0436189,274.22052 C37.4960746,270.512876 37.3806781,266.753409 37.0862994,263.018676 C36.7813231,259.20032 36.5222698,255.379609 36.2643941,251.55772 C36.1066071,245.725364 36.380968,239.854142 36.6729917,234.028853 C36.975613,228.006876 37.4678142,221.961342 38.130755,215.971164 C38.4616367,212.999631 38.8349089,210.036342 39.1881633,207.06952 C39.5520154,204.055587 39.7215775,201.019276 40.0030036,197.997098 C40.2832521,195.019676 40.5411278,192.03872 40.9591456,189.075431 C41.3642107,186.172209 41.9435479,183.297253 42.5146426,180.417587 C42.6135538,179.917031 42.7159976,179.415298 42.8172639,178.912387 C43.2600095,177.040898 43.7875361,175.211809 44.4363467,173.387431 C45.0404118,171.68672 45.8105065,170.053142 46.6171041,168.440764 C48.3621811,165.338498 50.1932166,162.350476 52.5211633,159.654542 C53.7528438,158.450853 55.0539976,157.374364 56.4634828,156.392098 C59.6368852,154.573609 63.0917136,153.342831 66.5583172,152.183898 C67.7605598,151.869431 68.9592698,151.59972 70.1815302,151.364164 C73.6540213,150.692831 76.054974,147.316142 75.4155834,143.805187 C74.8503763,140.72412 72.0667314,138.462787 69.0087254,138.461609 C68.6283882,138.461609 68.2433408,138.496942 67.8582935,138.569964" id="Fill-3"></path>
                <path d="M112.64813,353.195231 C112.623402,353.204653 112.597497,353.212898 112.572769,353.219964 L112.64813,353.195231 Z M164.973355,350.39212 L165.00397,350.40272 C162.57829,350.473387 160.152609,350.516964 157.725751,350.520498 C159.247101,350.439231 160.767272,350.33912 162.287444,350.250787 C163.200018,350.23312 164.084331,350.271987 164.973355,350.39212 Z M149.592657,133.51612 C148.318586,134.574942 147.508456,136.13432 147.375396,137.785564 C147.403657,138.324987 147.43074,138.85852 147.457822,139.392053 C147.655645,140.454409 148.097213,141.40252 148.782527,142.23992 C149.015675,142.594431 149.247645,142.947764 149.47726,143.303453 C151.136379,146.127764 152.295053,149.178209 153.444308,152.240431 C154.103716,154.372209 154.710136,156.503987 155.277698,158.668742 C155.898249,161.024298 156.336284,163.430498 156.763722,165.827276 C157.678651,170.943542 158.313331,176.137542 159.42726,181.21612 C160.631858,186.69632 161.947142,192.148253 163.152917,197.627276 C164.251538,202.65992 164.58713,207.825653 164.890929,212.956053 C165.166467,218.64472 165.479686,224.333387 165.641006,230.025587 C165.819988,236.429164 165.954225,242.829209 166.004858,249.232787 C166.027231,252.568253 166.050781,255.904898 166.027231,259.235653 C166.000148,262.436853 165.723432,265.625098 165.438473,268.813342 C164.900349,274.841209 164.021923,280.849053 163.028101,286.821564 C162.850296,287.887453 162.643053,288.953342 162.439343,290.016876 C160.475249,298.479209 157.818775,306.806098 154.666568,314.893898 C153.161704,318.764076 151.814627,322.743787 149.978882,326.465564 C148.359799,329.749209 146.830207,333.081142 145.164024,336.337698 C144.362136,337.83112 143.529633,339.308053 142.766604,340.819142 C142.633544,341.086498 142.522858,341.352676 142.440432,341.637698 C142.228479,342.223053 142.113083,342.815476 142.08129,343.423209 C141.994154,344.683431 142.293243,345.474898 142.698308,346.644431 C143.185799,348.056587 144.919101,349.495831 146.340361,349.956342 C146.765444,350.090609 147.189349,350.204853 147.615609,350.297898 C145.351249,350.202498 143.089243,350.09532 140.826059,350.029364 C136.519888,349.910409 132.233734,349.505253 127.92403,349.707831 C125.577243,349.818542 123.259893,350.057631 120.927237,350.323809 C120.301976,350.393298 119.681426,350.462787 119.059698,350.54052 C117.541882,350.724253 116.006402,351.373209 114.602805,351.980942 C113.671391,352.380209 112.80003,352.911387 111.887456,353.348342 C109.891568,353.772342 108.193592,355.396498 107.505923,357.280942 C107.124408,358.338587 107.031385,359.415076 107.229207,360.519831 C107.496503,361.992053 108.411432,363.698653 109.745556,364.480698 C110.923071,365.166164 111.880391,365.639631 113.26868,365.694987 C114.897183,365.759764 116.43384,365.281587 117.850391,364.499542 C118.797112,363.980142 119.746189,363.489009 120.741189,363.079142 C122.947852,362.650431 125.253426,362.530298 127.506012,362.381898 C130.228426,362.318298 132.924935,362.463164 135.650882,362.631587 C138.488692,362.810609 141.335923,362.856542 144.178444,362.976676 C147.486083,363.114476 150.789012,363.307631 154.100183,363.362987 C156.956834,363.40892 159.835858,363.33472 162.692509,363.206342 C166.643071,363.02732 170.664284,362.92132 174.545373,362.11572 C179.049367,361.186453 183.823012,358.678964 184.546006,353.692253 C185.134763,349.620676 182.295775,346.248698 179.127083,344.145187 C178.019041,343.409076 176.900402,342.747164 175.870077,341.905053 C173.340775,339.816853 170.273349,338.523653 167.071686,337.907676 C164.536497,337.423609 161.951852,337.686253 159.399,337.925342 C158.859698,337.975987 158.320396,338.027809 157.781095,338.078453 C158.339237,337.000787 158.890314,335.919587 159.440213,334.837209 C160.834391,332.198987 162.226213,329.574898 163.409615,326.833031 C164.499994,324.31612 165.54445,321.77212 166.570065,319.22812 C168.901544,313.435809 170.875059,307.529253 172.756728,301.575587 C174.660769,295.539476 175.94426,289.324342 177.001669,283.090364 C178.055544,276.883476 178.970473,270.62712 179.339036,264.337787 C179.72055,257.860009 179.573361,251.353964 179.518018,244.866764 C179.467385,238.600987 179.260142,232.33992 179.025817,226.077676 C178.777361,219.393787 178.377006,212.704009 177.930728,206.028364 C177.50329,199.647164 175.990183,193.408476 174.421734,187.229853 C173.308982,182.854409 172.334,178.461298 171.473237,174.030498 C170.626604,169.664476 169.881237,165.28432 169.031071,160.923009 C168.111432,156.197764 166.560645,151.597364 165.015746,147.057031 C164.279799,144.894631 163.235343,142.800542 162.255651,140.744142 C161.174692,138.480453 159.693379,136.414631 158.308621,134.331142 C157.439615,133.015564 155.549704,132.23352 154.04013,132.108676 C153.879988,132.09572 153.718669,132.089831 153.556172,132.089831 C152.120781,132.089831 150.700698,132.598631 149.592657,133.51612 Z" id="Fill-5"></path>
                <path d="M115.688473,348.655487 C115.707314,348.682576 115.724976,348.71202 115.742639,348.740287 C115.723799,348.71202 115.707314,348.683753 115.688473,348.655487 M102.326036,289.785442 C101.051964,290.838376 99.9662959,292.628598 99.9627633,294.330487 C99.9580533,299.442042 99.8191065,304.548887 99.7602308,309.660442 C99.7272604,312.429398 99.7413905,315.175976 99.8426568,317.946109 C99.939213,320.692687 100.187669,323.434553 100.440834,326.171709 C100.904775,331.237331 101.249787,336.312376 101.668982,341.381531 C101.862095,343.673487 102.234189,345.940709 102.685178,348.190264 C103.389331,351.715353 104.239497,355.901176 107.409367,358.063576 C109.740846,359.65122 112.855373,359.595864 115.049083,357.773842 C116.341994,356.702064 117.165077,355.123842 117.298136,353.449042 C117.271053,352.906087 117.242793,352.367842 117.21571,351.824887 C117.117976,351.301953 116.961367,350.806109 116.748237,350.338531 C116.555124,349.15722 116.42913,347.967664 116.258391,346.78282 C116.033485,345.223442 115.78032,343.668776 115.587207,342.104687 C115.210402,339.100176 115.067923,336.067398 114.814757,333.054642 C114.529799,329.66382 114.165947,326.277709 113.798562,322.896309 C113.504183,320.221576 113.289876,317.55862 113.119136,314.877998 C113.063793,308.383731 113.112071,301.882398 113.103828,295.384598 C113.103828,293.61322 112.768237,292.047953 111.603675,290.64522 C110.476793,289.28842 108.821207,288.427464 107.059645,288.284953 C106.88655,288.269642 106.713456,288.263753 106.540361,288.263753 C105.013124,288.263753 103.50355,288.805531 102.326036,289.785442" id="Fill-7"></path>
                <path d="M99.3551657,286.318418 C98.145858,287.321884 96.9589231,289.161573 97.0236864,290.804573 C97.0919822,292.515884 97.1202426,294.227196 97.1155325,295.938507 C97.1155325,297.782907 96.8988698,299.623773 96.7010473,301.455218 C96.5491479,302.876796 96.3607456,304.293662 96.1864734,305.71524 C95.8320414,308.521884 95.4964497,311.327351 95.1879408,314.143418 C94.6215562,319.27264 94.369568,324.43484 94.4284438,329.59704 C94.4932071,334.681507 94.6451065,339.764796 94.7970059,344.843373 C94.8523491,346.600618 94.9018047,348.356684 94.9241775,350.112751 C93.5511953,350.009107 92.1723254,350.006751 90.7769704,350.051507 C88.5997456,350.122173 86.4201657,350.274107 84.2429408,350.408373 C80.1864024,350.537929 76.1298639,350.533218 72.0697929,350.608596 C67.8778402,350.688684 63.7271006,351.473084 59.5586982,351.873529 C54.9075148,352.02664 50.2292485,352.086707 45.6216331,352.74744 C43.2065503,353.092529 40.8786036,353.613107 38.528284,354.257351 C36.3451716,354.852129 34.2174024,355.627107 32.075503,356.346729 C30.7402012,356.717729 29.3907692,357.041618 28.0319172,357.306618 C24.8220118,357.933196 22.6000414,361.042529 23.1935089,364.295551 C23.4690473,365.82784 24.3521834,367.221151 25.6215444,368.123329 C26.1007929,368.37184 26.5741538,368.620351 27.0522249,368.868862 C28.0684201,369.236329 29.1128757,369.328196 30.1797041,369.13504 C31.9695266,369.043173 33.7169586,368.537907 35.4373077,368.058551 C37.213,367.56624 38.9698521,366.991484 40.7596746,366.540396 C42.5895325,366.081062 44.4346982,365.593462 46.3069467,365.367329 C48.160355,365.144729 50.0114083,365.00104 51.8730592,364.883262 C55.5127574,364.765484 59.1512781,364.793751 62.7827337,364.525218 C65.7300533,364.307329 68.655,363.879796 71.598787,363.628929 C72.3441538,363.624218 73.0918757,363.624218 73.8407751,363.624218 C76.015645,363.624218 78.1916923,363.624218 80.3583195,363.513507 C82.5378994,363.407507 84.7186568,363.31564 86.8935266,363.144862 C88.4019231,363.027084 89.9079645,362.893996 91.4151834,362.790351 C93.3145148,362.747951 95.1761657,362.855129 97.0601893,363.173129 C98.8865148,363.486418 100.68458,363.826796 102.542698,363.462862 C104.677533,363.04004 106.590994,361.544262 107.29868,359.44664 C107.585994,358.603351 107.675485,357.959107 107.679018,357.272462 C107.679018,357.278351 107.679018,357.283062 107.680195,357.288951 C107.679018,357.283062 107.679018,357.275996 107.679018,357.268929 C107.680195,357.052218 107.671953,356.829618 107.660178,356.596418 C107.638982,355.028796 107.777929,353.474129 107.850935,351.901796 C107.947491,349.775907 107.906278,347.645307 107.919231,345.520596 C107.952201,340.390196 107.846225,335.265684 107.776751,330.139996 C107.717876,325.157996 107.923941,320.160684 108.403189,315.205773 C108.659888,312.574618 108.931893,309.946996 109.235692,307.320551 C109.378172,306.082707 109.515941,304.841329 109.65842,303.598773 C110.109408,299.679129 110.160041,295.791284 109.994012,291.848084 L109.911586,290.16504 C109.699633,289.046151 109.235692,288.048573 108.512698,287.169951 C107.404657,285.830818 105.766734,284.979284 104.028722,284.841484 C103.85445,284.827351 103.681355,284.821462 103.50826,284.821462 C102.003396,284.821462 100.517373,285.353818 99.3551657,286.318418" id="Fill-9"></path>
                <path d="M48.6109899,338.38444 C44.9077059,340.363107 41.1820491,342.318218 37.5859189,344.480618 C35.6724574,345.630129 33.846132,346.845596 32.1493331,348.294262 C31.4863923,348.860773 30.8517118,349.467329 30.2394041,350.089196 C29.6553568,350.681618 29.0536467,351.298773 28.5155225,351.924173 C27.8160787,352.739196 27.3603805,353.65904 26.8870195,354.629529 C26.5325876,355.614151 26.4454515,356.621151 26.6291438,357.651707 C26.9011497,359.12864 27.7513154,360.472484 28.9747533,361.341684 C30.2394041,362.243862 31.8502444,362.601907 33.3763036,362.321596 C34.8964751,362.04364 36.037487,361.215662 36.9995166,360.056729 C38.7292858,358.381929 40.653345,356.930907 42.6633627,355.597662 C46.2959959,353.428196 50.0004574,351.367084 53.7308243,349.36604 C55.1744574,348.588707 56.2883864,347.52164 56.8630136,345.948129 C57.410558,344.444107 57.3363746,342.764596 56.6604811,341.314751 C55.6784337,339.210062 53.3740373,337.78024 51.0672858,337.78024 C50.2277178,337.78024 49.3881497,337.969862 48.6109899,338.38444" id="Fill-11"></path>
                <path d="M171.579095,245.527498 C169.445438,245.688853 167.315314,245.904387 165.22287,246.379031 C162.678261,246.953787 160.139539,247.533253 157.596107,248.122142 C153.480693,249.071431 149.312291,249.442431 145.112095,249.700364 C141.172131,249.853476 137.222746,250.008942 133.295734,250.362276 C129.321622,250.725031 125.35222,251.068942 121.369864,251.333942 C115.121971,251.627209 108.884675,251.993498 102.639137,252.359787 C99.6176337,252.538809 96.5949533,252.676609 93.5875805,253.016987 C90.4412609,253.376209 87.2937639,253.776653 84.1486219,254.102898 C81.0482254,254.420898 77.9431189,254.628187 74.8474325,254.954431 C71.9130657,255.26772 69.0010716,255.760031 66.0667047,256.06272 C60.0919947,256.684587 54.0796041,256.937809 48.1190243,257.696298 C43.7257166,258.258098 39.3382964,259.007164 35.000332,259.904631 C32.0848053,260.512364 29.8216219,262.876164 29.5825864,265.894809 C29.4436396,267.60612 29.991184,269.336276 31.0862728,270.656564 C32.102468,271.884987 33.9841367,273.108698 35.6538527,273.030964 C38.7672018,272.891987 41.7851722,272.459742 44.8525982,271.93092 C47.5903201,271.457453 50.3727876,271.163009 53.1375923,270.845009 C59.2771544,270.145409 65.4638172,269.713164 71.5868941,268.853387 C74.4800479,268.448231 77.3543615,267.98772 80.2663556,267.734498 C83.2101426,267.482453 86.1539296,267.215098 89.0835864,266.851164 C92.1569,266.469564 95.224326,266.06912 98.3058822,265.817076 C101.678285,265.535587 105.049509,265.370698 108.425444,265.163409 C111.847302,264.95612 115.275048,264.726453 118.701616,264.533298 C118.130521,264.565098 117.560604,264.592187 116.995397,264.620453 C122.072841,264.367231 127.132622,264.058653 132.192403,263.566342 C136.883622,263.116431 141.552468,262.743076 146.257817,262.499276 C150.752391,262.264898 155.26816,261.745498 159.642628,260.664298 C162.098924,260.056564 164.55993,259.453542 167.016225,258.855231 C169.260569,258.312276 171.519042,258.009587 173.814018,257.829387 C175.350675,257.710431 176.933255,256.509098 177.792841,255.29952 C178.764291,253.938009 179.145805,252.207853 178.846717,250.560142 C178.557048,248.968964 177.640941,247.51912 176.320947,246.581609 C175.824036,246.323676 175.333012,246.065742 174.836101,245.803098 C174.13548,245.552231 173.425438,245.426209 172.705977,245.426209 C172.332705,245.426209 171.957078,245.460364 171.579095,245.527498" id="Fill-13"></path>
                <path d="M117.698609,38.9557578 C117.809295,39.0134689 117.919982,39.07118 118.030668,39.1288911 C117.919982,39.07118 117.809295,39.0134689 117.698609,38.9557578 M90.5710231,36.02898 C93.3016799,35.46718 95.9510882,34.6227133 98.722958,34.3188467 C100.775366,34.3565356 102.788917,34.6580467 104.82484,34.9336467 C106.559319,35.1680244 108.304396,35.3423356 110.024745,35.6391356 C112.331496,36.3057578 114.465153,37.2986244 116.587035,38.38218 C120.189053,40.44918 123.470786,43.1969356 126.566473,45.9941578 C128.046609,47.5146689 129.207638,49.2624911 130.347473,51.0456467 C131.444917,52.8005356 132.496437,54.5507133 133.407834,56.4186689 C133.904745,57.4350911 134.262709,58.55398 134.640692,59.6210467 C135.023384,60.6916467 135.390769,61.76578 135.756976,62.8434467 C136.729603,66.1459356 137.519715,69.47198 138.214449,72.8522022 C138.940976,76.3796467 139.623934,79.9141578 139.919491,83.5075578 C139.941863,85.0634022 139.826467,86.5874467 139.562704,88.11738 C138.85384,90.8144911 137.885922,93.4833356 136.710763,96.0155578 C135.975993,97.2463356 135.150556,98.3770022 134.221496,99.4676244 C132.438739,101.244891 130.482887,102.831358 128.517615,104.408402 C126.764295,105.818202 124.95681,107.119647 123.089272,108.36338 C121.353615,109.371558 119.581455,110.210136 117.699786,110.892069 C114.881993,111.668224 112.044183,112.361936 109.282911,113.320647 C106.45923,114.295847 103.803934,115.67738 101.003804,116.700869 C99.397674,117.137824 97.7880112,117.446402 96.1230053,117.61718 C95.2328041,117.703158 94.3367154,117.740847 93.4441592,117.784424 C93.8080112,117.76558 94.1718633,117.745558 94.5357154,117.727891 C90.8218337,117.877469 87.1114846,118.11538 83.402313,118.313247 C81.2050704,118.420424 79.0113604,118.53938 76.8176503,118.664224 C75.8155852,118.671291 74.8241178,118.639491 73.8338278,118.512291 C73.6772183,118.461647 73.5206089,118.407469 73.3663544,118.349758 C73.054313,118.144824 72.7552243,117.928113 72.459668,117.697269 C71.6047923,116.762113 70.8582479,115.749224 70.0940408,114.732802 C69.4770231,113.91778 68.8517627,113.11218 68.2606503,112.278313 C67.2691828,110.413891 66.5450112,108.465847 65.7242834,106.515447 C65.3333485,105.58618 64.8552775,104.689891 64.4772953,103.755913 C64.1935142,103.050424 63.9332834,102.348469 63.6836503,101.639447 C61.8337746,94.75298 60.7351533,87.7428467 60.2523722,80.6267133 C60.1322657,77.5350467 60.1063604,74.4457356 60.0981178,71.3528911 C60.0945852,68.3401356 60.2876976,65.3627133 60.7539935,62.3923578 C61.0224669,61.4218689 61.3309757,60.4655133 61.7595911,59.5468467 C62.3660112,58.23598 63.024242,56.9474911 63.6400822,55.6413356 C63.9744964,54.7203133 64.1028456,53.7816244 64.0345497,52.8252689 C64.6174195,52.44838 65.1261059,51.9690244 65.4616976,51.4084022 C66.5155734,49.66058 67.6059521,47.9681133 68.9059284,46.4052022 C70.6192124,44.7362911 72.498526,43.35358 74.4708633,42.0062022 C77.1296917,40.3891133 79.8014728,38.8686022 82.7346621,37.77798 C85.3087095,37.0418689 87.9510527,36.5731133 90.5710231,36.02898 M92.4067686,22.0605356 C89.7844432,22.8343356 87.1774254,23.6246244 84.5315497,24.3289356 C81.7219994,25.07918 78.9477746,25.9295356 76.3030763,27.1579578 C74.9277391,27.79278 73.6395379,28.6125133 72.3619343,29.4216467 C72.3195438,29.4487356 72.2783308,29.4758244 72.2371178,29.5029133 C71.9144787,29.7054911 71.5941947,29.9068911 71.2715556,30.1118244 L69.9880645,30.9268467 C67.7802243,32.3201578 65.6548101,33.9219356 63.6730527,35.6191133 C60.5997391,38.2420244 58.3188929,41.4385133 56.2711947,44.8705578 C55.8991,45.4936022 55.6047213,46.1178244 55.4257391,46.7656022 C53.9385379,47.1507356 52.5867509,48.0246467 51.7047923,49.3708467 C50.6697568,50.9490689 49.6983071,52.5908911 48.9588278,54.3304689 C48.3559402,55.7520467 47.9555852,57.2054244 47.6199935,58.7094467 C46.9393899,61.7598911 46.7003544,64.8468467 46.6308811,67.9714911 C46.5708278,70.8417356 46.6815142,73.7449578 46.7874905,76.61638 C46.9064195,79.9377133 47.0453663,83.2637578 47.3939107,86.5721356 C48.0250586,92.5988244 49.0871769,98.5289356 50.6968396,104.371891 C51.1796207,106.129136 51.8143012,107.845158 52.4866621,109.538802 C53.0659994,110.99218 53.7654432,112.394913 54.3259402,113.863602 C54.9288278,115.445358 55.6047213,116.963513 56.4372243,118.440447 C57.5546858,120.423824 59.0042065,122.190491 60.3654136,124.003091 C62.7439935,127.164247 65.6371473,129.855469 69.4546503,131.134536 C72.4161,132.122691 75.4564432,132.017869 78.5156266,131.824713 C81.8915615,131.617424 85.2674964,131.38658 88.6446089,131.134536 C92.4432716,130.848336 96.2972775,130.816536 100.068857,130.283002 C105.256988,129.545713 109.839875,126.872158 114.690059,125.071336 C118.572325,123.959513 122.532307,123.037313 126.190846,121.283602 C128.504662,120.180024 130.620656,118.671291 132.759023,117.262669 C134.010721,116.439402 135.196479,115.473624 136.365751,114.530224 C139.792319,111.769513 143.052857,108.945202 145.798822,105.467224 C147.694621,103.061024 148.913349,100.14838 150.057893,97.32878 C151.107059,94.74238 151.925431,92.02878 152.412922,89.2810244 C153.264266,84.4780467 152.653136,79.4595356 151.852425,74.6789356 C151.331964,71.5825578 150.693751,68.5144467 150.03552,65.4451578 C149.313704,62.07318 148.218615,58.7930689 147.147076,55.5176689 C146.23568,52.7286911 145.173562,50.0610244 143.711088,47.5170244 C143.071698,46.3981356 142.353414,45.3169356 141.6681,44.2274911 C140.550638,42.4514022 139.452017,40.6658911 138.205029,38.9816689 C137.230047,37.6566689 135.932425,36.5342467 134.718408,35.4400911 C134.199124,34.9701578 133.683372,34.49198 133.154668,34.03618 C132.165556,33.1764022 131.167023,32.3248689 130.164958,31.4780467 C128.587088,30.1483356 126.963295,28.8975356 125.220573,27.79278 C123.927662,26.9742244 122.533485,26.2887578 121.176988,25.5762022 C119.434266,24.6646022 117.718627,23.8048244 115.864041,23.1511578 C113.20168,22.2030467 110.359159,21.8862244 107.567272,21.5776467 C106.108331,21.4210022 104.655278,21.24198 103.197514,21.0759133 C102.217822,20.9628467 101.235775,20.9086689 100.256082,20.9086689 C97.6031414,20.9086689 94.9619757,21.3114689 92.4067686,22.0605356" id="Fill-15"></path>
                <path d="M24.1568337,280.32824 C24.1674314,280.528462 24.1768515,280.729862 24.1862716,280.931262 C24.1650763,280.729862 24.1556562,280.528462 24.1568337,280.32824 M42.884029,149.862262 C41.2519935,150.956418 39.6364432,152.083551 38.0220704,153.205973 C37.4980763,153.569907 37.0105852,153.992729 36.5089639,154.383751 C35.8601533,154.894907 35.166597,155.373084 34.5542893,155.925462 C33.3308515,157.02904 32.1074136,158.129084 30.8839757,159.23384 C29.2648929,160.69664 27.7882893,162.37144 26.3434787,163.999129 C24.8303722,165.715151 23.5292183,167.606662 22.3328633,169.552351 C20.120313,173.169307 18.3587509,177.079529 16.6796148,180.962662 C15.4338041,183.84704 14.3387154,186.791484 13.235384,189.731218 C12.1815083,192.547284 11.2159462,195.395151 10.3233899,198.260684 C9.43554379,201.108551 8.78673314,204.030618 8.07433669,206.924418 C6.61657337,212.822729 5.12583964,218.706907 3.80584556,224.637018 C3.3313071,226.76644 2.90386923,228.882907 2.56356746,231.032351 C2.30569172,232.637662 2.17263254,234.266529 1.99836036,235.881262 C1.82762071,237.463018 1.62037811,239.04124 1.42255562,240.619462 C1.25770355,241.953884 1.06930118,243.283596 0.995117751,244.62744 C0.842040828,247.353996 1.65217101,249.815551 2.50233669,252.343062 C3.65865621,256.102529 4.64894615,259.903218 5.75581006,263.677996 C6.48233669,266.153684 7.34781006,268.601107 8.42876864,270.942529 C8.89741953,271.950707 9.41670355,272.916484 9.98779822,273.869307 C10.5129698,274.749107 11.0593367,275.623018 11.718745,276.407418 C11.4538041,277.30724 11.2347864,278.221196 11.1241,279.191684 C10.9345201,280.820551 11.3678456,282.38464 11.8729994,283.902796 C12.2921947,285.159484 12.9457154,286.22184 13.6899047,287.317173 C14.8674195,289.037907 16.2804373,290.47244 17.9360231,291.746796 C20.1250231,293.431018 22.9722538,293.863262 25.6169521,294.241329 C29.1365438,294.746596 32.3652893,291.637262 32.6361178,288.264107 C32.773887,286.581062 32.2310527,284.877996 31.1548041,283.576551 C29.9596266,282.131418 28.4500527,281.556662 26.6614077,281.243373 C26.4529876,281.209218 26.245745,281.173884 26.0385024,281.136196 C25.8818929,281.087907 25.728816,281.036084 25.5780941,280.980729 C25.4897805,280.913596 25.4026444,280.845284 25.3166858,280.778151 C24.9787391,280.407151 24.6596325,280.023196 24.3534787,279.626284 C24.420597,279.434307 24.4900704,279.242329 24.5595438,279.049173 C25.2401473,277.144707 25.6039994,275.184884 25.1070882,273.196796 C24.7020231,271.577351 23.9060231,270.225262 22.7426385,269.056907 C22.2516148,268.570484 21.8218219,268.052262 21.4167568,267.505773 C20.1803663,265.267996 19.2489521,262.925396 18.404674,260.508596 C17.8736148,258.695996 17.3790586,256.873973 16.8597746,255.051951 C16.0790822,252.319507 15.2324491,249.60944 14.3422479,246.911151 C14.2127213,246.420018 14.1102775,245.937129 14.026674,245.441284 C14.0996799,243.920773 14.3457805,242.409684 14.5318278,240.904484 C14.7025675,239.533551 14.8674195,238.162618 15.0146089,236.791684 C15.3254728,233.884929 15.6916799,231.013507 16.256887,228.151507 C18.0843899,219.927084 20.0685024,211.720329 22.2363071,203.579529 C22.7697213,201.583196 23.4832953,199.595107 24.178029,197.649418 C25.0281947,195.260884 25.8983781,192.87824 26.7850467,190.50384 C28.2934432,186.468773 30.0526503,182.558551 31.9154787,178.677773 C33.5522243,175.752173 35.3962124,173.033862 37.6146503,170.513418 C39.544597,168.521796 41.5746325,166.594951 43.7306621,164.860084 C46.0668515,162.987418 48.4772243,161.266684 50.9570704,159.591884 C52.2947272,158.686173 53.0954373,156.781707 53.2202538,155.230573 C53.353313,153.596996 52.8293189,151.950462 51.7848633,150.69024 C50.7039047,149.387618 49.1119047,148.55964 47.424526,148.42184 C47.2561414,148.407707 47.0912893,148.40064 46.9287923,148.40064 C45.3992006,148.40064 44.1698751,148.995418 42.884029,149.862262" id="Fill-17"></path>
                <path d="M184.943417,264.07632 C184.949305,264.159942 184.954015,264.244742 184.95637,264.328364 C184.952837,264.244742 184.948127,264.159942 184.943417,264.07632 M184.948127,263.254231 C185.036441,263.489787 185.114157,263.731231 185.176565,263.978564 C185.102382,263.735942 185.024666,263.494498 184.948127,263.254231 M160.535891,146.610653 C159.036914,147.309076 157.864109,148.588142 157.297725,150.143987 C156.732518,151.698653 156.810234,153.43352 157.509678,154.932831 L158.365731,156.28492 C159.087547,157.150587 159.980104,157.780698 161.042222,158.17172 C161.506163,158.40492 161.967749,158.63812 162.430512,158.87132 C164.195607,159.845342 165.854725,160.90652 167.399624,162.206787 C168.678405,163.529431 169.798222,164.951009 170.828547,166.472698 C173.373157,170.845787 175.217145,175.620498 176.975175,180.351631 C178.20921,183.665898 179.36553,186.988409 180.487701,190.336831 C180.972837,192.143542 181.457973,193.953787 181.943109,195.75932 C182.215115,196.780453 182.375257,197.848698 182.59192,198.882787 C182.775612,199.753164 183.001695,200.627076 183.139464,201.505698 C183.443263,203.484364 183.875411,205.475987 184.059104,207.468787 C184.245151,209.50752 184.433553,211.549787 184.620778,213.590876 C184.711447,215.981764 184.808003,218.371476 184.7715,220.76472 C184.730287,223.736253 184.652571,226.704253 184.551305,229.675787 C184.464169,232.40352 184.431198,235.137142 184.238086,237.860164 C184.074411,240.222787 183.703494,242.517098 183.244263,244.825542 C182.848618,246.428498 182.442376,248.025564 182.053796,249.623809 C181.607518,251.464676 181.120027,253.29612 180.968127,255.186453 C180.852731,256.593898 181.105896,258.241609 181.708784,259.534809 C182.37408,260.95992 183.566902,261.880942 184.765612,262.810209 C184.770322,262.821987 184.773855,262.831409 184.779743,262.843187 C184.811536,262.997476 184.837441,263.152942 184.862169,263.308409 C184.839796,263.85372 184.789163,264.381364 184.711447,264.921964 C183.646973,268.904031 181.873636,272.691764 180.003743,276.369964 C179.849488,276.630253 179.689346,276.887009 179.528027,277.141409 C178.608388,278.618342 178.139737,280.196564 178.456488,281.949098 C178.750867,283.563831 179.679926,285.026631 181.01876,285.979453 C183.791808,287.948698 187.91782,287.340964 189.859541,284.488387 C191.934322,281.42852 193.438009,277.899898 194.900482,274.518498 C195.530453,273.069831 196.036784,271.564631 196.468932,270.046476 C197.052979,267.980653 197.518098,265.851231 197.494547,263.702964 C197.472175,261.213142 196.93876,258.895276 195.783618,256.686942 C195.347938,255.85072 194.806281,255.111076 194.191618,254.436209 C194.796861,252.291476 195.460979,250.162053 195.967311,247.991409 C196.423009,246.036298 196.864577,244.089431 197.190749,242.111942 C197.443914,240.611453 197.573441,239.116853 197.72063,237.602231 C198.005589,234.630698 198.015009,231.60852 198.124518,228.626387 C198.230494,225.664276 198.396524,222.659764 198.281127,219.696476 C198.129228,215.786253 197.977328,211.893698 197.605234,207.997609 C197.480417,206.682031 197.380328,205.365276 197.173086,204.05912 C196.90108,202.365476 196.717388,200.636498 196.353536,198.956987 C195.972021,197.185609 195.590506,195.40952 195.204281,193.633431 C194.859269,192.02812 194.335275,190.449898 193.893707,188.868142 C193.005861,185.697564 191.947275,182.523453 190.76034,179.454164 C188.952855,174.788987 187.17363,170.115564 185.038796,165.588187 C183.820068,163.007676 182.316382,160.568498 180.710251,158.20352 C179.095879,155.820876 177.012855,153.824542 174.850938,151.942453 C172.076713,149.526831 168.590092,148.032231 165.324843,146.403364 C164.746683,146.114809 164.06137,145.99232 163.359571,145.99232 C162.362216,145.99232 161.333068,146.239653 160.535891,146.610653" id="Fill-19"></path>
            </g>
            <g id="Group-38" transform="translate(0.000000, 24.000000)" fill="#2C2C2C">
                <path d="M138.261974,10.4200057 C136.864886,10.4376482 135.464266,10.436472 134.064824,10.4235342 C134.406151,10.6152492 134.734532,10.8304876 135.048788,11.0680731 C136.414098,10.7740316 137.844142,10.7916741 139.158842,11.1551093 C139.84385,11.3432959 140.495904,11.6196948 141.107939,11.9678399 C141.834142,11.5044306 142.625081,11.1457 143.452505,10.9210523 C144.680107,10.5905497 145.912417,10.5305653 147.140019,10.7375705 C147.280081,10.5658503 147.42485,10.3988347 147.573151,10.2353477 C144.468249,10.2965083 141.364523,10.3811922 138.261974,10.4200057" id="Fill-22"></path>
                <path d="M207.794139,10.4899876 C206.419413,10.5911378 205.049396,10.7605057 203.688794,10.9863295 C203.192104,11.0639565 202.700121,11.1474642 202.203431,11.2250912 C202.249334,11.6343969 202.299944,12.0425264 202.345847,12.4518321 C203.302741,15.763915 204.212555,19.0865834 204.95759,22.4539461 C205.11413,23.1796404 205.274201,23.9053347 205.435449,24.631029 C207.049104,24.3605109 208.667466,24.1123399 210.304661,23.942972 C212.019537,23.9465005 213.683803,24.1029306 215.384555,24.3840342 C215.941272,24.5263503 216.497988,24.673371 217.053528,24.8333295 C218.249351,25.1779461 219.402803,25.6695834 220.524475,26.2212052 C222.58421,27.411485 224.501528,28.7852466 226.299971,30.3377855 C227.416935,31.4363244 228.492705,32.5983762 229.430767,33.8392311 C230.304095,34.9965782 231.122104,36.1680394 231.91775,37.3677285 C235.012059,43.1379979 237.706192,49.0835161 239.958953,55.2301585 C241.512581,60.7475523 242.694281,66.3343399 244.005449,71.917599 C245.476688,78.1842104 246.914971,84.4272984 248.060183,90.7633036 C248.621608,93.8460342 248.928803,96.9887492 249.283077,100.103236 C249.618519,103.026008 249.871573,105.975832 250.074015,108.906837 C250.483608,114.824127 250.892024,120.746122 251.219227,126.668117 C251.366351,130.196615 251.471104,133.720407 251.692378,137.245376 C251.89482,140.571573 252.13375,143.89777 252.322068,147.228672 C252.469192,150.921832 252.589245,154.617345 252.510387,158.31521 C252.432705,161.995433 251.774767,165.685065 251.080342,169.300599 C250.671927,171.004863 250.225847,172.69619 249.738573,174.381635 C249.121829,176.481091 248.492139,178.635827 247.591741,180.640013 C246.832581,181.824412 245.986325,182.94177 245.067095,184.007376 C244.174935,184.875387 243.236873,185.646951 242.216422,186.355003 C239.444608,187.940475 236.451519,189.350697 233.439599,190.430418 C230.019263,191.349003 226.469458,191.698324 222.962024,192.102925 C219.981882,192.447542 216.99821,192.754521 214.005121,192.920361 C211.049696,193.0862 208.093095,193.219107 205.155325,193.563723 C204.959944,193.58607 204.763387,193.609594 204.566829,193.633117 C204.566829,193.662521 204.568006,193.690749 204.566829,193.720153 C204.557413,195.323267 204.483263,196.921677 204.43736,198.525967 C204.424413,199.049361 204.405581,199.577459 204.391458,200.100853 C204.400873,200.220822 204.405581,200.340791 204.410289,200.454879 C204.48444,202.093278 204.563298,203.741086 204.590369,205.388894 C206.694829,205.154837 208.799289,204.932542 210.910812,204.769055 C213.853289,204.636148 216.805183,204.507946 219.752369,204.327993 C222.8149,204.139806 225.876254,203.725796 228.924661,203.354127 C230.617174,203.147122 232.299095,202.91777 233.972776,202.587267 C237.117696,201.958019 240.074298,200.675998 242.975581,199.348107 C244.294988,198.74591 245.586148,198.066086 246.873776,197.400376 C250.175236,195.686703 252.83759,193.296734 255.242183,190.498635 C256.864077,188.606184 258.115219,186.54319 259.167449,184.27319 C259.936024,182.619501 260.428006,180.78233 260.992962,179.054542 C262.092272,175.709526 262.845546,172.268065 263.539971,168.823076 C264.137882,165.887366 264.506281,162.909314 264.754626,159.923029 C264.979431,157.18021 264.846431,154.373879 264.79582,151.620475 C264.704015,147.048718 264.450962,142.491076 264.193201,137.929905 C263.930732,131.704459 263.797732,125.474309 263.462289,119.248863 C263.122139,113.004599 262.850254,106.756806 262.30413,100.526656 C261.742705,94.121257 260.896449,87.7629047 259.567626,81.4692415 C258.298829,75.4460964 256.860546,69.4641171 255.531723,63.4539098 C254.813758,60.2288632 254.119334,56.9991119 253.231882,53.8152311 C252.244387,50.2632104 250.983829,46.8499772 249.591449,43.4414487 C247.099758,37.3489098 244.184351,31.3116508 240.289688,25.9918528 C237.200086,21.7694176 233.278351,18.1715264 228.828148,15.4334124 C225.968059,13.6691637 222.906705,12.3459772 219.660564,11.5050187 C217.65144,10.9863295 215.642316,10.6323036 213.587289,10.3841326 C212.952891,10.3065057 212.304369,10.2782777 211.655847,10.2782777 C210.35998,10.2782777 209.044104,10.393542 207.794139,10.4899876" id="Fill-24"></path>
                <path d="M78.1417372,13.7520834 C74.1187814,13.9955497 70.1417283,14.7071301 66.1234805,14.9882337 C63.9766487,15.0752699 61.8345248,15.1952389 59.7006398,15.5116275 C57.6503212,15.8150782 55.5858788,16.0079694 53.5167283,16.1596948 C52.3491531,16.1691041 51.1815779,16.1455808 50.0175336,16.1232337 C49.7374097,16.1138244 49.4667018,16.1232337 49.1948168,16.1361715 C47.8754097,15.6586482 46.5371708,15.3693114 45.1083035,15.1023218 C43.6370646,14.827099 42.0869673,15.0564513 40.6110204,15.1952389 C38.7631442,15.3646067 36.928215,16.0032648 35.2180469,16.7019073 C33.2371708,17.5099332 31.3657549,18.8107725 29.7191442,20.1657155 C29.089454,20.6855808 28.5292062,21.3007155 27.9489496,21.8793891 C26.7813743,23.0508503 25.6738257,24.2917052 24.7545956,25.6748762 C23.0208876,28.2800834 22.4465159,31.0358399 21.7979938,34.0221249 C21.2283301,36.6684979 20.712808,39.3336896 20.5562681,42.0447518 C20.3820735,45.1180731 20.4138522,48.1690472 20.5009496,51.2423684 C20.6716133,57.2431663 20.5339053,63.2569021 20.5974628,69.2565238 C20.6669053,75.4313943 20.7634186,81.6109694 20.8505159,87.7858399 C20.9152504,92.234099 20.9011265,96.6811819 20.8187372,101.128265 C20.7445867,105.318944 20.4597549,109.508446 20.3267549,113.699125 C20.179631,118.260296 20.0007283,122.827348 20.1290204,127.394399 C20.2667283,132.503664 20.5974628,137.598814 20.9376133,142.703374 C21.1953743,148.693586 21.2777637,154.681446 21.4295956,160.681068 C21.5131619,164.054311 21.6732327,167.435788 21.9721885,170.798446 C22.2440735,173.862358 22.7266398,176.88628 23.2880646,179.909026 C23.8212416,182.80357 24.3402947,185.698115 24.9240823,188.578545 C25.5914363,191.86828 26.2764451,195.153311 27.3792858,198.327783 C28.3220558,201.038845 29.4672681,203.671104 30.5971796,206.312773 C31.080923,207.443068 31.5999761,208.559249 32.1284451,209.671902 C32.8923124,211.279721 33.8939319,212.759337 34.8461177,214.261301 C35.4993478,215.295151 36.1655248,216.300773 36.8870204,217.284047 C38.3488434,219.296467 40.3497283,220.918399 42.4412416,222.241586 C44.3079496,223.417752 46.2805867,224.451602 48.3909319,225.104374 C50.1834894,225.655995 52.100808,226.078239 53.9722239,226.285244 C57.0759496,226.625156 60.3632858,226.642798 63.4564186,226.201736 C66.3906575,225.774788 69.2907637,225.172591 72.2061708,224.617441 C73.6126752,224.349275 75.0215336,224.097576 76.432746,223.85999 C73.3243124,221.258311 73.0865602,216.466612 72.7475867,212.62055 C68.6410646,213.321545 64.5616133,214.260125 60.4127195,214.670607 C58.2564717,214.702363 56.1473035,214.582394 54.0181265,214.22484 C52.9105779,213.935503 51.833631,213.590887 50.7861088,213.126301 C49.6773832,212.478234 48.6016133,211.766653 47.5999938,210.962156 C46.9420558,210.25528 46.3629761,209.491949 45.8062593,208.698037 C44.5280469,206.584467 43.3698876,204.437964 42.4177018,202.145617 C41.3054451,199.476897 40.2026044,196.789358 39.2598345,194.054773 C38.0969673,189.713545 37.3837106,185.266462 36.6292593,180.846431 C36.2479142,178.622301 35.8477372,176.399348 35.5075867,174.170513 C35.1768522,171.996959 34.9838257,169.819876 34.8225779,167.628679 C34.6071885,161.705508 34.670746,155.783513 34.6530912,149.861519 C34.6342593,143.76898 34.0916664,137.69526 33.9998611,131.607425 C33.9492504,128.014239 33.9774982,124.453985 34.0693035,120.860798 C34.146985,117.893332 34.3353035,114.921161 34.5012593,111.952519 C34.8414097,105.929374 35.075631,99.9203425 35.1356575,93.8877881 C35.2415867,83.6786689 34.9932416,73.4613166 34.933215,63.2521974 C34.9061442,58.2534927 34.8272858,53.2594927 34.7213566,48.2607881 C34.670746,45.8437674 34.8225779,43.3902855 35.0944628,40.9920834 C35.2827814,39.2784098 35.608808,37.5835549 35.9677903,35.8969332 C36.1749407,35.1300731 36.399746,34.4079073 36.6845779,33.682213 C36.9788257,33.2505601 37.2919053,32.8412544 37.6179319,32.4472389 C38.391215,31.7027259 39.1727372,31.0040834 40.0319407,30.3748347 C40.5839496,30.0854979 41.1359584,29.8279176 41.7103301,29.5985653 C42.2340912,29.4927104 42.7496133,29.4056741 43.2733743,29.340985 C43.5770381,29.3680368 43.8759938,29.4009694 44.1749496,29.4468399 C44.6210292,29.5844513 45.052985,29.7408813 45.5120115,29.9196585 C47.6776752,30.7606171 50.0551973,30.3466067 51.8889496,29.106928 L53.0753566,29.1198658 C54.7761088,29.1245705 56.490985,28.9457933 58.1882062,28.8034772 C60.5009938,28.6058813 62.7855336,28.1789332 65.1077372,27.9989798 C67.3463743,27.9072389 69.5767726,27.7790368 71.8107018,27.5402751 C73.0430115,27.4014876 74.2753212,27.2873995 75.5123389,27.1862492 C75.4887991,25.9595083 75.5123389,24.7057155 75.8571973,23.5471922 C76.1973478,22.3898451 76.6752062,21.3924565 77.2954805,20.5103321 C77.4708522,19.7528813 77.5944363,18.9754358 77.7144894,18.203871 C77.8333655,17.0782803 77.9487106,15.947985 78.1829319,14.8588554 C78.2653212,14.4683684 78.3806664,14.0919953 78.5277903,13.7285601 C78.3994982,13.7332648 78.2700292,13.7426741 78.1417372,13.7520834" id="Fill-26"></path>
                <path d="M78.6498442,18.9563819 C78.6310124,18.9752005 78.6180655,18.9975477 78.6039416,19.0163663 C78.6592602,18.9657912 78.7098708,18.9152161 78.7651894,18.8646409 C78.7275257,18.8963974 78.686331,18.9246254 78.6498442,18.9563819" id="Fill-28"></path>
                <path d="M17.2029428,51.7054249 C17.1099605,51.805399 17.0169782,51.9041969 16.9239959,52.004171 C17.0075622,51.9030207 17.0970136,51.8065751 17.1899959,51.713658 C17.1947038,51.7113057 17.1994118,51.7077772 17.2029428,51.7054249 M27.5016153,41.9785337 C28.1242437,42.0114663 28.7327481,42.0726269 29.3518454,42.158487 C31.0502437,42.6113109 32.7086242,43.1946891 34.3811286,43.7521917 C36.3419959,44.4096684 38.3052171,45.0847876 40.1895799,45.9457409 C40.841633,46.3385803 41.4583764,46.7655285 42.0562879,47.2395233 C42.5953499,47.8264301 43.0896861,48.4380363 43.5545976,49.0837513 C44.1219074,50.0905492 44.6091817,51.1149896 45.0340755,52.1911813 C45.2094472,52.9039378 45.3483322,53.6131658 45.4542614,54.3400363 C45.4318985,54.9610518 45.375403,55.5714819 45.2871286,56.1866166 C45.0587923,56.9017254 44.7939693,57.5874301 44.4879516,58.2672539 C43.5840224,59.7586321 42.570633,61.1253368 41.4301286,62.4449948 C39.382164,64.5232798 37.1482348,66.3604508 34.733049,68.0070829 C32.4849959,69.3420311 30.1580844,70.4629171 27.6969959,71.3579793 C25.681987,71.930772 23.6493233,72.3341969 21.562518,72.5470829 C20.5291198,72.5459067 19.5157304,72.4835699 18.4952791,72.3400777 C18.1386507,72.228342 17.7914384,72.1060207 17.444226,71.9707617 C17.2088277,71.8096269 16.9816684,71.6426114 16.7580401,71.4685389 C16.6497569,71.341513 16.5450047,71.2109585 16.4426065,71.079228 C16.0012348,70.2606166 15.6316596,69.4243627 15.3021021,68.5504715 C14.6782968,66.2757668 14.2887127,63.9951813 14.0262437,61.6416736 C14.0109428,61.1206321 14.0027038,60.5995907 14.0097658,60.0761969 C14.0285976,58.8271088 14.2169162,57.6003679 14.4311286,56.3759793 C14.6029693,55.7467306 14.8007038,55.1304197 15.044341,54.5199896 C15.706987,53.4884922 16.4779162,52.5628497 17.2900401,51.6466166 C19.1602791,50.3493057 20.2854826,48.1569326 20.233695,45.8798756 C21.2823941,45.0553834 22.4052437,44.3108705 23.5057304,43.569886 C24.4167215,43.0382591 25.3394826,42.5642642 26.3140313,42.1737772 C26.7118543,42.0937979 27.1049693,42.0291088 27.5016153,41.9785337 M25.4065711,29.5417565 C23.1726419,29.758171 20.9516596,30.7637927 19.0072702,31.8341036 C16.2754738,33.3419482 13.8073233,35.2990881 11.3980224,37.2609326 C10.6435711,37.8713627 9.94090738,38.5888238 9.25589853,39.278057 C8.05065959,40.4765699 6.85130561,41.6809637 5.65077464,42.8841813 C4.75037641,43.7874767 4.05124366,44.7131192 3.69461535,45.8587047 C2.59765959,47.4418238 1.77376579,49.308399 1.23234986,51.1443938 C0.40492508,53.9613109 -0.00466784055,56.9887617 4.01240507e-05,59.9197668 C4.01240507e-05,62.006285 0.238969328,64.1057409 0.479075522,66.1734404 C0.648562248,67.624829 1.04873924,69.0632798 1.39359765,70.4829119 C1.86674809,72.4353472 2.56588083,74.3560259 3.37094278,76.1931969 C3.82996933,77.2458653 4.59854455,78.4126218 5.25059765,79.3265026 C6.18395163,80.627342 7.31033216,81.6423731 8.49203127,82.7220933 C9.38419057,83.5395285 10.6894738,84.1781865 11.7522968,84.6792332 C12.6432791,85.0979482 13.5036596,85.4049275 14.4558454,85.6719171 C16.7356773,86.3105751 19.034341,86.5399275 21.3930313,86.4752383 C26.1057038,86.3517409 30.5147127,85.2579067 34.9143056,83.599513 C38.7630667,82.152829 42.3352348,79.8416632 45.6131552,77.392886 C47.3468631,76.101456 48.9369782,74.6136062 50.4364649,73.0598912 C52.146633,71.2862332 53.7649959,69.4490622 55.1303056,67.3954767 C57.6726065,63.5682332 59.3604118,58.9964767 59.1344295,54.3612073 C59.0155534,51.8842021 58.6059605,49.6012642 57.7279251,47.2677513 C56.8769605,45.0200984 55.7140932,43.0723679 54.3899782,41.0646528 C53.3377481,39.4662435 51.9218277,38.2206839 50.5235622,36.9292539 C49.0758631,35.5884249 47.1667835,34.7204145 45.4154207,33.8747513 C43.3286153,32.8632487 41.0158277,32.2845751 38.8042614,31.6047513 C36.5197215,30.9061088 34.2163499,30.1945285 31.8623676,29.7487617 C30.5829782,29.5064715 29.3447835,29.4041451 28.0924649,29.4041451 C27.2108985,29.4041451 26.3222702,29.4547202 25.4065711,29.5417565" id="Fill-30"></path>
                <path d="M144.536632,66.5192332 C141.350517,64.6538342 140.260623,60.4549223 142.108499,57.2663368 C142.794685,56.090171 143.437322,54.8951865 144.068189,53.6919689 C145.207517,51.5231192 147.566207,50.3704767 149.924897,50.3704767 C151.111304,50.3704767 152.302419,50.6645181 153.327579,51.2655389 C154.840012,52.1523679 155.971101,53.6178705 156.434835,55.3091969 C156.936234,57.1240207 156.614915,58.8835648 155.754535,60.5184352 C155.124844,61.722829 154.48103,62.9166373 153.796021,64.0928031 C152.554296,66.2251917 150.247393,67.4201762 147.90165,67.4201762 C146.748198,67.4201762 145.585331,67.1308394 144.536632,66.5192332 M153.35465,47.4759326 C153.35465,43.7910052 156.434835,40.7129793 160.122349,40.7129793 C163.809862,40.7129793 166.890048,43.7910052 166.890048,47.4759326 C166.890048,51.1596839 163.809862,54.238886 160.122349,54.238886 C156.434835,54.238886 153.35465,51.1596839 153.35465,47.4759326 M112.247057,50.585715 C111.346658,50.4939741 110.42272,50.3881192 109.672977,49.8364974 C109.286924,49.6436062 109.245729,48.4039275 109.250437,48.1604611 C109.286924,46.2762435 110.104933,44.5672746 111.337242,43.1664611 C112.932065,41.3598705 115.17188,40.427171 117.548225,40.2260466 C117.733012,40.2119326 117.930747,40.2025233 118.132012,40.2025233 C119.134809,40.2025233 120.321216,40.4095285 121.02388,41.0705337 C121.368738,41.3975078 121.41111,42.0820363 121.406402,42.5089845 C121.401694,43.1982176 121.309888,43.9192073 121.083906,44.5719793 C120.413021,46.5338238 119.093614,48.5732953 117.162172,49.5059948 C115.871012,50.1281865 114.375057,50.6198238 112.906172,50.6198238 C112.686074,50.6198238 112.465977,50.6092383 112.247057,50.585715 M128.095242,36.3105907 C127.410234,35.9389223 127.571481,34.6663109 127.713897,34.0876373 C127.8928,33.3290104 128.321225,32.3963109 128.936791,31.8917358 C129.764216,31.2107358 130.844694,30.6226528 131.92988,30.6226528 C132.330057,30.6226528 132.725526,30.701456 133.111579,30.8849378 C133.801296,31.2154404 133.65888,32.5115751 133.55295,33.0726062 C133.405827,33.8759275 133.015065,34.6016218 132.477181,35.213228 C131.778048,36.0036114 130.532791,36.6140415 129.373455,36.6140415 C128.917959,36.6140415 128.481296,36.5223005 128.095242,36.3105907 M172.76088,20.3406114 C172.733809,20.3594301 172.706738,20.373544 172.67849,20.3911865 C172.706738,20.373544 172.733809,20.3594301 172.76088,20.3406114 M100.431242,41.7233057 C97.9030655,39.1969016 97.7194549,34.6616062 100.431242,32.1575492 C105.507605,27.4764093 111.006508,23.2857306 116.426552,19.0174249 C117.268101,18.181171 118.266189,17.5977927 119.410225,17.2766995 C120.012844,17.1978964 120.610756,17.1155648 121.213375,17.0379378 C123.001225,17.0379378 124.734933,17.7542228 125.999021,19.0174249 C127.258402,20.2806269 127.981074,22.0131192 127.981074,23.8008912 C127.981074,25.4087098 127.323136,27.5352176 125.999021,28.5831813 C120.574269,32.851487 115.075366,37.0374611 110.003712,41.7233057 C108.624278,42.9912124 106.863499,43.6663316 105.116844,43.6663316 C103.429039,43.6663316 101.747119,43.0370829 100.431242,41.7233057 M155.198995,1.72425907 C153.938437,3.23092746 152.651986,4.71054404 151.424384,6.24544041 C150.325074,7.61449741 149.263428,9.01060622 148.210021,10.4173005 C147.809844,9.3928601 147.102473,8.47780311 146.227968,7.85796373 C144.789685,6.83822798 142.908853,6.57123834 141.249296,7.12756477 C141.268127,6.99936269 141.281074,6.86998446 141.295198,6.74178238 C141.396419,5.47387565 140.945632,4.41650259 140.540747,3.25445078 C140.421871,2.91453886 140.23826,2.58874093 140.012278,2.28529016 C139.883986,2.26176684 139.755694,2.23471503 139.626225,2.21119171 C137.704198,1.83011399 135.815127,1.29143005 133.893101,0.905647668 C133.492924,0.888005181 133.097455,0.883300518 132.701986,0.897414508 C132.486596,1.03032124 132.284154,1.1867513 132.100543,1.36082383 C131.474384,1.93596891 130.849402,2.50523316 130.242074,3.0886114 C130.077296,2.53346114 129.824242,2.00418653 129.498216,1.53136788 C127.935172,1.92655959 126.375658,2.36762176 124.836154,2.76281347 C122.532782,3.35089637 120.191747,3.93897927 117.938986,4.72465803 C117.295172,5.02810881 116.660773,5.34920207 116.031083,5.67970466 C115.433172,6.48890674 114.781119,7.2604715 114.187915,8.06496891 C112.767287,9.97623834 111.433756,11.9510207 110.100225,13.9222746 C108.900871,15.6818187 107.760366,17.479 106.62457,19.2797098 C105.567632,19.1009326 104.458906,19.2103161 103.585579,19.734886 C102.716959,20.2582798 101.861287,20.7957876 101.024446,21.3697565 C100.546588,21.7790622 100.100508,22.2154197 99.690915,22.6882383 C99.1447912,23.2539741 98.6151451,23.8373523 98.1102159,24.4348446 C97.429915,25.2158187 96.767269,26.0144352 96.101092,26.8095233 C94.8958531,28.2479741 93.7424018,29.7181813 92.5877735,31.2025026 C91.6685434,32.3786684 90.8458265,33.6324611 90.0266407,34.8780207 C88.8131628,36.724601 87.8939327,38.7640725 87.6773664,40.9740881 C87.5631982,42.1408446 87.8939327,43.3170104 88.3494283,44.3743834 C88.4176938,44.5402228 88.5142071,44.7142953 88.6248442,44.8883679 C88.6989947,45.3117876 88.7531363,45.7340311 88.795508,46.1703886 C88.8414106,47.7652694 88.8414106,49.3636788 88.9791186,50.9585596 C89.1168265,52.5887254 89.3098531,54.210658 89.5170035,55.8325907 C89.8477381,58.4566166 90.0690124,61.0935803 90.3032336,63.7258394 C90.2985257,64.3786114 90.252623,65.0078601 90.1514018,65.6641606 C89.9218885,66.5698083 89.6594195,67.4566373 89.328685,68.3434663 C88.3164726,71.0815803 89.8018354,74.2101813 92.5324549,75.2075699 C95.3654726,76.236715 98.2797027,74.7018187 99.3966673,72.0048705 C99.5896938,71.5273472 99.7697735,71.0451192 99.9345522,70.5581865 C100.091092,70.8428187 100.27588,71.1039275 100.472437,71.3438653 C102.003703,73.1857409 104.950888,74.0266995 107.140092,72.8364197 C107.686216,72.5564922 108.215862,72.2436321 108.725499,71.9037202 C108.698428,71.9542953 108.674888,72.0095751 108.647818,72.0601503 C107.85688,73.5856373 107.181287,75.179342 106.518641,76.7695181 C105.650021,78.8454508 104.914402,80.9543161 104.684888,83.2066736 C104.537765,84.6345389 105.047402,86.1329741 105.958393,87.2303368 C107.300163,88.8475648 109.241021,89.3944819 111.2678,89.1651295 C111.553809,89.1333731 111.829225,89.0780933 112.091694,89.0086995 C111.318411,90.7682435 111.893959,93.0747047 113.075658,94.4990415 C114.311499,95.9880674 116.500703,96.9101813 118.435676,96.446772 C118.840561,96.3503264 119.23603,96.2538808 119.617375,96.1386166 C119.52557,97.5135544 119.921039,98.8779067 120.840269,99.9799741 C122.146729,101.556036 124.0358,102.07943 126.003729,101.859487 C127.148942,101.725404 128.178809,101.247881 129.158065,100.651565 C129.194552,100.751539 129.226331,100.852689 129.262818,100.953839 C129.686535,102.23586 131.111871,103.31558 132.325349,103.756642 C133.603561,104.221228 135.248995,104.23887 136.471888,103.577865 C137.368756,103.095637 138.21972,102.594591 138.996535,101.937114 C139.300198,101.684238 139.603862,101.344326 139.883986,101.059694 C140.600773,100.324591 141.304614,99.589487 142.003747,98.8367409 C142.973588,97.7887772 143.93872,96.7408135 144.876782,95.6610933 C146.063189,94.2967409 147.254304,92.9182746 148.388924,91.4986425 C148.485437,91.7103523 148.596074,91.9173575 148.725543,92.119658 C148.959765,92.4960311 149.198694,92.8676995 149.432915,93.2452487 C150.035535,93.9615337 150.775862,94.4849275 151.658605,94.8071969 C152.840304,95.2388497 154.509278,95.3035389 155.635658,94.6319482 C156.670234,94.0168135 157.630658,93.3499275 158.582844,92.6242332 C158.839428,92.4266373 159.101897,92.2384508 159.369074,92.0502642 C160.29772,91.5539223 161.285216,91.1763731 162.205623,90.6670933 C164.15472,89.5826684 165.746012,88.1453938 167.253738,86.5140518 C168.365995,85.3108342 169.437057,84.1017358 170.485756,82.8432383 C172.420729,80.5097254 174.265074,78.0927047 176.127074,75.6992073 C178.329225,72.8646477 180.563154,70.0665492 182.825331,67.2813886 C184.821508,64.8290829 186.908313,62.4485233 188.931561,60.0138601 C189.795473,58.970601 190.053234,57.3310259 189.819012,56.0348912 C189.575375,54.7022953 188.802092,53.4896684 187.694543,52.699285 C186.549331,51.8865544 185.096924,51.564285 183.712782,51.8171606 C182.292154,52.0747409 181.281119,52.855715 180.374835,53.9354352 C179.65334,54.7987409 178.927136,55.6585181 178.196225,56.5124145 C178.251543,57.7991399 177.989074,59.1823109 177.275818,60.1373575 C175.469136,62.5308549 173.57065,64.8608394 171.823995,67.2955026 C170.071455,69.7348705 168.384827,72.2165803 166.77588,74.7570984 C164.803242,77.8668808 160.784995,79.0936218 157.515313,77.1823523 C154.417473,75.3722332 153.111012,71.0451192 155.088358,67.929456 C156.697304,65.3889378 158.380402,62.9131088 160.136473,60.4678601 C161.883127,58.0331969 163.782791,55.7043886 165.589473,53.3108912 C166.187384,52.2946839 167.000685,51.486658 168.016428,50.8844611 C168.554313,50.6598135 169.092198,50.429285 169.630083,50.2046373 C170.218579,50.0435026 170.821198,49.961171 171.423818,49.961171 C172.618464,49.961171 173.809579,50.2728549 174.848862,50.8844611 C176.044685,51.5878083 177.00511,52.6534145 177.579481,53.9072073 C178.191517,53.0627202 178.797667,52.217057 179.409703,51.3713938 C181.197552,48.8861554 183.128995,46.3726891 184.619065,43.6992642 C185.188729,42.8900622 185.514756,41.9902953 185.60303,41.0070207 C185.71249,39.6097358 185.266411,38.2042176 184.375428,37.1244974 C182.820623,35.2590984 179.96995,34.6298497 177.813703,35.7095699 C177.92434,35.1720622 178.034977,34.6345544 178.150322,34.1052798 C178.324517,33.3019585 177.979658,31.6706166 177.639508,30.9496269 C177.16165,29.9157772 176.40249,29.2677098 175.543287,28.5690674 C174.817083,27.9809845 173.33172,27.5728549 172.420729,27.4987565 L172.38895,27.4987565 C173.891968,23.9608497 175.157234,20.3088549 175.946995,16.5557098 C176.021145,15.5900777 175.850481,14.6667876 175.446773,13.7893679 C174.788835,12.3744404 173.713065,11.5934663 172.343048,10.945399 C171.667455,10.6278342 170.927127,10.5455026 170.200924,10.3890725 C169.419402,10.2244093 168.5908,10.4443523 167.82811,10.7289845 C168.108234,9.99388083 168.384827,9.25054404 168.655535,8.51073575 C168.816782,8.06967358 168.982738,7.62390674 169.142809,7.1781399 C168.498995,7.09110363 167.855181,6.99936269 167.217251,6.89821244 C166.904172,6.81940933 166.586384,6.74178238 166.269773,6.65827461 C163.961694,5.86436269 161.745419,4.85756477 159.709225,3.50732642 C158.508694,2.71223834 157.35995,1.86187047 156.182959,1.03502591 C156.094685,0.975041451 156.012296,0.915056995 155.925198,0.850367876 C155.681561,1.14440933 155.442632,1.43492228 155.198995,1.72425907" id="Fill-32"></path>
                <path d="M104.043546,71.3784446 C104.118873,71.4490145 104.195378,71.5195845 104.271882,71.5901544 C104.268351,71.5936829 104.26482,71.5983876 104.262466,71.6019161 C104.19067,71.5266415 104.117696,71.452543 104.043546,71.3784446 M100.690298,60.2860249 C100.606732,61.5456984 100.563183,62.791258 100.55259,64.0356415 C98.7871035,63.9885948 96.8803779,64.8824808 95.8575726,66.3138746 C94.8147584,67.7887865 94.5711212,69.5989057 94.5569973,71.3502166 C94.5511124,72.1511855 94.6029,72.9603876 94.7123602,73.757828 C94.5334575,74.2153565 94.4169354,74.7081699 94.3733867,75.2362684 C94.3039442,75.8384653 94.3133602,76.4406622 94.4051655,77.0416829 C94.5840681,77.6991596 94.7770947,78.3519316 94.9477584,79.0082321 C95.3502894,80.5278383 95.8775814,82.0262736 96.3813336,83.5164756 C95.9941035,84.1633668 95.7410504,84.8831803 95.7104487,85.6653306 C95.664546,86.8414964 95.7610593,87.8988694 96.1059177,89.0150508 C96.4001655,89.9665689 96.7226611,90.8157606 97.1781566,91.697885 C97.5183071,92.2400974 97.8584575,92.7870145 98.2033159,93.3245223 C98.5752451,93.876144 99.0354487,94.344258 99.5733336,94.7394497 C100.118281,95.2416725 100.747971,95.6309834 101.422387,95.9062062 C101.434157,95.9203202 101.445927,95.9344342 101.457696,95.9485482 C102.087387,96.6965896 102.648812,97.501087 103.227891,98.2914705 C104.018829,99.3806 104.993378,100.078066 106.235104,100.579113 C107.122555,100.901382 108.027661,100.974305 108.956307,100.808465 C109.710758,100.670854 111.126679,100.106294 111.678688,99.5323254 C112.083573,99.1136104 112.487281,98.6866622 112.878042,98.2503047 C113.342953,97.4505119 113.779617,96.6507192 114.124475,95.7921181 C114.483458,94.8911751 114.703555,93.953771 114.942484,93.0210715 C115.434466,91.1239161 115.682812,89.2632218 115.752254,87.3154912 C115.788741,86.1946052 115.779325,85.0737192 115.815812,83.951657 C115.844059,82.9366259 115.904086,81.9262995 115.921741,80.9100922 C115.967643,78.6506777 116.032378,76.219543 114.331626,74.4694083 C113.74313,73.7660611 113.016927,73.2520767 112.151838,72.9345119 C111.551573,72.7169212 110.918351,72.6169472 110.288661,72.6322373 C110.579378,71.885372 110.728856,71.0891078 110.818307,70.275201 C110.91482,69.3695534 110.759458,68.4274446 110.713555,67.5182684 C110.699431,67.2912684 110.686484,67.0654446 110.67236,66.8396207 C110.614688,64.9201181 110.666475,63.0194342 110.791236,61.0952269 C110.970139,58.342999 108.929236,55.8671699 106.148006,55.6413461 C106.018537,55.6319368 105.890245,55.626056 105.761953,55.626056 C103.185519,55.626056 100.86567,57.6643513 100.690298,60.2860249" id="Fill-34"></path>
                <path d="M151.995107,74.9258782 C151.870346,75.0176192 151.737346,75.1023031 151.598461,75.1775777 C151.730284,75.0928938 151.863284,75.009386 151.995107,74.9258782 M147.293027,45.3711839 C147.334222,45.4370492 147.376594,45.5017383 147.420142,45.5664275 C147.357762,45.7040389 147.295381,45.8416503 147.231824,45.9804378 C147.177682,45.9028109 147.122364,45.8275363 147.067045,45.7557902 C147.142373,45.6275881 147.2177,45.499386 147.293027,45.3711839 M156.996142,29.6105622 C155.860346,29.6611373 154.729258,29.7164171 153.677027,30.2256969 C153.060284,30.4973912 152.481204,30.8325984 151.933904,31.2324948 C151.799727,31.3583446 151.671435,31.488899 151.544319,31.6218057 C150.887558,31.4641995 150.208435,31.3665777 149.570505,31.2595466 C148.890204,31.1995622 148.205196,31.2136762 147.524895,31.2913031 C146.610373,31.383044 145.580505,31.6182772 144.743665,32.0087642 C142.725125,32.9461684 141.456328,34.7374689 140.339364,36.5758161 C139.22593,38.3988731 138.127797,40.2325155 137.02378,42.0614534 C136.620072,42.725987 136.208125,43.3858161 135.798532,44.0468212 C135.742036,44.0574067 135.686718,44.0691684 135.631399,44.0821062 C135.042904,44.2161891 134.467355,44.3902617 133.907107,44.6019715 C133.37393,44.9230648 132.844284,45.2629767 132.329939,45.6122979 C132.021567,45.9475052 131.709665,46.2827124 131.396585,46.6143912 C130.978753,47.0142876 130.619771,47.4588782 130.325523,47.9552202 C129.713488,48.8244067 129.170895,49.7382876 128.618886,50.6427591 C127.327727,52.770443 126.150735,55.026329 125.502213,57.4339404 C125.22562,58.4630855 125.051426,59.4734119 125.005523,60.530785 C124.945496,61.9680596 125.258576,63.2594896 125.860019,64.5509197 C127.133523,67.2890337 130.720992,68.5251839 133.442196,67.256101 C134.289629,66.8609093 134.959337,66.2657694 135.543125,65.5847694 C135.527824,66.9056036 135.561957,68.2252617 135.773815,69.5308057 C135.962134,70.6881528 136.51885,71.7502306 137.148541,72.7052772 C137.534594,73.2886554 137.985381,73.7167798 138.482072,74.2084171 C139.097638,74.9482254 139.856797,75.4810285 140.761904,75.8162358 C141.998921,76.2667073 143.663187,76.3031684 144.844886,75.6362824 C145.580505,75.2187435 146.362027,74.8235518 147.042328,74.3178005 L147.104709,74.2695777 C147.063514,74.5436244 147.024673,74.8164948 146.98701,75.0905415 L146.918744,75.9444378 C146.936399,76.6795415 146.964647,77.4146451 147.015258,78.145044 C147.418965,80.1762824 148.255806,82.1934067 149.970682,83.4707228 C150.49562,83.9023756 151.0747,84.2422876 151.709098,84.4904585 C152.70601,84.8527176 154.140762,84.9174067 155.184753,84.7245155 C156.697187,84.4492927 158.168426,83.6400907 159.277151,82.5968316 C160.214036,81.7182358 161.033222,80.7149663 161.730001,79.6317176 C162.059558,79.4552927 162.370284,79.2600492 162.670417,79.045987 C162.773992,79.1918316 162.881098,79.3376762 162.991735,79.4823446 C163.602594,80.2127435 164.357045,80.740842 165.253912,81.0725207 C165.828284,81.3983187 166.453266,81.5770959 167.133567,81.6147332 C168.25524,81.6464896 169.281576,81.6370803 170.32439,81.1501477 C171.197718,80.7455466 172.246417,79.8822409 172.78901,79.0918575 C173.459895,78.1226969 174.057806,77.130013 174.641594,76.1055725 C176.522426,72.8111321 178.273788,69.3520285 179.676762,65.8235311 C180.357063,64.1051528 180.728992,62.290329 181.119753,60.4896192 C181.616443,58.1737487 181.409293,55.6602824 181.105629,53.3361788 C180.982045,52.3611373 180.692505,51.4155 180.402965,50.4780959 C180.058107,49.3666192 179.694417,48.272785 179.230682,47.2071788 C178.8717,46.3756295 178.305567,45.6311166 177.77239,44.9054223 C177.133284,44.0315311 176.085762,43.4481528 175.174771,42.9106451 C174.383833,42.3554948 173.501089,42.0332254 172.535957,41.9508938 C171.621435,41.8779715 170.440912,42.0626295 169.534629,42.5542668 C169.493435,41.9203135 169.431054,41.2887124 169.359258,40.6641684 C169.188594,39.1798472 168.674249,37.7378679 168.177558,36.3358782 C167.791505,35.2479249 167.037054,34.1999611 166.306142,33.3225415 C165.804744,32.8450181 165.295107,32.3804326 164.784293,31.9170233 C164.173435,31.3654016 163.047054,30.7679093 162.329089,30.4879819 C161.239196,30.0598575 160.085744,29.8446192 158.927585,29.665842 C158.541532,29.5988005 158.154302,29.5658679 157.768249,29.5658679 C157.511665,29.5658679 157.253904,29.5799819 156.996142,29.6105622" id="Fill-36"></path>
            </g>
        </g>
    </g>
</svg>