<?xml version="1.0" encoding="utf-8"?>
<!-- Generator: Adobe Illustrator 16.0.0, SVG Export Plug-In . SVG Version: 6.00 Build 0)  -->
<!DOCTYPE svg PUBLIC "-//W3C//DTD SVG 1.1//EN" "http://www.w3.org/Graphics/SVG/1.1/DTD/svg11.dtd">
<svg version="1.1" id="Layer_1" xmlns="http://www.w3.org/2000/svg" xmlns:xlink="http://www.w3.org/1999/xlink" x="0px" y="0px"
	 width="800px" height="1000px" viewBox="0 0 800 1000" enable-background="new 0 0 800 1000" xml:space="preserve">
<title>atom_DL</title>
<desc>Created with Sketch.</desc>
<g id="atom_DL">
	<g id="atom" transform="translate(245.000000, 270.000000)">
		<path id="Fill-1" d="M160.072,152.522c1.701-0.458,3.388-0.76,5.125-0.933c0.779,0.027,1.539,0.134,2.311,0.274
			c2.456,0.599,4.855,1.376,7.151,2.438c1.767,1.036,3.376,2.247,4.918,3.592c1.658,1.645,3.332,3.304,4.706,5.193
			c0.271,0.517,0.513,1.039,0.738,1.576c0.146,0.699,0.249,1.387,0.319,2.096c0.04,3.452-0.097,6.837-0.728,10.245
			c-1.078,4.345-2.714,8.505-4.649,12.531c-1.551,2.742-3.208,5.464-5.201,7.902c-0.369,0.352-0.747,0.684-1.149,1
			c-0.741,0.386-1.502,0.701-2.288,0.998c-1.971,0.573-3.979,1.066-6.016,1.3c-0.726-0.008-1.435-0.064-2.16-0.168
			c-2.494-0.669-4.974-1.674-7.299-2.812c-0.697-0.425-1.346-0.881-1.977-1.393c-1.725-1.759-3.309-3.693-4.858-5.598
			c-1.449-1.782-2.829-3.62-4.114-5.526c-0.194-0.4-0.366-0.804-0.524-1.213c-0.34-1.339-0.561-2.686-0.759-4.058
			c-0.134-0.921-0.507-1.754-1.046-2.459c0.344-0.083,0.68-0.199,1.001-0.35c1.367-0.637,2.438-1.806,2.952-3.225
			c0.543-1.487,0.388-2.938-0.188-4.372c-0.029-0.073-0.06-0.146-0.088-0.219c0.04-1.163,0.188-2.307,0.404-3.45
			c0.528-2.213,1.157-4.404,2.093-6.479c0.599-1.002,1.239-1.951,1.976-2.854c0.526-0.476,1.073-0.915,1.648-1.326
			c1.183-0.635,2.419-1.129,3.688-1.564C157.389,153.27,158.726,152.887,160.072,152.522 M162.027,139.371
			c-2.139,0.273-4.2,0.957-6.25,1.602c-2.434,0.769-4.94,1.443-7.275,2.485c-5.521,2.464-9.399,7.233-11.486,12.833
			c-0.746,2.001-1.118,4.2-1.551,6.28c-0.352,1.667-0.601,3.322-0.69,5.026c-0.065,1.238-0.004,2.534,0.2,3.756
			c0.175,1.042,0.616,2.063,1.008,3.041c0.13,0.322,0.291,0.622,0.479,0.901c-1.372,0.331-2.604,1.16-3.423,2.314
			c-0.98,1.381-1.139,2.832-0.991,4.463c0.109,1.259,0.302,2.521,0.669,3.735c0.359,1.189,0.719,2.382,1.163,3.547
			c0.552,1.427,1.503,2.693,2.36,3.952c1.462,2.157,3.091,4.188,4.78,6.17c0.76,0.888,1.527,1.774,2.312,2.637
			c0.728,0.801,1.454,1.585,2.242,2.329c0.804,0.756,1.584,1.447,2.465,2.101c1.12,0.825,2.472,1.406,3.721,2.007
			c1.285,0.621,2.666,1.083,4.014,1.565c3.065,1.091,6.197,2.002,9.484,1.871c3.249-0.131,6.561-0.834,9.681-1.777
			c1.29-0.388,2.563-0.78,3.793-1.332c1.575-0.707,3.013-1.819,4.263-3.003c1.641-1.563,2.992-3.417,4.308-5.257
			c3.421-4.772,6.087-10.012,7.982-15.574c0.889-2.611,1.542-5.264,2.065-7.98c0.473-2.444,0.563-4.905,0.636-7.386
			c0.058-1.99-0.064-4.025-0.248-6.003c-0.155-1.708-0.764-3.385-1.396-4.966c-0.714-1.79-1.862-3.432-3.059-4.928
			c-0.938-1.178-2.008-2.269-3.082-3.33c-2.091-2.068-4.242-4.052-6.677-5.718c-1.709-1.17-3.633-2.093-5.531-2.914
			c-1.74-0.752-3.593-1.234-5.422-1.7c-1.928-0.486-3.888-0.908-5.867-1.084c-0.281-0.024-0.565-0.035-0.851-0.035
			C164.581,139,163.271,139.215,162.027,139.371"/>
		<path id="Fill-3" d="M224.748,236.65c-0.074,0.34-0.149,0.682-0.223,1.022C224.598,237.332,224.673,236.99,224.748,236.65
			 M103.163,177.452c0.012,0.228,0.022,0.454,0.032,0.683C103.185,177.907,103.174,177.68,103.163,177.452 M223.417,66.379
			c0.04,0.124,0.078,0.248,0.117,0.373C223.495,66.628,223.457,66.503,223.417,66.379 M162.464,5.179
			c-1.345,0.109-2.685,0.244-4.028,0.386c-2.563,0.269-5.055,0.898-7.492,1.733c-2.736,0.939-5.367,2.196-8.027,3.335
			c-2.461,1.058-4.904,2.123-7.305,3.323c-2.798,1.399-5.449,3.145-7.841,5.166c-1.21,1.018-2.312,2.176-3.383,3.333
			c-2.079,2.241-4.122,4.511-6.12,6.82c-3.909,4.516-7.04,9.519-9.594,14.913c-1.121,2.363-1.917,4.906-2.778,7.371
			c-0.844,2.424-1.766,4.816-2.639,7.228c-0.967,2.673-1.926,5.349-2.79,8.059c-0.946,2.969-1.633,5.999-2.25,9.055
			c-0.503,2.485-0.893,5-1.295,7.505c-0.435,2.697-0.885,5.394-1.255,8.103c-0.763,5.625-1.449,11.264-2.144,16.902
			c-1.336,10.832-1.454,21.806-1.486,32.708c-0.036,10.901-0.146,21.819,0.333,32.708c0.203,4.609,0.451,9.214,0.689,13.817
			c-0.023-0.463-0.048-0.931-0.072-1.395c0.228,5.45,0.39,10.896,0.556,16.353c0.179,5.951,0.642,11.869,1.271,17.788
			c0.584,5.544,0.991,11.104,1.56,16.648c0.552,5.447,1.304,10.877,2.079,16.299c0.734,5.155,1.612,10.373,2.992,15.4
			c1.563,5.687,3.326,11.333,5.189,16.926c1.713,5.15,3.764,10.112,6.107,15.007c1.197,2.493,2.465,4.954,3.679,7.439
			c1.201,2.449,2.4,4.885,3.728,7.27c1.519,2.729,3.459,5.243,5.291,7.766c1.519,2.094,3.094,4.132,4.738,6.125
			c1.949,2.363,4.224,4.463,6.469,6.533c1.957,1.81,4.012,3.543,6.18,5.096c2.246,1.615,4.536,3.117,6.932,4.5
			c2.758,1.586,5.706,2.823,8.601,4.125c1.197,0.536,2.396,1.044,3.634,1.479c3.046,1.075,6.322,1.359,9.438,0.465
			c1.478-0.428,2.968-0.937,4.394-1.521c2.387-0.977,4.567-2.25,6.691-3.727c2.16-1.501,4.077-3.441,5.859-5.361
			c2.241-2.42,4.401-4.885,6.465-7.46c1.709-2.128,3.276-4.36,4.778-6.635c1.442-2.176,2.64-4.515,3.895-6.801
			c1.499-2.726,2.969-5.459,4.316-8.262c1.198-2.497,2.205-5.101,3.269-7.659c2.056-4.923,4.454-9.709,6.68-14.559
			c1.157-2.529,2.246-5.072,3.217-7.685c0.889-2.391,1.681-4.823,2.501-7.24c1.847-5.418,3.589-10.877,5.352-16.327
			c0.792-2.462,1.682-4.886,2.534-7.327c0.941-2.708,1.782-5.429,2.481-8.216c0.722-2.893,1.299-5.825,1.928-8.742
			c0.561-2.618,1.093-5.243,1.556-7.883c0.926-5.296,1.461-10.652,2.107-15.986c0.666-5.503,1.242-11.016,1.692-16.538
			c0.435-5.346,0.617-10.712,0.772-16.072c0.149-5.373,0.085-10.742-0.102-16.112c-0.054-1.573-0.118-3.152-0.195-4.727
			c-0.026-0.515-0.03-1.018-0.074-1.514c-0.012-0.225-0.022-0.449-0.039-0.675c-0.069-0.951-0.143-1.899-0.211-2.852
			c-0.191-2.542-0.516-5.08-0.813-7.61c-0.333-2.859-0.649-5.715-0.967-8.578c-0.601-5.447-1.571-10.837-2.452-16.248
			c-0.423-2.591-0.73-5.198-1.113-7.793c-0.418-2.864-0.925-5.695-1.551-8.522c-0.682-3.087-1.604-6.134-2.448-9.18
			c-0.832-3.023-1.555-6.078-2.307-9.125c-0.886-3.567-1.888-7.09-3.131-10.552c-1.021-2.835-2.343-5.546-3.344-8.385
			c-0.434-1.395-0.856-2.792-1.305-4.184c-0.395-1.225-0.76-2.494-1.43-3.6c-0.244-0.39-0.491-0.781-0.739-1.171
			c-0.625-0.753-1.396-1.293-2.311-1.632c-1.344-0.491-2.842-0.423-4.138,0.179c-2.696,1.261-3.825,4.511-2.615,7.204
			c1.39,3.087,2.246,6.399,3.473,9.555c0.698,1.798,1.485,3.563,2.196,5.358c0.566,1.429,1.063,2.878,1.543,4.335
			c1.491,5.214,2.809,10.477,4.341,15.681c0.76,2.591,1.547,5.175,2.155,7.806c0.65,2.807,1.134,5.63,1.553,8.481
			c0.369,2.534,0.682,5.081,1.107,7.606c0.447,2.669,0.93,5.334,1.356,8.006c0.89,5.531,1.454,11.104,2.148,16.665
			c0.405,3.249,0.746,6.496,0.997,9.762c0.004,0.203,0.02,0.407,0.046,0.608c0.001,0.004,0.001,0.008,0.001,0.014
			c0.225,4.838,0.372,9.691,0.271,14.531c-0.114,5.5-0.378,10.99-0.698,16.479c-0.638,10.926-2.038,21.827-3.322,32.691
			c-0.657,5.559-1.826,11.036-3.015,16.498c-0.582,2.541-1.199,5.065-2.02,7.542c-0.878,2.657-1.881,5.272-2.822,7.908
			c-1.852,5.202-3.359,10.535-5.076,15.782c-0.853,2.612-1.754,5.207-2.647,7.806c-0.865,2.503-1.729,5.008-2.818,7.424
			c-2.229,4.972-4.588,9.873-6.883,14.812c-1.874,4.037-3.426,8.207-5.339,12.226c-0.922,1.711-1.867,3.406-2.817,5.099
			c-1.113,1.977-2.209,3.974-3.501,5.837c-2.701,3.896-5.756,7.505-8.907,11.039c-2.129,2.247-4.316,4.398-6.854,6.199
			c-1.664,0.961-3.389,1.699-5.205,2.338c-0.646,0.192-1.291,0.365-1.958,0.479c-0.392-0.02-0.778-0.061-1.167-0.118
			c-1.848-0.557-3.595-1.369-5.353-2.169c-1.538-0.703-3.08-1.403-4.603-2.138c-2.509-1.379-4.917-2.891-7.274-4.526
			c-2.392-1.667-4.618-3.528-6.782-5.475c-4.884-4.779-9.098-10.249-12.856-15.958c-1.627-2.881-3.102-5.834-4.591-8.79
			c-1.47-2.912-2.988-5.805-4.341-8.774c-2.67-5.863-4.693-11.959-6.659-18.087c-1.556-5.001-3.024-10.005-3.996-15.158
			c-0.994-5.301-1.778-10.625-2.469-15.97c-0.727-5.639-1.286-11.276-1.713-16.946c-0.423-5.674-1.101-11.328-1.516-17.007
			c-0.101-1.408-0.158-2.814-0.227-4.227c0.024,0.468,0.045,0.936,0.068,1.403c-0.183-4.938-0.313-9.876-0.511-14.814
			c-0.199-5.046-0.518-10.084-0.805-15.126c-0.237-5.082-0.426-10.165-0.418-15.255c0.008-5.757,0.021-11.513,0.053-17.265
			c0.028-5.378,0.126-10.755,0.279-16.133c0.155-5.36,0.375-10.738,0.984-16.07c1.389-12.086,2.816-24.211,5.318-36.127
			c1.363-5.254,3.187-10.333,5.137-15.396c1.769-4.574,3.357-9.24,5.476-13.665c1.645-2.844,3.46-5.546,5.439-8.167
			c1.736-2.296,3.752-4.4,5.719-6.509c-0.019,0.019-0.036,0.039-0.054,0.059c0.787-0.822,1.563-1.652,2.387-2.433
			c1.51-1.426,3.076-2.728,4.788-3.895c2.983-1.748,6.149-3.114,9.323-4.477c2.728-1.171,5.429-2.457,8.23-3.442
			c3.084-0.85,6.35-1.317,9.549-1.555c1.023,0.003,2.021,0.075,3.026,0.23c1.292,0.368,2.554,0.807,3.821,1.265
			c2.939,1.061,6.277-0.484,7.349-3.433c1.073-2.953-0.49-6.285-3.426-7.366c-1.284-0.473-2.563-0.985-3.874-1.376
			c-1.328-0.395-2.688-0.67-4.053-0.895C167.408,5.047,166.595,5,165.777,5C164.665,5,163.547,5.087,162.464,5.179"/>
		<path id="Fill-5" d="M110.33,115.031c-0.133,0.084-0.267,0.168-0.398,0.252C110.063,115.199,110.196,115.116,110.33,115.031
			 M248.271,64.406c-5.344,0.379-10.691,1.14-15.969,2.017c-5.36,0.889-10.651,2.274-15.938,3.505
			c-5.666,1.32-11.375,2.363-16.902,4.205c-2.833,0.945-5.63,1.972-8.434,2.979c-2.584,0.925-5.201,1.749-7.789,2.662
			c-5.104,1.806-10.071,3.965-15.171,5.787c-2.177,0.778-4.353,1.548-6.488,2.429c-2.145,0.88-4.231,1.892-6.326,2.873
			c-4.17,1.956-8.538,3.419-12.631,5.543c-2.014,1.046-3.953,2.241-5.927,3.361c-1.785,1.015-3.607,1.981-5.457,2.877
			c-2.03,0.982-4.043,1.977-6.012,3.073c-1.999,1.117-3.898,2.445-5.819,3.7c-2.83,1.726-5.652,3.453-8.453,5.22
			c-2.449,1.522-4.952,2.971-7.359,4.556c-2.335,1.537-4.576,3.187-6.811,4.874c-2.229,1.683-4.537,3.251-6.835,4.846
			c-2.188,1.516-4.202,3.234-6.195,4.991c-2.03,1.785-4.027,3.606-6.053,5.392c-2.078,1.826-4.133,3.667-6.118,5.595
			c-3.875,3.766-7.416,7.861-11.068,11.847c-2.112,2.189-4.292,4.312-6.43,6.477c-2.47,2.502-4.826,5.139-7.08,7.832
			c-1.989,2.389-3.986,4.76-6.053,7.083c-2.021,2.27-3.798,4.633-5.388,7.226c-0.742,1.206-1.125,2.465-0.864,3.887
			c0.237,1.304,0.986,2.49,2.07,3.256c2.165,1.541,5.674,1.17,7.146-1.206c1.037-1.674,2.183-3.204,3.474-4.69
			c1.865-1.976,3.776-3.911,5.592-5.937c1.817-2.032,3.597-4.093,5.437-6.106c1.198-1.264,2.407-2.511,3.644-3.731
			c1.291-1.276,2.641-2.499,3.912-3.79c2.856-2.902,5.598-5.904,8.344-8.91c2.591-2.729,5.258-5.347,8.046-7.88
			c2.934-2.661,5.938-5.262,8.893-7.906c1.565-1.401,3.155-2.755,4.818-4.038c1.549-1.194,3.208-2.25,4.785-3.403
			c3.274-2.395,6.447-4.91,9.822-7.17c2.755-1.725,5.516-3.44,8.254-5.186c-0.395,0.252-0.794,0.506-1.189,0.758
			c3.646-2.303,7.349-4.517,10.98-6.847c4.333-2.624,9.029-4.571,13.454-7.046c2.25-1.255,4.454-2.636,6.798-3.716
			c2.608-1.202,5.283-2.238,7.945-3.309c2.47-0.994,4.837-2.229,7.267-3.321c2.616-1.177,5.299-2.156,8.01-3.105
			c2.604-0.909,5.2-1.83,7.776-2.824c2.413-0.934,4.813-1.907,7.26-2.747c2.869-0.982,5.775-1.871,8.636-2.877
			c2.674-0.938,5.341-1.886,8.025-2.782c1.992-0.544,3.98-1.059,5.992-1.529c1.969-0.464,3.967-0.831,5.938-1.271
			c4.211-0.934,8.409-1.923,12.628-2.832c7.779-1.677,15.703-2.649,23.64-3.182c7.667-0.19,15.319,0.121,22.96,0.749
			c4.006,0.33,8.028,0.501,12.027,0.892c3.766,0.364,7.485,0.842,11.2,1.548c2.37,0.56,4.693,1.212,6.919,2.238
			c0.978,0.565,1.903,1.189,2.784,1.9c0.591,0.629,1.136,1.288,1.647,1.986c0.407,0.747,0.749,1.512,1.055,2.314
			c0.321,1.135,0.597,2.268,0.793,3.441c0.205,1.248,0.313,2.503,0.41,3.762c0.043,2.236-0.058,4.438-0.374,6.667
			c-0.328,2.316-0.777,4.606-1.245,6.895c-1.061,4.519-2.333,8.964-3.857,13.352c-1.535,4.403-3.621,8.603-5.739,12.752
			c-1.862,3.476-3.759,6.931-5.682,10.374c-1.883,3.374-3.827,6.72-6.061,9.878c-2.319,3.285-4.847,6.395-7.426,9.479
			c-2.466,2.94-4.926,5.878-7.499,8.726c-3.108,3.187-6.293,6.337-9.596,9.323c-3.592,3.244-7.329,6.301-11.082,9.356
			c-7.282,5.924-14.629,11.848-22.505,16.974c-4.374,2.7-8.804,5.309-13.217,7.946c-4.751,2.844-9.401,5.832-14.063,8.814
			c-2.272,1.378-4.557,2.721-6.887,4.002c-2.372,1.3-4.772,2.552-7.12,3.896c-2.502,1.435-4.969,2.917-7.422,4.425
			c-2.247,1.378-4.521,2.75-6.894,3.904c-4.996,2.429-10.088,4.653-15.076,7.091c-4.883,2.388-9.562,5.135-14.637,7.119
			c-4.001,1.559-8.015,3.025-12.098,4.354c-4.35,1.337-8.707,2.648-13.075,3.911c-4.337,1.251-8.75,2.172-13.157,3.13
			c-4.731,1.026-9.48,1.973-14.225,2.918c-2.29,0.46-4.598,0.811-6.896,1.193c-2.228,0.371-4.447,0.705-6.689,0.94
			c-1.345,0.006-2.673-0.046-4.018-0.183c-1.646-0.162-3.285-0.367-4.933-0.517c-3.313-0.302-6.647-0.428-9.969-0.656
			c-1.614-0.114-3.224-0.225-4.834-0.396c-1.59-0.171-3.167-0.469-4.741-0.75c-2.847-0.503-5.705-0.947-8.542-1.497
			c-3.287-0.815-6.451-1.878-9.479-3.396c-0.821-0.435-1.644-0.864-2.471-1.291c-0.86-0.475-1.692-0.985-2.452-1.62
			c-0.917-0.768-1.817-1.558-2.713-2.351c-1.265-1.289-2.408-2.696-3.451-4.17c-0.471-0.834-0.874-1.685-1.217-2.594
			c-1.138-3.786-2.027-7.711-2.358-11.647c-0.018-1.699,0.147-3.418,0.483-5.079c0.081-1.072-0.106-2.099-0.555-3.077
			c-0.685-1.463-1.936-2.612-3.456-3.162c-3.115-1.133-6.729,0.514-7.842,3.655c-1.048,2.955-0.892,6.104-0.648,9.174
			c0.204,2.551,0.729,5.053,1.247,7.551c0.583,2.804,1.509,5.582,2.561,8.239c0.542,1.37,1.446,2.646,2.25,3.856
			c0.688,1.03,1.533,1.952,2.356,2.876c2.009,2.25,4.373,4.157,6.737,6.023c2.062,1.63,4.602,2.621,6.92,3.831
			c4.879,2.551,10.248,3.876,15.652,4.788c2.584,0.437,5.169,0.88,7.752,1.309c2.629,0.432,5.258,0.619,7.916,0.758
			c2.792,0.151,5.589,0.229,8.384,0.391c2.707,0.155,5.393,0.575,8.1,0.722c2.982,0.159,5.971-0.065,8.914-0.559
			c2.693-0.447,5.392-0.893,8.078-1.397c5.368-1.011,10.716-2.188,16.051-3.379c5.172-1.156,10.304-2.362,15.391-3.863
			c5.355-1.577,10.719-3.202,16.006-4.996c5.196-1.76,10.426-3.671,15.342-6.116c2.506-1.248,4.965-2.584,7.458-3.852
			c2.459-1.247,4.945-2.429,7.448-3.577c3.785-1.744,7.715-3.285,11.339-5.351c4.022-2.291,7.92-4.793,11.93-7.1
			c3.771-2.168,7.618-4.189,11.376-6.369c4.058-2.355,7.924-5.053,11.861-7.604c4.403-2.754,8.867-5.405,13.304-8.11
			c4.87-2.968,9.732-5.913,14.339-9.292c4.634-3.398,9.158-6.939,13.626-10.547c4.271-3.446,8.51-6.923,12.581-10.604
			c2.034-1.837,3.987-3.773,5.972-5.664c1.907-1.821,3.758-3.685,5.563-5.607c4.117-4.385,7.977-9.034,11.797-13.677
			c3.455-4.201,6.268-8.867,8.982-13.562c3.004-5.201,5.833-10.506,8.563-15.853c4.98-9.744,8.091-20.364,10.092-31.094
			c0.481-2.584,0.966-5.253,0.933-7.89c-0.032-3.027-0.036-6.202-0.647-9.181c-0.433-2.107-1.022-4.153-1.793-6.169
			c-0.6-1.578-1.627-3.016-2.601-4.377c-1.292-1.801-3.073-3.301-4.875-4.564c-1.427-1.002-3.057-1.776-4.635-2.51
			c-1.092-0.509-2.253-0.925-3.41-1.251c-1.826-0.518-3.652-0.979-5.512-1.378c-5.38-1.153-10.809-1.789-16.295-2.184
			c-5.613-0.408-11.217-0.938-16.842-1.15c-2.18-0.081-4.361-0.124-6.54-0.124C255.987,64,252.128,64.131,248.271,64.406"/>
		<path id="Fill-7" d="M55.529,62.472c-2.975,0.329-5.937,1.182-8.782,2.087c-2.412,0.767-4.78,1.623-7.074,2.699
			c-3.422,1.604-6.813,3.272-9.731,5.72c-2.327,1.949-4.405,4.141-6.463,6.365c-1.796,1.941-3.765,3.837-5.252,6.028
			c-1.711,2.517-3.228,5.151-4.577,7.879c-1.613,3.256-2.412,6.901-2.6,10.526c-0.135,2.588,0.028,5.156,0.169,7.738
			c0.053,1.269,0.09,2.546,0.214,3.807c0.143,1.422,0.359,2.797,0.607,4.202c0.196,1.121,0.51,2.27,0.844,3.357
			c0.538,1.746,1.051,3.495,1.687,5.209c1.006,2.731,2.086,5.431,3.215,8.118c1.043,2.488,2.165,4.932,3.166,7.437
			c0.481,1.198,0.921,2.412,1.387,3.617c0.513,1.331,1.206,2.594,1.903,3.836c1.385,2.468,2.758,4.937,4.299,7.312
			c1.454,2.245,2.978,4.502,4.78,6.487c1.83,2.017,3.806,3.905,5.705,5.857c3.94,4.067,7.934,8.078,12.091,11.922
			c0.391,0.366,0.786,0.728,1.177,1.093c1.911,1.766,4.059,3.288,6.146,4.843c2.176,1.615,4.263,3.345,6.373,5.046
			c2.05,1.652,4.152,3.243,6.214,4.892c2.042,1.628,4.039,3.297,6.162,4.823c2.098,1.506,4.188,3.02,6.292,4.518
			c2.233,1.591,4.567,3.028,6.883,4.497c2.354,1.49,4.62,3.118,6.915,4.702c2.27,1.566,4.625,3.012,6.964,4.47
			c4.711,2.942,9.429,5.869,14.185,8.739c2.262,1.363,4.503,2.756,6.728,4.177c2.071,1.324,4.101,2.716,6.203,3.986
			c2.306,1.393,4.67,2.684,7.029,3.986c2.664,1.478,5.325,2.983,8.085,4.282c4.955,2.334,9.91,4.645,14.833,7.044
			c4.592,2.241,9.286,4.267,13.911,6.438c5.017,2.354,10.094,4.591,15.13,6.908c2.426,1.113,4.906,2.091,7.396,3.045
			c2.388,0.913,4.727,1.932,7.136,2.792c2.347,0.837,4.829,1.288,7.229,1.953c2.514,0.698,4.971,1.462,7.559,1.896
			c1.401,0.235,2.823,0.34,4.23,0.548c1.694,0.494,3.37,1.23,5.158,1.152c0.473-0.023,0.949-0.049,1.422-0.068
			c0.941-0.179,1.785-0.568,2.526-1.174c1.133-0.938,1.85-2.314,1.969-3.775c0.24-2.963-2.054-5.671-5.041-5.898
			c-0.1-0.007-0.198-0.018-0.296-0.03c-0.346-0.1-0.688-0.208-1.033-0.326c-1.185-0.41-2.416-0.674-3.655-0.885
			c-1.689-0.284-3.401-0.376-5.097-0.645c-1.935-0.507-3.828-1.193-5.754-1.73c-2.49-0.69-4.919-1.417-7.307-2.403
			c-4.854-2.001-9.715-3.979-14.479-6.187c-9.67-4.478-19.471-8.688-29.083-13.286c-4.703-2.248-9.461-4.388-14.124-6.718
			c-4.407-2.405-8.798-4.876-12.946-7.706c-4.396-3.003-8.854-5.886-13.403-8.658c-4.746-2.895-9.515-5.769-14.213-8.744
			c-4.661-2.951-9.147-6.154-13.814-9.102c-3.354-2.119-6.487-4.53-9.702-6.852c-3.056-2.208-5.848-4.726-8.773-7.097
			c-3.104-2.521-6.141-5.144-9.299-7.599c-1.695-1.315-3.406-2.606-5.099-3.93c-1.197-0.938-2.326-1.957-3.445-2.984
			c-3.663-3.506-7.291-7.044-10.877-10.635c-1.74-1.742-3.529-3.431-5.208-5.232c-1.525-1.641-2.833-3.523-4.063-5.406
			c-1.341-2.216-2.667-4.464-3.9-6.736c-1.454-2.688-2.587-5.549-3.867-8.317c-1.255-2.72-2.762-5.318-4.018-8.038
			c-0.733-1.592-1.438-3.187-2.119-4.802c-0.491-1.164-0.913-2.35-1.336-3.541c-0.538-1.892-1.049-3.774-1.304-5.735
			c-0.253-1.939-0.366-3.898-0.481-5.851c-0.063-2.496,0.149-4.945,0.566-7.404c0.391-1.347,0.942-2.594,1.566-3.841
			c1.111-2.037,2.217-4.137,3.646-5.966c1.523-1.949,3.221-3.747,4.899-5.564c2.149-2.27,4.359-4.438,6.946-6.208
			c3.262-1.865,6.751-3.375,10.287-4.626c1.473-0.44,2.951-0.842,4.452-1.208c1.857-0.455,3.763-0.69,5.66-0.894
			c4.293-0.16,8.616-0.039,12.902,0.187c4.561,0.236,9.063,0.938,13.574,1.607c9.221,1.367,18.578,1.839,27.719,3.669
			c3.105,0.677,6.215,1.358,9.105,2.685c1.835,1.116,3.594,2.341,5.385,3.527c2.159,1.429,4.429,2.711,6.757,3.848
			c4.035,1.969,8.144,3.778,12.165,5.777c2.561,1.391,5.084,2.846,7.651,4.226c3.024,1.625,6.074,3.203,9.135,4.764
			c2.228,1.21,4.436,2.453,6.595,3.786c2.366,1.457,4.722,2.939,7.11,4.359c4.775,2.845,9.689,5.464,14.413,8.395
			c4.625,2.866,9.14,5.882,13.55,9.069c2.077,1.506,4.115,3.065,6.169,4.607c2.14,1.611,4.336,3.146,6.512,4.71
			c3.83,2.751,7.242,6.003,10.962,8.897c1.744,1.356,3.582,2.59,5.334,3.938c1.985,1.526,3.9,3.134,5.818,4.737
			c3.623,3.028,7.467,5.777,10.971,8.948c3.294,2.983,6.685,5.852,10.017,8.793c3.802,3.646,7.356,7.479,10.737,11.523
			c1.792,2.148,3.565,4.312,5.383,6.438c1.801,2.106,3.716,4.112,5.648,6.102c3.724,3.836,7.677,7.433,11.3,11.37
			c1.866,2.033,3.562,4.246,5.317,6.378c1.703,2.065,3.406,4.144,4.976,6.312c0.695,0.959,1.367,1.922,2.022,2.902
			c0.789,1.377,1.449,2.795,1.997,4.281c0.631,2.222,1.179,4.462,1.521,6.748c0.372,2.462,0.619,4.904,0.79,7.377
			c0.009,0.979,0.019,1.962,0.026,2.942c0.008,1.104-0.126,2.217-0.196,3.316c-0.097,1.619-0.418,3.233-0.76,4.828
			c-0.807,2.902-1.683,5.726-2.976,8.443c-0.732,1.241-1.535,2.401-2.456,3.508c-1.206,1.175-2.506,2.206-3.898,3.153
			c-1.274,0.743-2.583,1.416-3.96,1.958c-0.497,0.126-0.997,0.232-1.509,0.326c-2.938,0.554-4.963,3.418-4.425,6.365
			c0.538,2.943,3.443,4.933,6.394,4.41c3.153-0.562,6.076-1.706,8.884-3.229c3.928-2.136,7.314-5.005,9.959-8.605
			c1.173-1.595,2.066-3.422,2.926-5.191c0.428-0.878,0.763-1.787,1.097-2.7c0.517-1.425,0.949-2.857,1.381-4.314
			c0.184-0.609,0.289-1.246,0.428-1.863c0.22-0.967,0.506-1.979,0.647-2.947c0.209-1.414,0.433-2.813,0.53-4.238
			c0.229-3.346,0.081-6.654-0.109-9.998c-0.151-2.639-0.637-5.266-1.174-7.848c-0.795-3.803-1.989-7.672-3.907-11.066
			c-1.7-3.012-3.86-5.76-5.975-8.488c-1.589-2.041-3.26-4.022-4.906-6.016c-1.798-2.18-3.623-4.311-5.538-6.385
			c-1.716-1.859-3.627-3.553-5.437-5.322c-4.021-3.93-7.921-7.964-11.503-12.3c-3.578-4.327-7.16-8.647-11.157-12.601
			c-2.253-2.229-4.601-4.348-7.009-6.41c-2.001-1.705-4.075-3.324-6.089-5.018c-2.114-1.778-4.151-3.629-6.332-5.33
			c-2.152-1.677-4.328-3.309-6.451-5.021c-2.191-1.762-4.322-3.589-6.561-5.29c-2.233-1.704-4.535-3.304-6.752-5.033
			c-2.099-1.64-4.063-3.462-6.1-5.185c-1.981-1.668-4.186-3.043-6.272-4.57c-4.421-3.227-8.729-6.593-13.19-9.759
			c-7.029-4.985-14.478-9.272-21.891-13.651c-3.671-2.167-7.245-4.502-10.855-6.771c-3.855-2.425-7.965-4.429-12.024-6.491
			c-4.2-2.28-8.326-4.72-12.598-6.865c-4.146-2.081-8.39-3.936-12.577-5.923c-2.032-1.101-4.009-2.275-5.972-3.51
			c-1.107-0.699-2.225-1.376-3.378-2c-1.385-0.756-2.771-1.441-4.246-2.002c-0.86-0.329-1.769-0.544-2.652-0.792
			c-1.297-0.366-2.637-0.618-3.949-0.91c-1.691-0.373-3.382-0.747-5.077-1.083c-2.579-0.52-5.18-0.901-7.792-1.202
			c-5.424-0.621-10.859-1.173-16.267-1.929c-5.363-0.75-10.705-1.644-16.124-1.863C70.363,62.086,67.688,62,65.014,62
			C61.839,62,58.667,62.122,55.529,62.472"/>
		<path id="Fill-9" d="M15.086,221.741c0.05,0.047,0.102,0.093,0.153,0.141C15.188,221.836,15.137,221.789,15.086,221.741
			 M27.487,205.349c0.104,0.02,0.208,0.041,0.313,0.067C27.695,205.394,27.59,205.371,27.487,205.349 M26.911,205.275
			c0.138,0.047,0.274,0.096,0.409,0.146c0.206,0.132,0.408,0.27,0.605,0.414c0.144,0.162,0.282,0.328,0.418,0.5
			c0.473,0.855,0.873,1.733,1.221,2.648c0.277,1.021,0.476,2.044,0.604,3.102c-0.013,0.65-0.063,1.286-0.158,1.929
			c-0.358,1.173-0.805,2.297-1.334,3.4c-0.414,0.687-0.853,1.342-1.348,1.972c-0.375,0.342-0.765,0.657-1.177,0.957
			c-1.363,0.732-2.787,1.346-4.245,1.864c-1.17,0.293-2.34,0.527-3.536,0.679c-0.479-0.01-0.952-0.045-1.432-0.105
			c-0.329-0.098-0.652-0.207-0.973-0.333c-0.082-0.056-0.163-0.112-0.242-0.172c-0.397-0.414-0.771-0.835-1.12-1.287
			c-0.152-0.299-0.29-0.601-0.418-0.908c-0.139-0.627-0.231-1.252-0.301-1.888c0.022-1.353,0.194-2.659,0.445-3.984
			c0.1-0.358,0.214-0.708,0.354-1.057c0.493-1.231,0.511-2.577,0.156-3.823c0.268-0.204,0.541-0.401,0.818-0.594
			c1.524-0.864,3.119-1.566,4.76-2.188C22.552,205.947,24.703,205.523,26.911,205.275 M26.575,205.262
			c-0.2,0.01-0.4,0.02-0.601,0.028C26.175,205.27,26.375,205.261,26.575,205.262 M25.409,194.093
			c-1.278,0.09-2.575,0.425-3.821,0.716c-2.788,0.646-5.491,1.614-8.053,2.859c-3.984,1.933-7.526,4.93-10.078,8.513
			c-1.601,2.24-2.412,4.893-3.177,7.484c-0.38,1.283-0.417,2.516,0.164,3.749c0.21,0.447,0.488,0.855,0.819,1.217
			c0.088,1.196,0.244,2.384,0.524,3.563c0.377,1.598,0.983,3.163,1.834,4.571c0.562,0.921,1.114,1.723,1.786,2.555
			c0.909,1.128,2.137,2.104,3.271,2.997c0.806,0.635,1.85,1.035,2.771,1.477c0.516,0.242,1.078,0.384,1.625,0.528
			c0.967,0.252,1.982,0.445,2.977,0.596c1.02,0.153,2.109,0.06,3.124-0.004c3.443-0.219,6.781-1.303,9.901-2.711
			c0.966-0.436,1.899-0.905,2.812-1.442c0.832-0.494,1.626-1.016,2.399-1.586c0.767-0.565,1.413-1.327,2.047-2.01
			c0.942-1.011,1.679-2.103,2.358-3.3c1.016-1.808,1.875-3.663,2.486-5.645c1.142-3.726,1.036-7.591,0.012-11.332
			c-0.475-1.738-1.118-3.421-1.961-5.014c-0.475-0.895-1.061-1.727-1.617-2.572c-0.639-0.971-1.597-1.711-2.453-2.479
			c-1.084-0.972-2.55-1.618-3.89-2.148c-0.708-0.278-1.887-0.529-2.55-0.605c-0.444-0.05-0.881-0.069-1.315-0.069
			C26.745,194,26.085,194.045,25.409,194.093"/>
		<path id="Fill-11" d="M201.469,12.934c0.298,0.008,0.593,0.025,0.893,0.051c0.197,0.067,0.393,0.14,0.587,0.218
			c0.461,0.307,0.898,0.634,1.327,0.982c0.758,0.791,1.461,1.616,2.108,2.503c0.515,0.919,0.956,1.863,1.33,2.849
			c0.596,2.284,0.845,4.607,1.182,6.945c0.274,1.897,0.625,3.779,0.8,5.688c0.01,1.521-0.112,3.017-0.364,4.52
			c-0.478,1.792-1.103,3.506-1.897,5.182c-1.325,2.289-2.866,4.412-4.609,6.407c-1.3,1.313-2.679,2.524-4.185,3.591
			c-0.732,0.391-1.476,0.73-2.248,1.028c-0.89,0.222-1.78,0.389-2.693,0.502c-1.008-0.008-1.996-0.089-2.992-0.242
			c-1.012-0.296-1.979-0.657-2.933-1.093c-1.018-0.61-1.985-1.277-2.913-2.013c-0.563-0.601-1.074-1.231-1.556-1.902
			c-0.577-1.024-1.094-2.07-1.532-3.162c-0.346-1.348-0.566-2.71-0.699-4.099c0.002-1.255,0.104-2.48,0.312-3.719
			c0.375-1.488,0.782-2.965,1.169-4.446c0.421-1.156,0.519-2.338,0.303-3.547c-0.271-1.489-1.048-2.859-2.178-3.865
			c0.381-0.48,0.777-0.949,1.185-1.411c1.794-1.804,3.729-3.39,5.825-4.84c0.894-0.616,1.816-1.188,2.736-1.765
			c-0.257,0.162-0.513,0.324-0.767,0.484c2.683-1.568,5.353-3.075,8.272-4.146C199.098,13.319,200.268,13.083,201.469,12.934
			 M193.972,1.581c-4.873,1.667-9.167,4.659-13.351,7.596c-3.733,2.622-7.047,5.981-9.67,9.697c-1.311,1.854-2.368,3.94-3.034,6.107
			c-0.434,1.416-0.671,2.907-0.802,4.379c-0.126,1.431,0.127,2.892,0.352,4.302c0.014,0.084,0.029,0.167,0.047,0.25
			c-0.3,1.56-0.471,3.157-0.508,4.695c-0.045,1.988,0.18,4.017,0.486,5.981c0.307,1.948,0.894,3.79,1.52,5.657
			c0.314,0.935,0.797,1.813,1.241,2.692c0.977,1.918,2.218,3.752,3.592,5.408c1.307,1.578,2.989,2.911,4.669,4.078
			c1.544,1.073,3.269,1.911,4.977,2.696c1.857,0.857,3.941,1.22,5.931,1.606c2.264,0.443,4.665,0.269,6.933,0.045
			c1.953-0.192,3.836-0.862,5.683-1.476s3.468-1.721,5.086-2.765c1.454-0.944,2.733-2.156,3.962-3.368
			c1.659-1.626,3.183-3.398,4.584-5.253c4.616-6.124,7.604-13.764,7.313-21.485c-0.127-3.346-0.649-6.64-1.037-9.967
			c-0.217-1.817-0.466-3.603-0.92-5.379c-0.964-3.789-2.765-7.262-5.351-10.214c-2.46-2.805-5.642-5.27-9.277-6.298
			C205.003,0.17,203.599,0,202.198,0C199.41,0,196.634,0.671,193.972,1.581"/>
		<path id="Fill-13" d="M267.28,257.543c1.021,0.281,2.011,0.618,2.979,1.038c0.771,0.48,1.489,1.005,2.187,1.582
			c0.676,0.708,1.311,1.435,1.9,2.215c0.164,0.315,0.319,0.636,0.464,0.963c0.096,0.461,0.173,0.92,0.23,1.385
			c-0.126,3.754-1.064,7.492-1.872,11.149c0.11-0.504,0.221-1.006,0.332-1.511c-0.437,1.636-0.968,3.184-1.662,4.704
			c-0.753,1.256-1.595,2.407-2.553,3.521c-1.224,1.24-2.515,2.405-3.923,3.436c-1.403,0.78-2.857,1.402-4.371,1.941
			c-1,0.274-1.99,0.495-3.018,0.629c-0.51-0.01-1.013-0.042-1.521-0.103c-0.166-0.056-0.329-0.113-0.493-0.176
			c-0.366-0.239-0.718-0.494-1.063-0.767c-0.613-0.653-1.176-1.335-1.699-2.058c-0.49-0.916-0.915-1.841-1.285-2.807
			c-0.399-1.697-0.564-3.419-0.661-5.164c-0.037-0.699-0.069-1.395-0.118-2.09c-0.049-0.715-0.216-1.405-0.293-2.113
			c-0.202-1.856-1.397-3.461-2.962-4.482c0.583-0.932,1.206-1.84,1.879-2.704c0.838-1.079,1.705-2.109,2.603-3.133
			c1.662-1.645,3.344-3.258,5.239-4.629c0.558-0.302,1.126-0.564,1.714-0.798c0.933-0.218,1.859-0.366,2.809-0.465
			C263.86,257.104,265.571,257.252,267.28,257.543 M259.545,243.364c-4.115,0.549-7.946,2.459-11.093,5.109
			c-1.486,1.248-2.883,2.772-4.157,4.229c-0.858,0.979-1.718,1.951-2.516,2.979c-2.1,2.703-3.782,5.585-5.337,8.63
			c-1.832,3.589-2.968,7.573-3.37,11.573c-0.18,1.764,0.016,3.605,0.162,5.369c0.073,0.892,0.196,1.781,0.301,2.668
			c0.139,1.13,0.354,2.235,0.64,3.337c0.375,1.442,0.843,2.959,1.646,4.228c0.594,0.942,1.192,1.906,2.148,2.541
			c0.18,0.117,0.354,0.231,0.529,0.35c0.782,0.549,1.649,0.861,2.598,0.943c0.556,0.111,1.106,0.128,1.647,0.075
			c1.609,2.088,3.609,3.936,5.899,5.2c1.006,0.553,1.935,1.037,2.997,1.419c1.038,0.379,2.161,0.52,3.241,0.748
			c2.063,0.439,4.354,0.179,6.42-0.061c1.917-0.228,3.899-0.936,5.702-1.565c1.629-0.564,3.188-1.191,4.707-2.008
			c4.006-2.158,7.218-5.329,10.193-8.712c1.417-1.609,2.394-3.479,3.387-5.365c0.79-1.509,1.422-3.029,1.931-4.65
			c0.622-1.983,1.013-4.069,1.452-6.095c0.313-1.446,0.611-2.894,0.893-4.349c0.761-3.972,0.562-8.257-0.903-12.049
			c-1.389-3.586-3.908-6.492-6.764-8.996c-0.732-0.643-1.473-1.229-2.271-1.789c-1.067-0.751-2.3-1.271-3.452-1.87
			c-1.808-0.935-3.949-1.365-5.92-1.743c-1.836-0.354-3.692-0.511-5.553-0.511C262.982,243,261.26,243.133,259.545,243.364"/>
	</g>
</g>
</svg>
