<?xml version="1.0" encoding="UTF-8"?>
<svg width="800px" height="1000px" viewBox="0 0 800 1000" version="1.1" xmlns="http://www.w3.org/2000/svg" xmlns:xlink="http://www.w3.org/1999/xlink">
    <!-- Generator: Sketch 51.1 (57501) - http://www.bohemiancoding.com/sketch -->
    <title>atom_DL</title>
    <desc>Created with Sketch.</desc>
    <defs></defs>
    <g id="atom_DL" stroke="none" stroke-width="1" fill="none" fill-rule="evenodd">
        <g id="logo-footer" transform="translate(441.000000, 685.000000)">
            <g>
                <path d="M110.812545,8.25651402 C110.904572,8.56348079 110.810146,8.81874549 110.573746,9.09365441 C110.548096,9.12348237 110.524607,9.14951827 110.482164,9.19539003 C110.410296,9.27306357 110.388406,9.29969141 110.394575,9.28699974 C110.158488,9.77253772 109.949286,10.3963755 109.78094,11.1092981 C109.323962,13.0450464 110.241419,14.6677006 112.137009,15.2172501 C114.194676,15.8138908 116.608374,14.6870388 117.500673,12.7424366 C118.556971,10.4412591 118.361229,8.87677042 116.832238,7.67717368 C114.960938,6.20902274 112.357851,6.27012948 111.072216,7.83985899 L110.795491,8.1777337 C110.794947,8.20051389 110.804056,8.228204 110.812545,8.25651402 Z M110.106083,6.26944954 C110.423589,5.88663707 110.955421,5.49967933 111.419965,5.30848582 C112.37958,4.91358991 113.68037,4.90617957 115.133698,5.23840657 C117.932917,5.87841333 120.108577,8.22064492 119.995807,10.6570534 C119.760531,15.7499925 113.426094,19.0246323 109.732148,15.5763745 C107.943744,13.9068501 107.553768,11.8021869 108.499361,9.2850154 C108.62423,8.95356867 108.851111,8.49010331 109.049811,8.18524994 C109.270059,7.84733807 109.481086,7.64146186 109.750777,7.55562368 C109.778602,7.54676715 109.806094,7.5393618 109.833231,7.53336632 C109.647627,7.16965375 109.747904,6.70130236 110.106083,6.26944954 Z" id="Fill-4" fill="#000000" fill-rule="nonzero"></path>
                <path d="M116,2.36382675 C116.035222,2.23410526 116.077249,2.03952302 116.14169,1.8509661 C116.280178,1.44230796 116.378641,1.03435869 116.377039,0.600890425 C116.376639,0.410561355 116.256963,0.110004457 116.623996,0.0412449782 C116.938196,-0.017590452 117.272408,-0.0501980398 117.512961,0.20711836 C117.655051,0.358460099 117.796741,0.518308165 117.8896,0.694814455 C118.216208,1.3175485 117.776729,2.53572545 117.114308,2.89086461 C116.612389,3.15987721 116.012808,2.911776 116,2.36382675" id="Fill-103" fill="#000000" fill-rule="nonzero"></path>
                <path d="M113.597281,1.30015424 C113.547641,1.6054057 113.484683,1.90995301 113.451993,2.21696486 C113.409214,2.61727733 113.068594,2.79366831 112.724342,2.93802021 C112.426905,3.06335991 112.146418,3.01090032 112.073774,2.6669203 C111.908307,1.88389925 112.059649,1.1040469 112.154086,0.329475719 C112.197269,-0.0278832593 112.773982,-0.106396611 113.167067,0.152380579 C113.512933,0.380527 113.619074,0.676272361 113.597281,1.30015424" id="Fill-107" fill="#000000" fill-rule="nonzero"></path>
                <path d="M112.19066,11.6823452 C110.632914,12.6206952 108.591708,13.9682577 107.051494,14.9237702 C106.603919,15.2015633 106.260092,15.3386205 105.847581,15.6483439 C105.453117,15.9444969 105.00264,16.1407116 104.673147,15.8744932 C104.334372,15.6006913 103.968388,15.4738054 104.253536,15.0032335 C104.507231,14.584149 104.804932,14.5525935 105.343775,14.3418539 C106.408054,13.9255633 108.032176,12.8044553 108.976827,12.2352987 C109.267132,12.0600815 109.780582,11.6912496 110.031699,11.4841022 C110.690685,10.9400907 110.546085,10.7856194 109.803565,10.2635599 C108.494872,9.34277154 106.87805,8.31351987 105.559045,7.40151231 C105.221301,7.16842154 104.87376,6.94291422 104.554064,6.69585398 C103.681603,6.022525 103.837029,5.29651112 105.037953,5.02270928 C105.314335,4.95964705 105.519044,5.02949445 105.664454,5.21269422 C106.875175,6.74015718 109.059218,7.93310366 110.770108,9.0590438 C111.354328,9.44340412 111.803432,9.85804585 112.62433,10.0292717 C113.067264,10.1214703 112.94712,10.4970498 112.994043,10.9392837 C113.057467,11.2214672 112.602656,11.4340876 112.19066,11.6823452 Z" id="chevron" fill="#000000" fill-rule="nonzero" transform="translate(108.500000, 10.500000) rotate(-2.000000) translate(-108.500000, -10.500000) "></path>
                <path d="M4.80555555,7.71270718 L2.78703703,7.71270718 L2.78703703,12.9005525 L2.01851852,12.9005525 L2.01851852,7.71270718 L0,7.71270718 L0,7.09944751 L4.80555555,7.09944751 L4.80555555,7.71270718 Z M9.97657951,10.2403315 L6.8654684,10.2403315 L6.8654684,12.9005525 L6.09694989,12.9005525 L6.09694989,7.09944751 L6.8654684,7.09944751 L6.8654684,9.62707182 L9.97657951,9.62707182 L9.97657951,7.09944751 L10.745098,7.09944751 L10.745098,12.9005525 L9.97657951,12.9005525 L9.97657951,10.2403315 Z M12.6568627,7.09944751 L16.1846405,7.09944751 L16.1846405,7.71270718 L13.4253813,7.71270718 L13.4253813,9.61049724 L15.953159,9.61049724 L15.953159,10.2237569 L13.4253813,10.2237569 L13.4253813,12.2872928 L16.2309368,12.2872928 L16.2309368,12.9005525 L12.6568627,12.9005525 L12.6568627,7.09944751 Z M20.7674291,7.09944751 C20.8847137,7.08287284 21.0158852,7.07044203 21.1609477,7.0621547 C21.3060102,7.05386736 21.4572432,7.04834254 21.6146514,7.04558011 C21.7720596,7.04281768 21.926379,7.04005525 22.0776143,7.03729282 C22.2288497,7.03453039 22.3692805,7.03314917 22.4989106,7.03314917 C23.0174317,7.03314917 23.4665011,7.10497164 23.8461328,7.24861878 C24.2257645,7.39226593 24.539033,7.59254015 24.7859476,7.84944751 C25.0328623,8.10635488 25.2165027,8.41436285 25.3368736,8.77348066 C25.4572445,9.13259848 25.5174291,9.52762215 25.5174291,9.95856354 C25.5174291,10.3508307 25.4603309,10.7278988 25.3461328,11.089779 C25.2319348,11.4516593 25.0513808,11.7720981 24.8044662,12.051105 C24.5575516,12.3301119 24.236567,12.5538666 23.8415032,12.7223757 C23.4464394,12.8908848 22.9680495,12.9751381 22.406318,12.9751381 C22.3075521,12.9751381 22.179467,12.9737569 22.0220588,12.9709945 C21.8646506,12.968232 21.7026152,12.9627072 21.5359477,12.9544199 C21.3692802,12.9461326 21.2149607,12.9392266 21.0729847,12.9337017 C20.9310087,12.9281767 20.8291578,12.9198895 20.7674291,12.9088398 L20.7674291,7.09944751 Z M22.5174291,7.64640884 L22.2535402,7.64640884 C22.1578608,7.64640884 22.0637259,7.64917122 21.9711328,7.65469613 C21.8785398,7.66022104 21.7936641,7.66574581 21.7165032,7.67127072 C21.6393424,7.67679563 21.5791578,7.6823204 21.5359477,7.6878453 L21.5359477,12.3287293 C21.566812,12.3342542 21.6254534,12.3383978 21.7118736,12.3411602 C21.7982938,12.3439227 21.887799,12.3466851 21.9803921,12.3494475 C22.0729851,12.3522099 22.1624904,12.3549724 22.2489106,12.3577348 C22.3353309,12.3604972 22.3939723,12.3618785 22.4248365,12.3618785 C22.8569374,12.3618785 23.2195881,12.2955808 23.5127995,12.1629834 C23.8060109,12.0303861 24.0405762,11.852211 24.2165032,11.628453 C24.3924302,11.404695 24.5174286,11.1477915 24.5915032,10.8577348 C24.6655778,10.5676781 24.7026143,10.2679574 24.7026143,9.95856354 C24.7026143,9.68784397 24.6686642,9.41574724 24.6007625,9.14226519 C24.5328607,8.86878315 24.4155783,8.62154807 24.2489106,8.40055249 C24.0822429,8.17955691 23.8584801,7.99861948 23.5776143,7.85773481 C23.2967486,7.71685014 22.9433571,7.64640884 22.5174291,7.64640884 Z M26.892157,10 C26.892157,9.03314434 27.1205495,8.29143904 27.5773422,7.77486188 C28.0341344,7.25828471 28.6853622,7 29.5310459,7 C29.9878381,7 30.3828957,7.07182247 30.7162311,7.21546961 C31.0495659,7.35911676 31.3257979,7.56215336 31.5449348,7.82458564 C31.7640716,8.08701791 31.9261071,8.40193186 32.0310459,8.76933702 C32.1359847,9.13674217 32.1884533,9.54695907 32.1884533,10 C32.1884533,10.9668557 31.9585171,11.708561 31.4986385,12.2251381 C31.0387594,12.7417153 30.3829019,13 29.5310459,13 C29.080426,13 28.6899981,12.9281775 28.3597496,12.7845304 C28.0295006,12.6408832 27.7548124,12.4378466 27.5356755,12.1754144 C27.3165387,11.9129821 27.1545032,11.5980681 27.0495644,11.230663 C26.9446256,10.8632578 26.892157,10.4530409 26.892157,10 Z M27.7069718,10 C27.7069718,10.3204436 27.7424651,10.624308 27.8134533,10.9116022 C27.884441,11.1988965 27.9940078,11.4516564 28.142157,11.6698895 C28.2903057,11.8881227 28.4801184,12.0621541 28.7116014,12.191989 C28.943084,12.3218238 29.2162295,12.3867403 29.5310459,12.3867403 C30.1051225,12.3867403 30.5557352,12.1919909 30.8828977,11.8024862 C31.2100598,11.4129815 31.3736385,10.8121587 31.3736385,10 C31.3736385,9.68508131 31.3381447,9.38259816 31.267157,9.09254144 C31.1961688,8.80248476 31.0850587,8.54834365 30.9338237,8.3301105 C30.7825881,8.11187735 30.5912321,7.93784595 30.3597496,7.80801105 C30.1282666,7.67817615 29.8520351,7.61325967 29.5310459,7.61325967 C28.9631416,7.61325967 28.5171585,7.80800912 28.1930829,8.19751381 C27.8690068,8.58701851 27.7069718,9.18784125 27.7069718,10 Z M33.5631807,10 C33.5631807,9.03314434 33.7915737,8.29143904 34.2483658,7.77486188 C34.7051585,7.25828471 35.3563864,7 36.2020695,7 C36.6588622,7 37.0539198,7.07182247 37.3872547,7.21546961 C37.7205896,7.35911676 37.9968216,7.56215336 38.2159584,7.82458564 C38.4350953,8.08701791 38.5971308,8.40193186 38.7020695,8.76933702 C38.8070083,9.13674217 38.8594769,9.54695907 38.8594769,10 C38.8594769,10.9668557 38.6295412,11.708561 38.1696621,12.2251381 C37.7097835,12.7417153 37.053926,13 36.2020695,13 C35.7514502,13 35.3610217,12.9281775 35.0307732,12.7845304 C34.7005248,12.6408832 34.425836,12.4378466 34.2066992,12.1754144 C33.9875623,11.9129821 33.8255268,11.5980681 33.7205881,11.230663 C33.6156493,10.8632578 33.5631807,10.4530409 33.5631807,10 Z M34.3779955,10 C34.3779955,10.3204436 34.4134893,10.624308 34.484477,10.9116022 C34.5554651,11.1988965 34.665032,11.4516564 34.8131807,11.6698895 C34.9613298,11.8881227 35.1511426,12.0621541 35.3826251,12.191989 C35.6141076,12.3218238 35.8872532,12.3867403 36.2020695,12.3867403 C36.7761467,12.3867403 37.2267594,12.1919909 37.5539214,11.8024862 C37.8810834,11.4129815 38.0446621,10.8121587 38.0446621,10 C38.0446621,9.68508131 38.0091688,9.38259816 37.9381806,9.09254144 C37.867193,8.80248476 37.7560829,8.54834365 37.6048473,8.3301105 C37.4536122,8.11187735 37.2622558,7.93784595 37.0307732,7.80801105 C36.7992907,7.67817615 36.5230587,7.61325967 36.2020695,7.61325967 C35.6341657,7.61325967 35.1881822,7.80800912 34.8641066,8.19751381 C34.540031,8.58701851 34.3779955,9.18784125 34.3779955,10 Z M40.5027233,7.09944751 C40.6200078,7.08287284 40.7511791,7.07044203 40.8962419,7.0621547 C41.0413041,7.05386736 41.1925371,7.04834254 41.3499456,7.04558011 C41.5073535,7.04281768 41.6616729,7.04005525 41.8129085,7.03729282 C41.9641436,7.03453039 42.1045747,7.03314917 42.2342048,7.03314917 C42.7527259,7.03314917 43.2017954,7.10497164 43.581427,7.24861878 C43.9610587,7.39226593 44.2743267,7.59254015 44.5212419,7.84944751 C44.7681565,8.10635488 44.9517969,8.41436285 45.0721678,8.77348066 C45.1925387,9.13259848 45.2527233,9.52762215 45.2527233,9.95856354 C45.2527233,10.3508307 45.1956251,10.7278988 45.081427,11.089779 C44.967229,11.4516593 44.786675,11.7720981 44.5397604,12.051105 C44.2928452,12.3301119 43.9718612,12.5538666 43.5767974,12.7223757 C43.1817336,12.8908848 42.7033432,12.9751381 42.1416122,12.9751381 C42.0428463,12.9751381 41.9147609,12.9737569 41.757353,12.9709945 C41.5999445,12.968232 41.437909,12.9627072 41.2712419,12.9544199 C41.1045742,12.9461326 40.9502547,12.9392266 40.8082789,12.9337017 C40.6663026,12.9281767 40.5644517,12.9198895 40.5027233,12.9088398 L40.5027233,7.09944751 Z M42.2527233,7.64640884 L41.9888344,7.64640884 C41.8931549,7.64640884 41.7990201,7.64917122 41.706427,7.65469613 C41.6138339,7.66022104 41.5289584,7.66574581 41.4517974,7.67127072 C41.3746364,7.67679563 41.3144517,7.6823204 41.2712419,7.6878453 L41.2712419,12.3287293 C41.3021061,12.3342542 41.3607475,12.3383978 41.4471678,12.3411602 C41.533588,12.3439227 41.6230932,12.3466851 41.7156863,12.3494475 C41.8082794,12.3522099 41.8977846,12.3549724 41.9842048,12.3577348 C42.0706251,12.3604972 42.1292665,12.3618785 42.1601307,12.3618785 C42.5922316,12.3618785 42.9548823,12.2955808 43.2480937,12.1629834 C43.5413051,12.0303861 43.7758705,11.852211 43.9517974,11.628453 C44.1277244,11.404695 44.2527228,11.1477915 44.3267974,10.8577348 C44.400872,10.5676781 44.4379085,10.2679574 44.4379085,9.95856354 C44.4379085,9.68784397 44.4039584,9.41574724 44.3360567,9.14226519 C44.2681549,8.86878315 44.150872,8.62154807 43.9842048,8.40055249 C43.8175371,8.17955691 43.5937743,7.99861948 43.3129085,7.85773481 C43.0320428,7.71685014 42.6786513,7.64640884 42.2527233,7.64640884 Z M50.7293025,12.9005525 L46.8959692,12.9005525 L46.8959692,7.09944751 L47.6644877,7.09944751 L47.6644877,12.2872928 L50.7293025,12.2872928 L50.7293025,12.9005525 Z M52.0206971,7.09944751 L55.5484749,7.09944751 L55.5484749,7.71270718 L52.7892156,7.71270718 L52.7892156,9.61049724 L55.3169934,9.61049724 L55.3169934,10.2237569 L52.7892156,10.2237569 L52.7892156,12.2872928 L55.5947712,12.2872928 L55.5947712,12.9005525 L52.0206971,12.9005525 L52.0206971,7.09944751 Z M63.9645968,12.9005525 L60.1312634,12.9005525 L60.1312634,7.09944751 L60.8997819,7.09944751 L60.8997819,12.2872928 L63.9645968,12.2872928 L63.9645968,12.9005525 Z M65.4319172,7.09944751 L66.2004357,7.09944751 L66.2004357,12.9005525 L65.4319172,12.9005525 L65.4319172,7.09944751 Z M72.1955335,8.42541436 C72.1955335,8.5635366 72.1708426,8.70441915 72.1214594,8.8480663 C72.0720767,8.99171344 71.9980031,9.12569001 71.8992372,9.25 C71.8004712,9.37431004 71.6739296,9.48342495 71.5196075,9.57734807 C71.365286,9.67127118 71.1831888,9.74309369 70.9733113,9.79281768 L70.9733113,9.82596685 C71.1584975,9.8535913 71.3359651,9.90055216 71.5057187,9.96685083 C71.6754728,10.0331495 71.8251626,10.1243088 71.9547927,10.2403315 C72.0844234,10.3563542 72.1893606,10.4972367 72.2696075,10.6629834 C72.349855,10.8287301 72.3899779,11.0248607 72.3899779,11.2513812 C72.3899779,11.5497252 72.3205345,11.8080099 72.1816446,12.0262431 C72.0427552,12.2444762 71.8606585,12.4226512 71.6353483,12.5607735 C71.4100386,12.6988957 71.1523251,12.8011047 70.8622001,12.8674033 C70.5720757,12.933702 70.2757819,12.9668508 69.9733113,12.9668508 L69.6029409,12.9668508 C69.4609651,12.9668508 69.3128185,12.9627072 69.1584964,12.9544199 C69.0041749,12.9461326 68.8498555,12.935083 68.6955335,12.9212707 C68.541212,12.9074585 68.4054111,12.8867405 68.2881261,12.859116 L68.2881261,7.14917127 C68.5165227,7.11602192 68.7819517,7.08839788 69.0844224,7.06629834 C69.386893,7.0441988 69.7171369,7.03314917 70.0751631,7.03314917 C70.3159054,7.03314917 70.5612732,7.05110479 70.8112742,7.08701657 C71.0612758,7.12292836 71.288125,7.19198844 71.4918298,7.2941989 C71.6955345,7.39640935 71.8637428,7.53867311 71.9964594,7.72099448 C72.1291765,7.90331584 72.1955335,8.13812012 72.1955335,8.42541436 Z M70.0473853,12.3701657 C70.2449172,12.3701657 70.4362737,12.3494477 70.6214594,12.308011 C70.8066456,12.2665744 70.9702243,12.2002767 71.1122001,12.109116 C71.2541765,12.0179553 71.3668298,11.906078 71.4501631,11.7734807 C71.533497,11.6408833 71.5751631,11.4834263 71.5751631,11.301105 C71.5751631,11.0745845 71.5242377,10.8922659 71.4223853,10.7541436 C71.320533,10.6160214 71.1878185,10.5082877 71.0242372,10.4309392 C70.8606564,10.3535908 70.677016,10.3011051 70.4733113,10.2734807 C70.2696065,10.2458562 70.0659049,10.2320442 69.8622001,10.2320442 L69.0566446,10.2320442 L69.0566446,12.3121547 C69.099855,12.3232045 69.1615829,12.3314917 69.2418298,12.3370166 C69.3220772,12.3425415 69.4084964,12.3480663 69.501089,12.3535912 C69.5936821,12.3591161 69.6893601,12.3632597 69.7881261,12.3660221 C69.886892,12.3687845 69.9733113,12.3701657 70.0473853,12.3701657 Z M69.5381261,9.6519337 C69.6430649,9.6519337 69.769607,9.64917132 69.9177557,9.64364641 C70.0659049,9.6381215 70.1893601,9.6298343 70.2881261,9.61878453 C70.4362752,9.57458541 70.5751626,9.52071855 70.7047927,9.45718232 C70.8344234,9.39364609 70.9501626,9.31906119 71.052015,9.23342541 C71.1538673,9.14778964 71.2341137,9.04834309 71.2927557,8.93508287 C71.3513982,8.82182265 71.3807187,8.69889567 71.3807187,8.56629834 C71.3807187,8.38397698 71.3421389,8.23342601 71.2649779,8.11464088 C71.1878174,7.99585576 71.0844234,7.90055285 70.9547927,7.82872928 C70.8251626,7.75690571 70.677016,7.70580124 70.5103483,7.67541436 C70.3436811,7.64502749 70.1739296,7.62983425 70.001089,7.62983425 C69.7973843,7.62983425 69.610658,7.63397785 69.4409038,7.64226519 C69.2711502,7.65055253 69.1430649,7.66298333 69.0566446,7.67955801 L69.0566446,9.6519337 L69.5381261,9.6519337 Z M74.0332243,7.15745856 C74.2677932,7.11878435 74.5378524,7.08839788 74.8434095,7.06629834 C75.1489666,7.0441988 75.428285,7.03314917 75.6813725,7.03314917 C75.9653246,7.03314917 76.2353838,7.0607732 76.4915576,7.1160221 C76.747732,7.17127099 76.9730381,7.26243029 77.1674836,7.38950276 C77.361929,7.51657523 77.5177917,7.68231943 77.6350762,7.88674033 C77.7523606,8.09116123 77.8110021,8.33977753 77.8110021,8.63259669 C77.8110021,9.08563762 77.6721147,9.45303725 77.3943354,9.73480663 C77.1165561,10.016576 76.7647078,10.2044194 76.3387799,10.2983425 L76.7832243,10.6049724 L78.3943354,12.9005525 L77.4961873,12.9005525 L75.7091502,10.3977901 L74.8017428,10.2734807 L74.8017428,12.9005525 L74.0332243,12.9005525 L74.0332243,7.15745856 Z M75.699891,7.62983425 L75.449891,7.62983425 C75.3634707,7.62983425 75.2801384,7.63259664 75.199891,7.63812155 C75.1196436,7.64364645 75.0440273,7.64917122 74.9730391,7.65469613 C74.902051,7.66022104 74.8449527,7.66850824 74.8017428,7.67955801 L74.8017428,9.81767956 L75.5239651,9.81767956 C75.949893,9.81767956 76.3017413,9.72375783 76.5795206,9.5359116 C76.8572999,9.34806538 76.9961873,9.0552506 76.9961873,8.65745856 C76.9961873,8.35911455 76.8819908,8.11326064 76.6535947,7.9198895 C76.4251986,7.72651837 76.1073004,7.62983425 75.699891,7.62983425 Z M82.722767,11.2928177 L80.3338781,11.2928177 L79.68573,12.9005525 L78.9264707,12.9005525 L81.3801744,7.00828729 L81.7320263,7.00828729 L84.1949892,12.9005525 L83.3894337,12.9005525 L82.722767,11.2928177 Z M80.5838781,10.6961326 L82.4912855,10.6961326 L81.7690633,8.93093923 L81.5375818,8.05248619 L81.5283226,8.05248619 L81.2968411,8.94751381 L80.5838781,10.6961326 Z M85.3937907,7.15745856 C85.6283596,7.11878435 85.8984187,7.08839788 86.2039758,7.06629834 C86.5095329,7.0441988 86.7888514,7.03314917 87.0419388,7.03314917 C87.325891,7.03314917 87.5959501,7.0607732 87.852124,7.1160221 C88.1082984,7.17127099 88.3336044,7.26243029 88.5280499,7.38950276 C88.7224954,7.51657523 88.878358,7.68231943 88.9956425,7.88674033 C89.112927,8.09116123 89.1715684,8.33977753 89.1715684,8.63259669 C89.1715684,9.08563762 89.0326811,9.45303725 88.7549018,9.73480663 C88.477123,10.016576 88.1252742,10.2044194 87.6993462,10.2983425 L88.1437906,10.6049724 L89.7549018,12.9005525 L88.8567536,12.9005525 L87.0697166,10.3977901 L86.1623092,10.2734807 L86.1623092,12.9005525 L85.3937907,12.9005525 L85.3937907,7.15745856 Z M87.0604573,7.62983425 L86.8104573,7.62983425 C86.7240371,7.62983425 86.6407047,7.63259664 86.5604573,7.63812155 C86.4802099,7.64364645 86.4045936,7.64917122 86.3336055,7.65469613 C86.2626178,7.66022104 86.2055196,7.66850824 86.1623092,7.67955801 L86.1623092,9.81767956 L86.8845314,9.81767956 C87.3104594,9.81767956 87.6623081,9.72375783 87.9400869,9.5359116 C88.2178663,9.34806538 88.3567536,9.0552506 88.3567536,8.65745856 C88.3567536,8.35911455 88.2425571,8.11326064 88.014161,7.9198895 C87.7857649,7.72651837 87.4678668,7.62983425 87.0604573,7.62983425 Z M92.1111111,10.5966851 L89.9722222,7.09944751 L90.8703704,7.09944751 L92.3888889,9.63535912 L92.5462963,10.140884 L92.5555556,10.140884 L92.7222222,9.61878453 L94.1759259,7.09944751 L95,7.09944751 L92.8796296,10.5883978 L92.8796296,12.9005525 L92.1111111,12.9005525 L92.1111111,10.5966851 Z" id="the-Doodle-Library" fill="#666666" fill-rule="nonzero" opacity="0.595278533"></path>
            </g>
        </g>
        <g id="atom" transform="translate(245.000000, 270.000000)" fill="#000000">
            <path d="M160.072194,152.522204 C161.773823,152.063966 163.459773,151.762659 165.196939,151.590035 C165.976678,151.617236 166.736557,151.723949 167.507934,151.864141 C169.964216,152.46257 172.36301,153.239901 174.659372,154.301799 C176.425805,155.337542 178.035453,156.549048 179.577162,157.893422 C181.234891,159.538057 182.909344,161.197339 184.282771,163.086785 C184.55453,163.603611 184.795977,164.125667 185.021746,164.663417 C185.168078,165.362282 185.27051,166.049639 185.34054,166.758966 C185.381304,170.211444 185.244379,173.595918 184.613062,177.003409 C183.535434,181.348299 181.899655,185.509058 179.963896,189.534856 C178.41278,192.27696 176.756096,194.999187 174.76285,197.437891 C174.393885,197.789416 174.015513,198.121063 173.613101,198.437017 C172.872036,198.823067 172.111111,199.139021 171.325101,199.435097 C169.354849,200.008418 167.346969,200.502227 165.309823,200.73553 C164.584436,200.727161 163.874728,200.670666 163.149341,200.567091 C160.655431,199.898566 158.176154,198.893163 155.850525,197.755938 C155.153359,197.331178 154.505319,196.875033 153.874002,196.363438 C152.149379,194.604767 150.565861,192.670334 149.015791,190.765194 C147.566062,188.983506 146.186363,187.145323 144.90178,185.239137 C144.707368,184.83844 144.534905,184.435651 144.377076,184.026585 C144.037378,182.687442 143.816835,181.340976 143.618242,179.968355 C143.484453,179.047694 143.111307,178.214914 142.57197,177.509772 C142.91585,177.427122 143.252413,177.310993 143.573297,177.160339 C144.940453,176.5232 146.010765,175.354589 146.525016,173.935935 C147.068534,172.448231 146.912795,170.99819 146.336876,169.563843 C146.307609,169.490608 146.277298,169.417374 146.249077,169.345186 C146.288795,168.181805 146.437217,167.038303 146.653579,165.8948 C147.181418,163.682076 147.810645,161.490276 148.746122,159.415651 C149.345037,158.414432 149.985761,157.464478 150.7216,156.562649 C151.248394,156.086625 151.795047,155.647219 152.369922,155.236061 C153.553118,154.60206 154.788575,154.107205 156.058525,153.671984 C157.389098,153.269195 158.725943,152.886283 160.072194,152.522204 M162.027813,139.371403 C159.888234,139.644462 157.827048,140.327635 155.777359,140.973143 C153.344073,141.741058 150.836575,142.41586 148.501539,143.457881 C142.980654,145.921694 139.102864,150.691345 137.015547,156.290636 C136.269256,158.292026 135.897155,160.49115 135.464432,162.571006 C135.113236,164.238657 134.864472,165.893754 134.774582,167.598023 C134.708733,168.835684 134.770401,170.131932 134.97422,171.3539 C135.149819,172.39592 135.590904,173.417017 135.982864,174.394173 C136.112472,174.716404 136.273437,175.016665 136.461578,175.296002 C135.090241,175.626602 133.857919,176.456243 133.039507,177.610208 C132.059084,178.991199 131.90021,180.442286 132.047587,182.07332 C132.157336,183.331905 132.349657,184.594675 132.716532,185.808273 C133.07609,186.997808 133.435647,188.190482 133.879869,189.355955 C134.431748,190.781933 135.382904,192.048888 136.23999,193.307473 C137.702261,195.464748 139.330724,197.496479 141.020855,199.477992 C141.780734,200.365174 142.54793,201.252356 143.33185,202.114429 C144.059327,202.914776 144.78576,203.69943 145.57386,204.443282 C146.377639,205.199689 147.158423,205.890184 148.039549,206.544062 C149.158987,207.369518 150.510464,207.950162 151.75951,208.550684 C153.045138,209.17213 154.425882,209.633507 155.773179,210.115807 C158.838827,211.207 161.970325,212.118244 165.257562,211.987469 C168.507171,211.856693 171.818447,211.153643 174.938448,210.209966 C176.228257,209.821824 177.502388,209.429497 178.731574,208.878147 C180.30673,208.170912 181.743916,207.058795 182.994007,205.874491 C184.635012,204.312506 185.98649,202.457584 187.301385,200.618355 C190.72241,195.845567 193.388782,190.60617 195.283778,185.043497 C196.173265,182.432168 196.826532,179.780038 197.349145,177.063042 C197.822632,174.619107 197.912522,172.158432 197.985688,169.677879 C198.043175,167.687996 197.920884,165.652081 197.736924,163.674753 C197.58223,161.966299 196.973909,160.290279 196.340502,158.709462 C195.626612,156.919405 194.478954,155.276863 193.282169,153.780789 C192.343556,152.603808 191.27429,151.512616 190.199797,150.450717 C188.109344,148.382369 185.958269,146.39981 183.523937,144.733205 C181.813946,143.563548 179.89073,142.640795 177.992599,141.819523 C176.252297,141.067302 174.399111,140.585001 172.569965,140.11944 C170.642568,139.632954 168.682769,139.211333 166.70311,139.035571 C166.421944,139.010462 166.137642,139 165.852296,139 C164.581301,139 163.270587,139.214472 162.027813,139.371403" id="Fill-1"></path>
            <path d="M224.747595,236.649939 C224.67379,236.990455 224.598946,237.332012 224.525141,237.672529 C224.597906,237.332012 224.672751,236.990455 224.747595,236.649939 M103.162926,177.452188 C103.17436,177.679198 103.185795,177.906209 103.195151,178.134261 C103.184756,177.907251 103.173321,177.679198 103.162926,177.452188 M223.417028,66.3793456 C223.45653,66.5032644 223.494991,66.6271831 223.534493,66.7521432 C223.494991,66.6282244 223.45653,66.5032644 223.417028,66.3793456 M162.463571,5.17910944 C161.119491,5.2884495 159.779569,5.42278157 158.435489,5.56544432 C155.873109,5.83410848 153.380376,6.4641155 150.943776,7.29822398 C148.206759,8.23750718 145.575772,9.49439723 142.915678,10.6336165 C140.45517,11.6916118 138.011293,12.7568964 135.611076,13.9565131 C132.813768,15.3560659 130.161991,17.1013416 127.77009,19.1225707 C126.560106,20.139954 125.45927,21.2989586 124.38754,22.4548393 C122.30853,24.6957899 120.265903,26.9658978 118.267974,29.2755765 C114.358395,33.7908004 111.227406,38.7944099 108.673342,44.1885197 C107.552756,46.5513063 106.756495,49.0942438 105.895785,51.5590812 C105.051707,53.9833066 104.129666,56.3752506 103.256481,58.78698 C102.289742,61.4600842 101.331318,64.1363124 100.46645,66.8458632 C99.5205002,69.8147063 98.8344269,72.844988 98.2169609,75.9002617 C97.7138404,78.3859258 97.324026,80.8997059 96.9217376,83.4051553 C96.4872245,86.1022102 96.0371188,88.7992651 95.667055,91.5077746 C94.9040583,97.1330605 94.2179849,102.771884 93.5235956,108.409666 C92.1878316,119.241621 92.069328,130.216239 92.0371033,141.117964 C92.0007207,152.019689 91.8905331,162.937034 92.3697449,173.826263 C92.5734879,178.435207 92.8208901,183.039985 93.0599763,187.643723 C93.0360677,187.180329 93.0121591,186.71277 92.9872109,186.249377 C93.2148626,191.699718 93.3770253,197.145895 93.5433461,202.601443 C93.722141,208.552667 94.1847208,214.470567 94.8146608,220.389509 C95.3988627,225.933571 95.8053091,231.494294 96.3739184,237.038356 C96.9258956,242.485574 97.6774577,247.915089 98.4529285,253.337315 C99.1878586,258.491918 100.065201,263.710042 101.445664,268.737602 C103.009079,274.424327 104.77104,280.070439 106.634873,285.663444 C108.347977,290.813882 110.398921,295.775838 112.741965,300.670107 C113.939475,303.163061 115.206631,305.623733 116.420773,308.109397 C117.622441,310.558614 118.820991,312.994294 120.148438,315.378949 C121.667155,318.108285 123.607911,320.622065 125.439519,323.144176 C126.958236,325.238298 128.533086,327.276189 130.177583,329.269302 C132.126655,331.63313 134.401092,333.732459 136.646423,335.802631 C138.603811,337.61247 140.657873,339.345249 142.826281,340.898919 C145.072651,342.514028 147.362681,344.015632 149.7577,345.398523 C152.515507,346.984475 155.463544,348.22158 158.358565,349.523247 C159.556075,350.059534 160.753585,350.567705 161.992675,351.002982 C165.038425,352.077639 168.314945,352.361923 171.429302,351.467417 C172.907478,351.04047 174.397089,350.531258 175.82329,349.946029 C178.209993,348.969257 180.390875,347.696747 182.514584,346.220136 C184.674675,344.718532 186.591522,342.778527 188.374274,340.858307 C190.615446,338.438247 192.775538,335.97341 194.838956,333.398191 C196.547902,331.270746 198.115475,329.038126 199.61756,326.763853 C201.059354,324.587465 202.256864,322.248629 203.511546,319.962901 C205.010512,317.23773 206.480373,314.504228 207.828611,311.700957 C209.02612,309.203839 210.033401,306.600504 211.096815,304.041946 C213.151916,299.119561 215.551094,294.332549 217.776674,289.483057 C218.933643,286.953657 220.022005,284.410719 220.992903,281.799054 C221.881679,279.408151 222.673782,276.975595 223.493952,274.558659 C225.341152,269.140598 227.083363,263.681926 228.845324,258.231584 C229.637427,255.769871 230.527243,253.345645 231.379637,250.904759 C232.321429,248.196249 233.162388,245.475244 233.860936,242.688634 C234.583392,239.795808 235.160317,236.863412 235.789218,233.946636 C236.349511,231.327681 236.881737,228.703519 237.344317,226.063738 C238.270516,220.767514 238.805861,215.410892 239.452433,210.07718 C240.117717,204.57373 240.694642,199.061949 241.144748,193.538714 C241.579261,188.193547 241.762214,182.827553 241.9171,177.466766 C242.066789,172.093483 242.002339,166.724365 241.815228,161.354206 C241.762214,159.780751 241.697764,158.202089 241.619801,156.627592 C241.593814,156.113173 241.589656,155.610208 241.545997,155.114534 C241.534562,154.889605 241.523127,154.664677 241.506495,154.439749 C241.437888,153.48797 241.364083,152.540356 241.295476,151.587536 C241.104207,149.045639 240.779881,146.507909 240.483622,143.977467 C240.149941,141.117964 239.833932,138.262627 239.516883,135.398958 C238.916049,129.951741 237.945151,124.561796 237.06469,119.152066 C236.641612,116.561228 236.333918,113.953727 235.95138,111.358723 C235.533499,108.495055 235.026221,105.663668 234.400439,102.836446 C233.718524,99.7488913 232.796483,96.7019482 231.952404,93.6560465 C231.119761,90.6330541 230.397305,87.5788217 229.645743,84.5318786 C228.760084,80.9642686 227.758002,77.4414359 226.514753,73.980042 C225.49396,71.1444897 224.171709,68.4338975 223.170666,65.5952212 C222.737192,64.2008751 222.314114,62.8034049 221.866087,61.4111415 C221.472114,60.1865328 221.106209,58.9171467 220.436767,57.8112501 C220.192484,57.4207499 219.945082,57.0302496 219.697679,56.6397494 C219.071897,55.886865 218.300585,55.3464127 217.38686,55.0079792 C216.04278,54.5164695 214.544853,54.5851976 213.24859,55.1870886 C210.553153,56.448144 209.424251,59.6981472 210.634235,62.3910367 C212.023014,65.4785918 212.879566,68.7900337 214.106182,71.9463168 C214.804729,73.7447005 215.591634,75.5097615 216.302656,77.3039799 C216.869186,78.73269 217.36503,80.1822268 217.845281,81.639053 C219.336971,86.853012 220.654024,92.1159136 222.186254,97.3205006 C222.946133,99.9113394 223.733038,102.494889 224.342188,105.12634 C224.991879,107.933776 225.475248,110.756832 225.894169,113.608005 C226.263193,116.14157 226.576084,118.688673 227.002281,121.213908 C227.449269,123.882846 227.931599,126.54762 228.358835,129.219683 C229.247612,134.751249 229.812064,140.324468 230.506453,145.885191 C230.91186,149.134153 231.252818,152.381032 231.504378,155.646655 C231.507496,155.849715 231.523089,156.053817 231.550116,156.254794 C231.551155,156.25896 231.551155,156.263125 231.551155,156.268332 C231.775689,161.106369 231.923298,165.960026 231.822466,170.800146 C231.708121,176.299431 231.444086,181.790385 231.123919,187.278215 C230.486702,198.20389 229.085449,209.105615 227.801661,219.969852 C227.144694,225.528492 225.97525,231.005909 224.787096,236.467705 C224.204973,239.00856 223.587507,241.532753 222.767338,244.010087 C221.889996,246.66653 220.886873,249.282361 219.945082,251.917977 C218.093723,257.120481 216.586441,262.453152 214.869178,267.700434 C214.016784,270.312099 213.115533,272.907103 212.221559,275.506273 C211.356691,278.008598 210.491823,280.514048 209.403461,282.929942 C207.174762,287.901271 204.815086,292.802829 202.520898,297.740835 C200.64667,301.778086 199.094689,305.948629 197.182,309.967136 C196.259959,311.678048 195.314009,313.37334 194.363902,315.065507 C193.250592,317.041959 192.154953,319.039238 190.862849,320.902184 C188.162215,324.798856 185.107109,328.407078 181.956369,331.941365 C179.827463,334.188564 177.639305,336.339959 175.102913,338.140426 C173.438665,339.101577 171.714126,339.839883 169.897071,340.47822 C169.251539,340.670867 168.606006,340.843729 167.939683,340.958275 C167.54779,340.93849 167.161094,340.897878 166.772319,340.839563 C164.925119,340.283491 163.177711,339.470209 161.419908,338.670465 C159.88144,337.967564 158.339854,337.267788 156.816979,336.533648 C154.308654,335.15388 151.90012,333.642905 149.542523,332.006969 C147.151661,330.339793 144.925041,328.47893 142.760792,326.532677 C137.877197,321.752954 133.663044,316.282827 129.904193,310.574234 C128.277368,307.692863 126.80231,304.740681 125.313739,301.784334 C123.843879,298.871723 122.325162,295.979939 120.972766,293.010055 C118.302277,287.146303 116.279401,281.050335 114.313697,274.923126 C112.757558,269.921599 111.288737,264.917989 110.317839,259.764428 C109.323033,254.464038 108.539246,249.139698 107.849015,243.794531 C107.122401,238.156749 106.562107,232.518967 106.13591,226.848904 C105.712832,221.174675 105.035075,215.520232 104.620312,209.841838 C104.51948,208.433955 104.462307,207.027112 104.3937,205.615064 C104.417609,206.082623 104.438399,206.551223 104.462307,207.018782 C104.279354,202.080776 104.149416,197.142771 103.950871,192.203724 C103.752325,187.158461 103.433197,182.120488 103.146294,177.078349 C102.909287,171.995598 102.721136,166.912847 102.728413,161.822807 C102.736729,156.066313 102.749203,150.31086 102.781428,144.558532 C102.809494,139.181083 102.907208,133.803635 103.061054,128.426186 C103.215941,123.065399 103.435276,117.687951 104.044426,112.35528 C105.433205,100.269558 106.861485,88.144266 109.363574,76.2282819 C110.726365,70.9747523 112.549657,65.8951254 114.499768,60.8332011 C116.269006,56.2586212 117.857369,51.5934452 119.975881,47.167776 C121.620378,44.3238931 123.435353,41.6216315 125.414571,39.0016354 C127.151584,36.7054941 129.167184,34.6009582 131.133928,32.492257 C131.115217,32.511001 131.097545,32.5307864 131.079874,32.5505717 C131.866779,31.7289592 132.643289,30.8990161 133.466577,30.1180156 C134.976978,28.6924295 136.542473,27.3907621 138.254537,26.2234268 C141.237917,24.4760684 144.404249,23.1098383 147.577858,21.7467322 C150.30552,20.5752315 153.007193,19.2902255 155.808659,18.3040822 C158.892871,17.4543538 162.157956,16.9867948 165.357553,16.7493707 C166.380426,16.7524947 167.378351,16.8243467 168.383552,16.9795055 C169.675657,17.3470964 170.937616,17.7865393 172.204773,18.2447262 C175.144493,19.3058455 178.482344,17.7605059 179.554073,14.8114483 C180.626842,11.8582252 179.063427,8.52699801 176.127865,7.44505206 C174.844076,6.97228646 173.565485,6.45995017 172.253629,6.06944994 C170.926181,5.67478438 169.565469,5.39883089 168.201639,5.1749441 C167.408496,5.04686003 166.594564,5 165.777513,5 C164.665242,5 163.546735,5.08747205 162.463571,5.17910944" id="Fill-3"></path>
            <path d="M110.329967,115.031298 C110.197451,115.115801 110.063893,115.199261 109.931377,115.283763 C110.063893,115.199261 110.196408,115.115801 110.329967,115.031298 M248.271173,64.4058217 C242.927777,64.7845191 237.580208,65.5460868 232.302548,66.4224114 C226.942458,67.3112548 221.651233,68.6966822 216.365226,69.9277095 C210.699411,71.2474125 204.989772,72.290656 199.462733,74.133024 C196.629825,75.0782026 193.833438,76.1047542 191.029746,77.1114841 C188.445175,78.0368411 185.828257,78.8599602 183.240555,79.7727983 C178.137148,81.5786527 173.169386,83.7381668 168.069109,85.5596699 C165.892518,86.3379295 163.71697,87.1078432 161.581073,87.9883407 C159.436828,88.8688382 157.349971,89.8797412 155.254767,90.8614333 C151.085228,92.8175148 146.716395,94.2801422 142.624069,96.4041859 C140.610253,97.4505591 138.67052,98.6450729 136.697397,99.7655164 C134.912092,100.780592 133.090266,101.746636 131.240268,102.642782 C129.209756,103.624474 127.196983,104.619728 125.228034,105.715134 C123.22987,106.832448 121.329787,108.160497 119.408835,109.415519 C116.579058,111.141043 113.756585,112.868655 110.956024,114.635909 C108.507098,116.158001 106.003914,117.607067 103.596725,119.191753 C101.261532,120.728451 99.0202487,122.378862 96.786269,124.065787 C94.5564629,125.748539 92.2494432,127.317577 89.9507709,128.911653 C87.762702,130.427486 85.7488856,132.146751 83.7559378,133.903573 C81.7254265,135.688563 79.728305,137.510066 77.7030108,139.295055 C75.6245019,141.120731 73.5699918,142.962056 71.5853914,144.88997 C67.7100991,148.655036 64.1687038,152.75081 60.5167052,156.736 C58.4048065,158.925768 56.2240416,161.047725 54.0871007,163.212456 C51.6173062,165.715197 49.2612453,168.351473 47.0074404,171.045128 C45.0186663,173.433112 43.0215447,175.804404 40.9545135,178.127708 C38.9333931,180.397806 37.1564349,182.760752 35.5662503,185.353212 C34.8243729,186.559202 34.4414348,187.818396 34.7022918,189.240337 C34.93915,190.544392 35.6883314,191.73056 36.7724533,192.4963 C38.9375668,194.037171 42.4466158,193.665776 43.9178496,191.290311 C44.9550172,189.615905 46.1007013,188.085467 47.391422,186.599888 C49.2570716,184.623985 51.1675886,182.688768 52.9831536,180.662789 C54.8008056,178.630551 56.5798506,176.570145 58.4204579,174.556685 C59.6183135,173.293317 60.8276468,172.045598 62.0641092,170.825003 C63.3558733,169.549116 64.7050259,168.326435 65.9769649,167.0349 C68.8328278,164.132596 71.5739137,161.131185 74.3202167,158.124557 C76.9110488,155.395432 79.5780513,152.777934 82.3660914,150.244939 C85.3002115,147.583625 88.3042412,144.983862 91.2592299,142.33924 C92.8243721,140.937121 94.4145567,139.584034 96.0767378,138.300844 C97.6262287,137.106331 99.2852795,136.050568 100.861899,134.897784 C104.137221,132.502497 107.309242,129.987237 110.684732,127.727572 C113.439383,126.00309 116.200294,124.286955 118.938249,122.541608 C118.543834,122.794073 118.144201,123.047581 117.748741,123.300046 C121.394479,120.996565 125.097606,118.782802 128.729779,116.453239 C133.062093,113.829482 137.758564,111.881746 142.183743,109.407173 C144.433374,108.152151 146.638137,106.770896 148.981677,105.691139 C151.590248,104.489323 154.264554,103.453382 156.926339,102.381971 C159.396134,101.38776 161.763672,100.15256 164.193817,99.0602838 C166.809691,97.8835052 169.492345,96.9049428 172.203172,95.9555912 C174.807568,95.0469262 177.403618,94.1257422 179.979842,93.1315311 C182.392248,92.1978282 184.793176,91.224482 187.238972,90.384671 C190.108399,89.4029789 193.014347,88.5141354 195.875427,87.5074055 C198.54869,86.5695296 201.215692,85.6212213 203.900433,84.7250751 C205.892337,84.180502 207.881112,83.666183 209.892841,83.1956802 C211.86179,82.7314368 213.858912,82.3652583 215.830991,81.9250096 C220.042267,80.9913067 224.239979,80.0012686 228.458559,79.0926035 C236.238359,77.4161112 244.162153,76.4438083 252.098468,75.9107109 C259.765578,75.7208406 267.41808,76.0317271 275.058062,76.6597597 C279.064826,76.9894246 283.087242,77.1605166 287.085658,77.5517329 C290.851391,77.9158249 294.571212,78.3936304 298.285817,79.0999062 C300.656485,79.660128 302.979157,80.3121552 305.204789,81.3376635 C306.182481,81.9031015 307.108002,82.5269611 307.989699,83.2384531 C308.580279,83.867529 309.124949,84.5258156 309.636228,85.2247887 C310.044209,85.9717511 310.38541,86.7364485 310.691134,87.5387028 C311.01251,88.6737517 311.287975,89.8067141 311.48414,90.9793198 C311.689695,92.227039 311.797168,93.4831042 311.894207,94.7412558 C311.938031,96.9769266 311.836818,99.1792136 311.52066,101.407582 C311.19198,103.723582 310.743306,106.013502 310.27585,108.302378 C309.214683,112.820665 307.942744,117.265926 306.418296,121.653808 C304.88237,126.056296 302.796557,130.256394 300.678397,134.406416 C298.816921,137.88146 296.919969,141.336683 294.996931,144.78043 C293.114586,148.154279 291.169636,151.499961 288.9367,154.657859 C286.617159,157.943033 284.089976,161.052942 281.510622,164.137813 C279.045001,167.077673 276.584597,170.015446 274.011503,172.863501 C270.903131,176.049567 267.718588,179.200162 264.416138,182.186968 C260.824658,185.430412 257.087098,188.487116 253.333887,191.542776 C246.051801,197.466312 238.705024,203.390892 230.829228,208.516347 C226.455177,211.217305 222.025824,213.825413 217.612123,216.462733 C212.861394,219.306615 208.210835,222.294464 203.548798,225.277097 C201.276211,226.655222 198.992147,227.997876 196.662172,229.278979 C194.290459,230.57886 191.889531,231.830753 189.541818,233.175493 C187.039677,234.609953 184.573013,236.092402 182.119913,237.600932 C179.873412,238.978014 177.599782,240.350922 175.227026,241.504749 C170.230049,243.93342 165.139163,246.158659 160.150533,248.595675 C155.267289,250.98366 150.588557,253.73052 145.513322,255.714769 C141.512818,257.273375 137.49875,258.740175 133.415815,260.068224 C129.066807,261.405662 124.709451,262.717019 120.340617,263.979344 C116.004129,265.230193 111.590428,266.151377 107.184031,267.109074 C102.452084,268.135626 97.7034423,269.081848 92.9589744,270.027026 C90.6686495,270.487097 88.3616298,270.837627 86.0629575,271.220497 C83.8352383,271.591892 81.6148231,271.92573 79.3735394,272.161503 C78.0285604,272.166719 76.7002764,272.1156 75.3552974,271.978935 C73.7087677,271.816189 72.0705855,271.611713 70.4230124,271.461486 C67.1101279,271.159989 63.7753314,271.033756 60.4540995,270.805286 C58.8399161,270.691573 57.2299064,270.580989 55.6198967,270.409897 C54.0297121,270.238805 52.4530921,269.94148 50.8796024,269.659805 C48.0320869,269.156961 45.1741371,268.71254 42.3380993,268.16275 C39.0513005,267.347977 35.8865828,266.284912 32.8595976,264.768036 C32.0384196,264.333003 31.2151548,263.903187 30.3887597,263.476501 C29.5289748,263.001825 28.6963192,262.491679 27.9367034,261.856343 C27.0195301,261.088516 26.1190515,260.298781 25.2237901,259.505916 C23.9591552,258.216467 22.8155579,256.809131 21.7731731,255.336072 C21.3015436,254.501477 20.8987803,253.651233 20.5554924,252.742568 C19.4181557,248.955594 18.5281115,245.030912 18.1973447,241.094755 C18.1796065,239.395311 18.3444681,237.677089 18.680452,236.015202 C18.7618394,234.943791 18.5740223,233.91724 18.1253482,232.938677 C17.4408593,231.47605 16.1897889,230.326396 14.669514,229.776606 C11.5548809,228.643644 7.94044565,230.289882 6.82710777,233.432131 C5.77950587,236.386597 5.93497667,239.536149 6.17913887,242.605371 C6.38260736,245.156102 6.90849517,247.6578 7.42603555,250.156368 C8.00931191,252.959563 8.93483271,255.738764 9.98660832,258.395905 C10.5281476,259.765683 11.4327998,261.04157 12.2362395,262.251733 C12.9249021,263.282457 13.7690355,264.203641 14.5923003,265.127955 C16.6008996,267.378231 18.9653079,269.28528 21.3297162,271.151643 C23.3915302,272.781189 25.9312345,273.772271 28.2497319,274.982433 C33.1288021,277.533163 38.4972401,278.858083 43.9011547,279.770921 C46.4857263,280.206996 49.0702979,280.650375 51.6538261,281.079148 C54.2832652,281.511051 56.9116608,281.697791 59.5692724,281.836543 C62.3614862,281.987813 65.1578737,282.065013 67.9532179,282.227759 C70.6598706,282.383202 73.3456547,282.802586 76.0523074,282.949683 C79.0354686,283.108256 82.023847,282.883959 84.9663145,282.390505 C87.660446,281.942954 90.3587513,281.498532 93.0445355,280.993602 C98.4129735,279.982699 103.760543,278.804877 109.095591,277.614536 C114.267865,276.457579 119.399445,275.25159 124.486157,273.751406 C129.842074,272.174022 135.205295,270.548648 140.492345,268.755313 C145.688618,266.995361 150.91828,265.084139 155.83387,262.638776 C158.340185,261.391057 160.798501,260.054662 163.292295,258.787121 C165.750612,257.540445 168.237101,256.35845 170.740285,255.209839 C174.525843,253.465536 178.455393,251.924665 182.079219,249.859043 C186.101635,247.568081 189.998839,245.066383 194.008734,242.759771 C197.779683,240.591911 201.626803,238.570106 205.385231,236.39077 C209.44208,234.035126 213.309025,231.338342 217.24588,228.787611 C221.649146,226.033449 226.112932,223.381524 230.549589,220.676393 C235.420312,217.709409 240.282687,214.763289 244.888379,211.385267 C249.522244,207.98638 254.046548,204.445611 258.514508,200.838075 C262.785259,197.391199 267.024708,193.915111 271.096165,190.234548 C273.129806,188.397397 275.083104,186.461137 277.067704,184.570779 C278.975091,182.749276 280.825089,180.886043 282.631263,178.963346 C286.747588,174.578593 290.607229,169.928857 294.427219,165.286424 C297.883053,161.085282 300.695092,156.418854 303.410092,151.724258 C306.414122,146.52369 309.242856,141.218796 311.973508,135.872174 C316.95379,126.128279 320.06425,115.508061 322.065545,104.778301 C322.546565,102.194187 323.031759,99.5255704 322.99837,96.8882509 C322.966023,93.8607583 322.96185,90.6861684 322.350401,87.7077082 C321.918422,85.6003564 321.327841,83.5545559 320.557791,81.5379663 C319.95782,79.9605821 318.931087,78.5219493 317.956525,77.1605166 C316.664761,75.3598783 314.883629,73.8596942 313.081628,72.5963263 C311.655262,71.5937693 310.025427,70.8196827 308.447764,70.0862825 C307.355294,69.5771797 306.193959,69.1609255 305.036797,68.8354336 C303.210798,68.3179848 301.384798,67.8568712 299.525409,67.4573089 C294.145493,66.3045249 288.716537,65.6691896 283.230191,65.2738003 C277.617591,64.8658921 272.013338,64.3359244 266.388217,64.124146 C264.208495,64.042773 262.02773,64 259.849052,64 C255.987325,64 252.127684,64.1314487 248.271173,64.4058217" id="Fill-5"></path>
            <path d="M55.5289346,62.4718013 C52.5537465,62.8001916 49.59212,63.653383 46.7473311,64.5585349 C44.3354676,65.3254718 41.9674182,66.1817808 39.6734356,67.257363 C36.2507175,68.860864 32.8603384,70.5298351 29.942526,72.9771745 C27.6151612,74.9256931 25.5371196,77.1184261 23.4788987,79.3423353 C21.6825194,81.2835795 19.7140132,83.1790984 18.2264191,85.3707922 C16.5155817,87.8877586 14.9987783,90.5221558 13.649929,93.2500819 C12.0371517,96.5059266 11.2380655,100.151475 11.0502906,103.776239 C10.9157186,106.364911 11.0784568,108.932799 11.219288,111.514196 C11.2724908,112.783072 11.3090026,114.060261 11.4331427,115.320822 C11.5760602,116.742462 11.7920012,118.118376 12.0402813,119.522348 C12.2364017,120.643656 12.550403,121.791983 12.8842249,122.880035 C13.4225128,124.625908 13.935764,126.374898 14.5710689,128.088556 C15.5777507,130.820639 16.657456,133.519467 17.7861915,136.206864 C18.829385,138.695771 19.9508181,141.138954 20.9522839,143.64345 C21.4331961,144.841659 21.8734238,146.055456 22.3386882,147.26094 C22.8519394,148.592168 23.5446199,149.854808 24.2414732,151.096663 C25.6268343,153.564787 26.999677,156.032911 28.5404739,158.408545 C29.9946857,160.653238 31.5187915,162.910402 33.3203868,164.895293 C35.1501483,166.912399 37.1259569,168.800644 39.0256124,170.753319 C42.9657545,174.820787 46.9590994,178.831098 51.1162258,182.675136 C51.5074234,183.040938 51.9017505,183.402583 52.2929481,183.767345 C54.2040787,185.532963 56.3520143,187.055406 58.4384014,188.610064 C60.6145032,190.226035 62.7008903,191.95528 64.8112709,193.656467 C66.8611462,195.308811 68.9642245,196.899841 71.0255749,198.548028 C73.0671047,200.175431 75.0648204,201.844402 77.1877193,203.371001 C79.2855816,204.876817 81.3761415,206.390946 83.4792197,207.888447 C85.7126971,209.479477 88.0473643,210.916705 90.3622108,212.386148 C92.7166987,213.876375 94.9825151,215.503777 97.277541,217.087533 C99.546487,218.654662 101.902018,220.099164 104.240858,221.557175 C108.95192,224.500218 113.670285,227.426633 118.426204,230.296931 C120.687848,231.660374 122.928627,233.052916 125.153759,234.473516 C127.224499,235.797469 129.25351,237.188971 131.356588,238.459925 C133.662046,239.852466 136.025923,241.143165 138.385626,242.446334 C141.049943,243.924091 143.71113,245.429906 146.470377,246.728918 C151.425546,249.062984 156.380715,251.373147 161.303546,253.772683 C165.895684,256.01322 170.590055,258.03864 175.214532,260.210589 C180.23125,262.564399 185.308473,264.801818 190.345011,267.119256 C192.770437,268.23225 195.251151,269.210147 197.741254,270.164141 C200.129124,271.077607 202.467964,272.096033 204.876698,272.956498 C207.223883,273.793062 209.705641,274.24408 212.106029,274.909174 C214.620126,275.607523 217.076847,276.371342 219.66501,276.805732 C221.066019,277.040594 222.487892,277.145554 223.89516,277.353396 C225.590349,277.84806 227.265718,278.58382 229.053752,278.50588 C229.526319,278.481978 230.003058,278.457037 230.475625,278.437292 C231.416585,278.258548 232.260529,277.868844 233.002239,277.264024 C234.135148,276.326656 234.851822,274.949703 234.970746,273.488574 C235.21068,270.525786 232.916698,267.817605 229.930034,267.590018 C229.829888,267.582744 229.731828,267.572352 229.633767,267.559881 C229.28847,267.460117 228.94526,267.352039 228.601006,267.233569 C227.415938,266.823081 226.18497,266.559122 224.945656,266.348163 C223.255682,266.064458 221.543801,265.973008 219.848612,265.703852 C217.914531,265.197757 216.020091,264.510839 214.094356,263.973568 C211.604253,263.283532 209.175698,262.557125 206.787828,261.569875 C201.934892,259.569396 197.07361,257.59178 192.309345,255.383459 C182.639984,250.906542 172.83918,246.696703 163.226152,242.09716 C158.523435,239.849348 153.765429,237.709615 149.102354,235.379707 C144.694861,232.974975 140.305103,230.503734 136.156322,227.673965 C131.759261,224.670648 127.301695,221.78788 122.753371,219.015268 C118.00684,216.121068 113.238402,213.246613 108.539859,210.271355 C103.87887,207.319999 99.3920943,204.117154 94.7258895,201.169955 C91.3720222,199.051006 88.2382687,196.640039 85.0231462,194.318444 C81.9676322,192.110123 79.1760462,189.593156 76.2498883,187.221679 C73.1453443,184.701595 70.109651,182.078629 66.9508609,179.622976 C65.2556713,178.307336 63.5448339,177.016638 61.8527739,175.693723 C60.6551877,174.756356 59.5264523,173.735852 58.4071056,172.709112 C54.744453,169.202818 51.1162258,165.665348 47.5297263,162.073838 C45.7896795,160.332122 44.0006025,158.643406 42.3221041,156.841416 C40.7969551,155.201543 39.4887903,153.318494 38.2599083,151.435446 C36.9183614,149.21985 35.5924624,146.972039 34.3594076,144.699287 C32.9051958,142.01189 31.7722876,139.149906 30.4922891,136.381451 C29.2373272,133.661838 27.7299125,131.063814 26.4739074,128.344201 C25.7405424,126.752132 25.0363867,125.156944 24.3551813,123.542012 C23.8638372,122.378097 23.442387,121.192358 23.0188504,120.001424 C22.4816057,118.110062 21.9704408,116.227013 21.7148584,114.266024 C21.4613624,112.326859 21.3486975,110.367948 21.2339462,108.415272 C21.1703114,105.91909 21.3831229,103.469672 21.8004003,101.010902 C22.1915979,99.6640856 22.7424041,98.4170336 23.3662338,97.1699817 C24.477235,95.1331303 25.5830201,93.032887 27.0121953,91.2038775 C28.5352579,89.2553589 30.233577,87.4575257 31.9110323,85.6399475 C34.060011,83.370313 36.2705382,81.2014819 38.8576582,79.4327466 C42.1197245,77.5673648 45.6081638,76.0573927 49.14459,74.806184 C50.6175793,74.365559 52.0957845,73.9644239 53.5969401,73.598622 C55.4538246,73.1434481 57.3597393,72.9085867 59.2562652,72.7049015 C63.5500499,72.5448632 67.8720008,72.6664507 72.1584831,72.8919593 C76.7182822,73.1278599 81.2217488,73.8303659 85.7325178,74.4996171 C94.9533057,75.8661781 104.310752,76.3390186 113.451214,78.1690673 C116.556801,78.845593 119.665518,79.5273147 122.556207,80.8533466 C124.391185,81.969458 126.150009,83.1946866 127.941173,84.3804251 C130.100583,85.8093387 132.370572,87.0917238 134.697937,88.2286195 C138.73301,90.1979223 142.842149,92.0061476 146.863661,94.0055875 C149.423658,95.3960504 151.947143,96.8509443 154.514442,98.2310151 C157.53866,99.8563394 160.588958,101.43386 163.649688,102.994753 C165.876906,104.204394 168.085347,105.447289 170.243715,106.780595 C172.610721,108.237567 174.966252,109.719481 177.354122,111.140081 C182.129862,113.985438 187.044347,116.604247 191.767927,119.534819 C196.392405,122.40096 200.907346,125.416747 205.316925,128.604004 C207.394967,130.109819 209.432324,131.668634 211.486372,133.210821 C213.625962,134.822636 215.821885,136.357549 217.997986,137.920521 C221.828593,140.672349 225.239836,143.924037 228.959864,146.818236 C230.704084,148.174405 232.542191,149.407947 234.293713,150.755803 C236.27891,152.282402 238.194214,153.89006 240.112647,155.493561 C243.735658,158.521818 247.578783,161.270529 251.08287,164.441158 C254.377276,167.42473 257.767655,170.292949 261.099615,173.233913 C264.901012,176.879462 268.456216,180.713107 271.837206,184.757712 C273.629413,186.905759 275.402842,189.069394 277.220085,191.196657 C279.020637,193.303136 280.93594,195.308811 282.867935,197.297859 C286.592136,201.133582 290.544796,204.730288 294.167808,208.667854 C296.034081,210.701588 297.72927,212.914066 299.484965,215.045486 C301.1885,217.111435 302.892035,219.189855 304.460999,221.357647 C305.155765,222.316838 305.828625,223.279146 306.483751,224.26016 C307.272405,225.637113 307.932747,227.054596 308.480423,228.540666 C309.111555,230.762497 309.659232,233.003033 310.002443,235.289295 C310.37382,237.751184 310.621057,240.193327 310.79214,242.665607 C310.800486,243.645582 310.810918,244.627636 310.81822,245.60865 C310.826566,246.71333 310.691994,247.825285 310.6221,248.924769 C310.525083,250.543858 310.203779,252.157751 309.862655,253.752938 C309.055223,256.655452 308.179984,259.478985 306.886424,262.196519 C306.154102,263.437336 305.351886,264.598133 304.430746,265.703852 C303.224814,266.879199 301.924995,267.910095 300.532332,268.857855 C299.257549,269.60089 297.949384,270.273258 296.572369,270.815726 C296.074765,270.94147 295.575076,271.04747 295.063911,271.142038 C292.126278,271.694898 290.100396,274.559999 290.638684,277.507199 C291.176972,280.450241 294.082266,282.439289 297.032417,281.916567 C300.185991,281.355393 303.107976,280.211223 305.916254,278.68878 C309.843877,276.553204 313.230084,273.683945 315.874579,270.083083 C317.048172,268.487896 317.941146,266.660965 318.800737,264.89119 C319.228447,264.014097 319.563312,263.104788 319.897134,262.191323 C320.414558,260.766566 320.84644,259.333496 321.278322,257.876523 C321.461924,257.267546 321.567287,256.63051 321.706031,256.01322 C321.926145,255.046755 322.21198,254.035603 322.353855,253.06602 C322.562493,251.652695 322.785737,250.252879 322.883797,248.828122 C323.112256,245.482906 322.965166,242.174061 322.774262,238.829884 C322.622998,236.19133 322.137913,233.564207 321.600669,230.982809 C320.805755,227.179301 319.611299,223.310322 317.692866,219.916263 C315.993503,216.904632 313.833049,214.155922 311.718496,211.427996 C310.129712,209.386988 308.458516,207.405214 306.812357,205.41201 C305.014934,203.232787 303.189346,201.101367 301.274042,199.027104 C299.559032,197.167957 297.647901,195.475084 295.837961,193.70531 C291.816449,189.775018 287.916992,185.740805 284.334665,181.405221 C280.756511,177.077951 277.175228,172.757955 273.17771,168.804801 C270.924412,166.575695 268.577226,164.456746 266.168492,162.394954 C264.167647,160.68961 262.093778,159.070521 260.080415,157.376609 C257.965861,155.598521 255.928504,153.747688 253.74823,152.046501 C251.596122,150.370256 249.42002,148.738696 247.297121,147.025039 C245.105371,145.263578 242.974127,143.436647 240.736477,141.73546 C238.502999,140.031156 236.200671,138.431812 233.983885,136.702567 C231.886022,135.062693 229.921689,133.239919 227.884332,131.517948 C225.903307,129.850016 223.699039,128.474102 221.612652,126.947503 C217.191598,123.720756 212.884252,120.354755 208.42147,117.188283 C201.392431,112.203193 193.944029,107.916452 186.531096,103.537221 C182.860098,101.369429 179.286117,99.0353635 175.675624,96.7657291 C171.81998,94.3402131 167.710841,92.3366163 163.651775,90.2748238 C159.450834,87.9947972 155.325004,85.5547323 151.054169,83.409803 C146.908518,81.3293047 142.663763,79.474315 138.476384,77.4863064 C136.444243,76.3857831 134.467391,75.2114759 132.505144,73.9758553 C131.397273,73.2775062 130.280013,72.5999413 129.127284,71.9753761 C127.741923,71.2198705 126.356562,70.533992 124.880443,69.9738578 C124.020851,69.6444283 123.11223,69.4293118 122.228645,69.1819798 C120.931955,68.8161779 119.591451,68.5646891 118.279114,68.2726711 C116.588097,67.8995948 114.89708,67.5254792 113.201891,67.1887752 C110.623116,66.6691702 108.022435,66.2877802 105.410278,65.9874485 C99.9867146,65.366001 94.550633,64.8141805 89.1437607,64.0586749 C83.7807026,63.3083653 78.4385084,62.4146448 73.0191178,62.1953715 C70.363147,62.0862544 67.6873555,62 65.0136504,62 C61.8392124,62 58.6668608,62.1215876 55.5289346,62.4718013" id="Fill-7"></path>
            <path d="M15.0863542,221.741297 C15.1366686,221.787883 15.1880313,221.834469 15.239394,221.88209 C15.1880313,221.835504 15.1366686,221.788918 15.0863542,221.741297 M27.4867739,205.348289 C27.5905475,205.367959 27.6953693,205.389699 27.8001911,205.41558 C27.6953693,205.39384 27.5905475,205.371064 27.4867739,205.348289 M26.9113022,205.275822 C27.0486188,205.322408 27.1848871,205.371064 27.3201073,205.421791 C27.5266062,205.553266 27.7278641,205.690953 27.9259773,205.835887 C28.0695832,205.998419 28.207948,206.164057 28.3442163,206.335907 C28.8169627,207.191014 29.217382,208.068897 29.5653904,208.984048 C29.8421199,210.005829 30.0412814,211.028645 30.169164,212.085624 C30.1555371,212.736789 30.1062709,213.372426 30.010883,214.014274 C29.6523925,215.1872 29.2058516,216.311469 28.6765014,217.415034 C28.2624553,218.101397 27.8243001,218.756704 27.328493,219.387164 C26.9532309,219.728793 26.5632938,220.043506 26.1513441,220.343725 C24.7886606,221.076674 23.3641323,221.689535 21.9060609,222.20819 C20.7362496,222.501163 19.5664382,222.735127 18.3704214,222.886272 C17.8913857,222.876955 17.4186394,222.841756 16.9385555,222.781713 C16.609415,222.683365 16.2865639,222.574665 15.9658091,222.448366 C15.8840481,222.392463 15.8033353,222.335525 15.7236708,222.276516 C15.3263961,221.86242 14.9532305,221.441078 14.6041739,220.989714 C14.4521822,220.69053 14.3138175,220.38824 14.1859348,220.080774 C14.0475701,219.454455 13.9553269,218.82917 13.8850963,218.193534 C13.9071088,216.840476 14.0790166,215.534005 14.3305889,214.208899 C14.4301697,213.850706 14.5444254,213.500796 14.6848866,213.15192 C15.1775491,211.921021 15.1964171,210.57521 14.8410711,209.328783 C15.1083667,209.124841 15.3819517,208.928145 15.6586812,208.735591 C17.1827903,207.871166 18.77713,207.169274 20.4186395,206.547096 C22.5517633,205.947692 24.7027067,205.523244 26.9113022,205.275822 M26.5748242,205.261329 C26.3746146,205.271681 26.1744049,205.280999 25.9741953,205.290316 C26.1754531,205.269611 26.3756628,205.260294 26.5748242,205.261329 M25.4092057,194.093172 C24.1314279,194.182202 22.8337339,194.517619 21.5884509,194.808522 C18.8001908,195.455546 16.0978846,196.422459 13.5349914,197.667852 C9.55071455,199.600643 6.00878569,202.597659 3.45742291,206.180621 C1.85679392,208.420878 1.04547314,211.07316 0.280273946,213.665399 C-0.100229213,214.94806 -0.136916845,216.181029 0.443795965,217.413999 C0.654487797,217.861222 0.932265585,218.269106 1.26245428,218.630404 C1.35050459,219.827141 1.50668909,221.01456 1.78656331,222.193697 C2.16392182,223.79107 2.76979186,225.356352 3.62094493,226.764277 C4.18278982,227.685639 4.73520074,228.486914 5.40710852,229.319246 C6.31591359,230.447657 7.54442516,231.422852 8.67859711,232.316263 C9.48467681,232.950864 10.528702,233.351502 11.4500857,233.792514 C11.965809,234.03476 12.5276539,234.176587 13.0758719,234.321521 C14.042329,234.573084 15.0580523,234.766674 16.0528112,234.916783 C17.0727274,235.069999 18.161826,234.976827 19.1765011,234.912642 C22.6198974,234.694207 25.9574238,233.610312 29.077969,232.202387 C30.044426,231.766551 30.9773401,231.296553 31.890338,230.759264 C32.721575,230.265455 33.5161243,229.743694 34.2897092,229.174313 C35.0559566,228.608037 35.7027071,227.847137 36.3368791,227.163879 C37.2792271,226.153486 38.0161244,225.061309 38.6953697,223.864572 C39.711093,222.057045 40.5706319,220.200862 41.181743,218.219415 C42.3232525,214.494625 42.2173824,210.629043 41.1932734,206.887689 C40.7184306,205.149523 40.0758729,203.46726 39.2320574,201.874027 C38.7572146,200.979581 38.1712607,200.147249 37.6146569,199.301459 C36.9762921,198.33144 36.0182208,197.591244 35.1618266,196.823097 C34.0769209,195.852042 32.6115121,195.205018 31.2718894,194.674976 C30.5643422,194.396497 29.3850968,194.145969 28.7215748,194.069361 C28.2771303,194.01967 27.8410716,194 27.4060611,194 C26.7446355,194 26.0853064,194.044515 25.4092057,194.093172" id="Fill-9"></path>
            <path d="M201.468243,12.9336394 C201.766298,12.9419669 202.061216,12.9586219 202.361363,12.9846453 C202.559021,13.0523062 202.753541,13.1251718 202.948061,13.203242 C203.409263,13.5103184 203.84641,13.8371725 204.275191,14.1848454 C205.033402,14.9759573 205.736185,15.8014202 206.38354,16.6882983 C206.898078,17.6074455 207.339409,18.5515752 207.713808,19.5373423 C208.309918,21.8211576 208.558821,24.1445284 208.895571,26.4824724 C209.169572,28.3801002 209.520964,30.2610729 209.695614,32.170151 C209.705026,33.6909596 209.582667,35.1867857 209.330627,36.6898984 C208.853738,38.4813506 208.228345,40.1957735 207.433531,41.8716817 C206.108493,44.1607016 204.566972,46.2831717 202.824656,48.2786475 C201.524717,49.5912688 200.145296,50.8029192 198.639333,51.8698794 C197.907267,52.2612716 197.163698,52.600617 196.391891,52.8983249 C195.501909,53.1200444 194.610881,53.2876353 193.69789,53.4010974 C192.690777,53.3927699 191.702489,53.3115768 190.705834,53.1585591 C189.694538,52.8629331 188.727165,52.501728 187.773389,52.0655755 C186.755817,51.4555865 185.788445,50.7883461 184.860814,50.0524038 C184.297123,49.4517833 183.785723,48.8209756 183.304651,48.1506123 C182.727365,47.1263305 182.210736,46.080189 181.772543,44.9882464 C181.42638,43.6402333 181.205715,42.277647 181.072897,40.8890374 C181.074989,39.6336676 181.176432,38.408485 181.384548,37.1697703 C181.759993,35.6822716 182.166812,34.2051823 182.553761,32.7239293 C182.974176,31.5684895 183.072482,30.3859853 182.856,29.1774577 C182.586181,27.6878772 181.8081,26.3180044 180.678628,25.3124595 C181.059302,24.8325876 181.455663,24.3631252 181.863528,23.9019902 C183.657089,22.0980467 185.591833,20.5116591 187.688678,19.0616342 C188.581798,18.4453996 189.505246,17.8739253 190.424512,17.2962054 C190.168289,17.4585915 189.912066,17.6199367 189.657934,17.780241 C192.340432,16.2125902 195.010379,14.7053138 197.930275,13.6341898 C199.097397,13.318786 200.267656,13.0835343 201.468243,12.9336394 M193.971892,1.58118296 C189.098427,3.24772273 184.80434,6.24041595 180.621108,9.17689859 C176.887574,11.7990183 173.574455,15.1581213 170.951568,18.8742656 C169.640125,20.728174 168.582814,22.8142112 167.916634,24.9814416 C167.483669,26.3971156 167.246271,27.888778 167.115545,29.3606626 C166.989002,30.7919507 167.242088,32.252385 167.466936,33.6628543 C167.480532,33.7471702 167.496219,33.8304451 167.513998,33.9126791 C167.213851,35.4720024 167.043384,37.0698403 167.005735,38.607304 C166.960765,40.5954932 167.185614,42.624279 167.492036,44.5885267 C167.798458,46.5361194 168.386202,48.3785774 169.011595,50.2449771 C169.326383,51.1797383 169.8085,52.0582889 170.252969,52.9368396 C171.229753,54.855286 172.471127,56.6894166 173.844273,58.3445061 C175.151533,59.9225662 176.834238,61.2560063 178.513805,62.4228964 C180.057418,63.4961022 181.781955,64.3340563 183.489759,65.1189226 C185.34816,65.9766545 187.431409,66.3389005 189.420536,66.7250881 C191.68471,67.1685271 194.085885,66.9936497 196.353197,66.7698483 C198.306766,66.578316 200.18922,65.9079527 202.036117,65.2938 C203.883014,64.6796473 205.504016,63.5731315 207.121881,62.5290719 C208.576599,61.5849423 209.855622,60.3732919 211.084447,59.1616415 C212.743098,57.5356982 214.26684,55.7629829 215.668223,53.9080336 C220.284419,47.7842025 223.271246,40.1447676 222.980512,32.4230986 C222.853969,29.0764869 222.331065,25.7829629 221.94307,22.456129 C221.726588,20.6386534 221.477686,18.8534468 221.023805,17.0765678 C220.05957,13.2875579 218.258689,9.81499283 215.672406,6.86289614 C213.212666,4.05757154 210.031318,1.59263326 206.395044,0.564187731 C205.003074,0.169672694 203.598554,0 202.198217,0 C199.410093,0 196.633473,0.671404218 193.971892,1.58118296" id="Fill-11"></path>
            <path d="M267.280311,257.543109 C268.300603,257.824085 269.290672,258.161256 270.259898,258.580639 C271.03111,259.06142 271.74917,259.585908 272.446387,260.16347 C273.121718,260.871113 273.756405,261.597488 274.346277,262.377977 C274.510941,262.693295 274.666226,263.013815 274.810047,263.34058 C274.905927,263.801589 274.983048,264.260516 275.04141,264.725688 C274.915306,268.479319 273.976304,272.21734 273.168616,275.875231 C273.279087,275.371555 273.389558,274.868921 273.501071,274.364204 C273.064399,276.000109 272.532888,277.547558 271.838797,279.067951 C271.086345,280.324017 270.244265,281.476019 269.286504,282.589516 C268.062987,283.829973 266.771729,284.995503 265.363746,286.025748 C263.959933,286.805197 262.506094,287.427506 260.99181,287.966564 C259.992361,288.241296 259.002292,288.461914 257.974705,288.596158 C257.46508,288.585752 256.961708,288.553492 256.454168,288.493134 C256.288461,288.437979 256.124839,288.379703 255.961217,288.317264 C255.594371,288.077914 255.243157,287.822954 254.898196,287.550303 C254.285395,286.897815 253.722619,286.216188 253.199446,285.492935 C252.70858,284.577161 252.284414,283.652022 251.914441,282.686297 C251.514244,280.988994 251.34958,279.267756 251.252658,277.522583 C251.216182,276.823265 251.183874,276.128109 251.134892,275.432954 C251.085909,274.718026 250.919161,274.027033 250.84204,273.31939 C250.639857,271.462867 249.444479,269.858182 247.88017,268.837303 C248.462748,267.904879 249.08597,266.99743 249.759217,266.132649 C250.597128,265.053493 251.46422,264.023248 252.361535,263.000287 C254.023809,261.355016 255.704842,259.742006 257.600563,258.371468 C258.158128,258.069679 258.726115,257.806394 259.314946,257.573288 C260.246653,257.355792 261.174191,257.206978 262.122573,257.108116 C263.859884,257.103954 265.57114,257.251726 267.280311,257.543109 M259.545267,243.364228 C255.429707,243.912652 251.598661,245.823288 248.452326,248.473828 C246.96618,249.72157 245.569662,251.246125 244.295078,252.701997 C243.436324,253.68125 242.577569,254.653219 241.779261,255.681383 C239.679272,258.384996 237.997197,261.266561 236.442268,264.311508 C234.610119,267.900716 233.474145,271.884331 233.071865,275.884597 C232.89261,277.648502 233.087497,279.490455 233.234444,281.25436 C233.307397,282.145158 233.430374,283.034915 233.535634,283.921551 C233.674244,285.051698 233.889974,286.156871 234.174489,287.258921 C234.549673,288.701264 235.017611,290.217494 235.820088,291.486048 C236.414129,292.428879 237.012339,293.392523 237.969059,294.02732 C238.148313,294.144914 238.323399,294.258345 238.498485,294.376979 C239.280118,294.925403 240.14721,295.238639 241.095592,295.31981 C241.651073,295.431159 242.202385,295.44781 242.743275,295.395777 C244.352398,297.483325 246.352337,299.331522 248.643044,300.595914 C249.648746,301.1485 250.577327,301.632403 251.639306,302.014323 C252.677315,302.39312 253.800783,302.534649 254.880479,302.762551 C256.943991,303.201706 259.23574,302.941543 261.300295,302.702194 C263.217902,302.474291 265.200124,301.766648 267.003092,301.137053 C268.632016,300.571979 270.191114,299.945507 271.709567,299.128595 C275.715699,296.970283 278.927691,293.799417 281.903109,290.417299 C283.320471,288.807411 284.296992,286.937359 285.290187,285.051698 C286.080158,283.542753 286.711718,282.022361 287.220301,280.401026 C287.842481,278.417543 288.233298,276.332077 288.673097,274.306969 C288.986792,272.860463 289.283813,271.412916 289.565201,269.958085 C290.325991,265.985917 290.126935,261.701553 288.661633,257.909418 C287.273452,254.323332 284.753466,251.416792 281.89894,248.912984 C281.166289,248.270901 280.425301,247.685014 279.628035,247.124103 C278.560845,246.372752 277.327948,245.852427 276.1753,245.254052 C274.368163,244.319546 272.226488,243.888717 270.255729,243.51096 C268.419412,243.156098 266.563293,243 264.703005,243 C262.98237,243 261.25965,243.133203 259.545267,243.364228" id="Fill-13"></path>
        </g>
    </g>
</svg>