<?xml version="1.0" encoding="UTF-8"?>
<svg width="800px" height="1000px" viewBox="0 0 800 1000" version="1.1" xmlns="http://www.w3.org/2000/svg" xmlns:xlink="http://www.w3.org/1999/xlink">
    <!-- Generator: Sketch 51.1 (57501) - http://www.bohemiancoding.com/sketch -->
    <title>flying_saucer_DL</title>
    <desc>Created with Sketch.</desc>
    <defs></defs>
    <g id="flying_saucer_DL" stroke="none" stroke-width="1" fill="none" fill-rule="evenodd">
        <g id="logo-footer" transform="translate(441.000000, 654.000000)">
            <g>
                <path d="M110.812545,8.25651402 C110.904572,8.56348079 110.810146,8.81874549 110.573746,9.09365441 C110.548096,9.12348237 110.524607,9.14951827 110.482164,9.19539003 C110.410296,9.27306357 110.388406,9.29969141 110.394575,9.28699974 C110.158488,9.77253772 109.949286,10.3963755 109.78094,11.1092981 C109.323962,13.0450464 110.241419,14.6677006 112.137009,15.2172501 C114.194676,15.8138908 116.608374,14.6870388 117.500673,12.7424366 C118.556971,10.4412591 118.361229,8.87677042 116.832238,7.67717368 C114.960938,6.20902274 112.357851,6.27012948 111.072216,7.83985899 L110.795491,8.1777337 C110.794947,8.20051389 110.804056,8.228204 110.812545,8.25651402 Z M110.106083,6.26944954 C110.423589,5.88663707 110.955421,5.49967933 111.419965,5.30848582 C112.37958,4.91358991 113.68037,4.90617957 115.133698,5.23840657 C117.932917,5.87841333 120.108577,8.22064492 119.995807,10.6570534 C119.760531,15.7499925 113.426094,19.0246323 109.732148,15.5763745 C107.943744,13.9068501 107.553768,11.8021869 108.499361,9.2850154 C108.62423,8.95356867 108.851111,8.49010331 109.049811,8.18524994 C109.270059,7.84733807 109.481086,7.64146186 109.750777,7.55562368 C109.778602,7.54676715 109.806094,7.5393618 109.833231,7.53336632 C109.647627,7.16965375 109.747904,6.70130236 110.106083,6.26944954 Z" id="Fill-4" fill="#000000" fill-rule="nonzero"></path>
                <path d="M116,2.36382675 C116.035222,2.23410526 116.077249,2.03952302 116.14169,1.8509661 C116.280178,1.44230796 116.378641,1.03435869 116.377039,0.600890425 C116.376639,0.410561355 116.256963,0.110004457 116.623996,0.0412449782 C116.938196,-0.017590452 117.272408,-0.0501980398 117.512961,0.20711836 C117.655051,0.358460099 117.796741,0.518308165 117.8896,0.694814455 C118.216208,1.3175485 117.776729,2.53572545 117.114308,2.89086461 C116.612389,3.15987721 116.012808,2.911776 116,2.36382675" id="Fill-103" fill="#000000" fill-rule="nonzero"></path>
                <path d="M113.597281,1.30015424 C113.547641,1.6054057 113.484683,1.90995301 113.451993,2.21696486 C113.409214,2.61727733 113.068594,2.79366831 112.724342,2.93802021 C112.426905,3.06335991 112.146418,3.01090032 112.073774,2.6669203 C111.908307,1.88389925 112.059649,1.1040469 112.154086,0.329475719 C112.197269,-0.0278832593 112.773982,-0.106396611 113.167067,0.152380579 C113.512933,0.380527 113.619074,0.676272361 113.597281,1.30015424" id="Fill-107" fill="#000000" fill-rule="nonzero"></path>
                <path d="M112.19066,11.6823452 C110.632914,12.6206952 108.591708,13.9682577 107.051494,14.9237702 C106.603919,15.2015633 106.260092,15.3386205 105.847581,15.6483439 C105.453117,15.9444969 105.00264,16.1407116 104.673147,15.8744932 C104.334372,15.6006913 103.968388,15.4738054 104.253536,15.0032335 C104.507231,14.584149 104.804932,14.5525935 105.343775,14.3418539 C106.408054,13.9255633 108.032176,12.8044553 108.976827,12.2352987 C109.267132,12.0600815 109.780582,11.6912496 110.031699,11.4841022 C110.690685,10.9400907 110.546085,10.7856194 109.803565,10.2635599 C108.494872,9.34277154 106.87805,8.31351987 105.559045,7.40151231 C105.221301,7.16842154 104.87376,6.94291422 104.554064,6.69585398 C103.681603,6.022525 103.837029,5.29651112 105.037953,5.02270928 C105.314335,4.95964705 105.519044,5.02949445 105.664454,5.21269422 C106.875175,6.74015718 109.059218,7.93310366 110.770108,9.0590438 C111.354328,9.44340412 111.803432,9.85804585 112.62433,10.0292717 C113.067264,10.1214703 112.94712,10.4970498 112.994043,10.9392837 C113.057467,11.2214672 112.602656,11.4340876 112.19066,11.6823452 Z" id="chevron" fill="#000000" fill-rule="nonzero" transform="translate(108.500000, 10.500000) rotate(-2.000000) translate(-108.500000, -10.500000) "></path>
                <path d="M4.80555555,7.71270718 L2.78703703,7.71270718 L2.78703703,12.9005525 L2.01851852,12.9005525 L2.01851852,7.71270718 L0,7.71270718 L0,7.09944751 L4.80555555,7.09944751 L4.80555555,7.71270718 Z M9.97657951,10.2403315 L6.8654684,10.2403315 L6.8654684,12.9005525 L6.09694989,12.9005525 L6.09694989,7.09944751 L6.8654684,7.09944751 L6.8654684,9.62707182 L9.97657951,9.62707182 L9.97657951,7.09944751 L10.745098,7.09944751 L10.745098,12.9005525 L9.97657951,12.9005525 L9.97657951,10.2403315 Z M12.6568627,7.09944751 L16.1846405,7.09944751 L16.1846405,7.71270718 L13.4253813,7.71270718 L13.4253813,9.61049724 L15.953159,9.61049724 L15.953159,10.2237569 L13.4253813,10.2237569 L13.4253813,12.2872928 L16.2309368,12.2872928 L16.2309368,12.9005525 L12.6568627,12.9005525 L12.6568627,7.09944751 Z M20.7674291,7.09944751 C20.8847137,7.08287284 21.0158852,7.07044203 21.1609477,7.0621547 C21.3060102,7.05386736 21.4572432,7.04834254 21.6146514,7.04558011 C21.7720596,7.04281768 21.926379,7.04005525 22.0776143,7.03729282 C22.2288497,7.03453039 22.3692805,7.03314917 22.4989106,7.03314917 C23.0174317,7.03314917 23.4665011,7.10497164 23.8461328,7.24861878 C24.2257645,7.39226593 24.539033,7.59254015 24.7859476,7.84944751 C25.0328623,8.10635488 25.2165027,8.41436285 25.3368736,8.77348066 C25.4572445,9.13259848 25.5174291,9.52762215 25.5174291,9.95856354 C25.5174291,10.3508307 25.4603309,10.7278988 25.3461328,11.089779 C25.2319348,11.4516593 25.0513808,11.7720981 24.8044662,12.051105 C24.5575516,12.3301119 24.236567,12.5538666 23.8415032,12.7223757 C23.4464394,12.8908848 22.9680495,12.9751381 22.406318,12.9751381 C22.3075521,12.9751381 22.179467,12.9737569 22.0220588,12.9709945 C21.8646506,12.968232 21.7026152,12.9627072 21.5359477,12.9544199 C21.3692802,12.9461326 21.2149607,12.9392266 21.0729847,12.9337017 C20.9310087,12.9281767 20.8291578,12.9198895 20.7674291,12.9088398 L20.7674291,7.09944751 Z M22.5174291,7.64640884 L22.2535402,7.64640884 C22.1578608,7.64640884 22.0637259,7.64917122 21.9711328,7.65469613 C21.8785398,7.66022104 21.7936641,7.66574581 21.7165032,7.67127072 C21.6393424,7.67679563 21.5791578,7.6823204 21.5359477,7.6878453 L21.5359477,12.3287293 C21.566812,12.3342542 21.6254534,12.3383978 21.7118736,12.3411602 C21.7982938,12.3439227 21.887799,12.3466851 21.9803921,12.3494475 C22.0729851,12.3522099 22.1624904,12.3549724 22.2489106,12.3577348 C22.3353309,12.3604972 22.3939723,12.3618785 22.4248365,12.3618785 C22.8569374,12.3618785 23.2195881,12.2955808 23.5127995,12.1629834 C23.8060109,12.0303861 24.0405762,11.852211 24.2165032,11.628453 C24.3924302,11.404695 24.5174286,11.1477915 24.5915032,10.8577348 C24.6655778,10.5676781 24.7026143,10.2679574 24.7026143,9.95856354 C24.7026143,9.68784397 24.6686642,9.41574724 24.6007625,9.14226519 C24.5328607,8.86878315 24.4155783,8.62154807 24.2489106,8.40055249 C24.0822429,8.17955691 23.8584801,7.99861948 23.5776143,7.85773481 C23.2967486,7.71685014 22.9433571,7.64640884 22.5174291,7.64640884 Z M26.892157,10 C26.892157,9.03314434 27.1205495,8.29143904 27.5773422,7.77486188 C28.0341344,7.25828471 28.6853622,7 29.5310459,7 C29.9878381,7 30.3828957,7.07182247 30.7162311,7.21546961 C31.0495659,7.35911676 31.3257979,7.56215336 31.5449348,7.82458564 C31.7640716,8.08701791 31.9261071,8.40193186 32.0310459,8.76933702 C32.1359847,9.13674217 32.1884533,9.54695907 32.1884533,10 C32.1884533,10.9668557 31.9585171,11.708561 31.4986385,12.2251381 C31.0387594,12.7417153 30.3829019,13 29.5310459,13 C29.080426,13 28.6899981,12.9281775 28.3597496,12.7845304 C28.0295006,12.6408832 27.7548124,12.4378466 27.5356755,12.1754144 C27.3165387,11.9129821 27.1545032,11.5980681 27.0495644,11.230663 C26.9446256,10.8632578 26.892157,10.4530409 26.892157,10 Z M27.7069718,10 C27.7069718,10.3204436 27.7424651,10.624308 27.8134533,10.9116022 C27.884441,11.1988965 27.9940078,11.4516564 28.142157,11.6698895 C28.2903057,11.8881227 28.4801184,12.0621541 28.7116014,12.191989 C28.943084,12.3218238 29.2162295,12.3867403 29.5310459,12.3867403 C30.1051225,12.3867403 30.5557352,12.1919909 30.8828977,11.8024862 C31.2100598,11.4129815 31.3736385,10.8121587 31.3736385,10 C31.3736385,9.68508131 31.3381447,9.38259816 31.267157,9.09254144 C31.1961688,8.80248476 31.0850587,8.54834365 30.9338237,8.3301105 C30.7825881,8.11187735 30.5912321,7.93784595 30.3597496,7.80801105 C30.1282666,7.67817615 29.8520351,7.61325967 29.5310459,7.61325967 C28.9631416,7.61325967 28.5171585,7.80800912 28.1930829,8.19751381 C27.8690068,8.58701851 27.7069718,9.18784125 27.7069718,10 Z M33.5631807,10 C33.5631807,9.03314434 33.7915737,8.29143904 34.2483658,7.77486188 C34.7051585,7.25828471 35.3563864,7 36.2020695,7 C36.6588622,7 37.0539198,7.07182247 37.3872547,7.21546961 C37.7205896,7.35911676 37.9968216,7.56215336 38.2159584,7.82458564 C38.4350953,8.08701791 38.5971308,8.40193186 38.7020695,8.76933702 C38.8070083,9.13674217 38.8594769,9.54695907 38.8594769,10 C38.8594769,10.9668557 38.6295412,11.708561 38.1696621,12.2251381 C37.7097835,12.7417153 37.053926,13 36.2020695,13 C35.7514502,13 35.3610217,12.9281775 35.0307732,12.7845304 C34.7005248,12.6408832 34.425836,12.4378466 34.2066992,12.1754144 C33.9875623,11.9129821 33.8255268,11.5980681 33.7205881,11.230663 C33.6156493,10.8632578 33.5631807,10.4530409 33.5631807,10 Z M34.3779955,10 C34.3779955,10.3204436 34.4134893,10.624308 34.484477,10.9116022 C34.5554651,11.1988965 34.665032,11.4516564 34.8131807,11.6698895 C34.9613298,11.8881227 35.1511426,12.0621541 35.3826251,12.191989 C35.6141076,12.3218238 35.8872532,12.3867403 36.2020695,12.3867403 C36.7761467,12.3867403 37.2267594,12.1919909 37.5539214,11.8024862 C37.8810834,11.4129815 38.0446621,10.8121587 38.0446621,10 C38.0446621,9.68508131 38.0091688,9.38259816 37.9381806,9.09254144 C37.867193,8.80248476 37.7560829,8.54834365 37.6048473,8.3301105 C37.4536122,8.11187735 37.2622558,7.93784595 37.0307732,7.80801105 C36.7992907,7.67817615 36.5230587,7.61325967 36.2020695,7.61325967 C35.6341657,7.61325967 35.1881822,7.80800912 34.8641066,8.19751381 C34.540031,8.58701851 34.3779955,9.18784125 34.3779955,10 Z M40.5027233,7.09944751 C40.6200078,7.08287284 40.7511791,7.07044203 40.8962419,7.0621547 C41.0413041,7.05386736 41.1925371,7.04834254 41.3499456,7.04558011 C41.5073535,7.04281768 41.6616729,7.04005525 41.8129085,7.03729282 C41.9641436,7.03453039 42.1045747,7.03314917 42.2342048,7.03314917 C42.7527259,7.03314917 43.2017954,7.10497164 43.581427,7.24861878 C43.9610587,7.39226593 44.2743267,7.59254015 44.5212419,7.84944751 C44.7681565,8.10635488 44.9517969,8.41436285 45.0721678,8.77348066 C45.1925387,9.13259848 45.2527233,9.52762215 45.2527233,9.95856354 C45.2527233,10.3508307 45.1956251,10.7278988 45.081427,11.089779 C44.967229,11.4516593 44.786675,11.7720981 44.5397604,12.051105 C44.2928452,12.3301119 43.9718612,12.5538666 43.5767974,12.7223757 C43.1817336,12.8908848 42.7033432,12.9751381 42.1416122,12.9751381 C42.0428463,12.9751381 41.9147609,12.9737569 41.757353,12.9709945 C41.5999445,12.968232 41.437909,12.9627072 41.2712419,12.9544199 C41.1045742,12.9461326 40.9502547,12.9392266 40.8082789,12.9337017 C40.6663026,12.9281767 40.5644517,12.9198895 40.5027233,12.9088398 L40.5027233,7.09944751 Z M42.2527233,7.64640884 L41.9888344,7.64640884 C41.8931549,7.64640884 41.7990201,7.64917122 41.706427,7.65469613 C41.6138339,7.66022104 41.5289584,7.66574581 41.4517974,7.67127072 C41.3746364,7.67679563 41.3144517,7.6823204 41.2712419,7.6878453 L41.2712419,12.3287293 C41.3021061,12.3342542 41.3607475,12.3383978 41.4471678,12.3411602 C41.533588,12.3439227 41.6230932,12.3466851 41.7156863,12.3494475 C41.8082794,12.3522099 41.8977846,12.3549724 41.9842048,12.3577348 C42.0706251,12.3604972 42.1292665,12.3618785 42.1601307,12.3618785 C42.5922316,12.3618785 42.9548823,12.2955808 43.2480937,12.1629834 C43.5413051,12.0303861 43.7758705,11.852211 43.9517974,11.628453 C44.1277244,11.404695 44.2527228,11.1477915 44.3267974,10.8577348 C44.400872,10.5676781 44.4379085,10.2679574 44.4379085,9.95856354 C44.4379085,9.68784397 44.4039584,9.41574724 44.3360567,9.14226519 C44.2681549,8.86878315 44.150872,8.62154807 43.9842048,8.40055249 C43.8175371,8.17955691 43.5937743,7.99861948 43.3129085,7.85773481 C43.0320428,7.71685014 42.6786513,7.64640884 42.2527233,7.64640884 Z M50.7293025,12.9005525 L46.8959692,12.9005525 L46.8959692,7.09944751 L47.6644877,7.09944751 L47.6644877,12.2872928 L50.7293025,12.2872928 L50.7293025,12.9005525 Z M52.0206971,7.09944751 L55.5484749,7.09944751 L55.5484749,7.71270718 L52.7892156,7.71270718 L52.7892156,9.61049724 L55.3169934,9.61049724 L55.3169934,10.2237569 L52.7892156,10.2237569 L52.7892156,12.2872928 L55.5947712,12.2872928 L55.5947712,12.9005525 L52.0206971,12.9005525 L52.0206971,7.09944751 Z M63.9645968,12.9005525 L60.1312634,12.9005525 L60.1312634,7.09944751 L60.8997819,7.09944751 L60.8997819,12.2872928 L63.9645968,12.2872928 L63.9645968,12.9005525 Z M65.4319172,7.09944751 L66.2004357,7.09944751 L66.2004357,12.9005525 L65.4319172,12.9005525 L65.4319172,7.09944751 Z M72.1955335,8.42541436 C72.1955335,8.5635366 72.1708426,8.70441915 72.1214594,8.8480663 C72.0720767,8.99171344 71.9980031,9.12569001 71.8992372,9.25 C71.8004712,9.37431004 71.6739296,9.48342495 71.5196075,9.57734807 C71.365286,9.67127118 71.1831888,9.74309369 70.9733113,9.79281768 L70.9733113,9.82596685 C71.1584975,9.8535913 71.3359651,9.90055216 71.5057187,9.96685083 C71.6754728,10.0331495 71.8251626,10.1243088 71.9547927,10.2403315 C72.0844234,10.3563542 72.1893606,10.4972367 72.2696075,10.6629834 C72.349855,10.8287301 72.3899779,11.0248607 72.3899779,11.2513812 C72.3899779,11.5497252 72.3205345,11.8080099 72.1816446,12.0262431 C72.0427552,12.2444762 71.8606585,12.4226512 71.6353483,12.5607735 C71.4100386,12.6988957 71.1523251,12.8011047 70.8622001,12.8674033 C70.5720757,12.933702 70.2757819,12.9668508 69.9733113,12.9668508 L69.6029409,12.9668508 C69.4609651,12.9668508 69.3128185,12.9627072 69.1584964,12.9544199 C69.0041749,12.9461326 68.8498555,12.935083 68.6955335,12.9212707 C68.541212,12.9074585 68.4054111,12.8867405 68.2881261,12.859116 L68.2881261,7.14917127 C68.5165227,7.11602192 68.7819517,7.08839788 69.0844224,7.06629834 C69.386893,7.0441988 69.7171369,7.03314917 70.0751631,7.03314917 C70.3159054,7.03314917 70.5612732,7.05110479 70.8112742,7.08701657 C71.0612758,7.12292836 71.288125,7.19198844 71.4918298,7.2941989 C71.6955345,7.39640935 71.8637428,7.53867311 71.9964594,7.72099448 C72.1291765,7.90331584 72.1955335,8.13812012 72.1955335,8.42541436 Z M70.0473853,12.3701657 C70.2449172,12.3701657 70.4362737,12.3494477 70.6214594,12.308011 C70.8066456,12.2665744 70.9702243,12.2002767 71.1122001,12.109116 C71.2541765,12.0179553 71.3668298,11.906078 71.4501631,11.7734807 C71.533497,11.6408833 71.5751631,11.4834263 71.5751631,11.301105 C71.5751631,11.0745845 71.5242377,10.8922659 71.4223853,10.7541436 C71.320533,10.6160214 71.1878185,10.5082877 71.0242372,10.4309392 C70.8606564,10.3535908 70.677016,10.3011051 70.4733113,10.2734807 C70.2696065,10.2458562 70.0659049,10.2320442 69.8622001,10.2320442 L69.0566446,10.2320442 L69.0566446,12.3121547 C69.099855,12.3232045 69.1615829,12.3314917 69.2418298,12.3370166 C69.3220772,12.3425415 69.4084964,12.3480663 69.501089,12.3535912 C69.5936821,12.3591161 69.6893601,12.3632597 69.7881261,12.3660221 C69.886892,12.3687845 69.9733113,12.3701657 70.0473853,12.3701657 Z M69.5381261,9.6519337 C69.6430649,9.6519337 69.769607,9.64917132 69.9177557,9.64364641 C70.0659049,9.6381215 70.1893601,9.6298343 70.2881261,9.61878453 C70.4362752,9.57458541 70.5751626,9.52071855 70.7047927,9.45718232 C70.8344234,9.39364609 70.9501626,9.31906119 71.052015,9.23342541 C71.1538673,9.14778964 71.2341137,9.04834309 71.2927557,8.93508287 C71.3513982,8.82182265 71.3807187,8.69889567 71.3807187,8.56629834 C71.3807187,8.38397698 71.3421389,8.23342601 71.2649779,8.11464088 C71.1878174,7.99585576 71.0844234,7.90055285 70.9547927,7.82872928 C70.8251626,7.75690571 70.677016,7.70580124 70.5103483,7.67541436 C70.3436811,7.64502749 70.1739296,7.62983425 70.001089,7.62983425 C69.7973843,7.62983425 69.610658,7.63397785 69.4409038,7.64226519 C69.2711502,7.65055253 69.1430649,7.66298333 69.0566446,7.67955801 L69.0566446,9.6519337 L69.5381261,9.6519337 Z M74.0332243,7.15745856 C74.2677932,7.11878435 74.5378524,7.08839788 74.8434095,7.06629834 C75.1489666,7.0441988 75.428285,7.03314917 75.6813725,7.03314917 C75.9653246,7.03314917 76.2353838,7.0607732 76.4915576,7.1160221 C76.747732,7.17127099 76.9730381,7.26243029 77.1674836,7.38950276 C77.361929,7.51657523 77.5177917,7.68231943 77.6350762,7.88674033 C77.7523606,8.09116123 77.8110021,8.33977753 77.8110021,8.63259669 C77.8110021,9.08563762 77.6721147,9.45303725 77.3943354,9.73480663 C77.1165561,10.016576 76.7647078,10.2044194 76.3387799,10.2983425 L76.7832243,10.6049724 L78.3943354,12.9005525 L77.4961873,12.9005525 L75.7091502,10.3977901 L74.8017428,10.2734807 L74.8017428,12.9005525 L74.0332243,12.9005525 L74.0332243,7.15745856 Z M75.699891,7.62983425 L75.449891,7.62983425 C75.3634707,7.62983425 75.2801384,7.63259664 75.199891,7.63812155 C75.1196436,7.64364645 75.0440273,7.64917122 74.9730391,7.65469613 C74.902051,7.66022104 74.8449527,7.66850824 74.8017428,7.67955801 L74.8017428,9.81767956 L75.5239651,9.81767956 C75.949893,9.81767956 76.3017413,9.72375783 76.5795206,9.5359116 C76.8572999,9.34806538 76.9961873,9.0552506 76.9961873,8.65745856 C76.9961873,8.35911455 76.8819908,8.11326064 76.6535947,7.9198895 C76.4251986,7.72651837 76.1073004,7.62983425 75.699891,7.62983425 Z M82.722767,11.2928177 L80.3338781,11.2928177 L79.68573,12.9005525 L78.9264707,12.9005525 L81.3801744,7.00828729 L81.7320263,7.00828729 L84.1949892,12.9005525 L83.3894337,12.9005525 L82.722767,11.2928177 Z M80.5838781,10.6961326 L82.4912855,10.6961326 L81.7690633,8.93093923 L81.5375818,8.05248619 L81.5283226,8.05248619 L81.2968411,8.94751381 L80.5838781,10.6961326 Z M85.3937907,7.15745856 C85.6283596,7.11878435 85.8984187,7.08839788 86.2039758,7.06629834 C86.5095329,7.0441988 86.7888514,7.03314917 87.0419388,7.03314917 C87.325891,7.03314917 87.5959501,7.0607732 87.852124,7.1160221 C88.1082984,7.17127099 88.3336044,7.26243029 88.5280499,7.38950276 C88.7224954,7.51657523 88.878358,7.68231943 88.9956425,7.88674033 C89.112927,8.09116123 89.1715684,8.33977753 89.1715684,8.63259669 C89.1715684,9.08563762 89.0326811,9.45303725 88.7549018,9.73480663 C88.477123,10.016576 88.1252742,10.2044194 87.6993462,10.2983425 L88.1437906,10.6049724 L89.7549018,12.9005525 L88.8567536,12.9005525 L87.0697166,10.3977901 L86.1623092,10.2734807 L86.1623092,12.9005525 L85.3937907,12.9005525 L85.3937907,7.15745856 Z M87.0604573,7.62983425 L86.8104573,7.62983425 C86.7240371,7.62983425 86.6407047,7.63259664 86.5604573,7.63812155 C86.4802099,7.64364645 86.4045936,7.64917122 86.3336055,7.65469613 C86.2626178,7.66022104 86.2055196,7.66850824 86.1623092,7.67955801 L86.1623092,9.81767956 L86.8845314,9.81767956 C87.3104594,9.81767956 87.6623081,9.72375783 87.9400869,9.5359116 C88.2178663,9.34806538 88.3567536,9.0552506 88.3567536,8.65745856 C88.3567536,8.35911455 88.2425571,8.11326064 88.014161,7.9198895 C87.7857649,7.72651837 87.4678668,7.62983425 87.0604573,7.62983425 Z M92.1111111,10.5966851 L89.9722222,7.09944751 L90.8703704,7.09944751 L92.3888889,9.63535912 L92.5462963,10.140884 L92.5555556,10.140884 L92.7222222,9.61878453 L94.1759259,7.09944751 L95,7.09944751 L92.8796296,10.5883978 L92.8796296,12.9005525 L92.1111111,12.9005525 L92.1111111,10.5966851 Z" id="the-Doodle-Library" fill="#666666" fill-rule="nonzero" opacity="0.595278533"></path>
            </g>
        </g>
        <g id="flying_saucer" transform="translate(166.000000, 287.000000)">
            <path d="M234,5.88671875 C289.575521,10.3372396 327.955729,38.8098958 349.140625,91.3046875 L462.953125,142.4375 C400.429688,182.617188 354.757813,202.707031 325.9375,202.707031 C325.9375,207.742188 278.351562,252.488281 234,252.488281 C204.432292,252.488281 173.229167,235.894531 140.390625,202.707031 C87.0859375,188.384115 56.8294271,181.222656 49.6210938,181.222656 C42.4127604,181.222656 27.1705729,172.359375 3.89453125,154.632812 C35.9752604,119.429688 57.125,101.828125 67.34375,101.828125 C77.5625,101.828125 89.0559896,101.828125 101.824219,101.828125 C134.365885,33.4166667 178.424479,1.43619792 234,5.88671875 Z" id="Path-10" fill="#FFFFFF"></path>
            <path d="M214.309983,145.677388 C214.094676,145.688869 213.878482,145.699467 213.663174,145.710949 C213.878482,145.699467 214.09379,145.688869 214.309983,145.677388 M228.078159,0.0627055633 C225.686737,0.100682172 223.298859,0.225210122 220.906551,0.332074532 C215.514112,0.573181839 210.163316,1.34242896 204.830242,2.12227421 C200.171444,2.80232046 195.547201,3.76763286 190.940679,4.73029573 C188.812411,5.17894962 186.693889,5.67882778 184.596633,6.25200961 C181.976613,6.96296706 179.338872,7.71455064 176.802139,8.68074622 C172.361307,10.3711469 168.052494,12.2894072 163.847349,14.5008823 C159.413605,16.8324695 155.025049,19.2232295 150.725983,21.7968071 C146.288694,24.4534033 141.903683,27.2027332 137.529303,29.9626611 C133.469468,32.5265238 129.693166,35.6900636 126.440513,39.2086406 C125.536752,40.1819016 124.636535,41.1578121 123.733661,42.1310731 C122.844077,43.093736 122.061703,44.1800436 121.235028,45.1974635 C119.871412,46.8710838 118.62121,48.6577508 117.431258,50.4594317 C116.080933,52.4978041 114.824529,54.5609055 113.578757,56.6690489 C112.917771,57.7898004 112.342731,58.9697248 111.726933,60.118738 C111.013671,61.4435034 110.33585,62.7823997 109.664232,64.1274782 C107.549255,68.3437649 105.459086,72.5759489 103.396385,76.8196141 C102.430602,78.810295 101.488741,80.8045085 100.66561,82.8570117 C99.8176697,84.9616224 99.1806069,87.100677 98.5780997,89.2838904 C97.9383789,91.612828 97.6264928,94.0380319 97.2942278,96.4252592 C97.1560056,97.4258987 97.0833503,98.4954259 97.0585412,99.5066636 C97.0381623,100.569125 96.9858859,101.631587 97.0036067,102.694049 C97.0656295,107.351041 97.2215725,112.005384 97.4953589,116.652661 C97.6264928,118.884449 97.7585128,121.110055 97.9242022,123.33831 C98.0243247,124.693987 98.1350797,126.250145 98.7198661,127.50249 C99.1185841,128.354755 99.5438833,129.203488 100.3679,129.741343 C101.112174,130.224441 101.821006,130.60774 102.731855,130.68016 C104.251414,130.800272 105.680596,130.092848 106.764223,129.086026 C107.469511,128.430709 108.093283,127.661461 108.740092,126.946971 C109.435634,126.177724 109.609297,124.829113 109.428545,123.855852 C109.241591,122.817236 108.63997,121.875769 107.777853,121.264611 C107.41369,121.007606 107.010542,120.813307 106.587901,120.687013 C106.581699,119.159117 106.594103,117.631221 106.594103,116.104208 C106.590559,113.706383 106.590559,111.308557 106.621571,108.907199 C106.653468,106.440486 106.688024,103.980838 106.836878,101.517657 C106.975987,99.2222806 107.312682,96.9737121 107.70697,94.7118959 C108.169482,92.8227804 108.677183,90.9610434 109.35589,89.1258017 C110.19054,86.8622192 111.197081,84.6922534 112.242608,82.518755 C113.194215,80.5280741 114.281386,78.5930334 115.295016,76.6297311 C116.361808,74.5710456 117.430372,72.5123601 118.502481,70.4527915 C119.394723,68.7694562 120.285193,67.0923032 121.224396,65.4354633 C122.377134,63.4032731 123.58835,61.4231904 124.819946,59.4386918 C125.93104,57.6484921 127.219342,55.9377784 128.492581,54.2570926 C129.870374,52.4395145 131.312847,50.6917073 132.778357,48.9430169 C133.479214,48.2082137 134.180072,47.4725273 134.88093,46.7368409 C135.836967,45.7362014 136.954263,44.8530245 137.979411,43.9212728 C138.996585,43.0001192 140.169702,42.2105591 141.253329,41.3653587 C142.183671,40.6385041 143.21325,40.0079157 144.210931,39.3570143 C150.667504,35.422461 157.159519,31.5170526 163.864183,28.0170223 C167.547452,26.0961125 171.236922,24.1946325 175.002592,22.4424094 C178.156008,20.9719198 181.39537,19.7716823 184.684351,18.6747766 C196.601588,15.4900405 208.847547,13.5426353 221.134263,12.4837062 C224.054651,12.3627109 226.969723,12.2726269 229.895427,12.2267017 C234.776621,12.1551643 239.675536,12.6400285 244.45395,13.5991586 C251.782386,15.3275359 258.850327,18.1298564 265.904977,20.7104994 C271.984098,22.9308063 278.105748,25.1219683 283.896905,28.0285036 C286.810205,29.6005586 289.606547,31.3404172 292.337322,33.216285 C293.614106,34.0923965 294.832411,35.0515267 296.07198,35.9797457 C298.359736,37.6939921 300.598759,39.4568133 302.835124,41.2408308 C306.947235,44.5200668 311.006184,47.8540598 315.038552,51.2313284 C316.54925,52.6497106 318.061721,54.0707423 319.572419,55.4891245 C320.189103,56.0684885 320.742878,56.7167404 321.317032,57.3349643 C322.289903,58.3726972 323.261889,59.414846 324.231217,60.4569948 C324.857647,61.1229102 325.40079,61.8815592 325.97583,62.5925167 C326.778582,63.5860907 327.584878,64.5831975 328.387631,65.5767716 C329.021149,66.3592663 329.565178,67.2327283 330.142876,68.049667 C330.850822,69.052956 331.562312,70.0527123 332.270258,71.054235 C333.631215,73.2197849 335.001033,75.381802 336.289335,77.5923939 C337.979013,80.4900975 339.640338,83.4019319 341.287487,86.3278971 C342.82388,89.0630961 344.33635,91.8133092 345.884262,94.5423259 C347.193829,96.8580159 348.695667,99.1251311 349.676513,101.606858 C349.735878,101.86033 349.787268,102.113802 349.828026,102.369923 C349.826254,102.392003 349.823596,102.414965 349.820938,102.437045 C349.587909,103.223072 349.289314,103.976422 348.957935,104.733305 C348.652251,105.277342 348.327074,105.811664 347.956709,106.309776 C347.318761,107.162041 346.661319,107.972798 345.97641,108.779138 C344.100663,110.647058 342.138971,112.493781 339.950452,113.984583 C338.208498,115.03733 336.427557,116.022072 334.656363,117.025361 C333.258192,117.818454 331.82458,118.61508 330.375018,119.309257 C328.540029,120.188901 326.709471,121.068546 324.878912,121.94819 C323.082023,122.806638 321.226655,123.555572 319.406729,124.35573 C312.985598,127.179247 306.425358,129.639778 299.811955,131.966949 C295.721995,133.18485 291.621402,134.33298 287.460558,135.285045 C282.645817,136.382834 277.824873,137.527431 272.958742,138.393828 C263.34698,140.104541 253.721928,141.69161 244.048143,143.003128 C239.205935,143.658446 234.34955,144.317296 229.47633,144.693529 C226.849221,144.89666 224.222999,145.162496 221.588802,145.296739 C219.426864,145.409785 217.264041,145.522832 215.102103,145.635879 C208.711983,145.838126 202.325407,146.039491 195.938831,145.728612 C194.381172,145.649126 192.78187,145.672972 191.2313,145.493687 L185.426852,144.820706 C182.544564,144.486866 179.696832,143.884539 176.841125,143.359049 C170.155953,141.80819 163.495591,140.169013 156.804217,138.656131 C149.752225,137.058464 142.627577,135.853811 135.520651,134.554658 C133.431368,134.076859 131.331454,133.599943 129.320143,132.856308 C127.14137,132.051734 124.988293,131.221548 122.890151,130.236805 C121.955378,129.673339 121.084401,129.032152 120.197475,128.400681 C119.317637,127.461863 117.837951,126.905462 116.641797,126.809196 C114.575552,126.643158 112.858406,127.609354 111.588711,129.158446 C110.532551,130.445235 110.37395,132.028771 110.529893,133.608775 C110.699127,135.313307 111.824397,136.796161 113.132192,137.824179 C113.7347,138.297561 114.364674,138.73915 114.991104,139.177206 C116.659518,140.353597 118.542353,141.264153 120.369367,142.154395 C123.40494,143.631067 126.547724,144.851618 129.82873,145.649126 C133.694522,146.590593 137.587782,147.314798 141.502306,148.00191 C145.034062,148.617484 148.548096,149.293998 152.069219,149.976693 C156.515368,150.972917 160.950884,151.998285 165.383742,153.066046 C167.751241,153.639228 170.132916,154.159419 172.510161,154.698157 C175.224102,155.319031 177.954877,155.802129 180.695399,156.294941 C189.954517,157.961496 199.448435,158.185823 208.837801,157.889076 C213.995439,157.727454 219.172571,157.585263 224.316033,157.171936 C226.981241,156.957324 229.649108,156.743595 232.314316,156.529866 C235.035345,156.312605 237.751943,155.923124 240.465884,155.619311 C244.916462,155.122082 249.353751,154.412008 253.776862,153.721364 C258.387814,153.000691 263.001424,152.300332 267.586681,151.451599 C270.134046,150.982632 272.699132,150.575487 275.23232,150.040282 C277.842594,149.491829 280.451982,148.939844 283.061369,148.387858 C287.869022,147.373971 292.617311,146.073051 297.359397,144.803926 C298.601625,144.472735 299.827018,144.034679 301.055955,143.644315 C302.170594,143.289278 303.312699,142.974867 304.413161,142.565072 C306.676993,141.722522 308.939939,140.887919 311.18605,139.997677 C315.668527,138.225141 320.12265,136.392549 324.511206,134.395686 C326.809593,133.346471 329.111525,132.318454 331.375357,131.196819 C333.756147,130.017778 336.092634,128.809592 338.418489,127.529868 C340.771811,126.232481 343.108299,124.890935 345.385421,123.466371 C346.64537,122.675928 347.825576,121.882835 348.957049,120.920172 C349.417789,120.526275 349.877644,120.136794 350.338385,119.74378 C351.293536,118.929491 352.186664,118.049847 353.072704,117.163137 C354.865163,115.362339 356.693064,113.368126 357.938836,111.132805 C358.707033,109.759465 359.437129,108.386125 360.005081,106.920051 C360.431266,105.81608 360.6386,104.62644 360.870742,103.477427 C361.130352,102.197704 360.946942,100.824364 360.773278,99.5411075 C360.580121,98.1509869 360.091913,96.8014926 359.652437,95.4802598 C359.30954,94.4487092 358.870064,93.4480697 358.416411,92.4650937 C357.440881,90.3472354 356.367887,88.2770687 355.294893,86.2104346 C350.763684,77.4784641 346.01894,68.7712226 340.332335,60.7263638 C339.598694,59.6877477 338.865053,58.6491316 338.127868,57.6105155 C337.463338,56.6690489 336.6597,55.7955869 335.933147,54.8991623 C335.29254,54.1087189 334.690919,53.2564531 333.995378,52.5154677 C332.998583,51.4530058 331.998243,50.3861281 331.001448,49.3236662 C329.329491,47.5405319 327.557411,45.8978228 325.771154,44.2321511 C324.688414,43.2173808 323.625166,42.120475 322.48306,41.171943 C321.538542,40.3814996 320.594023,39.5954721 319.645074,38.8085614 C315.83776,35.6379562 311.944501,32.5777481 308.050355,29.5148904 C306.132964,28.0108401 304.184563,26.5615467 302.225528,25.1122533 C298.15506,22.1041527 293.898524,19.4581545 289.401872,17.119502 C284.847626,14.749055 280.061238,12.7928181 275.242953,11.0264642 C270.387454,9.24597947 265.52398,7.46991063 260.654304,5.72740251 C258.480848,4.95108997 256.279925,4.25779607 254.088748,3.53712368 C251.022164,2.52941878 247.82799,1.83965758 244.667485,1.21171877 C241.825955,0.649135057 238.901137,0.245523192 236.003786,0.152789612 C234.578148,0.10421488 233.148965,0.0591728555 231.722441,0.0105981234 C231.46992,0.00264953084 231.215626,0 230.961333,0 C230.000865,0 229.036854,0.0459252013 228.078159,0.0627055633" id="Fill-1" fill="#2C2C2C"></path>
            <path d="M10.7308921,150.544624 C10.7760409,150.683164 10.8203045,150.822587 10.8654533,150.962009 C10.8141076,150.825234 10.7689588,150.686694 10.7308921,150.544624 Z M455.73913,147.821475 C455.585978,147.985605 455.434597,148.14797 455.283215,148.311218 C455.434597,148.147088 455.586864,147.984723 455.73913,147.821475 Z M459.600684,143.476437 C459.606881,143.552325 459.611307,143.629096 459.612193,143.705867 C459.607766,143.629096 459.604225,143.553208 459.600684,143.476437 Z M459.459041,143.273481 C459.460811,143.276128 459.462582,143.278775 459.464352,143.28054 C459.449303,143.352016 459.431597,143.42261 459.412121,143.492321 C459.427171,143.419962 459.443106,143.346721 459.459041,143.273481 Z M459.211165,142.765206 C459.270478,142.851684 459.328021,142.940808 459.382022,143.030815 L459.382022,143.03258 C459.325365,142.943455 459.268707,142.854331 459.211165,142.765206 Z M459.418318,142.695495 C459.435138,142.740499 459.451959,142.785502 459.466123,142.830506 C459.465238,142.833153 459.463467,142.8358 459.462582,142.838447 L459.418318,142.695495 Z M351.4816,90.1853083 C350.772498,90.2294293 350.063395,90.3053174 349.354293,90.3847353 C347.933432,90.5435709 346.594902,91.0606692 345.457328,91.9219115 C343.126409,93.6832225 342.953781,97.2861447 344.755308,99.4542515 C345.671564,100.553747 347.023373,101.253507 348.455742,101.369986 C349.45964,101.485583 350.563574,101.325865 351.611735,101.234093 C355.880514,101.107907 360.128046,101.406165 364.356102,102.063568 C367.049983,102.4836 369.7297,102.948636 372.412958,103.425143 C374.221567,103.748991 376.018668,104.151375 377.816654,104.54317 C379.804974,105.073504 381.790638,105.603839 383.779843,106.134173 C385.619437,106.626564 387.413882,107.295439 389.222491,107.895484 C390.910704,108.457586 392.542259,109.05322 394.195946,109.715035 C395.990391,110.435973 397.813165,111.101318 399.576626,111.893731 C403.442606,113.634746 407.288225,115.392528 411.098434,117.250905 C414.313739,118.819848 417.482126,120.474386 420.654939,122.124512 C425.901942,124.906784 431.12947,127.772003 436.54379,130.225131 C441.770432,132.59443 447.090914,134.765184 452.229914,137.324203 C453.988949,138.340751 455.645291,139.464072 457.174155,140.792115 C457.930177,141.538642 458.666723,142.308113 459.3413,143.128764 C459.328021,143.157883 459.314741,143.187003 459.301462,143.216123 C458.042606,145.204216 456.436724,146.961115 454.890155,148.730368 C454.378468,149.274821 453.86147,149.811333 453.318798,150.327549 C452.322868,151.282328 451.309232,152.164748 450.244251,153.043639 C448.463084,154.52081 446.513717,155.772082 444.56612,157.019825 C440.434558,159.562078 436.279979,162.05315 432.096186,164.511573 C427.707896,167.097065 423.112452,169.265172 418.519664,171.450044 C416.344552,172.480711 414.089766,173.356955 411.873046,174.290555 C409.836922,175.15268 407.789289,175.986567 405.739,176.814278 C400.914271,178.75825 396.080689,180.674867 391.246222,182.59766 C388.202659,183.810988 385.145817,184.993432 382.092515,186.182934 C379.503982,187.19507 376.85702,188.05896 374.226879,188.958146 C371.830449,189.650846 369.431364,190.342664 367.035819,191.036246 C364.601323,191.739535 362.094234,192.246044 359.632294,192.84609 C354.93947,193.98353 350.15989,194.793592 345.401556,195.62042 C335.708719,197.309372 325.925585,198.477697 316.156615,199.646904 C306.260165,200.831994 296.35929,201.952668 286.461955,203.155407 C281.188394,203.793397 275.918373,204.39962 270.637729,204.968781 C265.638601,205.508822 260.619997,205.822081 255.603164,206.133576 C253.220013,206.199757 250.837748,206.266821 248.454597,206.337415 C245.867834,206.409773 243.266907,206.312707 240.680144,206.299471 C235.686328,206.278293 230.693397,206.061217 225.706663,205.871497 C221.159024,205.699425 216.605187,205.457642 212.074368,205.03055 C209.608887,204.795826 207.123045,204.648462 204.667302,204.314025 C201.714037,203.916936 198.758116,203.517199 195.80485,203.117463 C191.081042,202.479473 186.377595,201.62882 181.66441,200.911412 C176.906076,200.184298 172.137119,199.495127 167.351341,198.998325 C157.139736,197.936773 146.913965,197.034057 136.691736,196.081926 C134.561773,195.886028 132.438007,195.685719 130.315126,195.437759 C128.067422,195.17921 125.812636,194.972723 123.582637,194.607401 C121.241094,194.224431 118.86237,193.934997 116.541188,193.441724 C114.480276,193.006691 112.418479,192.570775 110.357567,192.133095 C105.644382,191.01948 100.934738,189.893512 96.2286354,188.750777 C91.7190628,187.658341 87.1855879,186.541197 82.7353284,185.214037 C80.1591886,184.445449 77.5892456,183.68392 75.0440903,182.832384 C72.4750326,181.973789 69.9573207,181.033129 67.4263297,180.071291 C63.0690238,178.416753 58.8223768,176.465722 54.4933995,174.731766 C49.4376144,172.708376 44.2950728,170.867647 39.3295854,168.630711 C34.9722794,166.669973 30.7265177,164.468335 26.4904939,162.264931 C23.9692409,160.88659 21.4603817,159.503838 19.1099861,157.844888 C16.6082091,156.080047 14.1816801,154.211963 11.8728922,152.199162 C11.6312131,151.955614 11.3975015,151.707654 11.1761836,151.449105 C11.2408084,150.524328 11.3709433,149.607494 11.5400302,148.694189 C11.9180411,147.395266 12.3739558,146.16076 12.9440706,144.947432 C15.169643,141.233325 17.9794945,137.956898 20.8681351,134.738711 C21.7392422,133.828053 22.6147756,132.928867 23.5221789,132.051741 C24.7296891,130.886946 25.9841187,129.800687 27.257139,128.704721 C29.2711315,126.966353 31.513524,125.504182 33.7382111,124.047306 C35.1280872,123.219596 36.5073401,122.346 37.9494472,121.621533 C39.8138288,120.67999 41.6534228,119.636087 43.5824293,118.826025 C44.8067596,118.308927 46.0346311,117.795358 47.2589615,117.27826 C47.984884,116.974707 48.7046097,116.626151 49.4438113,116.361425 C51.6888597,115.5646 53.9330227,114.772186 56.1736447,113.976243 C59.690828,112.728501 63.2832595,111.673126 66.8385095,110.532156 C70.4495316,109.372656 74.0561274,108.206979 77.6636084,107.037772 C79.276573,106.563912 80.8868817,106.087405 82.4998462,105.613545 C83.976479,105.179395 85.4911784,104.889961 86.9925987,104.555523 C90.2149867,103.845175 93.5312134,103.524856 96.8058324,103.159534 C98.2072171,103.004228 99.590011,102.007976 100.384985,100.890832 C101.256977,99.6713269 101.602233,98.1165023 101.33311,96.6410955 C101.073726,95.2142218 100.246882,93.9179463 99.0606187,93.0769997 C97.7574992,92.1566353 96.3392944,91.9669149 94.7971515,92.1292803 C89.7272021,92.6702039 84.671417,93.1978913 79.7404552,94.5382878 C74.9236934,95.8522117 70.1547362,97.299381 65.3725,98.7200778 C60.3441584,100.212251 55.27775,101.615299 50.3051804,103.276896 C47.9158329,104.07284 45.4919597,104.792895 43.157499,105.737967 C40.7159204,106.72363 38.2849651,107.66782 35.926602,108.836145 C34.7438794,109.419424 33.5611568,110.005351 32.3784342,110.591279 C31.0850526,111.231916 29.8545253,112.066685 28.6089484,112.797329 C26.3647854,114.110371 24.1551479,115.575189 22.1084004,117.181194 C20.202411,118.677779 18.3079302,120.193777 16.6099796,121.927733 C14.5313623,124.054366 12.4978938,126.212766 10.5892487,128.494705 C7.43856767,132.261757 4.67209448,136.246767 2.58373919,140.707402 C1.480691,143.064347 0.833557593,145.57748 0.381183897,148.135617 C0.166062942,149.341885 0.0146815285,150.541094 0.000517185723,151.768541 C-0.0171882427,153.578385 0.419250568,155.394406 1.37977006,156.935112 C1.9268678,157.810473 2.43147251,158.544647 3.10604933,159.307058 C3.91164633,160.216833 4.86951,161.005717 5.76540468,161.826368 C9.19229035,164.983668 12.9476117,167.979485 17.0110075,170.28172 C21.6241569,172.898096 26.3267187,175.366226 31.0992169,177.679049 C33.2398032,178.716776 35.3839306,179.764209 37.5864859,180.657218 C40.1971513,181.71877 42.8113579,182.763555 45.4326465,183.787163 C49.8421835,185.51053 54.181784,187.385673 58.5461721,189.208754 C61.0355553,190.25001 63.5222828,191.260381 66.0426505,192.221337 C68.4328833,193.131994 70.8602976,193.924408 73.2877118,194.73094 C75.3592469,195.42364 77.4856689,196.027216 79.5988118,196.599024 C81.9430105,197.229954 84.2810123,197.88471 86.6358343,198.474167 C91.4118736,199.674259 96.1905688,200.856702 100.979887,201.997672 C103.756984,202.655957 106.530539,203.327479 109.320914,203.923995 C111.748329,204.441093 114.173087,205.041139 116.624404,205.444405 C119.138575,205.854731 121.656286,206.36477 124.187277,206.657733 C126.725351,206.954227 129.260768,207.29837 131.805923,207.536624 C137.24149,208.039604 142.677942,208.529347 148.113508,209.012031 C152.682394,209.415297 157.250395,209.852977 161.811313,210.325072 C166.714831,210.835111 171.632514,211.328384 176.508589,212.075794 C182.051273,212.921153 187.594843,213.782395 193.134872,214.661286 C197.533785,215.357515 201.963683,215.97168 206.399779,216.384653 C208.872342,216.615847 211.351987,216.922929 213.831632,217.064116 C216.663615,217.225599 219.495599,217.387965 222.324926,217.55033 C227.473665,217.843294 232.650732,217.874178 237.806553,217.963303 C247.994256,218.139787 258.161599,217.673869 268.300612,216.691735 C278.031516,215.747545 287.707532,214.375382 297.410992,213.185879 C307.815587,211.914311 318.221068,210.625095 328.613269,209.245872 C338.454831,207.93989 348.230884,206.309177 357.954705,204.303436 C362.502344,203.365423 367.018114,202.218277 371.472799,200.907882 C376.486977,199.436005 381.494072,197.916477 386.359524,196.00692 C396.021376,192.2081 405.659326,188.347511 415.241504,184.355442 C417.520192,183.407722 419.77852,182.414999 422.04747,181.439925 C424.367767,180.443672 426.615471,179.25064 428.890619,178.151144 C431.134782,177.069297 433.289532,175.773022 435.471726,174.57293 C437.567164,173.418724 439.600632,172.146274 441.654462,170.91971 C443.777343,169.650789 445.870124,168.317452 447.951398,166.979703 C450.033556,165.641954 452.136076,164.321853 454.113772,162.83321 C455.109702,162.081388 456.078189,161.340155 457.018347,160.520386 C458.052344,159.616788 459.013749,158.692894 459.982236,157.717819 C461.82183,155.862971 463.478173,153.843111 465.061924,151.768541 C465.843618,150.747581 466.576623,149.682499 467.198969,148.559178 C467.752263,147.555866 468.254212,146.577262 468.610091,145.491003 C468.99784,144.302383 469.045645,143.237301 468.969512,142.009855 C468.911084,141.051546 468.572025,140.172655 468.236507,139.276116 C467.9364,138.466055 467.345039,137.753059 466.881156,137.032122 C466.583705,136.570616 466.189759,136.156761 465.826798,135.743788 C464.72375,134.488986 463.544568,133.348017 462.309615,132.216754 C460.331918,130.404262 457.986834,129.080632 455.649718,127.802005 C452.796488,126.24365 449.832599,124.899724 446.875793,123.551386 C444.182797,122.323939 441.521671,121.038253 438.852578,119.759626 C434.723672,117.578283 430.621324,115.356348 426.532255,113.09647 C421.801365,110.484506 417.015588,107.988139 412.198826,105.541187 C407.848602,103.328077 403.393916,101.335572 398.887885,99.4674878 L395.640709,98.1235616 C394.406641,97.609993 393.089357,97.244671 391.82696,96.8096377 C390.699124,96.42402 389.572174,96.0348727 388.447879,95.6483726 C387.206728,95.2212811 385.892986,94.9450836 384.627047,94.59741 C378.402704,92.8837497 372.035832,91.6704217 365.645943,90.736821 C362.837862,90.3229658 360.002338,90.0538276 357.163272,90.0061769 C356.911855,90.0017648 356.661323,90 356.410791,90 C354.765957,90 353.125549,90.0829475 351.4816,90.1853083 Z" id="Fill-3" fill="#2C2C2C"></path>
            <path d="M139.300741,206.173157 C138.39746,206.793191 137.858148,207.706736 137.415363,208.682732 C136.899961,209.818419 136.958408,210.986223 137.093901,212.187929 C137.224965,213.36287 137.882058,214.359384 138.487788,215.321105 C139.075807,216.25517 139.88876,216.959065 140.701713,217.701321 C141.995531,218.886075 143.400045,219.928089 144.80456,220.977239 C146.118746,221.95591 147.430275,222.928337 148.730292,223.924852 C150.14809,225.015932 151.492385,226.191766 152.853507,227.348864 C154.169464,228.578226 155.481879,229.809372 156.752672,231.090477 C160.198425,234.568018 163.550308,238.199005 167.469841,241.140373 C170.136293,243.147676 173.180883,244.67055 176.242299,245.957008 C179.55256,247.350522 182.960234,248.322949 186.464435,249.092861 C188.965285,249.6442 191.500672,250.075994 194.033403,250.459611 C199.087352,251.225955 204.127131,252.059209 209.160712,252.968294 C211.592487,253.407224 214.038432,253.728393 216.504745,253.888085 C219.974409,254.118255 223.513147,253.971945 226.972184,253.644532 C229.358795,253.421498 231.749835,253.215415 234.129361,252.929932 C236.775445,252.609656 239.418872,252.271537 242.062299,251.922712 C244.178811,251.644366 246.32012,251.365128 248.416264,250.953854 C250.820587,250.483699 253.217825,250.030495 255.60178,249.462205 C258.188531,248.84574 260.759341,248.187345 263.332807,247.507538 C265.660971,246.894642 267.982051,246.253197 270.30313,245.618889 C272.30629,245.07201 274.33336,244.559033 276.311723,243.928294 C279.024224,243.061139 281.73584,242.231454 284.389008,241.189441 C286.524118,240.346373 288.613178,239.412308 290.685412,238.422039 C293.466102,237.098111 296.22731,235.732253 298.960179,234.306622 C301.855108,232.801591 304.640226,231.132407 307.382837,229.368657 C309.970473,227.710179 312.423502,225.883979 314.82074,223.956968 C315.982608,223.019335 317.107282,222.039771 318.238155,221.063776 C319.60459,219.886158 320.836418,218.58275 322.04345,217.244548 C323.240741,215.92062 324.153764,214.397746 325.094239,212.888254 C325.810665,211.734724 326.170207,210.494657 325.921362,209.131475 C325.692885,207.869997 324.973802,206.723604 323.935913,205.981348 C321.838883,204.479886 318.515339,204.869748 317.078944,207.149152 C316.219941,208.512334 315.358281,209.831801 314.327478,211.059378 C312.498775,212.912342 310.426541,214.539595 308.365819,216.122242 C306.628331,217.455091 304.853648,218.714785 303.06214,219.970911 C301.241408,221.086079 299.421561,222.175376 297.545038,223.200438 C295.507341,224.308469 293.445734,225.361188 291.360216,226.368408 C289.215365,227.406853 287.080256,228.469385 284.907952,229.441812 C282.570933,230.490962 280.225943,231.461605 277.845531,232.399238 C276.278957,232.900618 274.71504,233.40289 273.12987,233.836467 C270.694552,234.502 268.259234,235.167532 265.820374,235.812545 C261.125967,237.056181 256.424475,238.240936 251.699073,239.356104 C249.672003,239.833396 247.599769,240.213445 245.541704,240.540859 C242.9337,240.955701 240.329238,241.353593 237.709721,241.708663 C232.745215,242.37598 227.768311,242.974602 222.770153,243.277928 C219.822976,243.380523 216.882883,243.271683 213.951646,242.914829 C212.124715,242.695364 210.319037,242.357245 208.509818,242.026263 C206.199365,241.600715 203.885371,241.200146 201.567834,240.802254 C197.283445,240.072488 192.957435,239.524717 188.699614,238.643288 C184.730489,237.706547 180.848149,236.392433 177.188088,234.575155 C174.780223,233.184317 172.617661,231.542789 170.54277,229.69161 C168.265969,227.502311 166.095437,225.184546 163.885939,222.928337 C163.007454,222.029066 162.055466,221.193135 161.142443,220.328657 C160.087729,219.332143 159.028587,218.34901 157.925167,217.405132 C156.088494,215.840328 154.206658,214.359384 152.248662,212.951596 C150.674118,211.821261 149.056182,210.739102 147.5392,209.532044 C147.430275,208.548019 147.038853,207.602357 146.40567,206.835121 C145.544896,205.789539 144.274989,205.124007 142.929808,205.016058 C142.79343,205.004461 142.660594,205 142.52953,205 C141.312757,205 140.319147,205.471047 139.300741,206.173157" id="Fill-5" fill="#2C2C2C"></path>
            <path d="M160.852528,285.666616 C160.91098,285.849468 160.969432,286.03232 161.027884,286.215171 C160.960575,286.035853 160.902124,285.853001 160.852528,285.666616 M173.201812,280.512321 C173.318716,280.614789 173.430305,280.722557 173.538353,280.835624 C173.42322,280.72874 173.308974,280.622739 173.193841,280.515855 C173.196498,280.514088 173.199155,280.513205 173.201812,280.512321 M189.504567,236.181852 C185.110935,242.555158 180.616342,248.852496 175.911853,255.004966 C173.607432,258.020692 171.314525,261.023169 169.238599,264.200546 C168.148383,265.870944 167.231751,267.713593 166.474534,269.552709 C165.85459,271.057039 165.235532,272.595819 164.7998,274.159333 C164.398608,275.584162 164.336613,276.919774 164.979584,278.292486 C165.547275,279.507079 166.705685,280.71549 168.037679,281.087377 C169.452922,281.48488 170.923075,281.642998 172.289609,280.936325 C172.367544,280.895691 172.446366,280.855941 172.525187,280.817074 C172.443709,281.052043 172.355146,281.283478 172.259497,281.51403 C172.00532,281.90005 171.734316,282.266637 171.442942,282.62439 C170.754804,283.267462 170.037441,283.848701 169.267825,284.388422 C167.934945,285.148979 166.568411,285.790284 165.129256,286.323822 C164.294988,286.547307 163.463378,286.712492 162.606084,286.81761 C162.227032,286.80436 161.85418,286.775209 161.480443,286.729276 C161.39985,286.701009 161.319257,286.671858 161.23955,286.641825 C161.227151,286.626808 161.215638,286.611791 161.203239,286.596774 C161.19704,286.564974 161.191726,286.532291 161.185527,286.499607 C161.207667,286.128604 161.244864,285.763784 161.29446,285.393664 C161.578748,284.406089 161.940973,283.450314 162.366963,282.516622 C162.379361,282.506906 162.390875,282.498072 162.402388,282.488355 C164.47123,280.887741 165.048663,277.854348 163.966418,275.539112 C162.606084,272.63027 159.105172,271.422742 156.202948,272.72037 C154.549469,273.462377 153.445969,274.442002 152.321213,275.842981 C151.77832,276.52227 151.339045,277.513379 150.972392,278.244785 C150.529575,279.124593 150.190377,280.017651 149.889262,280.953109 C149.349911,282.64029 149.003628,284.448489 149.000085,286.222238 C148.996542,287.284897 149.103704,288.292789 149.318913,289.328065 C149.647484,290.901295 150.346249,292.198923 151.203543,293.530118 C152.079435,294.893113 153.286555,296.035273 154.653088,296.911548 C156.524434,298.109358 158.607445,298.643779 160.790534,298.937049 C161.776245,299.068666 162.941739,298.965315 163.903538,298.885815 C164.892791,298.802781 165.837763,298.654379 166.803104,298.420294 C168.732901,297.950357 170.636129,297.21895 172.427768,296.37006 C173.974085,295.63512 175.423868,294.659028 176.839112,293.703253 C178.472221,292.60261 179.813957,291.104464 181.091042,289.623984 C181.568398,289.069246 181.931509,288.437657 182.276906,287.799002 C182.864967,286.715142 183.370664,285.7046 183.723147,284.531523 C184.374088,282.377938 184.439625,280.159868 184.058802,277.951516 C183.512366,274.798872 181.362931,271.872363 178.528902,270.3486 C181.161892,266.18718 184.157993,262.262496 187.01682,258.255661 C190.780766,252.975932 194.416294,247.606985 198.059794,242.248638 C199.664563,239.888351 199.190749,236.627056 196.824334,234.946942 C195.923644,234.309169 194.856455,234 193.792808,234 C192.135786,234 190.490278,234.75084 189.504567,236.181852" id="Fill-7" fill="#2C2C2C"></path>
            <path d="M290.34039,281.022918 C290.347467,281.145699 290.353659,281.26848 290.359852,281.391261 C290.345697,281.272039 290.337736,281.153706 290.335966,281.035374 C290.337736,281.030926 290.339505,281.026477 290.34039,281.022918 M290.903906,280.060245 C290.93133,280.066473 290.957869,280.072701 290.985293,280.07804 C290.957869,280.072701 290.93133,280.066473 290.903906,280.060245 M301.563831,276.483587 C301.470944,276.595691 301.373633,276.702457 301.27013,276.801215 C301.368325,276.696229 301.465636,276.590353 301.563831,276.483587 M265.438628,221.561411 C264.007279,222.232257 262.884669,223.462734 262.345038,224.956568 C261.768252,226.54827 261.969066,228.022529 262.545852,229.561738 C262.743127,230.097347 262.939517,230.628508 263.167755,231.15344 C263.555227,232.050274 264.193938,232.856357 264.726492,233.676675 C265.707559,235.174957 267.030982,236.457038 268.192516,237.812965 C269.236392,239.029207 270.297077,240.224986 271.28876,241.489272 C272.327328,242.81406 273.292472,244.199348 274.214268,245.608658 C276.441794,249.325002 278.182767,253.269114 279.761852,257.306645 C280.611992,259.489119 281.420554,261.709851 282.467969,263.805132 C283.566693,266.0054 285.197971,267.990357 286.645244,269.974424 C287.416651,271.030517 288.263252,272.045683 289.015197,273.11957 C289.076238,273.230785 289.138162,273.343778 289.199203,273.456772 C289.952917,274.871421 290.999447,275.934632 292.353833,276.765627 C293.588792,277.520106 294.943177,278.07173 296.2666,278.66784 C294.464586,279.133161 292.625417,279.521077 290.801288,279.784433 C291.578002,276.939121 289.73618,273.768173 287.032717,272.77525 C285.557135,272.236972 283.911703,272.309928 282.495393,272.977215 L281.210009,273.790416 C280.390832,274.481725 279.796353,275.333184 279.426573,276.344791 C278.010262,279.086896 278.016455,282.33347 279.499113,285.054222 C281.088813,287.970711 283.625079,290.528645 286.853135,291.501105 C289.547751,292.314305 292.353833,292.015361 295.067027,291.442384 C296.984929,291.035783 298.881599,290.618507 300.757923,290.045529 C303.678123,289.159372 306.456781,288.137088 308.889544,286.229537 C309.013393,286.09341 309.141666,285.958174 309.269055,285.822937 C309.839648,285.356725 310.299661,284.800653 310.641133,284.160947 C311.335576,283.017662 311.799128,281.888612 311.951286,280.550479 C312.19987,278.371564 311.484196,276.136597 310.098848,274.433681 C308.30568,272.226295 306.048961,270.412164 303.554273,269.081149 C302.368854,268.44856 301.183435,267.840884 299.942284,267.329298 C299.744124,267.249223 299.54508,267.168259 299.347805,267.087295 C299.292957,266.968073 299.23634,266.848851 299.1753,266.732298 C298.549859,265.511607 297.693526,264.368322 296.943351,263.217919 C296.13125,261.983883 295.311188,260.755185 294.496433,259.522039 C293.563137,257.812004 292.92708,255.984527 292.19902,254.174845 C291.307302,251.96479 290.415584,249.764522 289.434517,247.592725 C287.526346,243.352338 285.02812,239.337939 282.263617,235.612697 C280.964079,233.860846 279.540691,232.22021 278.06511,230.615162 C276.700994,229.124888 275.262567,227.687996 274.057686,226.066933 C273.805563,225.551788 273.601211,225.025965 273.396859,224.473452 C272.860767,223.03834 271.406417,221.867473 270.016646,221.359445 C269.357588,221.120112 268.664914,221 267.97224,221 C267.103523,221 266.23569,221.18862 265.438628,221.561411" id="Fill-9" fill="#2C2C2C"></path>
            <path d="M281.461671,76.5441362 C281.435021,76.5939188 281.408371,76.6445904 281.38261,76.694373 C281.407483,76.6437014 281.434133,76.5930299 281.461671,76.5441362 M281.656215,76.3476727 C281.636672,76.4365702 281.617129,76.5254677 281.597586,76.6143653 C281.613575,76.5245788 281.63223,76.4356812 281.656215,76.3476727 M282.05241,75.7671718 C281.968907,75.8587362 281.886293,75.9494117 281.80279,76.0400872 C281.880074,75.9449668 281.962689,75.8542914 282.05241,75.7671718 M288.359549,75.1208867 C289.072877,75.3155723 289.763109,75.5395941 290.446235,75.8222883 C290.882404,76.0898698 291.298143,76.3770088 291.705886,76.696151 C292.142944,77.1575292 292.544469,77.6393538 292.918455,78.1549595 C293.218711,78.6999013 293.486098,79.2501771 293.72417,79.827122 C293.879628,80.4476268 293.995111,81.0690206 294.074172,81.7055269 C294.059959,82.0895642 294.02709,82.4656008 293.977344,82.8478602 C293.82011,83.395469 293.632672,83.9261872 293.407925,84.4506827 C293.152086,84.8373869 292.880257,85.2018668 292.587997,85.5565679 C291.975938,86.1246232 291.335452,86.6393399 290.656769,87.1229425 C289.746231,87.6305474 288.81082,88.0439209 287.830993,88.401289 C286.1787,88.8546664 284.517524,89.1764754 282.81282,89.3400469 C281.474108,89.3533815 280.15405,89.265373 278.825998,89.0635756 C278.270792,88.9062269 277.734241,88.7204311 277.202132,88.4946314 C276.843247,88.2617198 276.50124,88.0172516 276.169005,87.753226 C276.018877,87.5798758 275.876744,87.4056366 275.739941,87.2260636 C275.549839,86.8473601 275.378391,86.4668787 275.222934,86.0766185 C275.117223,85.5885711 275.043491,85.1049685 274.992856,84.6115872 C275.006181,83.6754962 275.099456,82.7660744 275.254025,81.8504299 C275.448569,81.1588071 275.662657,80.4814079 275.914054,79.8146764 C276.313802,79.9791368 276.739312,80.0831469 277.173705,80.1187059 C278.260132,80.2049366 279.359884,79.8582362 280.199355,79.1595016 C281.136543,78.3816482 281.504311,77.4099982 281.708627,76.2498854 C281.713068,76.2294389 281.716622,76.2081035 281.720175,76.1867681 C281.7868,76.1307627 281.855201,76.0756462 281.924491,76.0214187 C282.44594,75.7387246 282.981603,75.5022571 283.539474,75.29157 C284.24303,75.1146639 284.941257,74.9857625 285.664357,74.8977539 C286.574007,74.8968649 287.46056,74.9706499 288.359549,75.1208867 M285.845577,66.0648952 C284.617017,66.1342353 283.457747,66.325365 282.270939,66.648063 C280.095421,67.2454544 278.069141,68.196658 276.320021,69.6314642 C276.208091,69.7230286 276.09705,69.8208159 275.987785,69.9212701 C275.27268,69.4723376 274.451864,69.1931993 273.602621,69.1238593 C272.339417,69.023405 270.743977,69.4021085 269.813896,70.3257539 C269.113004,71.0164877 268.446757,71.7427805 267.784063,72.4752962 C266.877967,73.4753934 266.29167,74.7848541 265.718698,75.9858597 C265.330498,76.7983831 265.077324,77.6740238 264.826815,78.5345519 C264.417295,79.9409109 264.174781,81.4166099 264.039755,82.8754184 C263.928714,84.0559776 264.077953,85.2712069 264.150796,86.4526551 C264.233411,87.8554581 264.719327,89.1853652 265.174152,90.5046046 C265.545473,91.5811537 266.169969,92.5608045 266.790911,93.5048962 C267.568199,94.6818996 268.554245,95.5708749 269.605139,96.5051879 C270.483696,97.2865972 271.642078,97.8662091 272.6832,98.3702581 C273.988156,99.0023196 275.324203,99.34902 276.746419,99.6237133 C279.214198,100.099315 281.63223,100.050421 284.127548,99.8770713 C286.685048,99.7001652 289.144832,98.9187559 291.567306,98.1302348 C294.090162,97.3070437 296.418473,95.8313446 298.427874,94.1129554 C302.261904,90.8308585 304.493387,85.7441417 303.90709,80.6805383 C303.337671,75.7671718 300.568748,71.0964955 296.35629,68.4437931 C294.141685,67.0472129 291.664134,66.4604892 289.103969,66.0960093 C288.597621,66.0248913 288.088608,66 287.577819,66 C286.999517,66 286.420326,66.0320031 285.845577,66.0648952" id="Fill-11" fill="#2C2C2C"></path>
            <path d="M162.144845,79.8930964 C162.105388,79.9691503 162.065932,80.0452041 162.026475,80.121258 C162.062425,80.0434354 162.102758,79.9664972 162.144845,79.8930964 M162.598156,77.9829062 C162.641996,78.1217487 162.68496,78.2597069 162.728801,78.3985494 C162.68496,78.2597069 162.64112,78.1217487 162.598156,77.9829062 M177.455715,75.9940091 C178.548222,76.2920341 179.586366,76.6687661 180.613111,77.1418919 C181.149719,77.4611413 181.666161,77.8069211 182.167697,78.1748096 C182.02916,78.3658286 181.88624,78.5541946 181.737182,78.7407918 C180.886676,79.5694253 179.9783,80.3131614 179.008547,80.9985305 C177.570577,81.8360075 176.078245,82.5311045 174.516645,83.1076989 C172.844567,83.5781717 171.154953,83.9089176 169.425005,84.083134 C168.385984,84.0955149 167.357485,84.0415697 166.321971,83.9089176 C165.951081,83.7939524 165.591588,83.6613003 165.233849,83.5074239 C165.129509,83.4375605 165.026922,83.365044 164.925212,83.2907588 C164.691103,83.0245703 164.472777,82.7486539 164.264096,82.4621254 C163.830075,81.6122676 163.485488,80.7261516 163.178605,79.8223486 C163.115474,79.6216018 163.052344,79.4217393 162.989214,79.2209924 C162.979569,79.1891559 162.969924,79.1564351 162.961156,79.1245986 C163.738887,78.5126302 164.581502,77.9669879 165.396059,77.4408013 C165.599479,77.2692379 165.787117,77.0870624 165.958972,76.8933903 C166.433326,76.958832 166.908558,76.9446824 167.34521,76.8261799 C169.232107,76.3159115 171.083931,75.7914935 173.018176,75.5978215 C174.516645,75.5951684 175.984427,75.7278205 177.455715,75.9940091 M172.041408,66.1105434 C169.849381,66.2865285 167.776601,66.9046873 165.663487,67.4918939 C164.954147,67.688219 164.315828,67.940258 163.755546,68.3276021 C162.556946,67.9110746 160.92257,67.8650885 159.80376,68.5318864 C158.741942,69.1641947 157.707305,69.8407204 156.679683,70.5252052 C156.018568,70.9638415 155.40217,71.4095526 154.826982,71.9622696 C153.963323,72.7909031 152.942715,73.9379015 152.576208,75.1193896 C152.237759,76.2142115 152.018557,77.2886935 152.00102,78.4321546 C151.984361,79.7038461 152.171998,80.8225454 152.542013,82.0217204 C153.120708,83.9080332 153.672222,85.8076113 154.638467,87.5347416 C155.826546,89.6562908 157.374994,91.4524002 159.437253,92.747969 C161.557381,94.0842178 163.944061,94.6891114 166.414037,94.9208104 C168.647274,95.1312851 170.972576,94.8960487 173.181263,94.5228541 C175.750318,94.0912926 178.29833,93.2246322 180.675365,92.1607624 C184.576296,90.4088704 188.176481,87.6726998 190.707834,84.1910244 C191.375087,83.2721875 191.854703,82.1738281 192.314151,81.1444479 C192.762202,80.1354076 192.954223,78.9123552 192.995433,77.8139958 C193.091006,75.2573477 191.67671,72.6874344 189.666183,71.1707788 C188.022162,69.9309238 186.295722,68.9121557 184.439513,68.024271 C182.514914,67.1054341 180.391278,66.6694509 178.308852,66.2997937 C177.103237,66.0848973 175.86518,66 174.629754,66 C173.762588,66 172.895422,66.0415643 172.041408,66.1105434" id="Fill-13" fill="#2C2C2C"></path>
            <path d="M229.545231,252.407038 C229.406651,255.762119 229.260965,259.117199 229.090405,262.472279 C229.035328,263.629083 228.962485,264.785887 228.878982,265.939196 C228.850555,266.363823 228.823905,266.786703 228.79459,267.210457 C228.786595,267.214826 228.779489,267.21832 228.771494,267.222689 C227.421228,267.935644 226.113603,268.734223 224.874379,269.625416 C224.19747,270.113825 223.642262,270.823285 223.184771,271.505659 C222.611797,272.362777 222.087681,273.587731 222.021944,274.625709 C221.830952,277.587616 222.893398,280.498847 224.947223,282.670039 C226.161573,283.952658 227.68151,284.802787 229.330255,285.420506 C231.172656,286.11686 233.063916,286.03473 234.982714,285.932505 C235.444647,285.881829 235.892367,285.775236 236.325873,285.61884 C237.192885,285.348861 237.897333,285.119947 238.68173,284.704056 C240.292277,283.843443 241.621222,282.598394 242.582398,281.069386 C244.439013,278.11709 244.477211,274.2736 242.665901,271.297714 C241.937469,270.09635 241.066015,269.048761 239.858771,268.273773 C239.499885,268.043111 239.125008,267.849145 238.737695,267.688381 C238.803432,266.656519 238.846072,265.622036 238.886935,264.587553 C239.036175,260.782507 239.115237,256.976588 239.254705,253.171542 C239.348868,250.56786 237.522457,248.229788 234.788169,248.014853 C234.666468,248.005242 234.544766,248 234.423065,248 C231.98548,248 229.64739,249.920434 229.545231,252.407038" id="Fill-15" fill="#2C2C2C"></path>
            <path d="M228.562585,89.5624127 C228.475392,89.568554 228.388198,89.5729407 228.301005,89.5755728 C228.388198,89.5711861 228.475392,89.5667994 228.562585,89.5624127 M224.042634,80.8670848 C224.006523,81.0302703 223.970413,81.1934557 223.935183,81.3566412 C223.961606,81.1908237 223.997716,81.0276383 224.042634,80.8670848 M239.005504,79.9941304 C239.007265,80.0292241 239.009907,80.0643177 239.010788,80.0994114 C239.009027,80.0643177 239.007265,80.0292241 239.005504,79.9941304 M233.279821,76.3759757 C233.820595,76.3935225 234.345515,76.4365122 234.884527,76.5049448 C235.598806,76.7014692 236.284021,76.942738 236.961309,77.2445434 C237.340027,77.4858122 237.699368,77.7384864 238.052544,78.0130942 C238.261279,78.2368162 238.458565,78.4658022 238.652327,78.7079483 C238.749209,78.894822 238.838163,79.0816957 238.921833,79.272956 C238.933283,79.3378793 238.943852,79.4028025 238.952659,79.4686031 C238.948256,79.565988 238.942971,79.6642502 238.933283,79.7625124 C238.796769,80.203815 238.632951,80.6275707 238.442712,81.0504491 C237.874635,81.9470918 237.220246,82.7674057 236.522701,83.5684181 C235.241226,84.8677603 233.877843,86.0916512 232.433431,87.2006104 C231.577353,87.8603709 230.729202,88.5368009 229.839656,89.154449 C229.61771,89.2746448 229.397525,89.3860671 229.171175,89.4895933 C229.121854,89.4974894 229.072532,89.5053855 229.02233,89.5124042 C228.848825,89.5062628 228.675319,89.4931027 228.502694,89.4729239 C227.947829,89.3150025 227.410578,89.1290061 226.873328,88.9052842 C226.563308,88.7157785 226.265618,88.5148674 225.975855,88.2946547 C225.897469,88.2025339 225.820845,88.1077811 225.745982,88.0112736 C225.479999,87.5111891 225.25453,87.0058406 225.052841,86.4741719 C224.570196,84.722999 224.281314,82.8937428 224.135992,81.0794014 C224.138634,80.9363948 224.14568,80.7942655 224.156249,80.6521363 C224.688215,80.1889002 225.249246,79.7747951 225.832295,79.378237 C225.833175,79.3773596 225.834937,79.3764823 225.835818,79.3756049 C226.921768,79.5063288 228.060564,79.2106648 228.968605,78.4851037 C229.569269,78.0078301 230.170814,77.5402073 230.79878,77.1015368 C231.114965,76.940106 231.431151,76.790958 231.758785,76.6540928 C232.263449,76.5295103 232.762828,76.4373895 233.279821,76.3759757 M233.536997,68.0122828 C231.249718,68.1044036 229.061083,68.6527418 227.073256,69.8011813 C227.009842,69.8371523 226.94731,69.874878 226.884777,69.9117263 C226.525436,69.6704575 226.13615,69.4704237 225.723964,69.3212757 C224.512948,68.8826052 222.769085,68.8036445 221.616198,69.499376 C220.484449,70.1845794 219.394095,70.8838203 218.375961,71.7234357 C217.488176,72.4568929 216.727218,73.3412527 215.974186,74.2045564 C215.554074,74.7599133 215.207063,75.3626467 214.931392,76.003983 C214.501591,76.8435985 214.291975,77.6182907 214.136965,78.5745925 C213.830468,80.4626306 214.085882,82.4129599 214.436416,84.2834511 C214.687427,85.6406979 214.952529,86.9847845 215.35855,88.3069375 C215.681781,89.3597469 216.032315,90.3871133 216.476207,91.3986876 C216.683181,91.8303394 216.923623,92.2418124 217.195771,92.6357386 C217.715407,93.4551752 218.186602,94.143888 218.843633,94.8457609 C220.53289,96.659225 222.895912,97.8041551 225.256292,98.4753211 C226.402133,98.8008146 227.582322,98.9964617 228.7722,98.9999711 C230.334631,99.0034804 231.679519,98.6876376 233.134499,98.1428088 C234.067202,97.7971364 234.920637,97.114565 235.742367,96.5767549 C236.279617,96.2275731 236.774592,95.8090814 237.273971,95.4081365 C240.149583,93.1156442 242.839359,90.6275048 245.082601,87.6971854 C245.739632,86.8373911 246.293616,85.8503824 246.751601,84.8730244 C247.360191,83.5710502 247.690468,82.2857454 247.959093,80.8705942 C248.004011,80.4661399 248.013699,80.0616857 247.97935,79.6537221 C247.97935,79.0571301 247.935313,78.4649249 247.841955,77.8753516 C247.659642,76.456691 246.940959,75.1266419 246.163267,73.9580235 C243.581822,70.0784211 238.72719,68 234.133257,68 C233.933329,68 233.735163,68.0043867 233.536997,68.0122828" id="Fill-17" fill="#2C2C2C"></path>
        </g>
    </g>
</svg>