<?xml version="1.0" encoding="utf-8"?>
<!-- Generator: Adobe Illustrator 16.0.0, SVG Export Plug-In . SVG Version: 6.00 Build 0)  -->
<!DOCTYPE svg PUBLIC "-//W3C//DTD SVG 1.1//EN" "http://www.w3.org/Graphics/SVG/1.1/DTD/svg11.dtd">
<svg version="1.1" id="Layer_1" xmlns="http://www.w3.org/2000/svg" xmlns:xlink="http://www.w3.org/1999/xlink" x="0px" y="0px"
	 width="800px" height="1000px" viewBox="0 0 800 1000" enable-background="new 0 0 800 1000" xml:space="preserve">
<title>galaxy_DL</title>
<desc>Created with Sketch.</desc>
<g id="galaxy_DL">
	
		<g id="galaxy" transform="translate(414.464575, 437.240917) rotate(-1.000000) translate(-414.464575, -437.240917) translate(169.964575, 265.240917)">
		<path id="Fill-215" d="M235.783,169.939c0.043,0.329,0.089,0.653,0.131,0.981c0-0.004,0-0.004,0-0.004s0,0,0,0.004
			c0.055,0.397,0.108,0.802,0.167,1.199C235.937,171.398,235.842,170.668,235.783,169.939 M214.556,24.218
			c0.32,0.081,0.64,0.162,0.961,0.243C215.196,24.38,214.876,24.303,214.556,24.218 M101.654,12.086
			c-6.379,2.365-12.707,5.171-18.812,8.169c-6.556,3.226-12.827,6.707-18.92,10.747c-6.78,4.492-12.78,10.083-18.553,15.767
			c-5.758,5.668-10.539,12.225-15.435,18.6c-2.728,3.542-5.353,7.281-7.749,11.067c-4.673,7.355-9.211,14.679-13.008,22.532
			c-5.684,11.742-8.246,24.766-9.014,37.701c-0.799,13.733,1.431,28.065,4.627,41.39c3.361,14.05,10.238,26.591,18.106,38.546
			c3.662,5.544,11.106,8.62,17.542,6.39c5.881-2.034,8.655-8.636,5.113-14.035c-3.797-5.777-7.355-11.499-10.33-17.716
			c-3.349-8.266-5.437-16.723-6.803-25.514c-1.343-11.372-1.563-22.613,0.088-33.962c2.196-10.319,6.005-19.881,11.029-29.157
			c4.191-7.112,8.829-13.911,13.521-20.691c6.421-9.312,13.537-18.067,21.741-25.862c7.941-6.703,16.539-12.136,25.715-16.967
			c3.376-1.594,6.745-3.191,10.126-4.801c10.137-4.804,21.027-8.169,31.966-10.678c11.905-2.3,23.86-3.438,36.003-3.345
			c13.147,0.567,25.985,2.431,38.932,4.7c3.411,0.849,6.83,1.702,10.233,2.555c4.01,0.995,7.915,2.427,11.851,3.724
			c7.679,2.531,15.046,5.738,22.501,8.872c6.29,3.214,12.595,6.367,18.634,10.044c3.465,2.126,7.127,4.098,10.43,6.498
			c3.481,2.516,6.965,5.028,10.446,7.559c2.844,2.408,5.688,4.82,8.532,7.228c6.59,5.58,12.449,12.066,17.901,18.762
			c6.834,9.207,12.722,18.931,17.604,29.3c3.392,8.401,5.754,17.052,7.27,25.977c1.297,11.271,1.586,22.748-0.008,33.988
			c-1.373,5.746-3.307,11.122-5.919,16.381c-2.833,4.435-6.005,8.459-9.682,12.214c-9.087,7.247-19.209,12.873-29.543,18.152
			c-5.43,2.404-10.92,4.85-16.616,6.556c-5.843,1.732-11.642,3.272-17.519,4.692c-11.716,1.803-23.327,3.149-35.166,3.323
			c-6.177-0.41-12.267-1.22-18.333-2.436c-4.581-1.358-9.057-2.917-13.463-4.746c-4.989-2.898-9.69-6.17-14.278-9.662
			c-6.992-5.801-13.811-11.693-19.865-18.476c-3.029-4.368-5.645-8.91-8.045-13.695c-4.237-10.064-7.83-20.154-9.825-30.975
			c-0.764-7.625-1.061-15.281-0.181-22.887c2.253-9.134,4.97-17.882,9.226-26.337c1.567-2.508,3.261-4.904,5.236-7.123
			c1.995-1.509,4.067-2.825,6.255-4.044c4.805-1.964,9.679-3.496,14.699-4.731c5.383-0.903,10.739-1.381,16.191-1.478
			c7.255,0.525,14.313,1.852,21.459,3.284c12.117,3.179,24.056,6.895,35.463,12.105c4.079,2.188,7.945,4.565,11.646,7.289
			c1.559,1.408,3.014,2.863,4.407,4.422c1.223,1.829,2.307,3.701,3.314,5.653c1.274,3.396,2.196,6.784,2.871,10.33
			c0.313,3.955,0.367,7.803-0.057,11.731c-0.567,2.215-1.262,4.302-2.169,6.425c-2.632,3.878-5.626,7.405-8.937,10.735
			c-3.141,2.489-6.436,4.619-9.933,6.575c-2.805,1.17-5.646,2.134-8.582,2.948c-2.454,0.359-4.893,0.598-7.374,0.73
			c-1.223-0.12-2.439-0.27-3.651-0.451c-0.748-0.267-1.489-0.549-2.226-0.842c-1.042-0.606-2.069-1.231-3.084-1.883
			c-0.47-0.463-0.929-0.929-1.385-1.404c-0.498-0.775-0.973-1.563-1.428-2.366c-0.135-0.416-0.263-0.829-0.389-1.246
			c0.647-1.674,1.412-3.303,2.222-4.916c1.046-1.84,2.1-3.692,3.142-5.533c1.778-5.129,1.902-10.269,0.363-15.467
			c-2.366-8.381-8.606-15.346-15.81-19.942c-7.961-5.098-17.836-7.703-27.287-6.815c-2.816,0.591-5.622,1.162-8.439,1.748
			c-5.233,1.706-9.616,4.658-13.158,8.848c-2.458,2.489-4.341,4.781-6.135,7.81c-1.312,2.319-2.624,4.642-3.952,6.961
			c-1.446,3.635-2.319,7.417-2.651,11.353c-0.68,4.294-0.077,6.618,0.694,11.592c0.799,5.078,2.562,9.316,4.986,14.003
			c6.679,12.828,17.365,22.656,29.261,30.597c10.083,6.738,21.266,9.527,32.858,12.24c6.452,1.508,13.356,1.373,19.912,1.28
			c8.79-0.119,17.591-2.064,26.004-4.476c12.812-3.663,23.771-11.94,32.92-21.313c3.828-3.921,6.618-8.956,9.3-13.656
			c1.867-3.273,3.391-6.152,4.777-9.62c1.643-4.114,2.053-8.818,2.214-13.216c0.259-6.649-0.918-13.251-2.122-19.766
			c-1.146-6.089-3.376-11.893-5.97-17.499c-2.245-4.882-4.87-9.358-8.184-13.595c-2.053-2.624-4.056-5.036-6.379-7.417
			c-2.998-3.06-6.571-5.622-9.963-8.246c-12.044-9.3-26.665-15.119-40.726-20.68c-9.512-3.785-19.356-6.706-29.199-9.481
			c-13.854-3.921-27.734-5.383-42.116-4.824c-6.073,0.239-12.059,1.297-17.998,2.516c-7.868,1.598-15.42,3.496-22.743,6.815
			c-3.288,1.494-6.499,3.134-9.605,4.943c-3.361,1.96-6.178,4.735-9.03,7.328c-4.233,3.843-7.957,7.926-11.411,12.495
			c-5.259,6.919-9.523,14.86-13.398,22.655c-1.721,3.423-3.33,6.799-4.75,10.357c-2.277,5.696-3.403,12.283-4.04,18.314
			c-0.316,3.103-0.633,6.194-0.722,9.316c-0.255,8.485,1.162,17.048,2.667,25.368c1.042,5.668,2.701,11.426,4.704,16.82
			c4.159,11.188,8.593,22.323,14.999,32.441c5.97,9.435,13.579,17.801,21.598,25.503c4.087,3.921,8.366,7.64,12.696,11.276
			c6.572,5.502,13.278,10.82,20.378,15.601c2.925,1.987,6.089,3.573,9.239,5.155c5.217,2.605,10.253,5.078,15.616,7.262
			c8.231,3.335,17.126,5.144,25.715,7.193c7.282,1.748,14.788,2.455,22.265,2.666c11.727,0.333,23.092,0.031,34.669-1.748
			c7.852-1.204,15.586-2.817,23.333-4.581c9.513-2.157,19.31-4.9,28.127-9.122c10.565-5.048,21.177-9.917,30.57-17.018
			c7.686-5.803,15.164-11.758,22.218-18.36c9.918-9.3,16.775-20.71,20.484-33.795c3.515-12.329,4.325-24.855,2.805-37.516
			c-1.867-15.632-5.561-30.6-11.742-45.086c-11.349-26.572-29.346-50.072-51.098-69.008c-18.588-16.157-39.734-28.729-61.772-39.491
			c-8.455-4.113-17.11-8.111-26.031-11.078c-10.643-3.543-21.405-7.34-32.438-9.481c-4.885-0.934-9.77-1.883-14.636-2.833
			c-5.067-0.98-10.311-1.343-15.42-1.991C181.76,0.336,175.559,0,169.338,0c-7.999,0-16.022,0.556-23.852,1.413
			C130.534,3.056,115.747,6.899,101.654,12.086z"/>
		<path id="Fill-215_1_" d="M386.493,329.92c6.378-2.644,12.706-5.778,18.812-9.129c6.556-3.605,12.826-7.494,18.919-12.01
			c6.78-5.019,12.781-11.267,18.553-17.618c5.757-6.335,10.539-13.661,15.435-20.785c2.728-3.959,5.352-8.137,7.748-12.368
			c4.673-8.219,9.211-16.403,13.009-25.178c5.683-13.122,8.246-27.675,9.014-42.129c0.798-15.347-1.431-31.362-4.627-46.251
			c-3.361-15.701-10.237-29.715-18.106-43.074c-3.662-6.196-11.106-9.633-17.542-7.141c-5.881,2.273,2.242,28.533,5.216,35.48
			c3.35,9.237,5.437,18.689,6.803,28.512c1.343,12.707,1.563,25.268-0.088,37.951c-2.196,11.531-6.005,22.216-11.029,32.582
			c-4.19,7.948-8.828,15.546-13.521,23.121c-6.421,10.405-13.537,20.19-21.741,28.9c-7.942,7.49-16.539,13.561-25.715,18.96
			c-3.376,1.78-6.746,3.565-10.125,5.364c-10.137,5.369-21.027,9.129-31.967,11.931c-11.904,2.57-23.859,3.842-36.003,3.738
			c-13.146-0.634-25.985-2.717-38.931-5.251c-3.412-0.949-6.83-1.902-10.234-2.855c-4.01-1.113-7.915-2.713-11.85-4.162
			c-7.679-2.829-15.046-6.412-22.501-9.914c-6.29-3.592-12.596-7.114-18.634-11.224c-3.466-2.375-7.127-4.579-10.431-7.261
			c-3.481-2.811-6.965-5.619-10.446-8.447c-2.844-2.691-5.688-5.386-8.532-8.077c-6.59-6.235-49.744-15.075-27.991,6.085
			c18.587,18.055,39.734,32.104,61.771,44.13c8.455,4.597,17.11,9.065,26.032,12.38c10.643,3.959,21.405,8.202,32.437,10.595
			c4.886,1.043,9.77,2.104,14.636,3.165c5.067,1.095,10.311,1.501,15.421,2.225c6.101,0.884,12.301,1.259,18.522,1.259
			c7.999,0,16.022-0.621,23.851-1.578C357.614,340.01,372.401,335.715,386.493,329.92z"/>
	</g>
</g>
</svg>
