<?xml version="1.0" encoding="utf-8"?>
<!-- Generator: Adobe Illustrator 16.0.0, SVG Export Plug-In . SVG Version: 6.00 Build 0)  -->
<!DOCTYPE svg PUBLIC "-//W3C//DTD SVG 1.1//EN" "http://www.w3.org/Graphics/SVG/1.1/DTD/svg11.dtd">
<svg version="1.1" id="Layer_1" xmlns="http://www.w3.org/2000/svg" xmlns:xlink="http://www.w3.org/1999/xlink" x="0px" y="0px"
	 width="800px" height="1000px" viewBox="0 0 800 1000" enable-background="new 0 0 800 1000" xml:space="preserve">
<title>galaxy_DL</title>
<desc>Created with Sketch.</desc>
<g id="galaxy_DL">
	
		<g id="galaxy" transform="translate(414.464575, 437.240917) rotate(-1.000000) translate(-414.464575, -437.240917) translate(169.964575, 265.240917)">
		<path id="Fill-215" d="M235.783,169.939c0.043,0.329,0.089,0.653,0.131,0.981c0-0.004,0-0.004,0-0.004s0,0,0,0.004
			c0.055,0.397,0.108,0.804,0.167,1.199C235.937,171.398,235.842,170.668,235.783,169.939 M214.556,24.218
			c0.32,0.081,0.64,0.162,0.961,0.243C215.196,24.38,214.876,24.303,214.556,24.218 M101.654,12.086
			c-6.379,2.365-12.707,5.171-18.812,8.169c-6.556,3.226-12.827,6.707-18.92,10.747c-6.78,4.492-12.78,10.083-18.553,15.767
			c-5.758,5.668-10.539,12.225-15.435,18.6c-2.728,3.542-5.353,7.281-7.749,11.067c-4.673,7.355-9.211,14.679-13.008,22.532
			c-5.684,11.742-8.246,24.766-9.014,37.701c-0.799,13.733,1.431,28.063,4.627,41.39c3.361,14.05,10.238,26.591,18.106,38.546
			c3.662,5.542,11.106,8.62,17.542,6.388c5.881-2.032,8.655-8.634,5.113-14.035c-3.797-5.776-7.355-11.497-10.33-17.714
			c-3.349-8.268-5.437-16.723-6.803-25.514c-1.343-11.372-1.563-22.613,0.088-33.964c2.196-10.319,6.005-19.881,11.029-29.157
			c4.191-7.112,8.829-13.911,13.521-20.691c6.421-9.312,13.537-18.067,21.741-25.862c7.941-6.703,16.539-12.136,25.715-16.967
			c3.376-1.594,6.745-3.191,10.126-4.801c10.137-4.804,21.027-8.169,31.966-10.678c11.905-2.3,23.861-3.438,36.003-3.345
			c13.145,0.567,25.985,2.431,38.932,4.7c3.411,0.849,6.83,1.702,10.233,2.555c4.01,0.995,7.915,2.427,11.851,3.724
			c7.679,2.531,15.046,5.738,22.501,8.872c6.29,3.214,12.595,6.367,18.634,10.044c3.463,2.126,7.127,4.098,10.43,6.498
			c3.481,2.516,6.965,5.028,10.446,7.559c2.844,2.408,5.688,4.82,8.53,7.228c6.59,5.58,12.451,12.066,17.903,18.762
			c6.833,9.207,12.72,18.931,17.604,29.3c3.392,8.401,5.754,17.052,7.269,25.977c1.298,11.271,1.587,22.75-0.007,33.988
			c-1.373,5.746-3.307,11.122-5.921,16.381c-2.833,4.437-6.005,8.459-9.68,12.216c-9.087,7.247-19.209,12.873-29.543,18.15
			c-5.43,2.406-10.92,4.85-16.616,6.558c-5.845,1.73-11.642,3.272-17.519,4.692c-11.716,1.803-23.327,3.149-35.166,3.321
			c-6.177-0.41-12.269-1.219-18.333-2.436c-4.581-1.358-9.057-2.917-13.463-4.746c-4.988-2.898-9.69-6.17-14.278-9.662
			c-6.992-5.801-13.811-11.693-19.865-18.474c-3.029-4.368-5.645-8.91-8.043-13.695c-4.237-10.064-7.83-20.154-9.825-30.975
			c-0.765-7.625-1.062-15.283-0.181-22.887c2.253-9.132,4.968-17.882,9.226-26.337c1.565-2.508,3.261-4.904,5.234-7.123
			c1.995-1.509,4.067-2.825,6.255-4.044c4.806-1.964,9.681-3.496,14.699-4.731c5.383-0.903,10.741-1.381,16.191-1.478
			c7.255,0.525,14.313,1.852,21.459,3.284c12.117,3.179,24.056,6.895,35.463,12.105c4.079,2.188,7.945,4.565,11.646,7.289
			c1.559,1.408,3.014,2.863,4.407,4.422c1.223,1.829,2.307,3.701,3.314,5.653c1.274,3.396,2.196,6.784,2.871,10.329
			c0.313,3.955,0.369,7.804-0.055,11.731c-0.567,2.215-1.264,4.302-2.169,6.425c-2.634,3.878-5.626,7.405-8.939,10.735
			c-3.141,2.489-6.435,4.619-9.933,6.575c-2.805,1.17-5.646,2.134-8.582,2.948c-2.454,0.359-4.893,0.596-7.374,0.73
			c-1.223-0.12-2.439-0.27-3.651-0.451c-0.746-0.267-1.489-0.549-2.226-0.842c-1.042-0.606-2.069-1.231-3.084-1.883
			c-0.47-0.461-0.929-0.928-1.385-1.402c-0.498-0.775-0.973-1.563-1.428-2.366c-0.135-0.416-0.265-0.829-0.389-1.246
			c0.647-1.674,1.412-3.303,2.222-4.916c1.046-1.84,2.1-3.692,3.142-5.533c1.778-5.129,1.902-10.269,0.363-15.467
			c-2.366-8.381-8.606-15.346-15.81-19.943c-7.961-5.098-17.836-7.703-27.287-6.815c-2.816,0.591-5.624,1.162-8.439,1.748
			c-5.235,1.706-9.616,4.658-13.158,8.848c-2.458,2.489-4.341,4.781-6.135,7.81c-1.312,2.319-2.622,4.642-3.952,6.961
			c-1.444,3.634-2.317,7.417-2.651,11.353c-0.68,4.293-0.075,6.618,0.694,11.592c0.799,5.078,2.56,9.316,4.986,14.003
			c6.679,12.828,17.365,22.656,29.262,30.595c10.082,6.738,21.267,9.527,32.859,12.24c6.45,1.508,13.356,1.373,19.91,1.28
			c8.792-0.119,17.591-2.064,26.004-4.478c12.812-3.663,23.773-11.939,32.92-21.313c3.83-3.921,6.618-8.956,9.3-13.656
			c1.867-3.274,3.391-6.152,4.777-9.62c1.643-4.114,2.053-8.818,2.214-13.215c0.259-6.65-0.918-13.25-2.122-19.767
			c-1.146-6.089-3.376-11.893-5.97-17.499c-2.245-4.882-4.872-9.358-8.184-13.595c-2.053-2.624-4.056-5.036-6.379-7.417
			c-2.998-3.06-6.571-5.622-9.963-8.246c-12.044-9.3-26.665-15.118-40.726-20.68c-9.512-3.785-19.356-6.706-29.197-9.481
			c-13.856-3.921-27.734-5.383-42.118-4.824c-6.072,0.239-12.059,1.297-17.998,2.516c-7.868,1.598-15.42,3.496-22.743,6.815
			c-3.288,1.494-6.499,3.134-9.605,4.943c-3.361,1.96-6.178,4.735-9.03,7.328c-4.233,3.843-7.957,7.926-11.411,12.495
			c-5.259,6.919-9.523,14.86-13.398,22.655c-1.721,3.423-3.33,6.799-4.75,10.357c-2.277,5.694-3.403,12.283-4.04,18.314
			c-0.316,3.101-0.633,6.194-0.722,9.316c-0.255,8.485,1.162,17.047,2.667,25.368c1.042,5.668,2.701,11.426,4.704,16.82
			c4.159,11.188,8.593,22.323,14.999,32.441c5.97,9.436,13.579,17.8,21.598,25.504c4.087,3.921,8.366,7.638,12.696,11.276
			c6.573,5.5,13.278,10.818,20.378,15.599c2.925,1.988,6.089,3.575,9.241,5.155c5.217,2.605,10.253,5.078,15.616,7.262
			c8.231,3.337,17.126,5.144,25.713,7.193c7.282,1.748,14.789,2.455,22.265,2.666c11.727,0.333,23.092,0.031,34.669-1.748
			c7.852-1.205,15.588-2.817,23.335-4.583c9.513-2.157,19.31-4.9,28.127-9.122c10.563-5.048,21.175-9.917,30.568-17.018
			c7.686-5.803,15.166-11.758,22.218-18.36c9.918-9.3,16.775-20.708,20.484-33.795c3.516-12.328,4.325-24.855,2.806-37.514
			c-1.867-15.634-5.563-30.601-11.742-45.087c-11.349-26.572-29.344-50.072-51.097-69.008
			c-18.588-16.157-39.733-28.729-61.771-39.491c-8.455-4.113-17.11-8.111-26.031-11.078c-10.643-3.543-21.404-7.34-32.438-9.481
			c-4.885-0.934-9.768-1.883-14.634-2.833c-5.069-0.98-10.311-1.343-15.422-1.991C181.76,0.336,175.559,0,169.338,0
			c-7.999,0-16.022,0.556-23.853,1.413C130.534,3.056,115.747,6.899,101.654,12.086z"/>
		<path id="Fill-215_1_" d="M386.493,329.92c6.376-2.644,12.704-5.778,18.812-9.129c6.556-3.605,12.826-7.494,18.919-12.01
			c6.78-5.019,12.781-11.267,18.551-17.616c5.757-6.335,10.539-13.663,15.435-20.787c2.728-3.959,5.352-8.137,7.746-12.368
			c4.673-8.22,9.211-16.403,13.011-25.178c5.683-13.124,8.246-27.675,9.014-42.129c0.796-15.347-1.431-31.362-4.627-46.251
			c-3.361-15.701-10.237-29.715-18.107-43.074c-3.662-6.196-11.106-9.633-17.542-7.141c-5.879,2.273,2.244,28.533,5.218,35.48
			c3.35,9.237,5.435,18.689,6.801,28.512c1.345,12.707,1.563,25.266-0.086,37.951c-2.198,11.533-6.006,22.216-11.029,32.582
			c-4.19,7.95-8.828,15.548-13.521,23.121c-6.421,10.405-13.537,20.192-21.741,28.9c-7.942,7.489-16.539,13.561-25.715,18.96
			c-3.376,1.778-6.748,3.563-10.125,5.362c-10.137,5.371-21.027,9.131-31.967,11.931c-11.904,2.57-23.859,3.842-36.003,3.738
			c-13.144-0.634-25.985-2.719-38.931-5.252c-3.412-0.947-6.83-1.902-10.234-2.855c-4.009-1.113-7.915-2.713-11.85-4.162
			c-7.677-2.831-15.046-6.412-22.499-9.916c-6.292-3.592-12.598-7.113-18.634-11.222c-3.466-2.375-7.127-4.579-10.432-7.261
			c-3.481-2.811-6.965-5.618-10.446-8.447c-2.844-2.691-5.688-5.384-8.532-8.077c-6.588-6.235-49.743-15.074-27.989,6.087
			c18.587,18.055,39.734,32.104,61.77,44.13c8.455,4.595,17.11,9.065,26.032,12.38c10.643,3.959,21.405,8.202,32.437,10.595
			c4.886,1.041,9.768,2.102,14.635,3.165c5.069,1.094,10.311,1.501,15.422,2.225c6.101,0.884,12.301,1.259,18.522,1.259
			c7.999,0,16.022-0.621,23.852-1.578C357.614,340.01,372.401,335.715,386.493,329.92z"/>
	</g>
</g>
</svg>
