<?xml version="1.0" encoding="utf-8"?>
<!-- Generator: Adobe Illustrator 16.0.0, SVG Export Plug-In . SVG Version: 6.00 Build 0)  -->
<!DOCTYPE svg PUBLIC "-//W3C//DTD SVG 1.1//EN" "http://www.w3.org/Graphics/SVG/1.1/DTD/svg11.dtd">
<svg version="1.1" id="Layer_1" xmlns="http://www.w3.org/2000/svg" xmlns:xlink="http://www.w3.org/1999/xlink" x="0px" y="0px"
	 width="800px" height="1000px" viewBox="0 0 800 1000" enable-background="new 0 0 800 1000" xml:space="preserve">
<title>question_mark_DL</title>
<desc>Created with Sketch.</desc>
<g id="question_mark_DL">
	<g id="questionmark" transform="translate(262.000000, 210.000000)">
		<path id="Fill-315" d="M148.918,220.777c23.485,0.222,42.495-13.618,63.646-20.955c11.538-4.002,22.123-11.543,35.218-10.468
			c15.586,1.26,26.073,8.263,28.525,24.123c2.043,13.34-1.518,23.789-15.702,28.421c-41.057,13.433-81.82,27.958-123.596,39.019
			c-18.874,5.003-43.702,7.819-56.252-10.264c-13.057-18.787-12.492-42.002,0.098-63.068c19.224-32.182,38.37-64.327,64.346-92.341
			c13.037-14.118,27.669-27.402,37.534-48.209c-37.125-1.723-68.978,3.798-97.931,23.123c-15.138,10.097-30.081,21.603-49.52,23.345
			c-12.258,1.093-25.879,2.724-32.066-11.395c-5.312-12.099-2.763-24.142,7.316-32.646C50.618,35.724,94.515,8.025,149.19,1.8
			c19.925-2.261,40.55-1.908,60.552,0c34.401,3.279,45.94,17.842,44.033,50.135c-1.498,25.012-14.34,44.559-30.704,63.049
			c-25.081,28.255-51.388,55.639-71.41,87.654C148.529,207.622,145.532,212.644,148.918,220.777"/>
		<path id="Fill-609" d="M147.151,405.943c-0.623,18.972-15.411,34.925-33.331,35.999c-13.465,0.797-30.179-14.934-29.751-28.032
			c0.506-16.415,23.154-39.945,37.962-38.463C140.905,377.318,148.085,388.824,147.151,405.943"/>
	</g>
</g>
</svg>
