<?xml version="1.0" encoding="utf-8"?>
<!-- Generator: Adobe Illustrator 16.0.0, SVG Export Plug-In . SVG Version: 6.00 Build 0)  -->
<!DOCTYPE svg PUBLIC "-//W3C//DTD SVG 1.1//EN" "http://www.w3.org/Graphics/SVG/1.1/DTD/svg11.dtd">
<svg version="1.1" id="Layer_1" xmlns="http://www.w3.org/2000/svg" xmlns:xlink="http://www.w3.org/1999/xlink" x="0px" y="0px"
	 width="800px" height="1000px" viewBox="0 0 800 1000" enable-background="new 0 0 800 1000" xml:space="preserve">
<title>robot_0004_DL</title>
<desc>Created with Sketch.</desc>
<g id="robot_0004_DL">
	<g id="roobot_0004" transform="translate(192.000000, 275.000000)">
		<rect id="Rectangle" x="127" y="8" fill="#FFFFFF" width="171" height="119"/>
		<rect id="Rectangle-2" x="165" y="164" fill="#FFFFFF" width="101" height="107"/>
		<path id="Fill-100" fill="#000000" d="M148.494,0.61c-2.731,0.361-5.481,0.591-8.225,0.863c-2.374,0.123-4.745,0.026-7.121,0.148
			c-1.895,0.093-3.809,0.24-5.674,0.623c-1.576,0.328-3.128,0.687-4.719,0.947c-3.938,0.642-6.42,4.907-5.599,8.606
			c0.407,1.83,1.541,3.465,3.122,4.495c1.711,1.109,3.62,1.351,5.599,1.032c2.401-0.395,4.743-1.015,7.15-1.326
			c1.38-0.07,2.762-0.084,4.147-0.088c2.298-0.005,4.586-0.251,6.868-0.481c1.993-0.206,3.983-0.373,5.972-0.599
			c1.456-0.164,2.9-0.37,4.354-0.537c3.179-0.069,6.351,0.05,9.53,0.129c3.103,0.079,6.21,0.074,9.313,0.25
			c3.193,0.182,6.41,0.511,9.607,0.491c3.217-0.015,6.425-0.177,9.642-0.231c3.387-0.059,6.772,0.03,10.16,0.113
			c3.386,0.089,6.777-0.029,10.163,0.152c3.258,0.183,6.499,0.708,9.741,1.05c3.197,0.339,6.405,0.584,9.597,0.973
			c6.733,0.809,13.486,1.884,20.284,1.643c2.909-0.103,5.817-0.358,8.722-0.525c2.642-0.152,5.266-0.044,7.902,0.098
			c2.615,0.143,5.226,0.368,7.837,0.541c2.4,0.162,4.813,0.211,7.22,0.28c2.57,0.073,5.137,0.181,7.702,0.333
			c2.243,0.128,4.491,0.383,6.738,0.408c3.894,0.039,7.28-2.788,7.465-6.729c0.178-3.856-2.93-7.165-6.818-7.365
			c-2.959-0.152-5.912-0.422-8.872-0.564c-3.276-0.152-6.559-0.177-9.83-0.329c-3.451-0.157-6.887-0.461-10.333-0.633
			c-1.771-0.093-3.525-0.191-5.3-0.167c-1.925,0.025-3.824,0.128-5.744,0.25c-1.602,0.099-3.203,0.221-4.805,0.334
			c-3.381,0.24-6.741,0.128-10.113-0.206c-3.506-0.348-7.007-0.77-10.508-1.178c-3.157-0.368-6.325-0.613-9.487-0.938
			c-1.686-0.176-3.366-0.353-5.048-0.554c-1.61-0.196-3.237-0.451-4.857-0.54c-3.227-0.176-6.44-0.122-9.662-0.196
			c-3.133-0.069-6.256-0.182-9.389-0.231c-3.013-0.044-6.036,0.103-9.046,0.172c-3.092,0.074-6.18-0.162-9.258-0.387
			c-5.898-0.437-11.835-0.57-17.742-0.717C158.625,0.007,158.068,0,157.515,0C154.492,0,151.498,0.212,148.494,0.61"/>
		<path id="Fill-102" fill="#000000" d="M291.604,14.607c-0.179,6.666-0.719,13.315-1.028,19.969
			c-0.294,6.461-0.246,12.932-0.372,19.393c-0.135,6.849-0.217,13.698-0.202,20.548c0.015,6.65,0.473,13.271,0.806,19.911
			c0.275,5.523,0.517,11.042,0.517,16.575c0.005,2.542,0,5.081-0.043,7.623c-0.034,2.343-0.362,4.636-0.521,6.969
			c-0.256,3.848,2.882,7.223,6.546,7.397c3.824,0.179,6.871-2.912,7.165-6.76c0.102-1.375,0.314-2.742,0.387-4.123
			c0.077-1.45,0.097-2.896,0.106-4.347c0.019-3.39,0.005-6.775-0.048-10.165c-0.106-6.52-0.6-13.016-0.933-19.522
			c-0.695-13.698-0.377-27.407-0.266-41.116c0.039-5.324,0.188-10.638,0.474-15.952c0.284-5.255,0.661-10.515,0.806-15.773
			c0.102-3.769-2.699-7.054-6.392-7.229C298.509,8.002,298.411,8,298.314,8C294.827,8,291.709,10.939,291.604,14.607"/>
		<path id="Fill-104" fill="#000000" d="M120.271,11.709c-1.267,1.117-2.332,2.988-2.268,4.719
			c0.257,6.859,0.231,13.724,0.236,20.588c0.011,6.605,0.071,13.216,0.111,19.821c0.019,3.447-0.011,6.899,0.13,10.348
			c0.136,3.366,0.321,6.734,0.492,10.102c0.358,6.983,0.578,13.958,0.684,20.948c0.065,4.395,0.021,8.79,0.213,13.185
			c0.187,4.338,0.721,8.634,1.158,12.947c0.115,1.512,0.221,3.026,0.309,4.544c0.101,1.835,0.448,3.397,1.725,4.818
			c1.216,1.353,2.966,2.181,4.796,2.265c1.77,0.08,3.534-0.543,4.856-1.71c1.257-1.114,2.378-3.029,2.281-4.766
			c-0.263-4.885-0.874-9.722-1.327-14.588c-0.428-6.693-0.364-13.401-0.472-20.104c-0.111-6.584-0.428-13.166-0.784-19.74
			c-0.388-7.164-0.433-14.323-0.482-21.497c-0.046-6.44-0.065-12.881-0.102-19.321c-0.024-5.747-0.05-11.489-0.267-17.231
			c-0.069-1.811-0.467-3.387-1.714-4.779c-1.206-1.347-2.946-2.166-4.761-2.25c-0.101-0.005-0.2-0.008-0.303-0.008
			C123.133,10,121.507,10.613,120.271,11.709"/>
		<path id="Fill-106" fill="#000000" d="M275.101,120.365c-3.953,0.272-7.909,0.377-11.864,0.638
			c-4.893,0.327-9.729,0.932-14.581,1.609c-4.469,0.625-8.928,1.298-13.381,2.02c-4.105,0.671-8.187,1.405-12.328,1.823
			c-2.686,0.169-5.368,0.144-8.063-0.008c-3.025-0.171-6.037-0.566-9.067-0.752c-6.051-0.365-12.081,0.006-18.137,0.151
			c-6.176,0.151-12.346,0.317-18.521,0.405c-5.852,0.083-11.718-0.161-17.565-0.264c-2.926-0.054-5.852-0.072-8.777-0.156
			c-3.309-0.098-6.608-0.287-9.912-0.429c-3.593-0.161-6.732,2.648-6.897,6.17c-0.159,3.493,2.702,6.639,6.3,6.761
			c5.872,0.195,11.738,0.381,17.611,0.542c5.905,0.156,11.808,0.527,17.714,0.566c6.065,0.043,12.131-0.151,18.192-0.376
			c6.085-0.23,12.156-0.566,18.241-0.303c4.359,0.185,8.674,0.957,13.028,1.17c5.116,0.259,10.211-0.267,15.247-1.131
			c9.161-1.564,18.353-2.918,27.592-3.925c3.737-0.281,7.479-0.444,11.226-0.612c4.804-0.212,9.587-0.797,14.37-1.268
			c3.406-0.277,6.797-0.513,10.227-0.337c3.767,0.195,7.066-2.805,7.239-6.482c0.169-3.722-2.841-6.903-6.618-7.098
			c-1.078-0.056-2.16-0.081-3.241-0.081C287.116,119,281.08,119.783,275.101,120.365"/>
		<path id="Fill-108" fill="#000000" d="M188.071,175.94c-0.353,0.032-0.71,0.063-1.063,0.094
			C187.361,176.002,187.717,175.972,188.071,175.94 M247.945,156.17c-6.574,0.157-13.161,0.161-19.73,0.403
			c-7.132,0.262-14.208,1.143-21.225,2.409c-3.137,0.568-6.263,1.198-9.415,1.691c-3.122,0.486-6.278,0.824-9.415,1.196
			c-2.673,0.315-5.361,0.571-8.044,0.824c-4.983,0.377-9.994,0.37-14.993,0.348c-3.712-0.015-6.942,2.722-7.116,6.604
			c-0.173,3.779,2.79,7.038,6.502,7.23c3.632,0.18,7.259,0.14,10.892,0.024c3.797-0.117,7.567-0.501,11.344-0.844
			c6.53-0.538,13.03-1.349,19.479-2.537c3.24-0.599,6.481-1.212,9.736-1.75c2.625-0.436,5.283-0.696,7.937-0.938
			c7.262-0.49,14.552-0.479,21.825-0.707c3.543-0.111,7.086-0.252,10.629-0.272c3.86-0.024,7.691,0.142,11.542,0.424
			c3.696,0.262,6.938-2.902,7.102-6.586c0.172-3.827-2.791-6.936-6.487-7.208c-3.24-0.231-6.477-0.482-9.728-0.482
			C255.166,156,251.554,156.085,247.945,156.17"/>
		<path id="Fill-110" fill="#000000" d="M158.797,164.752c-1.492,0.756-3.137,2.337-3.483,4.032
			c-0.619,3.019-1.241,6.025-1.593,9.079c-0.292,2.496-0.316,5.026-0.397,7.532c-0.156,4.634-0.362,9.278-0.317,13.916
			c0.046,4.863,0.262,9.726,0.513,14.588c0.126,2.44,0.227,4.888,0.317,7.334c0.081,2.304,0.275,4.6,0.479,6.895l-0.012-0.124
			c0.487,5.788,0.949,11.586,1.261,17.383c0.146,2.705,0.206,5.413,0.393,8.118c0.203,2.949,0.518,5.894,0.789,8.837
			c0.203,2.521,0.37,5.047,0.548,7.571c0.051,0.581,0.101,1.168,0.15,1.75c0.262,1.158,0.785,2.178,1.579,3.067
			c1.217,1.353,2.976,2.183,4.811,2.263c1.774,0.079,3.544-0.542,4.871-1.711c1.252-1.104,2.394-3.032,2.288-4.757
			c-0.303-5.034-0.695-10.048-1.163-15.065c-0.218-2.894-0.318-5.79-0.421-8.69c-0.116-3.183-0.361-6.36-0.594-9.532
			c-0.24-3.391-0.487-6.776-0.778-10.167c-0.276-3.247-0.363-6.503-0.493-9.766c-0.256-6.379-0.714-12.757-0.644-19.146
			c0.075-6.483,0.291-13.002,0.8-19.465c0.069-0.913,0.21-1.826,0.358-2.732c0.193-0.965,0.387-1.929,0.581-2.891
			c0.115-0.611,0.227-1.219,0.337-1.829c0.051-1.219-0.201-2.373-0.754-3.461c-0.839-1.631-2.317-2.879-4.082-3.445
			c-0.701-0.225-1.43-0.335-2.157-0.335C160.885,164,159.789,164.253,158.797,164.752"/>
		<path id="Fill-112" fill="#000000" d="M262.376,162.74c-1.237,3.741-1.935,7.557-2.642,11.422
			c-0.591,3.244-1.071,6.484-1.384,9.768c-0.627,6.608-0.783,13.236-1.627,19.829c-0.858,6.698-2.218,13.311-2.668,20.058
			c-0.459,6.882-0.631,13.781-0.758,20.673c-0.069,3.971-0.105,7.936-0.146,11.904c-0.032,3.493-0.054,7.002-0.534,10.47
			c-0.091,0.39-0.188,0.778-0.299,1.166c-0.501,1.784-0.45,3.563,0.419,5.236c0.838,1.615,2.309,2.853,4.062,3.408
			c3.592,1.147,7.657-0.834,8.794-4.406c2.011-6.311,1.51-13.216,1.571-19.739c0.071-7.05,0.228-14.095,0.469-21.145
			c0.117-3.359,0.339-6.714,0.673-10.062c0.344-3.429,0.879-6.827,1.415-10.225c0.535-3.379,1.03-6.747,1.464-10.141
			c0.425-3.273,0.484-6.604,0.698-9.892c0.191-2.968,0.343-5.963,0.722-8.913c0.344-2.698,0.775-5.374,1.245-8.053
			c0.479-2.407,1.038-4.762,1.815-7.111c1.178-3.563-0.864-7.503-4.484-8.66c-0.697-0.223-1.41-0.328-2.112-0.328
			C266.12,158,263.326,159.862,262.376,162.74"/>
		<path id="Fill-114" fill="#000000" d="M256.409,265.004c-4.03,0.166-8.062,0.414-12.087,0.604
			c-3.759,0.181-7.521,0.005-11.272-0.072c-3.971-0.084-7.962-0.23-11.928,0.033c-4.016,0.268-8.019,0.613-12.025,0.959
			c-3.122,0.211-6.25,0.322-9.374,0.51c-3.414,0.2-6.823,0.448-10.236,0.653c-3.594,0.215-7.191,0.483-10.769,0.874
			c-3.449,0.369-6.889,0.838-10.343,1.19c-1.164,0.253-2.188,0.771-3.084,1.541c-1.369,1.189-2.2,2.907-2.284,4.697
			c-0.08,1.736,0.547,3.463,1.727,4.761c1.09,1.2,3.07,2.371,4.792,2.234c4.516-0.347,8.998-0.936,13.505-1.357
			c5.398-0.386,10.81-0.692,16.215-0.989c2.966-0.165,5.937-0.249,8.907-0.443c2.939-0.193,5.873-0.478,8.808-0.742
			c3.151-0.202,6.279-0.329,9.437-0.395c3.17-0.068,6.36,0.098,9.53,0.166c6.639,0.137,13.232-0.43,19.861-0.708
			c1.855-0.077,3.468-0.458,4.9-1.707c1.379-1.2,2.221-2.937,2.305-4.746c0.079-1.751-0.558-3.493-1.741-4.805
			c-1.102-1.214-2.946-2.263-4.671-2.263C256.524,265,256.467,265.001,256.409,265.004"/>
		<path id="Fill-116" fill="#000000" d="M173.01,280.748c-1.453,1.318-2.007,2.936-2.266,4.835
			c-0.476,3.502-0.606,6.993-0.655,10.525c-0.054,3.511-0.128,7.028-0.064,10.54c0.118,7.139,0.646,14.259,1.301,21.365
			c0.676,9.771-0.269,19.553-0.248,29.329c0.01,5.135-0.201,10.263-0.195,15.396c0,2.423,0,4.84-0.006,7.262
			c-0.01,2.935,0.172,5.82,0.553,8.735c0.221,1.651,1.483,3.268,2.808,4.157c1.474,0.99,3.309,1.338,5.03,0.955
			c1.669-0.373,3.156-1.407,4.096-2.854c1.051-1.621,1.149-3.258,0.939-5.113c-0.054-0.454-0.106-0.905-0.158-1.355
			c-0.108-2.147-0.041-4.31-0.028-6.459c0.02-2.586,0.015-5.174,0.049-7.765c0.03-2.552,0.138-5.108,0.215-7.659
			c0.079-2.507,0.039-5.015,0.069-7.521c0.059-5.446,0.444-10.884,0.523-16.335c0.039-2.452,0.049-4.908-0.044-7.366
			c-0.104-2.777-0.35-5.546-0.604-8.313c-0.442-5.912-0.756-11.865-0.761-17.79c0-6.362-0.122-12.794,0.739-19.105
			c0.229-1.696-0.631-3.666-1.714-4.9c-1.207-1.383-2.944-2.223-4.759-2.302c-0.104-0.005-0.208-0.008-0.311-0.008
			C175.867,279,174.247,279.63,173.01,280.748"/>
		<path id="Fill-118" fill="#000000" d="M168.391,384.391c-2.128,0.229-4.247,0.703-6.355,1.082
			c-2.817,0.505-5.67,0.841-8.513,1.136c-1.198,0.258-2.255,0.777-3.176,1.56c-1.404,1.204-2.259,2.941-2.339,4.752
			c-0.086,1.753,0.558,3.497,1.766,4.807c1.127,1.22,3.154,2.394,4.926,2.264c2.772-0.209,5.53-0.466,8.272-0.917
			c2.891-0.476,5.766-1.098,8.678-1.467c0.783-0.029,1.551-0.016,2.335,0.043c0.282,0.076,0.564,0.155,0.847,0.242
			c3.638,1.128,7.648-0.825,8.835-4.34c1.178-3.5-0.86-7.404-4.503-8.525c-1.569-0.49-3.18-0.753-4.815-0.952
			c-0.456-0.053-0.922-0.074-1.391-0.074C171.431,384,169.86,384.235,168.391,384.391"/>
		<path id="Fill-120" fill="#000000" d="M239.035,273.579c-0.173,5.011,0.329,10.028,0.67,15.026
			c0.324,4.84,0.466,9.677,0.46,14.528c0,5.244-0.071,10.48,0.248,15.716c0.322,5.275,0.908,10.541,1.429,15.798
			c0.358,4.345,0.688,8.688,0.894,13.04c0.232,4.87,0.395,9.741,0.74,14.607c0.324,4.549,0.582,9.098,0.775,13.658
			c0.091,2.154,0.238,4.306,0.4,6.461c0.162,2.199,0.04,4.301-0.152,6.495c-0.319,3.684,3.011,6.92,6.746,7.084
			c1.83,0.079,3.65-0.544,5.018-1.713c1.491-1.269,2.146-2.899,2.363-4.758c0.151-1.284,0.304-2.56,0.359-3.849
			c0.051-1.221-0.04-2.467-0.111-3.688c-0.168-2.88-0.274-5.761-0.381-8.646c-0.213-5.625-0.755-11.226-0.997-16.85
			c-0.255-5.732-0.457-11.47-0.938-17.19c-0.52-6.122-1.122-12.237-1.696-18.353c-0.116-1.868-0.292-3.744-0.306-5.615
			c-0.021-2.103-0.016-4.209-0.011-6.316c0.005-3.684,0.035-7.372-0.035-11.055c-0.071-3.796-0.335-7.586-0.608-11.376
			c-0.295-4.121-0.67-8.253-0.526-12.388c0.125-3.747-2.904-7.017-6.849-7.191c-0.103-0.005-0.204-0.006-0.307-0.006
			C242.477,267,239.164,269.927,239.035,273.579"/>
		<path id="Fill-122" fill="#000000" d="M267.604,384.915c-5.056-0.186-10.107-0.373-15.166-0.583
			c-2.057-0.084-4.314,1.069-5.553,2.266c-1.422,1.37-2.093,3.219-1.832,5.058c0.254,1.784,1.354,3.48,3.05,4.676
			c0.636,0.345,1.279,0.695,1.921,1.041c1.394,0.55,2.844,0.787,4.351,0.711c5.052,0.265,10.11,0.433,15.168,0.618
			c2.063,0.075,4.318-1.064,5.57-2.273c1.424-1.376,2.093-3.224,1.828-5.074c-0.246-1.782-1.354-3.483-3.049-4.685
			c-0.643-0.345-1.29-0.691-1.934-1.041c-0.825-0.326-1.671-0.544-2.536-0.65C268.827,384.904,268.221,384.885,267.604,384.915"/>
		<path id="Fill-124" fill="#000000" d="M156.49,165.218c-11.024,3.128-21.701,7.271-32.521,11.018
			c-5.125,1.774-10.314,3.344-15.449,5.093c-5.586,1.898-11.019,4.168-16.55,6.227c0.489-0.18,0.979-0.354,1.468-0.532
			c-0.969,0.354-1.946,0.732-2.94,1.005c-0.281,0.032-0.56,0.086-0.841,0.161c-0.644,0.176-1.26,0.431-1.885,0.67
			c-1.077,0.56-1.955,1.349-2.629,2.363c-0.69,1.075-1.067,2.244-1.137,3.519c-0.109,2.488,1.116,4.707,3.102,6.126
			c2.431,1.734,5.258,1.155,7.853,0.391c1.92-0.565,3.836-1.311,5.7-2.014c2.848-1.076,5.683-2.184,8.531-3.256
			c5.025-1.671,10.096-3.205,15.095-4.945c5.768-2.01,11.514-4.072,17.257-6.148c2.692-0.95,5.384-1.906,8.08-2.856
			c3.225-1.144,6.563-2.068,9.857-3.003c1.797-0.515,3.31-1.409,4.361-3.014c1.036-1.578,1.399-3.553,0.997-5.4
			c-0.667-3.083-3.625-5.62-6.776-5.62C157.542,165,157.014,165.069,156.49,165.218"/>
		<path id="Fill-126" fill="#000000" d="M266.337,160.822c-1.189,3.679,0.887,7.491,4.437,8.757
			c1.482,0.533,2.965,1.071,4.462,1.561c1.363,0.444,2.776,0.737,4.169,1.057c3.094,0.708,6.103,1.76,9.182,2.522
			c3.331,0.821,6.683,1.52,10.004,2.377c3.099,0.803,6.143,1.805,9.271,2.492c3.504,0.773,7.015,1.506,10.524,2.248
			c3.321,0.707,6.628,1.48,9.959,2.123c3.773,0.728,7.575,1.342,11.373,1.904c2.724,0.409,5.466,0.679,8.189,1.087
			c0.728,0.171,1.435,0.386,2.122,0.712c1.18,0.379,2.38,0.439,3.589,0.18c1.741-0.384,3.292-1.45,4.274-2.945
			c2.021-3.086,1.22-7.571-1.953-9.57c-2.514-1.585-5.32-2.019-8.205-2.412c-1.869-0.255-3.742-0.459-5.612-0.703
			c-3.472-0.451-6.92-1.049-10.37-1.645c-4.809-0.945-9.585-2.053-14.388-3.04c-4.854-0.997-9.622-2.249-14.387-3.59
			c-4.671-1.311-9.479-2.068-14.129-3.483c-2.339-0.713-4.685-1.352-7.064-1.93c-2.301-0.563-4.512-1.365-6.737-2.162
			c-0.69-0.246-1.398-0.361-2.101-0.361C270.04,156,267.256,157.979,266.337,160.822"/>
		<path id="Fill-128" fill="#000000" d="M383.951,151.768c-3.552,2.407-7.2,4.653-10.791,6.996
			c-3.947,2.575-7.838,5.232-11.711,7.919c-2.766,1.812-5.562,3.527-8.413,5.191c-1.244,0.722-2.476,1.442-3.665,2.249
			c-0.769,0.527-1.538,1.058-2.362,1.489c-3.435,0.916-5.62,4.568-4.856,8.06c0.374,1.73,1.429,3.279,2.908,4.252
			c1.638,1.084,3.329,1.213,5.213,0.976c2.199-0.277,4.025-1.691,5.834-2.833c2.047-1.281,4.188-2.424,6.278-3.63
			c4.667-2.688,9.042-5.882,13.47-8.951c4.785-3.128,9.641-6.155,14.373-9.365c0.488-0.332,0.972-0.669,1.46-0.999
			c0.927-0.836,1.588-1.845,1.977-3.037c0.563-1.74,0.411-3.653-0.419-5.285c-0.828-1.633-2.282-2.879-4.019-3.447
			c-0.678-0.219-1.497-0.352-2.32-0.352C385.837,151,384.756,151.223,383.951,151.768"/>
		<path id="Fill-130" fill="#000000" d="M24.007,179.595c-0.079,1.782,0.553,3.558,1.731,4.886c1.305,1.473,2.927,2.052,4.82,2.301
			c0.748,0.099,1.492,0.212,2.234,0.335c4.466,0.953,8.779,2.468,13.142,3.812c4.39,1.348,8.74,2.846,13.192,3.987
			c4.928,1.268,9.881,2.396,14.854,3.474c5.56,1.208,11.015,2.805,16.66,3.574c1.732,0.233,3.744-0.654,5.003-1.783
			c1.408-1.252,2.264-3.063,2.35-4.95c0.084-1.825-0.563-3.647-1.778-5.015c-1.344-1.513-2.996-2.091-4.938-2.355
			c-0.557-0.078-1.112-0.158-1.668-0.243c-4.537-1.03-9.038-2.215-13.584-3.23c-4.853-1.083-9.696-2.226-14.48-3.618
			c-4.849-1.408-9.636-3.005-14.506-4.337c-2.22-0.608-4.42-1.268-6.646-1.856c-2.986-0.799-6.137-1.242-9.218-1.548
			c-0.188-0.018-0.374-0.026-0.558-0.026C27.129,173,24.164,176.183,24.007,179.595"/>
		<path id="Fill-132" fill="#000000" d="M302.392,42.516c-3.689,0.606-6.015,4.607-5.244,8.089c0.378,1.719,1.442,3.252,2.923,4.223
			l1.664,0.787c1.138,0.362,2.295,0.433,3.46,0.204c4.836-0.193,9.713-0.046,14.544,0.175c3.776,0.165,7.083-2.816,7.255-6.56
			c0.172-3.742-2.846-7.005-6.627-7.18c-2.738-0.125-5.476-0.194-8.217-0.237c-0.658-0.01-1.317-0.016-1.979-0.016
			C307.568,42,304.945,42.098,302.392,42.516"/>
		<path id="Fill-134" fill="#000000" d="M317.862,32.167c-1.867,0.414-3.535,1.567-4.59,3.178c-1.01,1.537-1.624,3.863-1.055,5.688
			c1.782,5.689,3.564,11.386,5.174,17.125c0.535,1.906,1.466,3.502,3.139,4.615c1.648,1.097,3.703,1.481,5.63,1.058
			c3.777-0.833,6.67-4.924,5.624-8.837c-1.535-5.763-3.341-11.451-5.125-17.139c-0.603-1.916-1.431-3.487-3.148-4.625
			c-1.215-0.806-2.649-1.23-4.092-1.23C318.896,32,318.375,32.055,317.862,32.167"/>
		<path id="Fill-136" fill="#000000" d="M100.292,47.117c-1.893,0.109-3.492,0.448-4.958,1.741
			c-1.394,1.228-2.242,2.997-2.326,4.841c-0.084,1.79,0.559,3.569,1.759,4.905c1.14,1.266,3.113,2.396,4.893,2.302
			c2.102-0.114,4.2-0.119,6.302-0.09c1.406,0.02,2.801,0.05,4.2,0.119c2.541,0.124,5.052,0.572,7.553,1.011
			c1.669,0.295,3.747-0.68,4.952-1.74c1.396-1.228,2.242-2.992,2.326-4.841c0.086-1.784-0.557-3.564-1.759-4.9
			c-0.452-0.389-0.912-0.779-1.364-1.167c-1.071-0.69-2.247-1.07-3.528-1.135c-2.182-0.385-4.364-0.754-6.576-0.957
			c-1.519-0.137-3.044-0.158-4.569-0.182C106.357,47.01,105.521,47,104.683,47C103.218,47,101.755,47.03,100.292,47.117"/>
		<path id="Fill-138" fill="#000000" d="M90.385,43.735c-0.133,5.3-0.276,10.6-0.383,15.899c-0.081,3.832,2.917,7.183,6.974,7.359
			c3.909,0.168,7.547-2.886,7.634-6.723c0.123-5.3,0.26-10.6,0.388-15.9c0.097-3.837-2.927-7.186-6.974-7.364
			C97.92,37.002,97.818,37,97.715,37C93.917,37,90.474,39.994,90.385,43.735"/>
		<path id="Fill-140" fill="#000000" d="M20.844,152.777c-1.39,1.249-2.233,3.045-2.317,4.921c-0.075,1.689,0.5,3.781,1.751,4.98
			c0.706,0.681,1.442,1.35,2.149,2.047c-0.408,0.86-0.847,1.708-1.227,2.554c-0.69,1.534-1.226,3.129-1.731,4.73
			c-0.477,1.509-0.869,3.044-1.151,4.604c-0.11,0.607-0.229,1.212-0.33,1.819c-1.781,0.338-3.591,0.56-5.376,0.835
			c-1.326,0.201-2.652,0.438-3.979,0.646c-0.448-0.119-0.911-0.193-1.379-0.214c-1.782-0.081-3.553,0.556-4.888,1.755
			c-1.453,1.305-2.08,2.974-2.297,4.881c-0.015,0.11-0.025,0.221-0.041,0.331c-0.193,1.73,0.621,3.672,1.742,4.945
			c1.295,1.476,2.943,2.098,4.833,2.323c2.307,0.281,4.823-0.412,7.121-0.788c1.755-0.285,3.517-0.566,5.274-0.843
			c1.801-0.29,3.558-0.597,5.299-1.163c2.45-0.798,4.292-2.047,5.771-4.203c1.042-1.525,1.185-3.491,1.364-5.283
			c0.051-0.518,0.113-1.032,0.182-1.549c0.732-3.32,1.834-6.524,3.223-9.627c0.372-0.821,0.763-1.64,1.151-2.457
			c0.977-2.066,1.291-4.274,0.75-6.526c-0.838-3.45-3.662-5.803-6.099-8.146c-1.399-1.339-2.883-2.247-4.867-2.342
			C25.67,151.003,25.57,151,25.47,151C23.775,151,22.109,151.636,20.844,152.777"/>
		<path id="Fill-142" fill="#000000" d="M387.185,133.725c-1.054,1.093-2.104,2.191-3.162,3.278
			c-1.217,1.257-2.57,2.554-3.485,4.045c-1.227,1.986-1.606,4.467-1.527,6.771c0.034,1.024,0.138,2.052,0.29,3.065
			c0.152,1.059,0.661,2.072,1.044,3.06c0.434,1.104,1.3,2.059,1.966,3.031c0.393,0.576,0.876,1.118,1.339,1.645
			c0.552,0.626,1.107,1.257,1.649,1.897c1.005,1.193,1.956,2.426,2.896,3.667c1.339,1.769,2.693,3.582,4.53,4.868
			c1.787,1.253,3.904,2.048,6.101,1.938c2.074-0.1,4.009-0.532,5.97-1.198c1.974-0.665,3.767-1.436,5.49-2.604
			c1.619-1.098,3.038-2.245,4.373-3.671c1.335-1.431,2.245-2.931,2.335-4.953c0.083-1.828-0.558-3.646-1.764-5.013
			c-1.246-1.411-3.038-2.27-4.909-2.36c-1.689-0.073-3.764,0.513-4.97,1.784c-0.762,0.803-1.552,1.539-2.401,2.235
			c-0.693,0.412-1.4,0.775-2.144,1.101c-0.287,0.09-0.573,0.172-0.863,0.25c-0.846-0.989-1.628-2.042-2.432-3.059
			c-1.546-1.958-3.358-3.692-4.895-5.656c-0.015-0.072-0.03-0.145-0.044-0.218c1.182-1.26,2.404-2.482,3.6-3.725
			c1.3-1.352,2.172-2.847,2.255-4.779c0.078-1.765-0.542-3.521-1.704-4.845c-1.201-1.36-2.935-2.19-4.741-2.275
			c-0.097-0.004-0.19-0.005-0.288-0.005C390.115,132,388.294,132.573,387.185,133.725"/>
		<path id="Fill-144" fill="#000000" d="M89.785,179.162c-1.842,0.394-3.49,1.489-4.526,3.029c-0.985,1.455-1.617,3.706-1.036,5.43
			c1.413,4.205,2.562,8.414,3.358,12.774c0.699,3.826,4.924,6.257,8.7,5.45c3.984-0.853,6.312-4.674,5.587-8.494
			c-0.827-4.35-2-8.56-3.413-12.759c-0.618-1.834-1.399-3.318-3.108-4.419c-1.193-0.771-2.602-1.174-4.02-1.174
			C90.812,179,90.293,179.054,89.785,179.162"/>
		<path id="Fill-146" fill="#000000" d="M343.364,164.786c-1.28,1.14-2.481,3.165-2.355,4.95c0.5,7.264,1.216,14.491,2.094,21.715
			c0.206,1.734,1.604,3.459,3.012,4.385c1.573,1.039,3.546,1.407,5.393,1.005c1.784-0.389,3.379-1.483,4.388-3.01
			c1.125-1.699,1.241-3.433,1.003-5.389c-0.459-3.853-0.882-7.704-1.28-11.562c-0.178-2.166-0.353-4.336-0.504-6.505
			c-0.051-0.61-0.101-1.214-0.152-1.824c-0.271-1.2-0.812-2.264-1.629-3.187c-1.256-1.412-3.062-2.272-4.953-2.358
			c-0.102-0.004-0.204-0.007-0.306-0.007C346.351,163,344.654,163.639,343.364,164.786"/>
		<path id="Fill-148" fill="#000000" d="M184.276,325c-5.636,0.059-11.24,0.232-16.741,1.544c-3.715,0.894-6.208,4.398-5.374,8.088
			c0.805,3.559,4.646,6.063,8.376,5.195c2.046-0.479,4.078-0.789,6.152-1.042c2.319-0.124,4.627-0.173,6.954-0.201
			c1.87-0.02,3.574-0.491,5.003-1.714c1.406-1.209,2.261-2.951,2.347-4.772c0.166-3.522-2.839-7.098-6.646-7.098H184.276z"/>
		<path id="Fill-150" fill="#000000" d="M249.005,324.011c-3.519,0.073-7.048,0.397-10.542,0.767
			c-1.701,0.18-3.412,1.533-4.318,2.852c-1.021,1.493-1.384,3.36-0.987,5.105c0.388,1.693,1.46,3.205,2.96,4.161
			c0.56,0.257,1.118,0.514,1.677,0.776c1.193,0.368,2.401,0.427,3.63,0.175c0.587-0.063,1.174-0.12,1.761-0.177
			c2.19-0.162,4.368-0.284,6.565-0.334c2.648-0.057,5.366,0.263,7.999,0.471c3.766,0.297,7.072-2.836,7.243-6.372
			c0.177-3.737-2.854-6.676-6.618-6.978c-2.772-0.224-5.56-0.457-8.346-0.457C249.687,324,249.347,324.004,249.005,324.011"/>
		<path id="Fill-152" fill="#000000" d="M190.614,50.849c-1.468,1.39-2.019,3.1-2.279,5.108c-0.196,1.527-0.395,3.053-0.617,4.574
			c-0.132,0.647-0.27,1.291-0.419,1.932c-0.446,1.933-0.456,3.749,0.408,5.56c0.817,1.714,2.257,3.028,3.971,3.621
			c1.714,0.599,3.6,0.437,5.204-0.436c1.51-0.822,2.974-2.435,3.391-4.241c0.789-3.413,1.24-6.877,1.691-10.352
			c0.227-1.79-0.636-3.87-1.725-5.173c-1.211-1.456-2.959-2.344-4.782-2.435c-0.102-0.005-0.203-0.008-0.304-0.008
			C193.49,49,191.857,49.664,190.614,50.849"/>
		<path id="Fill-154" fill="#000000" d="M222.319,53.088c-1.294,1.371-2.377,3.656-2.317,5.778c0.066,2.176,0.137,4.353,0.161,6.53
			c0.025,2.193,0.497,4.179,1.751,5.849c1.229,1.646,3.003,2.647,4.859,2.748c3.604,0.197,7.271-3.363,7.227-7.852
			c-0.021-2.177-0.092-4.354-0.152-6.53c-0.063-2.212-0.48-4.148-1.749-5.849c-1.234-1.651-3.01-2.653-4.859-2.753
			c-0.102-0.006-0.203-0.008-0.303-0.008C225.243,51,223.582,51.75,222.319,53.088"/>
		<path id="Fill-156" fill="#000000" d="M200.933,204.502c0.344,0.392,0.672,0.797,0.993,1.217c1.066,1.7,2.046,3.45,2.996,5.219
			c0.462,0.849,0.923,1.696,1.404,2.534c0.825,1.446,1.847,2.817,3.247,3.75c1.607,1.074,4,1.492,5.896,1.074
			c0.648-0.143,1.251-0.358,1.813-0.635c-1.489,1.549-2.995,3.081-4.509,4.606c-1.234,1.25-2.477,2.49-3.722,3.734
			c-0.327,0.326-0.653,0.654-0.979,0.981c-0.451,0.004-0.914,0.04-1.389,0.098c-0.092,0.012-0.184,0.024-0.273,0.036
			c-0.104,0-0.208-0.001-0.312-0.005c-0.532-0.334-1.031-0.7-1.523-1.094c-1.25-1.22-2.384-2.528-3.425-3.932
			c-0.56-0.945-1.049-1.905-1.491-2.914c-0.342-1.162-0.591-2.329-0.756-3.533c-0.112-2.653,0.045-5.301,0.387-7.936
			c0.143-0.63,0.307-1.244,0.517-1.858c0.174-0.278,0.355-0.547,0.546-0.813C200.543,204.85,200.736,204.674,200.933,204.502
			 M228.326,203.831l-0.224,0.26C228.176,204.003,228.251,203.916,228.326,203.831 M199.293,203.377
			c0.11,0.017,0.221,0.037,0.329,0.062C199.513,203.417,199.402,203.397,199.293,203.377 M202.971,203.086
			c-0.027,0.01-0.054,0.021-0.083,0.03C202.917,203.106,202.943,203.096,202.971,203.086 M229.08,202.977
			c-1.577,2.857-3.541,5.472-5.618,7.98c0.507-0.813,1-1.622,1.498-2.379c1.235-1.87,2.544-3.682,3.956-5.419
			C228.971,203.099,229.025,203.037,229.08,202.977 M234.942,198.463c-0.2,0.017-0.4,0.033-0.599,0.052
			C234.541,198.483,234.739,198.467,234.942,198.463 M229.949,196.078c0.157,0.196,0.294,0.4,0.418,0.614
			C230.229,196.487,230.089,196.282,229.949,196.078 M225.139,188.262c-3.887,2.796-6.84,6.606-9.693,10.422
			c-0.348,0.463-0.68,0.935-1.007,1.413c-0.813-1.35-1.677-2.666-2.612-3.948c-1.32-1.807-3.112-3.368-4.989-4.543
			c-2.521-1.577-5.559-2.094-8.438-1.461c-2.343,0.513-4.368,2.139-6.22,3.574c-2.292,1.771-4.07,4.292-5.201,6.957
			c-1.312,3.083-1.564,6.512-1.866,9.825c-0.224,2.414-0.086,4.885,0.178,7.284c0.263,2.47,0.869,4.89,1.832,7.184
			c1.961,4.648,5.138,8.569,8.914,11.821c1.966,1.691,4.126,3.047,6.637,3.745c0.517,0.144,1.03,0.243,1.543,0.304
			c0.352,0.384,0.752,0.729,1.197,1.026c1.52,1.014,3.415,1.371,5.191,0.979c1.792-0.397,3.153-1.461,4.221-2.932
			c0.229-0.316,0.439-0.632,0.659-0.943c3-3.111,6.092-6.138,9.124-9.218c1.688-1.712,3.314-3.498,4.968-5.246
			c1.856-1.963,3.599-4.04,5.331-6.104c2.085-2.484,4.007-5.165,5.579-8.006c1.613-2.907,2.775-5.999,3.267-9.297
			c0.208-1.437,0.304-2.802,0.213-4.247c-0.039-0.903-0.133-1.802-0.282-2.696c-0.189-1.26-0.765-2.476-1.262-3.635
			c-0.466-0.697-0.938-1.396-1.409-2.088c-0.591-0.608-1.216-1.175-1.877-1.701c-1.469-0.89-2.908-1.557-4.636-1.696
			c-0.281-0.023-0.562-0.035-0.838-0.035C230.504,185,227.69,186.429,225.139,188.262"/>
		<path id="Fill-158" fill="#000000" d="M216.269,105c-0.088,0.064-0.178,0.126-0.269,0.186
			C216.09,105.124,216.18,105.062,216.269,105 M189.984,105.008c2.899,8.366,2.899,7.061,8.445,10.426
			c1.002,0.416,1.949,0.791,2.991,1.107c1.865,0.557,3.97,0.812,5.909,1.069c2.827,0.374,5.64,0.549,8.498,0.2
			c2.124-0.262,4.107-0.812,6.037-1.599c1.636-0.662,3.107-1.769,4.379-2.838c2.946-2.472,5.44-5.313,6.604-8.366
			c1.706-4.475-0.864-6.369-3.99-8.087c-3.236-1.786-3.317,1.003-5.491,3.612c-1.692,2.039-3.541,2.149-5.39,4.092
			c-0.534,0.471-1.089,0.91-1.688,1.328c-0.087,0.037-1.172,0.075-1.259,0.111c-0.513,0.119-1.024,0.216-1.554,0.296
			c-1.749,0.028-4.448-0.11-6.178-0.316c-0.795-0.147-4.861-1.035-4.861-5.989c0-3.149-0.997-4.91-4.621-5.048
			C197.71,95.002,197.604,95,197.498,95c-1.688,0-3.347,0.527-4.614,1.467C191.438,97.545,189.444,103.45,189.984,105.008z"/>
	</g>
</g>
</svg>
