<?xml version="1.0" encoding="UTF-8"?>
<svg width="800px" height="1000px" viewBox="0 0 800 1000" version="1.1" xmlns="http://www.w3.org/2000/svg" xmlns:xlink="http://www.w3.org/1999/xlink">
    <!-- Generator: Sketch 51.1 (57501) - http://www.bohemiancoding.com/sketch -->
    <title>robot_0004_DL</title>
    <desc>Created with Sketch.</desc>
    <defs></defs>
    <g id="robot_0004_DL" stroke="none" stroke-width="1" fill="none" fill-rule="evenodd">
        <g id="logo-footer" transform="translate(441.000000, 722.000000)">
            <g>
                <path d="M110.812545,8.25651402 C110.904572,8.56348079 110.810146,8.81874549 110.573746,9.09365441 C110.548096,9.12348237 110.524607,9.14951827 110.482164,9.19539003 C110.410296,9.27306357 110.388406,9.29969141 110.394575,9.28699974 C110.158488,9.77253772 109.949286,10.3963755 109.78094,11.1092981 C109.323962,13.0450464 110.241419,14.6677006 112.137009,15.2172501 C114.194676,15.8138908 116.608374,14.6870388 117.500673,12.7424366 C118.556971,10.4412591 118.361229,8.87677042 116.832238,7.67717368 C114.960938,6.20902274 112.357851,6.27012948 111.072216,7.83985899 L110.795491,8.1777337 C110.794947,8.20051389 110.804056,8.228204 110.812545,8.25651402 Z M110.106083,6.26944954 C110.423589,5.88663707 110.955421,5.49967933 111.419965,5.30848582 C112.37958,4.91358991 113.68037,4.90617957 115.133698,5.23840657 C117.932917,5.87841333 120.108577,8.22064492 119.995807,10.6570534 C119.760531,15.7499925 113.426094,19.0246323 109.732148,15.5763745 C107.943744,13.9068501 107.553768,11.8021869 108.499361,9.2850154 C108.62423,8.95356867 108.851111,8.49010331 109.049811,8.18524994 C109.270059,7.84733807 109.481086,7.64146186 109.750777,7.55562368 C109.778602,7.54676715 109.806094,7.5393618 109.833231,7.53336632 C109.647627,7.16965375 109.747904,6.70130236 110.106083,6.26944954 Z" id="Fill-4" fill="#000000" fill-rule="nonzero"></path>
                <path d="M116,2.36382675 C116.035222,2.23410526 116.077249,2.03952302 116.14169,1.8509661 C116.280178,1.44230796 116.378641,1.03435869 116.377039,0.600890425 C116.376639,0.410561355 116.256963,0.110004457 116.623996,0.0412449782 C116.938196,-0.017590452 117.272408,-0.0501980398 117.512961,0.20711836 C117.655051,0.358460099 117.796741,0.518308165 117.8896,0.694814455 C118.216208,1.3175485 117.776729,2.53572545 117.114308,2.89086461 C116.612389,3.15987721 116.012808,2.911776 116,2.36382675" id="Fill-103" fill="#000000" fill-rule="nonzero"></path>
                <path d="M113.597281,1.30015424 C113.547641,1.6054057 113.484683,1.90995301 113.451993,2.21696486 C113.409214,2.61727733 113.068594,2.79366831 112.724342,2.93802021 C112.426905,3.06335991 112.146418,3.01090032 112.073774,2.6669203 C111.908307,1.88389925 112.059649,1.1040469 112.154086,0.329475719 C112.197269,-0.0278832593 112.773982,-0.106396611 113.167067,0.152380579 C113.512933,0.380527 113.619074,0.676272361 113.597281,1.30015424" id="Fill-107" fill="#000000" fill-rule="nonzero"></path>
                <path d="M112.19066,11.6823452 C110.632914,12.6206952 108.591708,13.9682577 107.051494,14.9237702 C106.603919,15.2015633 106.260092,15.3386205 105.847581,15.6483439 C105.453117,15.9444969 105.00264,16.1407116 104.673147,15.8744932 C104.334372,15.6006913 103.968388,15.4738054 104.253536,15.0032335 C104.507231,14.584149 104.804932,14.5525935 105.343775,14.3418539 C106.408054,13.9255633 108.032176,12.8044553 108.976827,12.2352987 C109.267132,12.0600815 109.780582,11.6912496 110.031699,11.4841022 C110.690685,10.9400907 110.546085,10.7856194 109.803565,10.2635599 C108.494872,9.34277154 106.87805,8.31351987 105.559045,7.40151231 C105.221301,7.16842154 104.87376,6.94291422 104.554064,6.69585398 C103.681603,6.022525 103.837029,5.29651112 105.037953,5.02270928 C105.314335,4.95964705 105.519044,5.02949445 105.664454,5.21269422 C106.875175,6.74015718 109.059218,7.93310366 110.770108,9.0590438 C111.354328,9.44340412 111.803432,9.85804585 112.62433,10.0292717 C113.067264,10.1214703 112.94712,10.4970498 112.994043,10.9392837 C113.057467,11.2214672 112.602656,11.4340876 112.19066,11.6823452 Z" id="chevron" fill="#000000" fill-rule="nonzero" transform="translate(108.500000, 10.500000) rotate(-2.000000) translate(-108.500000, -10.500000) "></path>
                <path d="M4.80555555,7.71270718 L2.78703703,7.71270718 L2.78703703,12.9005525 L2.01851852,12.9005525 L2.01851852,7.71270718 L0,7.71270718 L0,7.09944751 L4.80555555,7.09944751 L4.80555555,7.71270718 Z M9.97657951,10.2403315 L6.8654684,10.2403315 L6.8654684,12.9005525 L6.09694989,12.9005525 L6.09694989,7.09944751 L6.8654684,7.09944751 L6.8654684,9.62707182 L9.97657951,9.62707182 L9.97657951,7.09944751 L10.745098,7.09944751 L10.745098,12.9005525 L9.97657951,12.9005525 L9.97657951,10.2403315 Z M12.6568627,7.09944751 L16.1846405,7.09944751 L16.1846405,7.71270718 L13.4253813,7.71270718 L13.4253813,9.61049724 L15.953159,9.61049724 L15.953159,10.2237569 L13.4253813,10.2237569 L13.4253813,12.2872928 L16.2309368,12.2872928 L16.2309368,12.9005525 L12.6568627,12.9005525 L12.6568627,7.09944751 Z M20.7674291,7.09944751 C20.8847137,7.08287284 21.0158852,7.07044203 21.1609477,7.0621547 C21.3060102,7.05386736 21.4572432,7.04834254 21.6146514,7.04558011 C21.7720596,7.04281768 21.926379,7.04005525 22.0776143,7.03729282 C22.2288497,7.03453039 22.3692805,7.03314917 22.4989106,7.03314917 C23.0174317,7.03314917 23.4665011,7.10497164 23.8461328,7.24861878 C24.2257645,7.39226593 24.539033,7.59254015 24.7859476,7.84944751 C25.0328623,8.10635488 25.2165027,8.41436285 25.3368736,8.77348066 C25.4572445,9.13259848 25.5174291,9.52762215 25.5174291,9.95856354 C25.5174291,10.3508307 25.4603309,10.7278988 25.3461328,11.089779 C25.2319348,11.4516593 25.0513808,11.7720981 24.8044662,12.051105 C24.5575516,12.3301119 24.236567,12.5538666 23.8415032,12.7223757 C23.4464394,12.8908848 22.9680495,12.9751381 22.406318,12.9751381 C22.3075521,12.9751381 22.179467,12.9737569 22.0220588,12.9709945 C21.8646506,12.968232 21.7026152,12.9627072 21.5359477,12.9544199 C21.3692802,12.9461326 21.2149607,12.9392266 21.0729847,12.9337017 C20.9310087,12.9281767 20.8291578,12.9198895 20.7674291,12.9088398 L20.7674291,7.09944751 Z M22.5174291,7.64640884 L22.2535402,7.64640884 C22.1578608,7.64640884 22.0637259,7.64917122 21.9711328,7.65469613 C21.8785398,7.66022104 21.7936641,7.66574581 21.7165032,7.67127072 C21.6393424,7.67679563 21.5791578,7.6823204 21.5359477,7.6878453 L21.5359477,12.3287293 C21.566812,12.3342542 21.6254534,12.3383978 21.7118736,12.3411602 C21.7982938,12.3439227 21.887799,12.3466851 21.9803921,12.3494475 C22.0729851,12.3522099 22.1624904,12.3549724 22.2489106,12.3577348 C22.3353309,12.3604972 22.3939723,12.3618785 22.4248365,12.3618785 C22.8569374,12.3618785 23.2195881,12.2955808 23.5127995,12.1629834 C23.8060109,12.0303861 24.0405762,11.852211 24.2165032,11.628453 C24.3924302,11.404695 24.5174286,11.1477915 24.5915032,10.8577348 C24.6655778,10.5676781 24.7026143,10.2679574 24.7026143,9.95856354 C24.7026143,9.68784397 24.6686642,9.41574724 24.6007625,9.14226519 C24.5328607,8.86878315 24.4155783,8.62154807 24.2489106,8.40055249 C24.0822429,8.17955691 23.8584801,7.99861948 23.5776143,7.85773481 C23.2967486,7.71685014 22.9433571,7.64640884 22.5174291,7.64640884 Z M26.892157,10 C26.892157,9.03314434 27.1205495,8.29143904 27.5773422,7.77486188 C28.0341344,7.25828471 28.6853622,7 29.5310459,7 C29.9878381,7 30.3828957,7.07182247 30.7162311,7.21546961 C31.0495659,7.35911676 31.3257979,7.56215336 31.5449348,7.82458564 C31.7640716,8.08701791 31.9261071,8.40193186 32.0310459,8.76933702 C32.1359847,9.13674217 32.1884533,9.54695907 32.1884533,10 C32.1884533,10.9668557 31.9585171,11.708561 31.4986385,12.2251381 C31.0387594,12.7417153 30.3829019,13 29.5310459,13 C29.080426,13 28.6899981,12.9281775 28.3597496,12.7845304 C28.0295006,12.6408832 27.7548124,12.4378466 27.5356755,12.1754144 C27.3165387,11.9129821 27.1545032,11.5980681 27.0495644,11.230663 C26.9446256,10.8632578 26.892157,10.4530409 26.892157,10 Z M27.7069718,10 C27.7069718,10.3204436 27.7424651,10.624308 27.8134533,10.9116022 C27.884441,11.1988965 27.9940078,11.4516564 28.142157,11.6698895 C28.2903057,11.8881227 28.4801184,12.0621541 28.7116014,12.191989 C28.943084,12.3218238 29.2162295,12.3867403 29.5310459,12.3867403 C30.1051225,12.3867403 30.5557352,12.1919909 30.8828977,11.8024862 C31.2100598,11.4129815 31.3736385,10.8121587 31.3736385,10 C31.3736385,9.68508131 31.3381447,9.38259816 31.267157,9.09254144 C31.1961688,8.80248476 31.0850587,8.54834365 30.9338237,8.3301105 C30.7825881,8.11187735 30.5912321,7.93784595 30.3597496,7.80801105 C30.1282666,7.67817615 29.8520351,7.61325967 29.5310459,7.61325967 C28.9631416,7.61325967 28.5171585,7.80800912 28.1930829,8.19751381 C27.8690068,8.58701851 27.7069718,9.18784125 27.7069718,10 Z M33.5631807,10 C33.5631807,9.03314434 33.7915737,8.29143904 34.2483658,7.77486188 C34.7051585,7.25828471 35.3563864,7 36.2020695,7 C36.6588622,7 37.0539198,7.07182247 37.3872547,7.21546961 C37.7205896,7.35911676 37.9968216,7.56215336 38.2159584,7.82458564 C38.4350953,8.08701791 38.5971308,8.40193186 38.7020695,8.76933702 C38.8070083,9.13674217 38.8594769,9.54695907 38.8594769,10 C38.8594769,10.9668557 38.6295412,11.708561 38.1696621,12.2251381 C37.7097835,12.7417153 37.053926,13 36.2020695,13 C35.7514502,13 35.3610217,12.9281775 35.0307732,12.7845304 C34.7005248,12.6408832 34.425836,12.4378466 34.2066992,12.1754144 C33.9875623,11.9129821 33.8255268,11.5980681 33.7205881,11.230663 C33.6156493,10.8632578 33.5631807,10.4530409 33.5631807,10 Z M34.3779955,10 C34.3779955,10.3204436 34.4134893,10.624308 34.484477,10.9116022 C34.5554651,11.1988965 34.665032,11.4516564 34.8131807,11.6698895 C34.9613298,11.8881227 35.1511426,12.0621541 35.3826251,12.191989 C35.6141076,12.3218238 35.8872532,12.3867403 36.2020695,12.3867403 C36.7761467,12.3867403 37.2267594,12.1919909 37.5539214,11.8024862 C37.8810834,11.4129815 38.0446621,10.8121587 38.0446621,10 C38.0446621,9.68508131 38.0091688,9.38259816 37.9381806,9.09254144 C37.867193,8.80248476 37.7560829,8.54834365 37.6048473,8.3301105 C37.4536122,8.11187735 37.2622558,7.93784595 37.0307732,7.80801105 C36.7992907,7.67817615 36.5230587,7.61325967 36.2020695,7.61325967 C35.6341657,7.61325967 35.1881822,7.80800912 34.8641066,8.19751381 C34.540031,8.58701851 34.3779955,9.18784125 34.3779955,10 Z M40.5027233,7.09944751 C40.6200078,7.08287284 40.7511791,7.07044203 40.8962419,7.0621547 C41.0413041,7.05386736 41.1925371,7.04834254 41.3499456,7.04558011 C41.5073535,7.04281768 41.6616729,7.04005525 41.8129085,7.03729282 C41.9641436,7.03453039 42.1045747,7.03314917 42.2342048,7.03314917 C42.7527259,7.03314917 43.2017954,7.10497164 43.581427,7.24861878 C43.9610587,7.39226593 44.2743267,7.59254015 44.5212419,7.84944751 C44.7681565,8.10635488 44.9517969,8.41436285 45.0721678,8.77348066 C45.1925387,9.13259848 45.2527233,9.52762215 45.2527233,9.95856354 C45.2527233,10.3508307 45.1956251,10.7278988 45.081427,11.089779 C44.967229,11.4516593 44.786675,11.7720981 44.5397604,12.051105 C44.2928452,12.3301119 43.9718612,12.5538666 43.5767974,12.7223757 C43.1817336,12.8908848 42.7033432,12.9751381 42.1416122,12.9751381 C42.0428463,12.9751381 41.9147609,12.9737569 41.757353,12.9709945 C41.5999445,12.968232 41.437909,12.9627072 41.2712419,12.9544199 C41.1045742,12.9461326 40.9502547,12.9392266 40.8082789,12.9337017 C40.6663026,12.9281767 40.5644517,12.9198895 40.5027233,12.9088398 L40.5027233,7.09944751 Z M42.2527233,7.64640884 L41.9888344,7.64640884 C41.8931549,7.64640884 41.7990201,7.64917122 41.706427,7.65469613 C41.6138339,7.66022104 41.5289584,7.66574581 41.4517974,7.67127072 C41.3746364,7.67679563 41.3144517,7.6823204 41.2712419,7.6878453 L41.2712419,12.3287293 C41.3021061,12.3342542 41.3607475,12.3383978 41.4471678,12.3411602 C41.533588,12.3439227 41.6230932,12.3466851 41.7156863,12.3494475 C41.8082794,12.3522099 41.8977846,12.3549724 41.9842048,12.3577348 C42.0706251,12.3604972 42.1292665,12.3618785 42.1601307,12.3618785 C42.5922316,12.3618785 42.9548823,12.2955808 43.2480937,12.1629834 C43.5413051,12.0303861 43.7758705,11.852211 43.9517974,11.628453 C44.1277244,11.404695 44.2527228,11.1477915 44.3267974,10.8577348 C44.400872,10.5676781 44.4379085,10.2679574 44.4379085,9.95856354 C44.4379085,9.68784397 44.4039584,9.41574724 44.3360567,9.14226519 C44.2681549,8.86878315 44.150872,8.62154807 43.9842048,8.40055249 C43.8175371,8.17955691 43.5937743,7.99861948 43.3129085,7.85773481 C43.0320428,7.71685014 42.6786513,7.64640884 42.2527233,7.64640884 Z M50.7293025,12.9005525 L46.8959692,12.9005525 L46.8959692,7.09944751 L47.6644877,7.09944751 L47.6644877,12.2872928 L50.7293025,12.2872928 L50.7293025,12.9005525 Z M52.0206971,7.09944751 L55.5484749,7.09944751 L55.5484749,7.71270718 L52.7892156,7.71270718 L52.7892156,9.61049724 L55.3169934,9.61049724 L55.3169934,10.2237569 L52.7892156,10.2237569 L52.7892156,12.2872928 L55.5947712,12.2872928 L55.5947712,12.9005525 L52.0206971,12.9005525 L52.0206971,7.09944751 Z M63.9645968,12.9005525 L60.1312634,12.9005525 L60.1312634,7.09944751 L60.8997819,7.09944751 L60.8997819,12.2872928 L63.9645968,12.2872928 L63.9645968,12.9005525 Z M65.4319172,7.09944751 L66.2004357,7.09944751 L66.2004357,12.9005525 L65.4319172,12.9005525 L65.4319172,7.09944751 Z M72.1955335,8.42541436 C72.1955335,8.5635366 72.1708426,8.70441915 72.1214594,8.8480663 C72.0720767,8.99171344 71.9980031,9.12569001 71.8992372,9.25 C71.8004712,9.37431004 71.6739296,9.48342495 71.5196075,9.57734807 C71.365286,9.67127118 71.1831888,9.74309369 70.9733113,9.79281768 L70.9733113,9.82596685 C71.1584975,9.8535913 71.3359651,9.90055216 71.5057187,9.96685083 C71.6754728,10.0331495 71.8251626,10.1243088 71.9547927,10.2403315 C72.0844234,10.3563542 72.1893606,10.4972367 72.2696075,10.6629834 C72.349855,10.8287301 72.3899779,11.0248607 72.3899779,11.2513812 C72.3899779,11.5497252 72.3205345,11.8080099 72.1816446,12.0262431 C72.0427552,12.2444762 71.8606585,12.4226512 71.6353483,12.5607735 C71.4100386,12.6988957 71.1523251,12.8011047 70.8622001,12.8674033 C70.5720757,12.933702 70.2757819,12.9668508 69.9733113,12.9668508 L69.6029409,12.9668508 C69.4609651,12.9668508 69.3128185,12.9627072 69.1584964,12.9544199 C69.0041749,12.9461326 68.8498555,12.935083 68.6955335,12.9212707 C68.541212,12.9074585 68.4054111,12.8867405 68.2881261,12.859116 L68.2881261,7.14917127 C68.5165227,7.11602192 68.7819517,7.08839788 69.0844224,7.06629834 C69.386893,7.0441988 69.7171369,7.03314917 70.0751631,7.03314917 C70.3159054,7.03314917 70.5612732,7.05110479 70.8112742,7.08701657 C71.0612758,7.12292836 71.288125,7.19198844 71.4918298,7.2941989 C71.6955345,7.39640935 71.8637428,7.53867311 71.9964594,7.72099448 C72.1291765,7.90331584 72.1955335,8.13812012 72.1955335,8.42541436 Z M70.0473853,12.3701657 C70.2449172,12.3701657 70.4362737,12.3494477 70.6214594,12.308011 C70.8066456,12.2665744 70.9702243,12.2002767 71.1122001,12.109116 C71.2541765,12.0179553 71.3668298,11.906078 71.4501631,11.7734807 C71.533497,11.6408833 71.5751631,11.4834263 71.5751631,11.301105 C71.5751631,11.0745845 71.5242377,10.8922659 71.4223853,10.7541436 C71.320533,10.6160214 71.1878185,10.5082877 71.0242372,10.4309392 C70.8606564,10.3535908 70.677016,10.3011051 70.4733113,10.2734807 C70.2696065,10.2458562 70.0659049,10.2320442 69.8622001,10.2320442 L69.0566446,10.2320442 L69.0566446,12.3121547 C69.099855,12.3232045 69.1615829,12.3314917 69.2418298,12.3370166 C69.3220772,12.3425415 69.4084964,12.3480663 69.501089,12.3535912 C69.5936821,12.3591161 69.6893601,12.3632597 69.7881261,12.3660221 C69.886892,12.3687845 69.9733113,12.3701657 70.0473853,12.3701657 Z M69.5381261,9.6519337 C69.6430649,9.6519337 69.769607,9.64917132 69.9177557,9.64364641 C70.0659049,9.6381215 70.1893601,9.6298343 70.2881261,9.61878453 C70.4362752,9.57458541 70.5751626,9.52071855 70.7047927,9.45718232 C70.8344234,9.39364609 70.9501626,9.31906119 71.052015,9.23342541 C71.1538673,9.14778964 71.2341137,9.04834309 71.2927557,8.93508287 C71.3513982,8.82182265 71.3807187,8.69889567 71.3807187,8.56629834 C71.3807187,8.38397698 71.3421389,8.23342601 71.2649779,8.11464088 C71.1878174,7.99585576 71.0844234,7.90055285 70.9547927,7.82872928 C70.8251626,7.75690571 70.677016,7.70580124 70.5103483,7.67541436 C70.3436811,7.64502749 70.1739296,7.62983425 70.001089,7.62983425 C69.7973843,7.62983425 69.610658,7.63397785 69.4409038,7.64226519 C69.2711502,7.65055253 69.1430649,7.66298333 69.0566446,7.67955801 L69.0566446,9.6519337 L69.5381261,9.6519337 Z M74.0332243,7.15745856 C74.2677932,7.11878435 74.5378524,7.08839788 74.8434095,7.06629834 C75.1489666,7.0441988 75.428285,7.03314917 75.6813725,7.03314917 C75.9653246,7.03314917 76.2353838,7.0607732 76.4915576,7.1160221 C76.747732,7.17127099 76.9730381,7.26243029 77.1674836,7.38950276 C77.361929,7.51657523 77.5177917,7.68231943 77.6350762,7.88674033 C77.7523606,8.09116123 77.8110021,8.33977753 77.8110021,8.63259669 C77.8110021,9.08563762 77.6721147,9.45303725 77.3943354,9.73480663 C77.1165561,10.016576 76.7647078,10.2044194 76.3387799,10.2983425 L76.7832243,10.6049724 L78.3943354,12.9005525 L77.4961873,12.9005525 L75.7091502,10.3977901 L74.8017428,10.2734807 L74.8017428,12.9005525 L74.0332243,12.9005525 L74.0332243,7.15745856 Z M75.699891,7.62983425 L75.449891,7.62983425 C75.3634707,7.62983425 75.2801384,7.63259664 75.199891,7.63812155 C75.1196436,7.64364645 75.0440273,7.64917122 74.9730391,7.65469613 C74.902051,7.66022104 74.8449527,7.66850824 74.8017428,7.67955801 L74.8017428,9.81767956 L75.5239651,9.81767956 C75.949893,9.81767956 76.3017413,9.72375783 76.5795206,9.5359116 C76.8572999,9.34806538 76.9961873,9.0552506 76.9961873,8.65745856 C76.9961873,8.35911455 76.8819908,8.11326064 76.6535947,7.9198895 C76.4251986,7.72651837 76.1073004,7.62983425 75.699891,7.62983425 Z M82.722767,11.2928177 L80.3338781,11.2928177 L79.68573,12.9005525 L78.9264707,12.9005525 L81.3801744,7.00828729 L81.7320263,7.00828729 L84.1949892,12.9005525 L83.3894337,12.9005525 L82.722767,11.2928177 Z M80.5838781,10.6961326 L82.4912855,10.6961326 L81.7690633,8.93093923 L81.5375818,8.05248619 L81.5283226,8.05248619 L81.2968411,8.94751381 L80.5838781,10.6961326 Z M85.3937907,7.15745856 C85.6283596,7.11878435 85.8984187,7.08839788 86.2039758,7.06629834 C86.5095329,7.0441988 86.7888514,7.03314917 87.0419388,7.03314917 C87.325891,7.03314917 87.5959501,7.0607732 87.852124,7.1160221 C88.1082984,7.17127099 88.3336044,7.26243029 88.5280499,7.38950276 C88.7224954,7.51657523 88.878358,7.68231943 88.9956425,7.88674033 C89.112927,8.09116123 89.1715684,8.33977753 89.1715684,8.63259669 C89.1715684,9.08563762 89.0326811,9.45303725 88.7549018,9.73480663 C88.477123,10.016576 88.1252742,10.2044194 87.6993462,10.2983425 L88.1437906,10.6049724 L89.7549018,12.9005525 L88.8567536,12.9005525 L87.0697166,10.3977901 L86.1623092,10.2734807 L86.1623092,12.9005525 L85.3937907,12.9005525 L85.3937907,7.15745856 Z M87.0604573,7.62983425 L86.8104573,7.62983425 C86.7240371,7.62983425 86.6407047,7.63259664 86.5604573,7.63812155 C86.4802099,7.64364645 86.4045936,7.64917122 86.3336055,7.65469613 C86.2626178,7.66022104 86.2055196,7.66850824 86.1623092,7.67955801 L86.1623092,9.81767956 L86.8845314,9.81767956 C87.3104594,9.81767956 87.6623081,9.72375783 87.9400869,9.5359116 C88.2178663,9.34806538 88.3567536,9.0552506 88.3567536,8.65745856 C88.3567536,8.35911455 88.2425571,8.11326064 88.014161,7.9198895 C87.7857649,7.72651837 87.4678668,7.62983425 87.0604573,7.62983425 Z M92.1111111,10.5966851 L89.9722222,7.09944751 L90.8703704,7.09944751 L92.3888889,9.63535912 L92.5462963,10.140884 L92.5555556,10.140884 L92.7222222,9.61878453 L94.1759259,7.09944751 L95,7.09944751 L92.8796296,10.5883978 L92.8796296,12.9005525 L92.1111111,12.9005525 L92.1111111,10.5966851 Z" id="the-Doodle-Library" fill="#666666" fill-rule="nonzero" opacity="0.595278533"></path>
            </g>
        </g>
        <g id="roobot_0004" transform="translate(192.000000, 275.000000)">
            <rect id="Rectangle" fill="#FFFFFF" x="127" y="8" width="171" height="119"></rect>
            <rect id="Rectangle-2" fill="#FFFFFF" x="165" y="164" width="101" height="107"></rect>
            <path d="M148.494096,0.610540629 C145.762252,0.971086227 143.012585,1.20098115 140.269284,1.4735888 C137.89515,1.59670193 135.524836,1.49997019 133.148157,1.62182706 C131.253942,1.71479004 129.33936,1.86177204 127.474424,2.24493026 C125.898458,2.57281319 124.346678,2.93210253 122.755436,3.19214761 C118.818067,3.83409465 116.335729,8.09908526 117.15681,11.7987605 C117.564168,13.6291261 118.698405,15.2635157 120.279463,16.293646 C121.990367,17.4029204 123.899857,17.6441217 125.87809,17.3250325 C128.278956,16.930568 130.621264,16.3099773 133.028495,15.999682 C134.408421,15.9293316 135.789619,15.9155128 137.175909,15.911744 C139.473663,15.906719 141.761232,15.6604928 144.04371,15.4305978 C146.037218,15.2245718 148.026908,15.0574897 150.015324,14.8313635 C151.471629,14.6680502 152.916476,14.4620241 154.368962,14.294942 C157.547628,14.2258479 160.719928,14.3451923 163.899866,14.4243364 C167.002152,14.5034806 170.10953,14.4984556 173.213088,14.6743315 C176.405757,14.8564886 179.622612,15.1856278 182.820372,15.1655277 C186.037227,15.1504526 189.245171,14.9883956 192.462027,14.9343765 C195.84819,14.8753325 199.234353,14.9645267 202.621789,15.0474396 C206.007953,15.1366338 209.399208,15.0185457 212.785371,15.1994466 C216.042962,15.3816038 219.284004,15.906719 222.526319,16.249677 C225.72408,16.5888663 228.932024,16.8338363 232.123419,17.2220195 C238.856283,18.0310487 245.609515,19.1064042 252.407301,18.8652029 C255.316092,18.7621899 258.224882,18.5071698 261.128581,18.3400877 C263.770043,18.1880807 266.394956,18.2961188 269.031326,18.4380757 C271.646055,18.581289 274.256965,18.8061589 276.867876,18.978266 C279.268742,19.1403231 281.681065,19.1893171 284.088296,19.2584112 C286.65847,19.3312741 289.224826,19.4393121 291.789908,19.5913192 C294.032923,19.7194573 296.28103,19.9744774 298.527864,19.9996025 C302.421952,20.0385464 305.808115,17.2119695 305.992699,13.271093 C306.170918,9.41438575 303.06354,6.10666255 299.174545,5.90566152 C296.216107,5.75365449 293.262762,5.48355935 290.303051,5.34160238 C287.026365,5.18959535 283.744588,5.16447022 280.472994,5.01246319 C277.021908,4.85543113 273.586098,4.55141708 270.140104,4.37930994 C268.369369,4.28634697 266.613911,4.18835897 264.839358,4.21222784 C262.914591,4.23735297 261.015285,4.34036599 259.09561,4.46222287 C257.494184,4.56146713 255.892758,4.683324 254.291332,4.79638708 C250.91026,5.03633206 247.549557,4.92452524 244.177397,4.59036103 C240.671572,4.24237799 237.170839,3.82027583 233.670106,3.41199249 C230.513082,3.04390935 227.344601,2.79893934 224.182484,2.47482518 C222.497041,2.29894928 220.816689,2.12181712 219.135064,1.92081609 C217.524727,1.72484009 215.897841,1.46982003 214.27732,1.38062583 C211.050281,1.20474992 207.837245,1.25876895 204.615298,1.18464982 C201.48246,1.11555572 198.359806,1.00249264 195.226969,0.953498637 C192.213793,0.909529661 189.190433,1.05651166 186.181076,1.12560577 C183.088974,1.1997249 180.000691,0.963548688 176.922592,0.738678786 C171.024812,0.301501545 165.087569,0.168338363 159.180879,0.0213563595 C158.62458,0.00753753863 158.068282,0 157.51453,0 C154.492443,0 151.498361,0.212307338 148.494096,0.610540629" id="Fill-100" fill="#2C2C2C"></path>
            <path d="M291.604721,14.6067695 C291.42551,21.2722431 290.885405,27.9224026 290.576421,34.5763906 C290.282268,41.0376759 290.330469,47.5078944 290.204404,53.9691797 C290.069687,60.8184228 289.986879,67.667666 290.00171,74.5169091 C290.016541,81.1670686 290.475074,87.7878761 290.807541,94.4278261 C291.083155,99.9511212 291.324163,105.469311 291.324163,111.002816 C291.329107,113.544961 291.324163,116.083277 291.280905,118.625422 C291.247535,120.968484 290.918776,123.261774 290.75934,125.594626 C290.503501,129.442301 293.641545,132.817789 297.306098,132.992626 C301.130088,133.17129 304.176672,130.080389 304.470825,126.232715 C304.572172,124.856996 304.784753,123.49021 304.857674,122.109386 C304.934302,120.659649 304.954077,119.21374 304.963964,117.762727 C304.982503,114.3732 304.968908,110.987502 304.915763,107.597975 C304.809472,101.077986 304.316333,94.5822436 303.983866,88.0762921 C303.288034,74.3778058 303.606905,60.6691101 303.71814,46.9604144 C303.756454,41.636203 303.906002,36.3222011 304.191504,31.0081991 C304.475769,25.7529013 304.85273,20.493775 304.997335,15.2346487 C305.098682,11.4660973 302.298048,8.18121717 298.605068,8.00638089 C298.508665,8.00255235 298.411026,8 298.314623,8 C294.826809,8 291.708539,10.9390361 291.604721,14.6067695" id="Fill-102" fill="#2C2C2C"></path>
            <path d="M120.270352,11.7087876 C119.004007,12.8262682 117.938423,14.6972501 118.00277,16.4277487 C118.260157,23.2871643 118.234419,30.1516883 118.239566,37.0162123 C118.249862,43.6214808 118.310348,50.2318578 118.350243,56.8371263 C118.369547,60.2840752 118.339947,63.7361326 118.480224,67.1843586 C118.616639,70.5508489 118.801958,73.9186163 118.97312,77.2863837 C119.330889,84.26968 119.550955,91.2440364 119.656483,98.2337183 C119.722117,102.628291 119.677074,107.02414 119.868828,111.418713 C120.055434,115.757092 120.589512,120.053326 121.027071,124.366163 C121.142895,125.878274 121.248424,127.392939 121.335935,128.910159 C121.436316,130.745381 121.783789,132.3073 123.06043,133.728735 C124.276585,135.081206 126.026819,135.90878 127.856842,135.99307 C129.62638,136.073529 131.39077,135.450294 132.712453,134.283006 C133.96979,133.169356 135.090712,131.253675 134.994192,129.518068 C134.731657,124.633081 134.120362,119.795348 133.66736,114.929518 C133.23881,108.236128 133.303157,101.52869 133.195055,94.8263601 C133.084378,88.2415255 132.767792,81.6605223 132.41131,75.0859047 C132.023942,67.9225344 131.9789,60.7629955 131.928709,53.5894083 C131.882379,47.1488883 131.863075,40.7083684 131.827041,34.2678485 C131.802589,28.5208051 131.776851,22.7788702 131.560645,17.0369353 C131.491151,15.2259781 131.093487,13.6500111 129.846446,12.2579495 C128.640587,10.9105871 126.900649,10.0919527 125.086068,10.0076627 C124.985687,10.0025542 124.885306,10 124.783638,10 C123.132499,10 121.507098,10.613018 120.270352,11.7087876" id="Fill-104" fill="#2C2C2C"></path>
            <path d="M275.100656,120.364877 C271.147856,120.637104 267.191235,120.741998 263.235887,121.002986 C258.344249,121.330157 253.507388,121.934549 248.65524,122.612617 C244.186525,123.236989 239.728001,123.910062 235.274572,124.631836 C231.168908,125.302412 227.087448,126.036673 222.946116,126.455003 C220.260811,126.623583 217.578053,126.598608 214.883831,126.44751 C211.858404,126.276432 208.846989,125.88058 205.816467,125.695766 C199.765613,125.329884 193.73514,125.700761 187.679191,125.846864 C181.503498,125.997962 175.334175,126.164045 169.158482,126.251457 C163.306351,126.335123 157.440207,126.090369 151.593171,125.987972 C148.667105,125.934276 145.74104,125.915545 142.814974,125.831879 C139.506749,125.734477 136.207442,125.544668 132.903038,125.40356 C129.310742,125.242472 126.170667,128.052146 126.006339,131.573605 C125.847106,135.066342 128.708204,138.211929 132.305596,138.334306 C138.178109,138.52911 144.044253,138.715173 149.916766,138.876261 C155.8224,139.032354 161.724212,139.403231 167.631119,139.441942 C173.695986,139.485648 179.762126,139.290844 185.823171,139.06607 C191.908419,138.836301 197.979655,138.500389 204.064904,138.763874 C208.424066,138.948688 212.738644,139.720412 217.092711,139.933947 C222.208549,140.192437 227.304005,139.666716 232.339589,138.802585 C241.501219,137.237909 250.692148,135.88427 259.931484,134.877782 C263.669001,134.596815 267.410339,134.433229 271.156773,134.265897 C275.960515,134.053611 280.743874,133.469199 285.527233,132.998422 C288.933546,132.721201 292.324572,132.485188 295.753814,132.661261 C299.52063,132.856065 302.819937,129.856582 302.993183,126.17903 C303.162607,122.456524 300.152466,119.275972 296.375459,119.081168 C295.296496,119.024975 294.214986,119 293.133475,119 C287.115742,119 281.080174,119.782963 275.100656,120.364877" id="Fill-106" fill="#2C2C2C"></path>
            <path d="M188.070933,175.940383 C187.718273,175.972578 187.361807,176.003485 187.007878,176.034392 C187.361807,176.002197 187.717004,175.97129 188.070933,175.940383 M247.945811,156.16999 C241.370852,156.327103 234.784476,156.330966 228.214591,156.573074 C221.082733,156.834498 214.006692,157.715357 206.990273,158.982558 C203.853118,159.55048 200.727381,160.180217 197.575003,160.673447 C194.453071,161.160237 191.296888,161.497642 188.159733,161.869818 C185.486872,162.185331 182.798788,162.441604 180.115778,162.694014 C175.132865,163.071341 170.122044,163.064902 165.122639,163.041721 C161.410825,163.027555 158.181066,165.764142 158.007272,169.646876 C157.833479,173.425298 160.796841,176.684734 164.508655,176.876617 C168.140549,177.05691 171.767369,177.016988 175.400532,176.901086 C179.197339,176.783895 182.967507,176.400129 186.744017,176.057573 C193.274576,175.51927 199.77469,174.70924 206.222793,173.520596 C209.462701,172.921766 212.703878,172.308771 215.95901,171.770468 C218.583665,171.33519 221.242572,171.073765 223.895136,170.831658 C231.157656,170.342291 238.446816,170.353882 245.720753,170.124652 C249.263847,170.013901 252.806942,169.87353 256.350037,169.852925 C260.210273,169.828457 264.041331,169.994584 267.891418,170.276613 C271.588009,170.538038 274.829186,167.373899 274.99283,163.690775 C275.165355,159.863417 272.201993,156.754654 268.505402,156.482927 C265.265494,156.251122 262.029391,156 258.778066,156 C255.166468,156 251.553603,156.084995 247.945811,156.16999" id="Fill-108" fill="#2C2C2C"></path>
            <path d="M158.797322,164.752228 C157.304526,165.508274 155.659875,167.089099 155.313701,168.784476 C154.694705,171.802297 154.071849,174.809936 153.720527,177.863397 C153.428402,180.359368 153.403951,182.889705 153.322877,185.395859 C153.167162,190.028871 152.961259,194.673338 153.006301,199.311441 C153.051342,204.17483 153.26754,209.036947 153.518484,213.899063 C153.6446,216.340304 153.744978,218.786636 153.836347,221.232968 C153.917421,223.536746 154.111742,225.832887 154.315072,228.127755 L154.30349,228.004293 C154.791222,233.791739 155.253217,239.589368 155.564645,245.386997 C155.711351,248.091708 155.770548,250.800238 155.957148,253.504949 C156.160477,256.45404 156.474479,259.398039 156.746014,262.342037 C156.949343,264.863465 157.116639,267.388711 157.29423,269.912684 C157.344419,270.494356 157.394608,271.081119 157.444797,271.662792 C157.706036,272.821044 158.229802,273.840562 159.023816,274.730253 C160.23993,276.083245 161.999114,276.913114 163.834224,276.993301 C165.608851,277.072215 167.37833,276.451085 168.705117,275.28265 C169.957264,274.179128 171.098739,272.249555 170.993214,270.524903 C170.690794,265.490958 170.298291,260.477378 169.829862,255.459979 C169.612377,252.566892 169.511999,249.669987 169.409048,246.769263 C169.293227,243.58725 169.047431,240.409055 168.81579,237.237223 C168.575141,233.84647 168.328057,230.460807 168.037219,227.070054 C167.760537,223.823127 167.674315,220.567291 167.544339,217.305091 C167.288247,210.92579 166.830113,204.547762 166.900892,198.158279 C166.975532,191.674608 167.19173,185.156572 167.700053,178.693266 C167.769545,177.780664 167.909817,176.86679 168.059096,175.960552 C168.25213,174.995766 168.445164,174.032252 168.639485,173.070011 C168.755306,172.459065 168.865979,171.851937 168.976651,171.24099 C169.02684,170.022915 168.775896,168.868481 168.222532,167.780232 C167.383477,166.149768 165.904836,164.901146 164.140505,164.334748 C163.439148,164.110734 162.710766,164 161.983671,164 C160.884664,164 159.789517,164.253288 158.797322,164.752228" id="Fill-110" fill="#2C2C2C"></path>
            <path d="M262.376172,162.740359 C261.138624,166.481007 260.441613,170.296698 259.734258,174.161992 C259.143286,177.406601 258.663526,180.646122 258.350583,183.930159 C257.723403,190.537662 257.566931,197.165516 256.723795,203.759029 C255.86514,210.456837 254.506035,217.069429 254.056017,223.816841 C253.596947,230.697802 253.424958,237.597842 253.298228,244.488979 C253.228398,248.45984 253.19219,252.424342 253.152102,256.393932 C253.119773,259.886561 253.099083,263.395724 252.618029,266.862914 C252.527508,267.253386 252.429229,267.641315 252.319311,268.029243 C251.81886,269.813715 251.869293,271.591826 252.738293,273.265642 C253.576257,274.880951 255.046573,276.118507 256.800091,276.674326 C260.39118,277.821576 264.456858,275.839961 265.593541,272.267203 C267.604396,265.957324 267.103945,259.052196 267.164723,252.528638 C267.235847,245.478514 267.392318,238.433478 267.634138,231.383354 C267.750522,228.024275 267.972945,224.670283 268.306579,221.322651 C268.650558,217.893618 269.185924,214.49511 269.72129,211.097873 C270.256656,207.718444 270.751934,204.350461 271.18514,200.957041 C271.610588,197.683178 271.670073,194.353353 271.883444,191.0655 C272.074831,188.098165 272.22613,185.102848 272.605024,182.152047 C272.949003,179.454354 273.380917,176.778284 273.850332,174.099669 C274.330092,171.691968 274.888735,169.337688 275.66592,166.988494 C276.843984,163.425912 274.802093,159.485575 271.181261,158.328149 C270.484251,158.105567 269.771723,158 269.06954,158 C266.119855,158 263.326641,159.862057 262.376172,162.740359" id="Fill-112" fill="#2C2C2C"></path>
            <path d="M256.409538,265.003746 C252.378685,265.169837 248.347831,265.418349 244.322073,265.608167 C240.56385,265.789243 236.801805,265.613162 233.049951,265.535736 C229.078974,265.452066 225.087614,265.305957 221.121733,265.569454 C217.106167,265.836697 213.103341,266.182616 209.096692,266.528534 C205.974182,266.739581 202.846576,266.850725 199.722792,267.038045 C196.308541,267.237853 192.899387,267.486365 189.486411,267.691168 C185.89253,267.905962 182.294828,268.174455 178.717509,268.56533 C175.268861,268.934975 171.829131,269.403276 168.375388,269.755438 C167.210976,270.008945 166.186701,270.525949 165.291097,271.29646 C163.921575,272.486568 163.090944,274.203671 163.006861,275.994453 C162.926601,277.730288 163.553396,279.457381 164.733096,280.754887 C165.823618,281.954986 167.803373,283.126362 169.525786,282.988994 C174.04075,282.643075 178.523865,282.053641 183.029911,281.631546 C188.429012,281.245666 193.83958,280.939709 199.245052,280.642495 C202.210863,280.477653 205.18177,280.393983 208.152678,280.19917 C211.091736,280.005606 214.025698,279.722127 216.95966,279.457381 C220.111471,279.255075 223.239078,279.127698 226.395985,279.06276 C229.566906,278.994076 232.756937,279.160167 235.926585,279.228851 C242.565263,279.36497 249.159352,278.799263 255.787839,278.52078 C257.644019,278.443354 259.255596,278.06247 260.688817,276.813667 C262.067257,275.613569 262.909354,273.876485 262.993436,272.066971 C263.072422,270.31615 262.435435,268.574071 261.251913,267.262829 C260.149926,266.048994 258.305212,265 256.581525,265 C256.524196,265 256.466867,265.001249 256.409538,265.003746" id="Fill-114" fill="#2C2C2C"></path>
            <path d="M173.009372,280.748315 C171.5565,282.066237 171.002906,283.683397 170.743644,285.583241 C170.268956,289.084965 170.137446,292.576503 170.088599,296.108787 C170.034743,299.619425 169.960847,303.136429 170.024723,306.64834 C170.142456,313.786764 170.669748,320.907361 171.324792,328.01395 C172.001129,337.784397 171.056763,347.566304 171.076802,357.343118 C171.086822,362.477282 170.876406,367.60508 170.881416,372.73797 C170.881416,375.161163 170.881416,377.57799 170.876406,379.99991 C170.866386,382.934991 171.047995,385.820412 171.428748,388.735119 C171.649184,390.38666 172.911679,392.002546 174.236798,392.892621 C175.709709,393.88329 177.544586,394.230916 179.26674,393.847637 C180.935037,393.474544 182.422978,392.44058 183.362335,390.992776 C184.413162,389.371797 184.512108,387.735536 184.301692,385.880259 C184.247835,385.425672 184.195231,384.974904 184.14388,384.524137 C184.034914,382.377262 184.102548,380.215106 184.115073,378.065684 C184.135112,375.479502 184.130103,372.892046 184.163919,370.30077 C184.193979,367.748969 184.301692,365.192073 184.379345,362.641545 C184.458251,360.13431 184.418172,357.627076 184.448231,355.119842 C184.507098,349.673706 184.89286,344.236483 184.971766,338.785254 C185.010593,336.332773 185.020613,333.876473 184.927929,331.4189 C184.823974,328.641714 184.578489,325.873442 184.322984,323.10517 C183.88086,317.192986 183.567741,311.240055 183.562731,305.315138 C183.562731,298.953461 183.439988,292.521748 184.301692,286.209732 C184.530895,284.513624 183.670444,282.543745 182.588305,281.309865 C181.380919,279.927002 179.643735,279.086588 177.828898,279.00764 C177.724943,279.002547 177.620987,279 177.518284,279 C175.867521,279 174.246818,279.63031 173.009372,280.748315" id="Fill-116" fill="#2C2C2C"></path>
            <path d="M168.390506,384.390274 C166.262572,384.61897 164.143655,385.093762 162.035043,385.472849 C159.217978,385.977471 156.364846,386.313057 153.52202,386.60887 C152.324091,386.866153 151.267853,387.385689 150.346864,388.16748 C148.94284,389.371861 148.087545,391.10945 148.007683,392.920371 C147.921381,394.672876 148.565428,396.41668 149.773662,397.726708 C150.900746,398.946003 152.928208,400.120554 154.699339,399.990049 C157.47132,399.78124 160.229133,399.523957 162.971488,399.07278 C165.861974,398.597988 168.737003,397.97529 171.649387,397.606145 C172.432549,397.577559 173.200254,397.591231 173.984704,397.649647 C174.266797,397.725465 174.54889,397.805011 174.830983,397.892015 C178.468564,399.019335 182.479694,397.066722 183.66603,393.55177 C184.843349,390.051733 182.805582,386.14775 179.162848,385.026644 C177.593948,384.535695 175.983828,384.27344 174.347947,384.074575 C173.891961,384.021129 173.425671,384 172.956804,384 C171.430411,384 169.860222,384.23491 168.390506,384.390274" id="Fill-118" fill="#2C2C2C"></path>
            <path d="M239.035104,273.579274 C238.862527,278.590335 239.364688,283.607623 239.704653,288.604982 C240.029047,293.445394 240.170483,298.28207 240.165292,303.133693 C240.165292,308.377681 240.093926,313.614196 240.413129,318.849465 C240.734928,324.124593 241.321432,329.391002 241.841759,334.647446 C242.19989,338.992109 242.529474,343.335526 242.735788,347.687662 C242.968054,352.557969 243.130251,357.428276 243.475406,362.294847 C243.7998,366.843788 244.058017,371.39273 244.251356,375.952882 C244.342186,378.107775 244.488812,380.258931 244.651009,382.413824 C244.813206,384.613559 244.691234,386.714891 244.499193,388.909643 C244.179989,392.592891 247.509567,395.828967 251.245285,395.993387 C253.074866,396.07186 254.895364,395.449058 256.263008,394.280683 C257.753922,393.011413 258.407899,391.380919 258.625892,389.52248 C258.777708,388.238263 258.929525,386.962766 258.98532,385.673567 C259.035926,384.452876 258.945096,383.207273 258.873729,381.985337 C258.706342,379.105503 258.599941,376.224424 258.493539,373.339607 C258.280737,367.714465 257.738351,362.114234 257.495704,356.490337 C257.24138,350.758073 257.038958,345.020826 256.557557,339.299772 C256.038527,333.177634 255.435155,327.06297 254.861627,320.94706 C254.744845,319.078656 254.569673,317.202778 254.555399,315.331882 C254.534638,313.229305 254.539828,311.12299 254.545019,309.01543 C254.550209,305.332182 254.580053,301.643952 254.509984,297.960705 C254.438617,294.165353 254.17521,290.374983 253.901421,286.584614 C253.606872,282.46416 253.231873,278.332495 253.374606,274.197093 C253.500471,270.45032 250.470633,267.180612 246.526005,267.006228 C246.423497,267.001246 246.322286,267 246.219777,267 C242.476273,267 239.163564,269.927167 239.035104,273.579274" id="Fill-120" fill="#2C2C2C"></path>
            <path d="M266.752636,384.159326 C261.711854,384.590888 256.675693,385.021194 251.628751,385.428919 C249.577324,385.595773 247.476613,387.01591 246.393915,388.354502 C245.149506,389.887548 244.709034,391.804482 245.191089,393.597218 C245.660823,395.337262 246.959136,396.886617 248.788787,397.866411 C249.461815,398.131119 250.142544,398.400845 250.821733,398.665552 C252.272517,399.041914 253.740242,399.100877 255.226449,398.841188 C260.273391,398.488662 265.314173,398.038283 270.356494,397.606722 C272.414082,397.429832 274.513252,396.023495 275.608271,394.671102 C276.85422,393.131784 277.293152,391.216104 276.804937,389.412078 C276.342904,387.673288 275.03689,386.118915 273.207239,385.134103 C272.52805,384.869395 271.842701,384.604687 271.161972,384.336216 C270.30259,384.112908 269.437048,384 268.565346,384 C267.964703,384 267.360979,384.053945 266.752636,384.159326" id="Fill-122" fill="#2C2C2C" transform="translate(261.000000, 391.500000) rotate(7.000000) translate(-261.000000, -391.500000) "></path>
            <path d="M156.490045,165.217472 C145.465776,168.345228 134.789507,172.488705 123.96972,176.235617 C118.844959,178.009931 113.655424,179.579566 108.520502,181.328295 C102.934703,183.226696 97.5013128,185.496078 91.9701268,187.554384 C92.4591065,187.37529 92.9493563,187.200033 93.438336,187.022218 C92.4692671,187.376569 91.4925778,187.755226 90.4981074,188.027705 C90.2174204,188.059687 89.9380034,188.113415 89.6573164,188.18889 C89.0133873,188.364147 88.3973998,188.618717 87.7725219,188.857936 C86.6954965,189.418246 85.8178732,190.20754 85.1434622,191.221982 C84.4538103,192.296549 84.0765974,193.46578 84.0067432,194.739909 C83.8975166,197.228042 85.123141,199.447534 87.1082716,200.866217 C89.5391992,202.600875 92.3663909,202.021376 94.9611585,201.256387 C96.8815151,200.690961 98.7967914,199.946439 100.661265,199.242854 C103.508778,198.167008 106.34359,197.059181 109.192373,195.987173 C114.218068,194.316478 119.288216,192.782662 124.28724,191.041609 C130.05466,189.031913 135.800489,186.969769 141.543778,184.893553 C144.236341,183.943073 146.927635,182.987477 149.624008,182.036997 C152.848734,180.893351 156.187767,179.968456 159.481077,179.034607 C161.278236,178.519071 162.790898,177.624878 163.842522,176.020703 C164.878905,174.442114 165.242147,172.468238 164.839532,170.619727 C164.172742,167.536745 161.214732,165 158.063671,165 C157.541669,165 157.013317,165.069079 156.490045,165.217472" id="Fill-124" fill="#2C2C2C"></path>
            <path d="M266.336513,160.821955 C265.14734,164.500625 267.223634,168.313274 270.773384,169.579053 C272.255726,170.112415 273.738067,170.650882 275.235638,171.139585 C276.598681,171.583628 278.011221,171.877105 279.404723,172.196102 C282.497588,172.904275 285.50669,173.955688 288.585594,174.718728 C291.917055,175.540464 295.268822,176.238429 298.59013,177.095892 C301.688071,177.898488 304.732709,178.900137 307.861109,179.587894 C311.365171,180.361142 314.875579,181.093559 318.385987,181.836183 C321.707294,182.54308 325.013373,183.316328 328.344833,183.959425 C332.117951,184.686738 335.920258,185.300488 339.717488,185.863198 C342.441037,186.27279 345.183622,186.542023 347.907171,186.950339 C348.634381,187.121321 349.341285,187.335687 350.029153,187.662339 C351.209442,188.041308 352.408767,188.101279 353.618246,187.842254 C355.35949,187.458182 356.910364,186.391456 357.892669,184.896 C359.91439,181.810663 359.112301,177.325569 355.939481,175.326098 C353.425339,173.741322 350.619297,173.307487 347.734569,172.914483 C345.865144,172.659285 343.991911,172.455127 342.122486,172.211414 C338.650152,171.759714 335.201931,171.162553 331.752442,170.566667 C326.943716,169.62116 322.166719,168.513604 317.364339,167.52599 C312.511194,166.529444 307.741811,165.277701 302.977505,163.936639 C298.307114,162.6262 293.498389,161.868264 288.848304,160.453194 C286.509301,159.739918 284.163953,159.101924 281.784338,158.523902 C279.483409,157.961192 277.272588,157.158596 275.046538,156.361104 C274.356132,156.114839 273.647959,156 272.946131,156 C270.039828,156 267.255362,157.979056 266.336513,160.821955" id="Fill-126" fill="#2C2C2C"></path>
            <path d="M383.950831,151.767146 C380.399551,154.174923 376.751061,156.420662 373.160645,158.763877 C369.212954,161.338755 365.322074,163.995917 361.448868,166.682196 C358.684095,168.493725 355.887762,170.21031 353.03588,171.873727 C351.792364,172.5953 350.56021,173.316874 349.370979,174.123264 C348.602145,174.649886 347.833311,175.180306 347.008929,175.611984 C343.573795,176.528509 341.388488,180.180683 342.152272,183.672086 C342.525959,185.402596 343.581369,186.950814 345.060964,187.924305 C346.698366,189.007931 348.390053,189.137055 350.273633,188.899062 C352.472826,188.621826 354.298334,187.207795 356.107429,186.065937 C358.153865,184.784828 360.294986,183.64297 362.385608,182.436549 C367.052897,179.749005 371.427297,176.555093 375.855982,173.485241 C380.640679,170.357157 385.496074,167.330346 390.22901,164.119977 C390.716317,163.788307 391.199837,163.451572 391.688406,163.121168 C392.615047,162.285662 393.276572,161.276725 393.665408,160.08423 C394.228462,158.343592 394.075705,156.43079 393.246273,154.799021 C392.418104,153.165986 390.963758,151.920323 389.227885,151.351925 C388.549948,151.132921 387.730616,151 386.907496,151 C385.836936,151 384.756276,151.222802 383.950831,151.767146" id="Fill-128" fill="#2C2C2C"></path>
            <path d="M24.0066125,179.594788 C23.9276043,181.376991 24.55967,183.152806 25.7384217,184.480195 C27.0433317,185.953227 28.665549,186.531964 30.5579233,186.781089 C31.3059528,186.879461 32.0501593,186.993165 32.7918171,187.115811 C37.2583303,188.068874 41.5706501,189.584065 45.9339428,190.928063 C50.3239965,192.275894 54.674546,193.7732 59.1257673,194.915342 C64.0535866,196.182686 69.0068924,197.310776 73.9793131,198.38904 C79.5391982,199.596339 84.9945885,201.193295 90.6398535,201.962388 C92.3716627,202.196183 94.3838237,201.308275 95.642858,200.180186 C97.0509884,198.928173 97.9073356,197.116586 97.9927155,195.229623 C98.076821,193.403983 97.4294633,191.582176 96.2150304,190.215182 C94.8706163,188.702546 93.2190896,188.123809 91.2770165,187.859353 C90.720136,187.781422 90.1645298,187.700935 89.6089236,187.616616 C85.0723224,186.585621 80.5714024,185.401319 76.0246066,184.385655 C71.1719726,183.302281 66.3282588,182.160138 61.5444384,180.767592 C56.6956273,179.359716 51.9079839,177.762761 47.0387836,176.430261 C44.8189075,175.82214 42.6181462,175.162917 40.3931727,174.57396 C37.4074265,173.775482 34.2560178,173.332167 31.1746972,173.026829 C30.9873712,173.008943 30.8013196,173 30.6165423,173 C27.1287116,173 24.1633546,176.182413 24.0066125,179.594788" id="Fill-130" fill="#2C2C2C"></path>
            <path d="M302.391461,42.51579 C298.701859,43.1223093 296.377335,47.1230994 297.147153,50.604371 C297.525155,52.3232566 298.590091,53.8569549 300.070704,54.8276344 L301.734667,55.6143694 C302.87244,55.9760438 304.029051,56.0468873 305.194453,55.8181997 C310.030619,55.6255552 314.906972,55.7722136 319.738115,55.993444 C323.514368,56.1587453 326.820944,53.1771065 326.992992,49.4335899 C327.165039,45.6913162 324.147302,42.4287893 320.366025,42.2535449 C317.628336,42.1280153 314.890646,42.0596576 312.149189,42.0161573 C311.491139,42.0062143 310.831833,42 310.170015,42 C307.567955,42 304.945801,42.0981865 302.391461,42.51579" id="Fill-132" fill="#2C2C2C"></path>
            <path d="M317.862009,32.1673321 C315.995013,32.5811915 314.327011,33.7346332 313.272469,35.345364 C312.262288,36.8820089 311.648828,39.2080524 312.217926,41.033377 C314.000002,46.7226673 315.782077,52.4196216 317.391775,58.1587284 C317.926651,60.0645256 318.85698,61.6612057 320.530052,62.7737723 C322.179042,63.8710109 324.233625,64.2554914 326.160193,63.8314132 C329.93728,62.9985849 332.829666,58.907252 331.783996,54.9947472 C330.249079,49.2313709 328.442922,43.543358 326.659579,37.855345 C326.05626,35.939329 325.228596,34.3681958 323.511162,33.2300823 C322.29565,32.4240782 320.860864,32 319.418473,32 C318.896272,32 318.375338,32.0549258 317.862009,32.1673321" id="Fill-134" fill="#2C2C2C"></path>
            <path d="M100.291294,47.117371 C98.3985638,47.2259076 96.7991812,47.5654 95.3337182,48.8577429 C93.9396789,50.085721 93.0915215,51.8551202 93.0073435,53.6989804 C92.9231654,55.4885724 93.5659795,57.268068 94.7661542,58.6045827 C95.9063839,59.8704225 97.879466,60.9999605 99.6586835,60.9065685 C101.760583,60.7929837 103.858657,60.7879355 105.960557,60.8169627 C107.366075,60.8371555 108.76139,60.8674448 110.160531,60.9355957 C112.701177,61.059277 115.212488,61.507306 117.713596,61.9465006 C119.383127,62.2418212 121.460794,61.2662538 122.66607,60.2061287 C124.061385,58.9781506 124.908267,57.2137997 124.992445,55.3648912 C125.077899,53.5803474 124.435085,51.8008518 123.233634,50.4643371 C122.780859,50.0756246 122.321706,49.68565 121.86893,49.2969375 C120.797573,48.6065942 119.621632,48.2267161 118.341105,48.1623514 C116.158853,47.777425 113.976602,47.4076433 111.765015,47.2057147 C110.245984,47.0681509 108.720576,47.047958 107.196444,47.023979 C106.357214,47.0100964 105.520536,47 104.682582,47 C103.218394,47 101.755482,47.0302893 100.291294,47.117371" id="Fill-136" fill="#2C2C2C"></path>
            <path d="M90.3848484,43.7348355 C90.2514331,49.0346882 90.108862,54.3345409 90.0016066,59.6343937 C89.920511,63.4664785 92.9184299,66.8168732 96.9758226,66.9934088 C100.884104,67.1611177 104.522939,64.1070508 104.609267,60.2699221 C104.732218,54.9700693 104.869557,49.6702166 104.997741,44.3703638 C105.094532,40.5332352 102.070453,37.1841015 98.0235246,37.0063048 C97.9201932,37.0025219 97.8181698,37 97.7148384,37 C93.9164281,37 90.4737919,39.9935404 90.3848484,43.7348355" id="Fill-138" fill="#2C2C2C"></path>
            <path d="M20.8436073,152.777223 C19.4539796,154.026672 18.6105492,155.821873 18.5267142,157.697973 C18.4517709,159.387875 19.0271835,161.479707 20.2783565,162.679076 C20.9846024,163.35966 21.7200636,164.028687 22.4275797,164.725964 C22.019837,165.586325 21.5803387,166.433844 21.2005409,167.278796 C20.510808,168.81332 19.9747724,170.408197 19.4692223,172.009496 C18.9928874,173.518337 18.6003874,175.054145 18.3183971,176.613068 C18.2078874,177.220457 18.0897563,177.825277 17.9881382,178.432666 C16.2072807,178.77039 14.397208,178.992543 12.6125398,179.267345 C11.2864234,179.468952 9.960307,179.70523 8.63292035,179.913257 C8.18453041,179.793834 7.72216798,179.719355 7.25345441,179.698809 C5.47132669,179.61791 3.700631,180.254833 2.365623,181.454202 C0.912483926,182.758868 0.286262281,184.428225 0.0690535566,186.335144 C0.0538108391,186.445578 0.0436490274,186.556013 0.0284063099,186.666447 C-0.164668112,188.396157 0.649547049,190.337748 1.76988679,191.611595 C3.06551777,193.08705 4.71300149,193.708564 6.60309846,193.934569 C8.90982972,194.215792 11.4261483,193.522367 13.723988,193.146119 C15.479441,192.861044 17.2412451,192.579822 18.9979683,192.303736 C20.7991494,192.013525 22.5558726,191.70662 24.297353,191.140323 C26.7476199,190.342884 28.5894483,189.093435 30.0679919,186.937397 C31.1095776,185.411861 31.2531131,183.445873 31.4322151,181.654525 C31.4830241,181.137024 31.5452652,180.622092 31.6138575,180.105875 C32.3455079,176.78514 33.4480645,173.581259 34.836422,170.478824 C35.2085983,169.656987 35.5998281,168.839002 35.9872472,168.021017 C36.9640513,165.954867 37.2777972,163.747464 36.7366808,161.495117 C35.8983313,158.044685 33.0746179,155.692176 30.6383235,153.348656 C29.238534,152.009319 27.7549095,151.101446 25.7708157,151.006421 C25.6704679,151.002568 25.57012,151 25.4697721,151 C23.77529,151 22.1087529,151.63564 20.8436073,152.777223" id="Fill-140" fill="#2C2C2C"></path>
            <path d="M387.184255,133.724579 C386.130334,134.817066 385.081457,135.915913 384.022494,137.003313 C382.805948,138.259864 381.451988,139.557114 380.536742,141.047679 C379.31011,143.034251 378.930649,145.514287 379.010071,147.818812 C379.044109,148.842622 379.147484,149.870247 379.300025,150.883882 C379.452566,151.942031 379.960616,152.955666 380.34386,153.943865 C380.77753,155.047798 381.64361,156.001658 382.309244,156.974595 C382.702573,157.550727 383.18541,158.092519 383.648075,158.61905 C384.200249,159.244782 384.756204,159.875601 385.298292,160.516595 C386.303046,161.709556 387.253591,162.941943 388.194051,164.183233 C389.532883,165.952325 390.888103,167.76593 392.724899,169.051733 C394.511268,170.304469 396.629193,171.099353 398.82528,170.989977 C400.899082,170.890775 402.834211,170.458359 404.794552,169.791929 C406.768762,169.12677 408.561434,168.356052 410.28477,167.188527 C411.904731,166.090952 413.322984,164.943777 414.658034,163.518074 C415.993083,162.087284 416.903287,160.586545 416.992794,158.564362 C417.075999,156.736766 416.435578,154.918074 415.229117,153.552146 C413.983575,152.140434 412.190903,151.28196 410.320069,151.191661 C408.630771,151.117896 406.556969,151.704202 405.350508,152.976015 C404.589063,153.778529 403.798623,154.514909 402.948932,155.210591 C402.255563,155.622658 401.548327,155.986397 400.805793,156.311981 C400.51836,156.401008 400.232188,156.483676 399.942234,156.561256 C399.096324,155.571785 398.314709,154.519996 397.510402,153.502545 C395.96482,151.545225 394.151977,149.810472 392.616481,147.846792 C392.601353,147.774299 392.586225,147.701806 392.572358,147.629312 C393.753605,146.368945 394.976455,145.146733 396.17157,143.904171 C397.471321,142.552234 398.343705,141.057853 398.426909,139.124697 C398.50507,137.360693 397.884821,135.603047 396.722483,134.280361 C395.521065,132.919521 393.787644,132.090299 391.981104,132.005087 C391.885293,132.001272 391.790742,132 391.693671,132 C390.115312,132 388.293644,132.573588 387.184255,133.724579" id="Fill-142" fill="#2C2C2C"></path>
            <path d="M89.7848585,179.161972 C87.9429308,179.556062 86.2943402,180.651605 85.2584192,182.190977 C84.2734451,183.646175 83.6411805,185.897203 84.2224981,187.621504 C85.635949,191.826401 86.7842146,196.035123 87.581077,200.395615 C88.2799644,204.221726 92.5046412,206.652582 96.2812461,205.845272 C100.265558,204.993325 102.593441,201.172315 101.868427,197.351305 C101.041519,193.002292 99.868433,188.792294 98.4549821,184.592499 C97.8370872,182.758517 97.0559008,181.273985 95.3472189,180.173341 C94.1545381,179.403017 92.7450062,179 91.3276363,179 C90.8116353,179 90.2930216,179.053566 89.7848585,179.161972" id="Fill-144" fill="#2C2C2C"></path>
            <path d="M343.364588,164.785962 C342.083581,165.925416 340.882637,167.9514 341.009188,169.736072 C341.508936,176.999931 342.224337,184.227658 343.102446,191.451514 C343.30906,193.185859 344.706287,194.909881 346.113845,195.836413 C347.687986,196.875213 349.659858,197.242987 351.506471,196.840372 C353.2911,196.451951 354.885902,195.357662 355.894436,193.831077 C357.019191,192.131574 357.135412,190.398519 356.897806,188.44222 C356.438089,184.590271 356.015822,180.738322 355.616799,176.881211 C355.439885,174.71457 355.264263,172.545349 355.113177,170.376127 C355.062815,169.765752 355.012453,169.161828 354.960799,168.551452 C354.689618,167.351347 354.149839,166.288029 353.332422,165.365368 C352.075951,163.953632 350.270661,163.092911 348.378852,163.006452 C348.276836,163.002581 348.17482,163 348.072805,163 C346.35016,163 344.654634,163.638765 343.364588,164.785962" id="Fill-146" fill="#2C2C2C"></path>
            <path d="M184.276684,325 C178.640994,325.058413 173.036192,325.232409 167.535635,326.543592 C163.820121,327.437186 161.327239,330.941961 162.161203,334.631917 C162.965566,338.190134 166.807204,340.695675 170.536875,339.826938 C172.583175,339.348449 174.615318,339.037742 176.689931,338.785448 C179.009071,338.661166 181.316628,338.612695 183.64349,338.58411 C185.513473,338.564225 187.217436,338.093193 188.645985,336.87025 C190.052655,335.660979 190.90721,333.918534 190.993438,332.097791 C191.159459,328.575616 188.154358,325 184.347468,325 L184.276684,325 Z" id="Fill-148" fill="#2C2C2C"></path>
            <path d="M249.00484,324.011173 C245.486643,324.084415 241.956848,324.408419 238.463137,324.777114 C236.762031,324.957116 235.050616,326.310238 234.144648,327.6286 C233.122695,329.122 232.760566,330.989059 233.157491,332.734462 C233.545394,334.427726 234.617607,335.939746 236.117673,336.895621 C236.676976,337.15259 237.23499,337.409559 237.794293,337.671493 C238.987645,338.040188 240.195173,338.098533 241.42332,337.84653 C242.010974,337.78446 242.59734,337.726115 243.184995,337.670252 C245.374525,337.507629 247.552456,337.385972 249.749718,337.336316 C252.398031,337.279212 255.115934,337.598251 257.748783,337.806805 C261.514413,338.103499 264.82126,334.970216 264.992659,331.43472 C265.169213,327.696877 262.138152,324.758493 258.37381,324.456834 C255.601781,324.233382 252.814286,324 250.028081,324 C249.686571,324 249.34635,324.003724 249.00484,324.011173" id="Fill-150" fill="#2C2C2C"></path>
            <path d="M190.61391,50.8488893 C189.146596,52.238153 188.595897,53.9481159 188.334528,55.9567056 C188.138805,57.4835974 187.940651,59.0091907 187.718183,60.5308889 C187.585675,61.1774808 187.448304,61.821476 187.298777,62.4628744 C186.852626,64.3961582 186.8429,66.2112897 187.707242,68.022526 C188.524172,69.7363841 189.963526,71.0503419 191.677622,71.6437003 C193.391717,72.2422523 195.277222,72.0799551 196.881907,71.2074456 C198.391769,70.3855727 199.855437,68.7729881 200.272412,66.9669453 C201.061382,63.5535113 201.512395,60.0894406 201.963409,56.6149829 C202.19074,54.825819 201.327614,52.7458185 200.239588,51.4422477 C199.028781,49.9867668 197.280647,49.0986767 195.457141,49.0077903 C195.355025,49.0025968 195.254124,49 195.153223,49 C193.490186,49 191.857541,49.6634708 190.61391,50.8488893" id="Fill-152" fill="#2C2C2C"></path>
            <path d="M222.319649,53.0881192 C221.025587,54.458829 219.942066,56.7438542 220.002405,58.8655543 C220.067878,61.0422049 220.138487,63.2188554 220.162879,65.395506 C220.188554,67.588947 220.659706,69.5747972 221.913971,71.244682 C223.14256,72.8901444 224.916761,73.8914647 226.773125,73.9922073 C230.378013,74.1891133 234.044524,70.6295417 233.999591,66.1403907 C233.97905,63.9637401 233.908442,61.7870895 233.848104,59.6104389 C233.783914,57.3986811 233.366682,55.4616758 232.098295,53.7612629 C230.864571,52.1096949 229.089086,51.1083746 227.239141,51.007632 C227.137722,51.0015264 227.036302,51 226.936166,51 C225.242844,51 223.581617,51.7494638 222.319649,53.0881192" id="Fill-154" fill="#2C2C2C"></path>
            <path d="M200.932222,204.501687 C201.276584,204.893648 201.604426,205.298461 201.925915,205.718695 C202.992038,207.418908 203.971752,209.169241 204.922241,210.937565 C205.383507,211.785744 205.844774,212.633923 206.326372,213.47182 C207.15106,214.91758 208.172708,216.288802 209.573027,217.221799 C211.180471,218.296159 213.573211,218.713823 215.469106,218.296159 C216.117166,218.153511 216.719481,217.93761 217.282404,217.66131 C215.793136,219.209879 214.287348,220.741741 212.773937,222.267178 C211.53881,223.517599 210.29733,224.757739 209.052037,226.001735 C208.724195,226.328155 208.398894,226.655861 208.072323,226.983566 C207.621222,226.987421 207.158685,227.023405 206.68344,227.081235 C206.591949,227.092801 206.500459,227.105652 206.410238,227.117218 C206.30604,227.117218 206.201842,227.115933 206.098915,227.112078 C205.566489,226.777947 205.067102,226.411688 204.575338,226.018441 C203.324963,224.798863 202.191493,223.490611 201.150784,222.087261 C200.590402,221.141413 200.10118,220.181429 199.658974,219.17261 C199.317154,218.010862 199.068096,216.843974 198.902904,215.639817 C198.791082,212.986045 198.948649,210.338699 199.290469,207.704205 C199.432789,207.074496 199.59671,206.460209 199.806376,205.845922 C199.980463,205.567051 200.162174,205.298461 200.35278,205.032441 C200.543386,204.849954 200.736534,204.673893 200.932222,204.501687 M228.326115,203.830855 L228.10247,204.090449 C228.176171,204.003061 228.251143,203.915673 228.326115,203.830855 M199.293011,203.377208 C199.403562,203.393914 199.514114,203.414476 199.622124,203.438893 C199.512843,203.417046 199.402292,203.397769 199.293011,203.377208 M202.970436,203.085485 C202.943751,203.095766 202.917066,203.106047 202.88784,203.116328 C202.917066,203.106047 202.943751,203.095766 202.970436,203.085485 M229.079644,202.97625 C227.502697,205.834356 225.539455,208.448289 223.46185,210.956842 C223.968862,210.143361 224.461896,209.335021 224.960013,208.578086 C226.19514,206.708237 227.503967,204.896219 228.915722,203.158737 C228.970363,203.098337 229.025003,203.036651 229.079644,202.97625 M234.942684,198.462911 C234.741912,198.479617 234.542411,198.496324 234.344181,198.514316 C234.54114,198.483473 234.739371,198.466766 234.942684,198.462911 M229.948807,196.077729 C230.106374,196.274353 230.243611,196.478687 230.366869,196.692016 C230.228362,196.487682 230.088585,196.282063 229.948807,196.077729 M225.139183,188.261633 C221.252091,191.058053 218.298969,194.868432 215.444962,198.683951 C215.098059,199.146594 214.765134,199.618233 214.438562,200.096298 C213.62531,198.746922 212.76123,197.43096 211.82599,196.148411 C210.505726,194.341533 208.714029,192.780113 206.837196,191.605514 C204.316114,190.028672 201.277855,189.512054 198.399704,190.144333 C196.056521,190.657096 194.031015,192.282772 192.179595,193.71825 C189.887241,195.49043 188.109522,198.010549 186.978593,200.675887 C185.667224,203.758888 185.414354,207.187587 185.111926,210.500624 C184.888281,212.915364 185.026788,215.385363 185.289824,217.784681 C185.552861,220.254681 186.158988,222.674561 187.122183,224.968499 C189.082884,229.616776 192.25965,233.537675 196.03619,236.790312 C198.001973,238.481529 200.162174,239.83733 202.67309,240.53515 C203.188997,240.679083 203.703633,240.778038 204.215728,240.838438 C204.567714,241.222689 204.967986,241.568386 205.412734,241.865249 C206.932499,242.879208 208.828393,243.236471 210.604841,242.84451 C212.396537,242.447408 213.757464,241.383329 214.824857,239.913152 C215.054855,239.597013 215.264522,239.280874 215.484354,238.969875 C218.484492,235.858601 221.576121,232.832144 224.608027,229.751713 C226.295525,228.039934 227.923301,226.253618 229.57649,224.505856 C231.432992,222.543478 233.175131,220.46544 234.907104,218.401539 C236.992333,215.917403 238.913642,213.236644 240.486776,210.395245 C242.099303,207.488305 243.262,204.396307 243.752492,201.098691 C243.960888,199.661927 244.056191,198.297131 243.965971,196.851371 C243.926579,195.947932 243.832547,195.049634 243.683874,194.155191 C243.494539,192.895774 242.918909,191.680051 242.422063,190.520873 C241.955713,189.823053 241.484281,189.125233 241.012849,188.432554 C240.42197,187.824692 239.796783,187.257955 239.136015,186.731056 C237.667079,185.841753 236.227368,185.174776 234.500478,185.034698 C234.218381,185.011566 233.938826,185 233.661811,185 C230.504106,185 227.690761,186.429053 225.139183,188.261633" id="Fill-156" fill="#2C2C2C"></path>
            <path d="M216.269,105 C216.181,105.064 216.091,105.126 216,105.186 C216.09,105.124 216.18,105.062 216.269,105 M189.984375,105.008511 C192.883749,113.373977 192.883749,112.069336 198.429941,115.434709 C199.432015,115.850265 200.379198,116.225332 201.420844,116.541794 C203.28585,117.099065 205.390843,117.353726 207.329888,117.611584 C210.157396,117.985585 212.969585,118.160332 215.827729,117.810838 C217.95187,117.548718 219.935593,116.998905 221.865702,116.212545 C223.500933,115.550852 224.972769,114.443768 226.24419,113.373977 C229.190414,110.90195 231.684792,108.060674 232.848462,105.008511 C234.554687,100.53329 231.984571,98.639846 228.858356,96.9211482 C225.62236,95.1353221 225.541113,97.9238107 223.367187,100.53329 C221.674513,102.571647 219.826291,102.682462 217.97788,104.624921 C217.443015,105.095884 216.889002,105.534882 216.289034,105.952569 C216.202231,105.989863 215.116703,106.027156 215.029899,106.063384 C214.518012,106.182724 214.006125,106.279687 213.476366,106.359601 C211.727524,106.387305 209.028466,106.248786 207.298772,106.043139 C206.503496,105.896096 202.437596,105.008511 202.437596,100.054334 C202.437596,96.9046206 201.44031,95.1438464 197.81625,95.0063932 C197.710298,95.0021311 197.604346,95 197.498394,95 C195.810826,95 194.15134,95.5274367 192.883749,96.467233 C191.437444,97.545548 189.444291,103.450224 189.984375,105.008511 Z" id="Fill-158" fill="#2C2C2C"></path>
        </g>
    </g>
</svg>