<?xml version="1.0" encoding="utf-8"?>
<!-- Generator: Adobe Illustrator 16.0.0, SVG Export Plug-In . SVG Version: 6.00 Build 0)  -->
<!DOCTYPE svg PUBLIC "-//W3C//DTD SVG 1.1//EN" "http://www.w3.org/Graphics/SVG/1.1/DTD/svg11.dtd">
<svg version="1.1" id="Layer_1" xmlns="http://www.w3.org/2000/svg" xmlns:xlink="http://www.w3.org/1999/xlink" x="0px" y="0px"
	 width="800px" height="1000px" viewBox="0 0 800 1000" enable-background="new 0 0 800 1000" xml:space="preserve">
<title>rocket_DL</title>
<desc>Created with Sketch.</desc>
<g id="rocket_DL">
	<g id="rocket" transform="translate(301.000000, 192.000000)">
		<polygon id="Path-7" fill="#FFFFFF" points="99,14.016 47.859,132.422 47.859,414.852 151.797,414.852 151.797,132.422 		"/>
		<path id="Fill-2" fill="#000000" d="M109.402,121.128c-6.342,0.51-12.676,1.06-19.028,1.405
			c-7.559,0.41-15.088,0.906-22.618,1.633c-4.346,0.415-8.677,1.195-12.969,1.982c-1.644,0.3-3.287,0.737-4.897,1.189
			c-1.727,0.487-3.359,1.054-5.008,1.798c-1.147,0.513-2.054,1.267-3.02,2.075c-1.334,1.114-2.064,3.025-2.621,4.576
			c-0.448,1.229-0.415,2.709-0.52,4.03c-0.05,0.688-0.109,1.377-0.164,2.065c-0.12,1.6-0.24,3.206-0.305,4.811
			c-0.153,3.752-0.191,7.498-0.214,11.25c-0.098,15.121,0.017,30.249,0.033,45.37c0.016,15.022,0.109,30.051,0.514,45.068
			c0.098,3.463,0.081,6.941,0.295,10.398c0.283,4.614,0.562,9.224,0.846,13.837c0.47,7.734,1.168,15.449,1.818,23.167
			c0.263,3.096,0.421,6.197,0.616,9.293c0.246,3.883,0.624,7.787,0.744,11.677c0.24,7.491,0.584,14.983,0.704,22.471
			c0.268,15.88,0.573,31.762,1.038,47.636c0.218,7.568,0.245,15.144,0.71,22.701c0.13,2.168,0.413,4.342,0.911,6.455
			c0.404,1.72,1.436,3.106,2.512,4.444c0.617,0.776,1.731,1.661,2.484,2.086c2.151,1.224,4.522,1.956,6.903,2.572
			c3.85,0.994,7.949,1.503,11.897,1.917c6.717,0.704,13.406,1.027,20.155,0.956c6.499-0.077,12.953-0.71,19.424-1.229
			c3.435-0.278,6.869-0.557,10.31-0.809c2.184-0.157,4.368-0.312,6.546-0.529c2.633-0.262,5.26-0.639,7.854-1.141
			c2.332-0.449,4.489-1.301,6.629-2.306c2.092-0.972,3.73-2.981,4.784-4.953c1.267-2.364,1.272-4.937,1.31-7.541
			c0.022-1.442,0.115-2.884,0.235-4.319c0.27-3.314,0.604-6.615,0.97-9.915c0.962-6.811,2.122-13.58,3.224-20.371
			c0.634-3.928,1.157-7.864,1.698-11.802c0.59-4.347,0.929-8.721,1.344-13.09c0.143-1.513,0.109-3.063,0.158-4.581
			c0.088-2.507,0.169-5.014,0.257-7.521c0.132-3.898-0.114-7.842-0.181-11.745c-0.054-3.343-0.246-6.675-0.415-10.012
			c-0.175-3.347-0.3-6.694-0.556-10.03c-2.403-30.855-5.211-61.677-8.066-92.493c-1.24-13.428-2.479-26.851-3.713-40.279
			c-1.143-12.43-2.245-24.858-3.778-37.244c-0.105-0.774-0.208-1.556-0.317-2.332c-0.415-1.484-1.169-2.779-2.255-3.871
			c-1.639-1.639-3.882-2.567-6.204-2.567c-2.314,0-4.559,0.928-6.197,2.567c-1.475,1.473-2.839,4.036-2.572,6.203
			c1.988,15.996,3.31,32.073,4.784,48.122c1.452,15.771,2.916,31.542,4.38,47.308c1.31,14.177,2.495,28.358,3.745,42.535
			c0.71,8.093,1.426,16.181,2.053,24.279c0.634,8.104,1.081,16.197,1.496,24.318c0.154,2.904,0.126,5.825,0.175,8.731
			c0.045,2.725,0.126,5.438,0.033,8.163c-0.071,2.174-0.147,4.348-0.218,6.525c-0.045,1.301-0.017,2.627-0.137,3.922
			c-0.329,3.457-0.653,6.909-0.976,10.36c-0.512,3.731-1.037,7.456-1.629,11.177c-0.678,4.223-1.409,8.438-2.06,12.659
			c-0.77,4.97-1.409,9.955-1.954,14.957c-0.219,1.999-0.36,4.014-0.515,6.024c-0.062,0.777-0.095,1.559-0.118,2.342
			c-0.8,0.17-1.606,0.317-2.419,0.45c-5.573,0.644-11.198,0.917-16.787,1.368c-4.827,0.395-9.643,0.83-14.481,1.114
			c-9.373,0.562-18.76,0.188-28.077-0.938c-1.857-0.286-3.718-0.593-5.542-1.04c-0.445-6.571-0.355-13.189-0.537-19.766
			c-0.24-8.597-0.447-17.186-0.655-25.782c-0.181-7.667-0.251-15.335-0.371-23.007c-0.12-7.58-0.452-15.164-0.684-22.744
			c-0.104-3.337-0.408-6.685-0.616-10.015c-0.224-3.518-0.376-7.051-0.671-10.563c-0.612-7.399-1.312-14.793-1.759-22.204
			c-0.301-4.947-0.601-9.89-0.896-14.837c-0.187-3.025-0.202-6.067-0.284-9.104c-0.224-8.236-0.372-16.453-0.453-24.694
			c-0.153-14.723-0.158-29.45-0.163-44.174c0-12.418-0.344-24.901,0.591-37.295c2.553-0.59,5.161-0.993,7.723-1.415
			c8.19-0.948,16.389-1.44,24.635-1.787c4.309-0.18,8.611-0.41,12.914-0.684c2.016-0.13,4.03-0.29,6.041-0.502
			c1.566-0.169,3.314-0.355,4.864-0.765c3.304-0.857,6.629-3.303,7.367-6.842c0.654-3.173,0.06-6.319-2.294-8.673
			c-1.114-1.103-2.424-1.868-3.933-2.293c-0.788-0.211-1.577-0.316-2.368-0.316C110.41,121,109.906,121.043,109.402,121.128"/>
		<path id="Fill-4_1_" fill="#000000" d="M91.141,2.516c-0.679,0.816-1.364,1.606-1.839,2.548c-0.187,0.368-0.351,0.741-0.521,1.113
			c-0.351,0.779-0.701,1.558-1.052,2.331c-0.701,1.562-1.417,3.112-2.118,4.669c-1.479,3.261-2.909,6.534-4.36,9.806
			c-2.994,6.748-6.139,13.429-9.155,20.166c-3.554,7.931-6.96,15.89-10.015,24.024c-2.739,7.301-4.952,14.799-7.257,22.244
			c-4.562,14.739-10.127,29.106-15.982,43.369c-1.783,4.014-3.633,7.966-5.726,11.837c-2.238,4.134-1.057,9.379,3.094,11.808
			c3.955,2.318,9.557,1.036,11.796-3.098c3.855-7.108,6.982-14.553,9.994-22.05c3.013-7.521,5.937-15.058,8.707-22.671
			c2.628-7.207,4.857-14.564,7.141-21.88c1.123-3.613,2.327-7.203,3.511-10.793c1.134-3.442,2.502-6.807,3.778-10.194
			c0.979-2.6,2.129-5.151,3.222-7.713c-0.176,0.414-0.351,0.828-0.527,1.245c3.485-7.796,7.052-15.556,10.564-23.335
			c0.823,2.982,1.744,5.937,2.621,8.903c0.531,1.803,1.212,3.574,1.813,5.351c0.554,1.633,1.067,3.282,1.671,4.895
			c2.809,7.508,5.596,15.029,8.372,22.549c1.401,3.804,2.504,7.751,3.745,11.61c1.146,3.557,1.962,7.229,2.913,10.841
			c1.563,5.92,2.564,11.999,3.599,18.034c0.952,5.545,1.714,11.127,2.486,16.702c0.425,3.24,0.85,6.481,1.292,9.723
			c0.192,1.398,0.422,2.784,0.69,4.17c0.399,2.067,1.353,4.155,2.257,6.019c1.669,3.449,6.242,4.945,9.753,3.975
			c2.157-0.592,4.03-2.04,5.163-3.975c1.085-1.853,1.643-4.576,0.87-6.66c-1.026-2.757-1.466-5.659-1.861-8.563
			c-1.033-7.86-2.114-15.706-3.34-23.542c-1.107-7.042-2.344-14.13-4.179-21.031c-0.953-3.58-1.796-7.212-2.941-10.737
			c-1.227-3.772-2.31-7.62-3.689-11.33c-2.8-7.527-5.613-15.041-8.45-22.551c-1.248-3.304-2.3-6.692-3.444-10.036
			c-0.51-1.486-0.909-3.02-1.358-4.528c-0.476-1.588-0.996-3.167-1.418-4.768c-1.796-6.74-3.518-13.454-4.674-20.335
			c-0.058-0.46-0.115-0.92-0.172-1.382c-0.236-1.89-0.336-3.201-1.315-4.877c-0.925-1.584-1.845-2.127-3.258-3.224
			C100.204,0.395,98.759,0.006,97.208,0C95.116,0,92.525,0.851,91.141,2.516"/>
		<path id="Fill-6" fill="#000000" d="M105.813,374.29l-0.057,0.074c0.002-0.003,0.002-0.005,0.003-0.01
			C105.777,374.334,105.794,374.313,105.813,374.29 M96.673,361.459c-2.186,0.819-4.131,2.12-5.292,4.255
			c-0.64,1.175-1.149,2.447-1.505,3.742c-0.312,1.146-0.408,2.393-0.58,3.573c-0.097,0.742-0.198,1.485-0.296,2.228
			c0.006,1.519,0.383,2.929,1.129,4.24c0.621,1.079,1.478,2.001,2.484,2.701c-0.005,0.316-0.011,0.631-0.018,0.947
			c-0.05,1.862-0.038,3.736-0.146,5.599c-0.221,3.693-0.403,7.391-0.66,11.078c-0.564,8.096-1.091,16.186-1.592,24.281
			c-0.935,15.104-0.869,30.289-0.709,45.416c0.037,3.272,0.065,6.565,0.274,9.832c0.22,3.441,0.828,6.795,1.294,10.199
			c0.414,1.49,1.155,2.785,2.226,3.883c1.086,1.093,2.354,1.848,3.82,2.262c2.768,0.775,6.502,0.088,8.425-2.262
			c1.246-1.524,1.757-2.31,2.38-4.21c0.285-0.864,0.371-2.235,0.334-3.268c-0.039-1.193-0.247-2.39-0.441-3.581
			c-0.298-3.044-0.377-6.103-0.435-9.164c-0.064-3.626-0.112-7.259-0.135-10.892c-0.043-8.134,0.027-16.263,0.183-24.396
			c0.291-15.07,1.537-30.094,2.272-45.143c0.275-5.479,0.495-10.997,0.093-16.476c-0.242-3.244-0.64-7.008-2.258-9.909
			c-0.456-0.906-1.037-1.731-1.735-2.479c-0.72-0.611-1.472-1.186-2.245-1.726c-1.128-0.809-2.663-1.191-4.16-1.191
			C98.423,361,97.48,361.156,96.673,361.459"/>
		<path id="Fill-8" fill="#000000" d="M139.334,368.14c-1.959,1.14-3.422,3.038-4.021,5.215c-0.628,2.254-0.303,4.71,0.881,6.729
			c1.077,1.832,3.085,3.591,5.235,4.014c1.505,0.298,2.944,0.607,4.379,1.074c0.455,0.244,0.896,0.504,1.328,0.783
			c0.848,0.781,1.625,1.604,2.367,2.479c3.872,5.493,6.694,11.673,9.44,17.784c1.835,4.077,3.607,8.175,5.365,12.278
			c1.052,2.867,2.103,5.735,3.155,8.604c0.896,2.439,1.551,4.951,2.266,7.452c0.716,2.473,1.469,4.935,2.052,7.446
			c0.727,3.146,1.458,6.296,2.185,9.442c2.395,10.339,3.972,20.857,6.297,31.209c-0.127,1.726,0.246,3.49,1.14,5.01
			c0.77,1.299,1.81,2.331,3.107,3.099c1.826,1.063,4.626,1.683,6.672,0.872c1.667-0.659,2.795-1.038,4.088-2.331
			c1.077-1.075,2.018-2.654,2.425-4.124c0.655-2.353,0.121-4.683-0.361-6.996c-0.369-1.771-0.732-3.543-1.09-5.319
			c-0.705-3.472-1.386-6.948-2.079-10.424c-1.568-7.842-3.202-15.655-5.012-23.447c-0.863-3.74-1.947-7.398-3.009-11.089
			c-0.385-1.349-0.698-2.747-1.184-4.057c-0.835-2.281-1.671-4.557-2.513-6.838c-2.756-7.502-6.133-14.779-9.417-22.061
			c-1.728-3.828-3.63-7.622-5.716-11.27c-2.216-3.87-4.989-7.676-8.377-10.604c-1.596-1.378-3.295-2.534-5.193-3.434
			c-2.491-1.184-4.972-1.848-7.662-2.38c-0.83-0.161-1.642-0.257-2.438-0.257C142.162,367,140.729,367.327,139.334,368.14"/>
		<path id="Fill-10" fill="#000000" d="M43.088,367.309c-2.473,0.487-4.494,2.13-6.07,4.034c-1.517,1.833-3.039,3.756-4.294,5.781
			c-1.218,1.949-2.43,3.897-3.642,5.847c-0.806,1.293-1.468,2.688-2.191,4.029c-0.891,1.652-1.902,3.285-2.684,4.992
			c-1.725,3.762-3.452,7.518-5.175,11.272c-1.896,4.144-3.393,8.502-5.05,12.744c-1.375,3.526-2.538,7.14-3.772,10.715
			c-1.098,3.19-2.152,6.416-3.07,9.661c-1.075,3.811-2.153,7.599-2.935,11.476c-0.539,2.644-0.924,5.343-1.109,8.03
			c-0.147,2.113,0.211,4.232,0.108,6.345c-0.035,0.663-0.07,1.321-0.12,1.979c-0.746,3.671-2.029,7.221-2.82,10.887
			c-0.496,2.311-0.342,4.561,0.864,6.635c1.119,1.927,2.972,3.367,5.11,3.959c2.206,0.612,4.613,0.296,6.587-0.866
			c2.016-1.188,3.179-2.979,3.929-5.145c1.115-3.242,2.224-6.493,3.143-9.795c0.538-1.922,0.732-3.93,0.924-5.907
			c0.065-0.716,0.108-1.456,0.103-2.173c-0.02-2.429-0.203-4.827-0.03-7.242c1.226-7.328,3.492-14.398,5.684-21.487
			c2.283-7.396,5.143-14.581,7.942-21.784c1.814-4.048,3.534-8.164,5.613-12.075c2.264-4.258,4.515-8.517,7.105-12.571
			c1.795-0.651,3.787-2.04,4.536-3.781c0.207-0.471,0.407-0.947,0.609-1.418c0.413-0.959,0.81-1.922,1.201-2.892
			c0.131-0.968,0.26-1.933,0.38-2.9c0.278-2.131-1.081-4.676-2.516-6.12c-1.072-1.074-2.338-1.813-3.789-2.229
			c-0.764-0.205-1.526-0.309-2.286-0.309C44.61,367,43.85,367.104,43.088,367.309"/>
		<path id="Fill-12" fill="#000000" d="M109.755,190.065c-6.572,0.065-13.177,0.283-19.732,0.768
			c-7.672,0.566-15.321,1.257-22.899,2.591c-2.769,0.485-5.489,1.307-8.144,2.21c-1.203,0.414-2.368,0.931-3.544,1.422
			c-1.352,0.571-2.456,1.448-3.566,2.405c-2.325,1.999-3.507,6.13-2.518,8.993c0.561,1.617,1.061,2.739,2.297,3.964
			c1.369,1.356,2.216,1.546,3.974,2.275c1.538,0.409,3.077,0.409,4.616,0c1.429-0.402,2.679-1.106,3.74-2.125
			c4.005-1.439,8.11-2.341,12.325-3.002c8.298-0.989,16.667-1.674,25.027-1.884c9.622-0.245,19.282-0.605,28.899,0.032
			c2.24,0.151,4.653-1.008,6.203-2.542c1.638-1.623,2.566-3.85,2.566-6.146c0-2.292-0.929-4.518-2.566-6.142
			c-1.726-1.714-3.819-2.389-6.203-2.547c-4.003-0.265-8.006-0.337-12.01-0.337C115.398,190,112.577,190.036,109.755,190.065"/>
	</g>
</g>
</svg>
