<?xml version="1.0" encoding="UTF-8"?>
<svg width="800px" height="1000px" viewBox="0 0 800 1000" version="1.1" xmlns="http://www.w3.org/2000/svg" xmlns:xlink="http://www.w3.org/1999/xlink">
    <!-- Generator: Sketch 51.1 (57501) - http://www.bohemiancoding.com/sketch -->
    <title>rocket_DL</title>
    <desc>Created with Sketch.</desc>
    <defs></defs>
    <g id="rocket_DL" stroke="none" stroke-width="1" fill="none" fill-rule="evenodd">
        <g id="logo-footer" transform="translate(552.000000, 703.000000)">
            <g>
                <path d="M110.812545,8.25651402 C110.904572,8.56348079 110.810146,8.81874549 110.573746,9.09365441 C110.548096,9.12348237 110.524607,9.14951827 110.482164,9.19539003 C110.410296,9.27306357 110.388406,9.29969141 110.394575,9.28699974 C110.158488,9.77253772 109.949286,10.3963755 109.78094,11.1092981 C109.323962,13.0450464 110.241419,14.6677006 112.137009,15.2172501 C114.194676,15.8138908 116.608374,14.6870388 117.500673,12.7424366 C118.556971,10.4412591 118.361229,8.87677042 116.832238,7.67717368 C114.960938,6.20902274 112.357851,6.27012948 111.072216,7.83985899 L110.795491,8.1777337 C110.794947,8.20051389 110.804056,8.228204 110.812545,8.25651402 Z M110.106083,6.26944954 C110.423589,5.88663707 110.955421,5.49967933 111.419965,5.30848582 C112.37958,4.91358991 113.68037,4.90617957 115.133698,5.23840657 C117.932917,5.87841333 120.108577,8.22064492 119.995807,10.6570534 C119.760531,15.7499925 113.426094,19.0246323 109.732148,15.5763745 C107.943744,13.9068501 107.553768,11.8021869 108.499361,9.2850154 C108.62423,8.95356867 108.851111,8.49010331 109.049811,8.18524994 C109.270059,7.84733807 109.481086,7.64146186 109.750777,7.55562368 C109.778602,7.54676715 109.806094,7.5393618 109.833231,7.53336632 C109.647627,7.16965375 109.747904,6.70130236 110.106083,6.26944954 Z" id="Fill-4" fill="#000000" fill-rule="nonzero"></path>
                <path d="M116,2.36382675 C116.035222,2.23410526 116.077249,2.03952302 116.14169,1.8509661 C116.280178,1.44230796 116.378641,1.03435869 116.377039,0.600890425 C116.376639,0.410561355 116.256963,0.110004457 116.623996,0.0412449782 C116.938196,-0.017590452 117.272408,-0.0501980398 117.512961,0.20711836 C117.655051,0.358460099 117.796741,0.518308165 117.8896,0.694814455 C118.216208,1.3175485 117.776729,2.53572545 117.114308,2.89086461 C116.612389,3.15987721 116.012808,2.911776 116,2.36382675" id="Fill-103" fill="#000000" fill-rule="nonzero"></path>
                <path d="M113.597281,1.30015424 C113.547641,1.6054057 113.484683,1.90995301 113.451993,2.21696486 C113.409214,2.61727733 113.068594,2.79366831 112.724342,2.93802021 C112.426905,3.06335991 112.146418,3.01090032 112.073774,2.6669203 C111.908307,1.88389925 112.059649,1.1040469 112.154086,0.329475719 C112.197269,-0.0278832593 112.773982,-0.106396611 113.167067,0.152380579 C113.512933,0.380527 113.619074,0.676272361 113.597281,1.30015424" id="Fill-107" fill="#000000" fill-rule="nonzero"></path>
                <path d="M112.19066,11.6823452 C110.632914,12.6206952 108.591708,13.9682577 107.051494,14.9237702 C106.603919,15.2015633 106.260092,15.3386205 105.847581,15.6483439 C105.453117,15.9444969 105.00264,16.1407116 104.673147,15.8744932 C104.334372,15.6006913 103.968388,15.4738054 104.253536,15.0032335 C104.507231,14.584149 104.804932,14.5525935 105.343775,14.3418539 C106.408054,13.9255633 108.032176,12.8044553 108.976827,12.2352987 C109.267132,12.0600815 109.780582,11.6912496 110.031699,11.4841022 C110.690685,10.9400907 110.546085,10.7856194 109.803565,10.2635599 C108.494872,9.34277154 106.87805,8.31351987 105.559045,7.40151231 C105.221301,7.16842154 104.87376,6.94291422 104.554064,6.69585398 C103.681603,6.022525 103.837029,5.29651112 105.037953,5.02270928 C105.314335,4.95964705 105.519044,5.02949445 105.664454,5.21269422 C106.875175,6.74015718 109.059218,7.93310366 110.770108,9.0590438 C111.354328,9.44340412 111.803432,9.85804585 112.62433,10.0292717 C113.067264,10.1214703 112.94712,10.4970498 112.994043,10.9392837 C113.057467,11.2214672 112.602656,11.4340876 112.19066,11.6823452 Z" id="chevron" fill="#000000" fill-rule="nonzero" transform="translate(108.500000, 10.500000) rotate(-2.000000) translate(-108.500000, -10.500000) "></path>
                <path d="M4.80555555,7.71270718 L2.78703703,7.71270718 L2.78703703,12.9005525 L2.01851852,12.9005525 L2.01851852,7.71270718 L0,7.71270718 L0,7.09944751 L4.80555555,7.09944751 L4.80555555,7.71270718 Z M9.97657951,10.2403315 L6.8654684,10.2403315 L6.8654684,12.9005525 L6.09694989,12.9005525 L6.09694989,7.09944751 L6.8654684,7.09944751 L6.8654684,9.62707182 L9.97657951,9.62707182 L9.97657951,7.09944751 L10.745098,7.09944751 L10.745098,12.9005525 L9.97657951,12.9005525 L9.97657951,10.2403315 Z M12.6568627,7.09944751 L16.1846405,7.09944751 L16.1846405,7.71270718 L13.4253813,7.71270718 L13.4253813,9.61049724 L15.953159,9.61049724 L15.953159,10.2237569 L13.4253813,10.2237569 L13.4253813,12.2872928 L16.2309368,12.2872928 L16.2309368,12.9005525 L12.6568627,12.9005525 L12.6568627,7.09944751 Z M20.7674291,7.09944751 C20.8847137,7.08287284 21.0158852,7.07044203 21.1609477,7.0621547 C21.3060102,7.05386736 21.4572432,7.04834254 21.6146514,7.04558011 C21.7720596,7.04281768 21.926379,7.04005525 22.0776143,7.03729282 C22.2288497,7.03453039 22.3692805,7.03314917 22.4989106,7.03314917 C23.0174317,7.03314917 23.4665011,7.10497164 23.8461328,7.24861878 C24.2257645,7.39226593 24.539033,7.59254015 24.7859476,7.84944751 C25.0328623,8.10635488 25.2165027,8.41436285 25.3368736,8.77348066 C25.4572445,9.13259848 25.5174291,9.52762215 25.5174291,9.95856354 C25.5174291,10.3508307 25.4603309,10.7278988 25.3461328,11.089779 C25.2319348,11.4516593 25.0513808,11.7720981 24.8044662,12.051105 C24.5575516,12.3301119 24.236567,12.5538666 23.8415032,12.7223757 C23.4464394,12.8908848 22.9680495,12.9751381 22.406318,12.9751381 C22.3075521,12.9751381 22.179467,12.9737569 22.0220588,12.9709945 C21.8646506,12.968232 21.7026152,12.9627072 21.5359477,12.9544199 C21.3692802,12.9461326 21.2149607,12.9392266 21.0729847,12.9337017 C20.9310087,12.9281767 20.8291578,12.9198895 20.7674291,12.9088398 L20.7674291,7.09944751 Z M22.5174291,7.64640884 L22.2535402,7.64640884 C22.1578608,7.64640884 22.0637259,7.64917122 21.9711328,7.65469613 C21.8785398,7.66022104 21.7936641,7.66574581 21.7165032,7.67127072 C21.6393424,7.67679563 21.5791578,7.6823204 21.5359477,7.6878453 L21.5359477,12.3287293 C21.566812,12.3342542 21.6254534,12.3383978 21.7118736,12.3411602 C21.7982938,12.3439227 21.887799,12.3466851 21.9803921,12.3494475 C22.0729851,12.3522099 22.1624904,12.3549724 22.2489106,12.3577348 C22.3353309,12.3604972 22.3939723,12.3618785 22.4248365,12.3618785 C22.8569374,12.3618785 23.2195881,12.2955808 23.5127995,12.1629834 C23.8060109,12.0303861 24.0405762,11.852211 24.2165032,11.628453 C24.3924302,11.404695 24.5174286,11.1477915 24.5915032,10.8577348 C24.6655778,10.5676781 24.7026143,10.2679574 24.7026143,9.95856354 C24.7026143,9.68784397 24.6686642,9.41574724 24.6007625,9.14226519 C24.5328607,8.86878315 24.4155783,8.62154807 24.2489106,8.40055249 C24.0822429,8.17955691 23.8584801,7.99861948 23.5776143,7.85773481 C23.2967486,7.71685014 22.9433571,7.64640884 22.5174291,7.64640884 Z M26.892157,10 C26.892157,9.03314434 27.1205495,8.29143904 27.5773422,7.77486188 C28.0341344,7.25828471 28.6853622,7 29.5310459,7 C29.9878381,7 30.3828957,7.07182247 30.7162311,7.21546961 C31.0495659,7.35911676 31.3257979,7.56215336 31.5449348,7.82458564 C31.7640716,8.08701791 31.9261071,8.40193186 32.0310459,8.76933702 C32.1359847,9.13674217 32.1884533,9.54695907 32.1884533,10 C32.1884533,10.9668557 31.9585171,11.708561 31.4986385,12.2251381 C31.0387594,12.7417153 30.3829019,13 29.5310459,13 C29.080426,13 28.6899981,12.9281775 28.3597496,12.7845304 C28.0295006,12.6408832 27.7548124,12.4378466 27.5356755,12.1754144 C27.3165387,11.9129821 27.1545032,11.5980681 27.0495644,11.230663 C26.9446256,10.8632578 26.892157,10.4530409 26.892157,10 Z M27.7069718,10 C27.7069718,10.3204436 27.7424651,10.624308 27.8134533,10.9116022 C27.884441,11.1988965 27.9940078,11.4516564 28.142157,11.6698895 C28.2903057,11.8881227 28.4801184,12.0621541 28.7116014,12.191989 C28.943084,12.3218238 29.2162295,12.3867403 29.5310459,12.3867403 C30.1051225,12.3867403 30.5557352,12.1919909 30.8828977,11.8024862 C31.2100598,11.4129815 31.3736385,10.8121587 31.3736385,10 C31.3736385,9.68508131 31.3381447,9.38259816 31.267157,9.09254144 C31.1961688,8.80248476 31.0850587,8.54834365 30.9338237,8.3301105 C30.7825881,8.11187735 30.5912321,7.93784595 30.3597496,7.80801105 C30.1282666,7.67817615 29.8520351,7.61325967 29.5310459,7.61325967 C28.9631416,7.61325967 28.5171585,7.80800912 28.1930829,8.19751381 C27.8690068,8.58701851 27.7069718,9.18784125 27.7069718,10 Z M33.5631807,10 C33.5631807,9.03314434 33.7915737,8.29143904 34.2483658,7.77486188 C34.7051585,7.25828471 35.3563864,7 36.2020695,7 C36.6588622,7 37.0539198,7.07182247 37.3872547,7.21546961 C37.7205896,7.35911676 37.9968216,7.56215336 38.2159584,7.82458564 C38.4350953,8.08701791 38.5971308,8.40193186 38.7020695,8.76933702 C38.8070083,9.13674217 38.8594769,9.54695907 38.8594769,10 C38.8594769,10.9668557 38.6295412,11.708561 38.1696621,12.2251381 C37.7097835,12.7417153 37.053926,13 36.2020695,13 C35.7514502,13 35.3610217,12.9281775 35.0307732,12.7845304 C34.7005248,12.6408832 34.425836,12.4378466 34.2066992,12.1754144 C33.9875623,11.9129821 33.8255268,11.5980681 33.7205881,11.230663 C33.6156493,10.8632578 33.5631807,10.4530409 33.5631807,10 Z M34.3779955,10 C34.3779955,10.3204436 34.4134893,10.624308 34.484477,10.9116022 C34.5554651,11.1988965 34.665032,11.4516564 34.8131807,11.6698895 C34.9613298,11.8881227 35.1511426,12.0621541 35.3826251,12.191989 C35.6141076,12.3218238 35.8872532,12.3867403 36.2020695,12.3867403 C36.7761467,12.3867403 37.2267594,12.1919909 37.5539214,11.8024862 C37.8810834,11.4129815 38.0446621,10.8121587 38.0446621,10 C38.0446621,9.68508131 38.0091688,9.38259816 37.9381806,9.09254144 C37.867193,8.80248476 37.7560829,8.54834365 37.6048473,8.3301105 C37.4536122,8.11187735 37.2622558,7.93784595 37.0307732,7.80801105 C36.7992907,7.67817615 36.5230587,7.61325967 36.2020695,7.61325967 C35.6341657,7.61325967 35.1881822,7.80800912 34.8641066,8.19751381 C34.540031,8.58701851 34.3779955,9.18784125 34.3779955,10 Z M40.5027233,7.09944751 C40.6200078,7.08287284 40.7511791,7.07044203 40.8962419,7.0621547 C41.0413041,7.05386736 41.1925371,7.04834254 41.3499456,7.04558011 C41.5073535,7.04281768 41.6616729,7.04005525 41.8129085,7.03729282 C41.9641436,7.03453039 42.1045747,7.03314917 42.2342048,7.03314917 C42.7527259,7.03314917 43.2017954,7.10497164 43.581427,7.24861878 C43.9610587,7.39226593 44.2743267,7.59254015 44.5212419,7.84944751 C44.7681565,8.10635488 44.9517969,8.41436285 45.0721678,8.77348066 C45.1925387,9.13259848 45.2527233,9.52762215 45.2527233,9.95856354 C45.2527233,10.3508307 45.1956251,10.7278988 45.081427,11.089779 C44.967229,11.4516593 44.786675,11.7720981 44.5397604,12.051105 C44.2928452,12.3301119 43.9718612,12.5538666 43.5767974,12.7223757 C43.1817336,12.8908848 42.7033432,12.9751381 42.1416122,12.9751381 C42.0428463,12.9751381 41.9147609,12.9737569 41.757353,12.9709945 C41.5999445,12.968232 41.437909,12.9627072 41.2712419,12.9544199 C41.1045742,12.9461326 40.9502547,12.9392266 40.8082789,12.9337017 C40.6663026,12.9281767 40.5644517,12.9198895 40.5027233,12.9088398 L40.5027233,7.09944751 Z M42.2527233,7.64640884 L41.9888344,7.64640884 C41.8931549,7.64640884 41.7990201,7.64917122 41.706427,7.65469613 C41.6138339,7.66022104 41.5289584,7.66574581 41.4517974,7.67127072 C41.3746364,7.67679563 41.3144517,7.6823204 41.2712419,7.6878453 L41.2712419,12.3287293 C41.3021061,12.3342542 41.3607475,12.3383978 41.4471678,12.3411602 C41.533588,12.3439227 41.6230932,12.3466851 41.7156863,12.3494475 C41.8082794,12.3522099 41.8977846,12.3549724 41.9842048,12.3577348 C42.0706251,12.3604972 42.1292665,12.3618785 42.1601307,12.3618785 C42.5922316,12.3618785 42.9548823,12.2955808 43.2480937,12.1629834 C43.5413051,12.0303861 43.7758705,11.852211 43.9517974,11.628453 C44.1277244,11.404695 44.2527228,11.1477915 44.3267974,10.8577348 C44.400872,10.5676781 44.4379085,10.2679574 44.4379085,9.95856354 C44.4379085,9.68784397 44.4039584,9.41574724 44.3360567,9.14226519 C44.2681549,8.86878315 44.150872,8.62154807 43.9842048,8.40055249 C43.8175371,8.17955691 43.5937743,7.99861948 43.3129085,7.85773481 C43.0320428,7.71685014 42.6786513,7.64640884 42.2527233,7.64640884 Z M50.7293025,12.9005525 L46.8959692,12.9005525 L46.8959692,7.09944751 L47.6644877,7.09944751 L47.6644877,12.2872928 L50.7293025,12.2872928 L50.7293025,12.9005525 Z M52.0206971,7.09944751 L55.5484749,7.09944751 L55.5484749,7.71270718 L52.7892156,7.71270718 L52.7892156,9.61049724 L55.3169934,9.61049724 L55.3169934,10.2237569 L52.7892156,10.2237569 L52.7892156,12.2872928 L55.5947712,12.2872928 L55.5947712,12.9005525 L52.0206971,12.9005525 L52.0206971,7.09944751 Z M63.9645968,12.9005525 L60.1312634,12.9005525 L60.1312634,7.09944751 L60.8997819,7.09944751 L60.8997819,12.2872928 L63.9645968,12.2872928 L63.9645968,12.9005525 Z M65.4319172,7.09944751 L66.2004357,7.09944751 L66.2004357,12.9005525 L65.4319172,12.9005525 L65.4319172,7.09944751 Z M72.1955335,8.42541436 C72.1955335,8.5635366 72.1708426,8.70441915 72.1214594,8.8480663 C72.0720767,8.99171344 71.9980031,9.12569001 71.8992372,9.25 C71.8004712,9.37431004 71.6739296,9.48342495 71.5196075,9.57734807 C71.365286,9.67127118 71.1831888,9.74309369 70.9733113,9.79281768 L70.9733113,9.82596685 C71.1584975,9.8535913 71.3359651,9.90055216 71.5057187,9.96685083 C71.6754728,10.0331495 71.8251626,10.1243088 71.9547927,10.2403315 C72.0844234,10.3563542 72.1893606,10.4972367 72.2696075,10.6629834 C72.349855,10.8287301 72.3899779,11.0248607 72.3899779,11.2513812 C72.3899779,11.5497252 72.3205345,11.8080099 72.1816446,12.0262431 C72.0427552,12.2444762 71.8606585,12.4226512 71.6353483,12.5607735 C71.4100386,12.6988957 71.1523251,12.8011047 70.8622001,12.8674033 C70.5720757,12.933702 70.2757819,12.9668508 69.9733113,12.9668508 L69.6029409,12.9668508 C69.4609651,12.9668508 69.3128185,12.9627072 69.1584964,12.9544199 C69.0041749,12.9461326 68.8498555,12.935083 68.6955335,12.9212707 C68.541212,12.9074585 68.4054111,12.8867405 68.2881261,12.859116 L68.2881261,7.14917127 C68.5165227,7.11602192 68.7819517,7.08839788 69.0844224,7.06629834 C69.386893,7.0441988 69.7171369,7.03314917 70.0751631,7.03314917 C70.3159054,7.03314917 70.5612732,7.05110479 70.8112742,7.08701657 C71.0612758,7.12292836 71.288125,7.19198844 71.4918298,7.2941989 C71.6955345,7.39640935 71.8637428,7.53867311 71.9964594,7.72099448 C72.1291765,7.90331584 72.1955335,8.13812012 72.1955335,8.42541436 Z M70.0473853,12.3701657 C70.2449172,12.3701657 70.4362737,12.3494477 70.6214594,12.308011 C70.8066456,12.2665744 70.9702243,12.2002767 71.1122001,12.109116 C71.2541765,12.0179553 71.3668298,11.906078 71.4501631,11.7734807 C71.533497,11.6408833 71.5751631,11.4834263 71.5751631,11.301105 C71.5751631,11.0745845 71.5242377,10.8922659 71.4223853,10.7541436 C71.320533,10.6160214 71.1878185,10.5082877 71.0242372,10.4309392 C70.8606564,10.3535908 70.677016,10.3011051 70.4733113,10.2734807 C70.2696065,10.2458562 70.0659049,10.2320442 69.8622001,10.2320442 L69.0566446,10.2320442 L69.0566446,12.3121547 C69.099855,12.3232045 69.1615829,12.3314917 69.2418298,12.3370166 C69.3220772,12.3425415 69.4084964,12.3480663 69.501089,12.3535912 C69.5936821,12.3591161 69.6893601,12.3632597 69.7881261,12.3660221 C69.886892,12.3687845 69.9733113,12.3701657 70.0473853,12.3701657 Z M69.5381261,9.6519337 C69.6430649,9.6519337 69.769607,9.64917132 69.9177557,9.64364641 C70.0659049,9.6381215 70.1893601,9.6298343 70.2881261,9.61878453 C70.4362752,9.57458541 70.5751626,9.52071855 70.7047927,9.45718232 C70.8344234,9.39364609 70.9501626,9.31906119 71.052015,9.23342541 C71.1538673,9.14778964 71.2341137,9.04834309 71.2927557,8.93508287 C71.3513982,8.82182265 71.3807187,8.69889567 71.3807187,8.56629834 C71.3807187,8.38397698 71.3421389,8.23342601 71.2649779,8.11464088 C71.1878174,7.99585576 71.0844234,7.90055285 70.9547927,7.82872928 C70.8251626,7.75690571 70.677016,7.70580124 70.5103483,7.67541436 C70.3436811,7.64502749 70.1739296,7.62983425 70.001089,7.62983425 C69.7973843,7.62983425 69.610658,7.63397785 69.4409038,7.64226519 C69.2711502,7.65055253 69.1430649,7.66298333 69.0566446,7.67955801 L69.0566446,9.6519337 L69.5381261,9.6519337 Z M74.0332243,7.15745856 C74.2677932,7.11878435 74.5378524,7.08839788 74.8434095,7.06629834 C75.1489666,7.0441988 75.428285,7.03314917 75.6813725,7.03314917 C75.9653246,7.03314917 76.2353838,7.0607732 76.4915576,7.1160221 C76.747732,7.17127099 76.9730381,7.26243029 77.1674836,7.38950276 C77.361929,7.51657523 77.5177917,7.68231943 77.6350762,7.88674033 C77.7523606,8.09116123 77.8110021,8.33977753 77.8110021,8.63259669 C77.8110021,9.08563762 77.6721147,9.45303725 77.3943354,9.73480663 C77.1165561,10.016576 76.7647078,10.2044194 76.3387799,10.2983425 L76.7832243,10.6049724 L78.3943354,12.9005525 L77.4961873,12.9005525 L75.7091502,10.3977901 L74.8017428,10.2734807 L74.8017428,12.9005525 L74.0332243,12.9005525 L74.0332243,7.15745856 Z M75.699891,7.62983425 L75.449891,7.62983425 C75.3634707,7.62983425 75.2801384,7.63259664 75.199891,7.63812155 C75.1196436,7.64364645 75.0440273,7.64917122 74.9730391,7.65469613 C74.902051,7.66022104 74.8449527,7.66850824 74.8017428,7.67955801 L74.8017428,9.81767956 L75.5239651,9.81767956 C75.949893,9.81767956 76.3017413,9.72375783 76.5795206,9.5359116 C76.8572999,9.34806538 76.9961873,9.0552506 76.9961873,8.65745856 C76.9961873,8.35911455 76.8819908,8.11326064 76.6535947,7.9198895 C76.4251986,7.72651837 76.1073004,7.62983425 75.699891,7.62983425 Z M82.722767,11.2928177 L80.3338781,11.2928177 L79.68573,12.9005525 L78.9264707,12.9005525 L81.3801744,7.00828729 L81.7320263,7.00828729 L84.1949892,12.9005525 L83.3894337,12.9005525 L82.722767,11.2928177 Z M80.5838781,10.6961326 L82.4912855,10.6961326 L81.7690633,8.93093923 L81.5375818,8.05248619 L81.5283226,8.05248619 L81.2968411,8.94751381 L80.5838781,10.6961326 Z M85.3937907,7.15745856 C85.6283596,7.11878435 85.8984187,7.08839788 86.2039758,7.06629834 C86.5095329,7.0441988 86.7888514,7.03314917 87.0419388,7.03314917 C87.325891,7.03314917 87.5959501,7.0607732 87.852124,7.1160221 C88.1082984,7.17127099 88.3336044,7.26243029 88.5280499,7.38950276 C88.7224954,7.51657523 88.878358,7.68231943 88.9956425,7.88674033 C89.112927,8.09116123 89.1715684,8.33977753 89.1715684,8.63259669 C89.1715684,9.08563762 89.0326811,9.45303725 88.7549018,9.73480663 C88.477123,10.016576 88.1252742,10.2044194 87.6993462,10.2983425 L88.1437906,10.6049724 L89.7549018,12.9005525 L88.8567536,12.9005525 L87.0697166,10.3977901 L86.1623092,10.2734807 L86.1623092,12.9005525 L85.3937907,12.9005525 L85.3937907,7.15745856 Z M87.0604573,7.62983425 L86.8104573,7.62983425 C86.7240371,7.62983425 86.6407047,7.63259664 86.5604573,7.63812155 C86.4802099,7.64364645 86.4045936,7.64917122 86.3336055,7.65469613 C86.2626178,7.66022104 86.2055196,7.66850824 86.1623092,7.67955801 L86.1623092,9.81767956 L86.8845314,9.81767956 C87.3104594,9.81767956 87.6623081,9.72375783 87.9400869,9.5359116 C88.2178663,9.34806538 88.3567536,9.0552506 88.3567536,8.65745856 C88.3567536,8.35911455 88.2425571,8.11326064 88.014161,7.9198895 C87.7857649,7.72651837 87.4678668,7.62983425 87.0604573,7.62983425 Z M92.1111111,10.5966851 L89.9722222,7.09944751 L90.8703704,7.09944751 L92.3888889,9.63535912 L92.5462963,10.140884 L92.5555556,10.140884 L92.7222222,9.61878453 L94.1759259,7.09944751 L95,7.09944751 L92.8796296,10.5883978 L92.8796296,12.9005525 L92.1111111,12.9005525 L92.1111111,10.5966851 Z" id="the-Doodle-Library" fill="#666666" fill-rule="nonzero" opacity="0.595278533"></path>
            </g>
        </g>
        <g id="rocket" transform="translate(301.000000, 192.000000)">
            <polygon id="Path-7" fill="#FFFFFF" points="99 14.015625 47.859375 132.421875 47.859375 414.851562 151.796875 414.851562 151.796875 132.421875"></polygon>
            <path d="M109.402572,121.128616 C103.060239,121.638885 96.7262941,122.188297 90.3741758,122.533603 C82.8156582,122.943216 75.2864969,123.439504 67.7559376,124.166463 C63.409825,124.581668 59.0790894,125.36175 54.7874954,126.148822 C53.1435493,126.449392 51.4996032,126.885567 49.889207,127.338518 C48.162784,127.825021 46.5300212,128.392607 44.8818813,129.136342 C43.7341945,129.649406 42.8283466,130.402927 41.8623885,131.210969 C40.5287791,132.325172 39.7976704,134.236234 39.2413009,135.786613 C38.7925707,137.015452 38.8261207,138.49593 38.7212772,139.817037 C38.6723502,140.504852 38.6122399,141.194064 38.5577213,141.881879 C38.4375007,143.481187 38.3172802,145.087486 38.2529762,146.692386 C38.0992057,150.444609 38.061462,154.189843 38.0390954,157.942066 C37.9412415,173.0628 38.0558704,188.190524 38.0726454,203.311258 C38.0880224,218.334132 38.1816826,233.362598 38.5856796,248.37988 C38.6835335,251.842718 38.6667585,255.320934 38.8806393,258.778181 C39.1644157,263.392968 39.4426004,268.002164 39.7263769,272.615553 C40.1960757,280.349272 40.8950324,288.064816 41.5450621,295.781759 C41.8078698,298.878322 41.9658341,301.979079 42.1615419,305.075642 C42.4075747,308.957879 42.7850113,312.862484 42.9052318,316.751711 C43.1456729,324.243577 43.4895596,331.735442 43.6097802,339.223113 C43.8767816,355.102959 44.1829246,370.984203 44.6470319,386.858457 C44.8651064,394.427212 44.8930646,402.001559 45.3571719,409.55913 C45.4871778,411.727423 45.7709542,413.901308 46.2686114,416.015079 C46.6726083,417.734615 47.7042684,419.121428 48.7806617,420.459311 C49.3971415,421.235199 50.5112784,422.120131 51.2647537,422.545122 C53.4161424,423.76837 55.7870034,424.50092 58.1676499,425.117436 C62.0175033,426.111412 66.1175832,426.620283 70.0652905,427.03409 C76.7822642,427.738681 83.4712796,428.061618 90.2204053,427.99032 C96.7193045,427.91343 103.17347,427.280138 109.644411,426.761481 C113.079085,426.483279 116.513758,426.205078 119.954022,425.953439 C122.137563,425.795465 124.322502,425.641685 126.500451,425.423598 C129.132722,425.162172 131.759401,424.784713 134.353928,424.282832 C136.685647,423.834075 138.842628,422.982695 140.982833,421.977536 C143.074111,421.005928 144.712466,418.995608 145.766493,417.024433 C147.033002,414.66042 147.038594,412.088106 147.076337,409.483638 C147.098704,408.040905 147.190966,406.59957 147.311187,405.163828 C147.580984,401.849177 147.915085,398.548507 148.281339,395.249234 C149.243103,388.438193 150.403371,381.669093 151.504927,374.877624 C152.138182,370.950651 152.662399,367.013892 153.203392,363.075735 C153.793311,358.729363 154.131606,354.35503 154.546786,349.98629 C154.689374,348.473658 154.655824,346.923279 154.704751,345.405055 C154.792819,342.898446 154.873898,340.391838 154.961967,337.88523 C155.093371,333.986216 154.847338,330.042467 154.781636,326.13926 C154.727117,322.79665 154.535603,319.465223 154.366456,316.128205 C154.191716,312.7814 154.065904,309.433198 153.810086,306.097578 C151.407073,275.242389 148.600063,244.420753 145.744126,213.604709 C144.504177,200.176949 143.265626,186.753383 142.031268,173.325624 C140.889173,160.896034 139.786219,148.467842 138.252708,136.08159 C138.147865,135.3071 138.044419,134.525619 137.935382,133.749731 C137.520202,132.265059 136.766726,130.970513 135.680548,129.878678 C134.042193,128.240226 131.798542,127.311956 129.476608,127.311956 C127.161664,127.311956 124.918013,128.240226 123.279658,129.878678 C121.80486,131.352167 120.440496,133.914695 120.707498,136.08159 C122.695331,152.07747 124.016359,168.154433 125.491157,184.203437 C126.943589,199.974239 128.407205,215.74644 129.87082,231.51165 C131.180665,245.688736 132.366095,259.870016 133.61583,274.047102 C134.32597,282.140106 135.041701,290.227517 135.669364,298.326113 C136.302619,306.430301 136.749951,314.523304 137.165132,322.644268 C137.318902,325.549306 137.290944,328.469721 137.339871,331.376156 C137.384604,334.100852 137.465683,336.814364 137.373421,339.53906 C137.302127,341.712945 137.225242,343.88683 137.155346,346.064909 C137.110613,347.365046 137.138571,348.691745 137.018351,349.98629 C136.689841,353.443536 136.365525,356.895191 136.042607,360.346845 C135.530971,364.078098 135.005356,367.802362 134.414038,371.52383 C133.73605,375.74578 133.004942,379.962139 132.354912,384.182691 C131.584662,389.15257 130.945815,394.137826 130.400629,399.139859 C130.181157,401.138995 130.039967,403.153508 129.886197,405.163828 C129.824689,405.941114 129.791139,406.722594 129.767374,407.505472 C128.967768,407.676028 128.161172,407.822818 127.348984,407.955627 C121.775504,408.600104 116.1503,408.872713 110.561443,409.324266 C105.734448,409.718501 100.918636,410.154676 96.0804581,410.43847 C86.707449,411.000464 77.3204608,410.625801 68.0033683,409.500414 C66.1455414,409.213824 64.2849187,408.907663 62.4606418,408.460304 C62.0161054,401.888321 62.1055718,395.270204 61.9238431,388.694027 C61.683402,380.097744 61.4765108,371.508452 61.2682217,362.912169 C61.0878909,355.245554 61.0179952,347.577542 60.8977747,339.905335 C60.7775541,332.325396 60.4448507,324.741263 60.214195,317.161325 C60.1107495,313.824306 59.8060043,310.476104 59.5977153,307.146075 C59.3740491,303.628715 59.2216766,300.095977 58.9267168,296.584209 C58.3144308,289.184612 57.6154741,281.790606 57.1681418,274.379825 C56.8675905,269.432314 56.5670391,264.490396 56.2720794,259.542885 C56.0861569,256.51762 56.0707798,253.475579 55.988303,250.439129 C55.7646368,242.20353 55.616458,233.986105 55.535379,225.744913 C55.3816086,211.022608 55.3774148,196.294712 55.3718232,181.571009 C55.3718232,169.152603 55.0279365,156.669889 55.9631405,144.275249 C58.5157303,143.685295 61.1242366,143.282672 63.6852139,142.860477 C71.8755883,141.912635 80.0743501,141.42054 88.320641,141.073837 C92.62901,140.893495 96.9317873,140.664224 101.234565,140.390216 C103.250356,140.260202 105.264749,140.100831 107.274948,139.888335 C108.842009,139.719178 110.589401,139.533244 112.139687,139.123631 C115.442956,138.266659 118.768592,135.820164 119.50669,132.281834 C120.160914,129.108382 119.5668,125.962889 117.212714,123.608662 C116.098577,122.505643 114.788733,121.740938 113.280384,121.315947 C112.491961,121.10485 111.703538,121 110.912319,121 C110.410468,121 109.905821,121.043338 109.402572,121.128616" id="Fill-2" fill="#2C2C2C"></path>
            <path d="M91.1407432,2.51593194 C90.4622312,3.33259251 89.7767097,4.12259233 89.3014709,5.06413741 C89.1150203,5.43177499 88.9509998,5.80502535 88.7799699,6.17687251 C88.4294988,6.95564676 88.0790277,7.73442101 87.7285566,8.50758247 C87.0276144,10.0693406 86.3112514,11.6198731 85.6103092,13.1774216 C84.1313212,16.438451 82.7013991,19.7107061 81.2504487,22.9829611 C78.2560236,29.7309348 75.1115969,36.4115549 72.0947417,43.148303 C68.5409647,51.0791716 65.1343856,59.0381041 62.0796794,67.1724362 C59.3403973,74.4732694 57.1282237,81.9719533 54.8235257,89.4159126 C50.2617939,104.155092 44.6963128,118.522425 38.8406416,132.784517 C37.0574446,136.799064 35.2083591,140.750466 33.1153457,144.621886 C30.8765363,148.755704 32.0583248,154.000854 36.2093046,156.429788 C40.1640205,158.747869 45.7659506,157.465347 48.00476,153.331529 C51.8599421,146.222934 54.9875462,138.778974 57.9987939,131.281694 C61.0114435,123.760559 63.9357744,116.223988 66.705898,108.610242 C69.3344313,101.403423 71.5634275,94.0464622 73.8470972,86.7301938 C74.9700066,83.1169619 76.1742253,79.5275844 77.3574157,75.9368037 C78.4915402,72.4947618 79.8597794,69.1298958 81.1354942,65.7425786 C82.1154114,63.1424548 83.2649566,60.591443 84.3570246,58.0292055 C84.181789,58.4431486 84.0065535,58.8570917 83.829916,59.2738411 C87.3150007,51.4776795 90.8813946,43.7180009 94.3945169,35.9386776 C95.2174231,38.9204709 96.1384611,41.8756035 97.0160408,44.8419616 C97.547355,46.6450695 98.2272689,48.4159039 98.8286773,50.1923512 C99.3824217,51.8256723 99.8969132,53.4744286 100.499724,55.0867017 C103.3091,62.5952081 106.096046,70.1163432 108.871777,77.6360751 C110.273662,81.4401417 111.375543,85.3873344 112.617612,89.2461258 C113.762952,92.8032298 114.578849,96.4753959 115.530728,100.087225 C117.092427,106.007312 118.094775,112.085961 119.129365,118.12111 C120.081245,123.666544 120.842468,129.248461 121.614907,134.823362 C122.039677,138.063344 122.464448,141.304729 122.907444,144.546113 C123.099502,145.943697 123.329411,147.330056 123.597171,148.716414 C123.996708,150.783323 124.94999,152.87128 125.854205,154.734726 C127.523849,158.183784 132.096796,159.679591 135.607115,158.709982 C137.764615,158.117833 139.637532,156.669734 140.770255,154.734726 C141.855314,152.882506 142.413264,150.158901 141.640825,148.075153 C140.614646,145.317872 140.174454,142.416061 139.779123,139.512846 C138.745934,131.652138 137.665081,123.806864 136.439834,115.971413 C135.332345,108.928768 134.095883,101.841221 132.260817,94.9402985 C131.307535,91.3607434 130.465003,87.7278668 129.319663,84.2030363 C128.093014,80.4312432 127.009358,76.5836774 125.629903,72.873625 C122.83034,65.3468771 120.016758,57.832758 117.179344,50.3228485 C115.931667,47.0183199 114.880254,43.6310027 113.734914,40.2871846 C113.22603,38.8011992 112.826493,37.267505 112.376488,35.7590684 C111.901249,34.1706496 111.38115,32.5920531 110.959183,30.9910055 C109.163369,24.2514511 107.441855,17.5371542 106.2853,10.6558768 C106.227823,10.1956283 106.170346,9.73537971 106.112869,9.27372795 C105.877352,7.3836218 105.777818,6.07303595 104.797901,4.39621572 C103.872657,2.81200648 102.953021,2.2689693 101.539922,1.17307256 C100.203926,0.394298314 98.7585831,0.00561278738 97.208099,0 C95.1164874,0 92.525805,0.850337288 91.1407432,2.51593194" id="Fill-4" fill="#2C2C2C"></path>
            <path d="M105.813348,374.290505 L105.75695,374.364621 C105.758326,374.361824 105.758326,374.359027 105.759701,374.354832 C105.777583,374.333856 105.79409,374.31288 105.813348,374.290505 M96.6728179,361.458679 C94.4870689,362.278148 92.5420412,363.578671 91.381077,365.714046 C90.7414463,366.888712 90.2311172,368.161267 89.8762253,369.456196 C89.5639755,370.602893 89.467687,371.848878 89.2957432,373.029138 C89.1994547,373.771694 89.097664,374.514251 89,375.256808 C89.0055022,376.775483 89.3824029,378.185082 90.1293265,379.496792 C90.7496996,380.576366 91.6066672,381.497919 92.6135698,382.198524 C92.6080676,382.514565 92.6025654,382.829207 92.5956877,383.145248 C92.5461679,385.007933 92.5571723,386.881805 92.4498794,388.744489 C92.2297914,392.437694 92.0468432,396.135095 91.7896154,399.822707 C91.2256399,407.918112 90.6988042,416.007924 90.198104,424.10333 C89.2641056,439.207575 89.3287564,454.392928 89.4896958,469.519548 C89.5268356,472.791832 89.5543466,476.085091 89.7634302,479.351781 C89.9835182,482.793272 90.5915113,486.146664 91.0578228,489.550398 C91.4718633,491.041105 92.2132848,492.336034 93.2834627,493.433787 C94.3687716,494.525947 95.6370287,495.281089 97.103365,495.695019 C99.8709716,496.471138 103.60559,495.783119 105.528609,493.433787 C106.774857,491.909519 107.285186,491.123611 107.90831,489.22317 C108.193049,488.358951 108.279709,486.988508 108.242569,485.95648 C108.202678,484.762236 107.99497,483.566594 107.801017,482.375147 C107.502523,479.330805 107.424117,476.272478 107.366344,473.211355 C107.301693,469.585273 107.253548,465.9522 107.23154,462.319126 C107.188898,454.185963 107.259051,446.056996 107.414488,437.923833 C107.704729,422.85315 108.950977,407.830012 109.686896,392.781704 C109.962006,387.302726 110.182094,381.784594 109.779058,376.305617 C109.536961,373.061301 109.139428,369.298175 107.521781,366.396471 C107.065098,365.4903 106.484616,364.665237 105.785837,363.917087 C105.066424,363.305981 104.313998,362.731234 103.540939,362.191447 C102.412988,361.383165 100.877874,361 99.3812758,361 C98.4225175,361 97.4802657,361.156622 96.6728179,361.458679" id="Fill-6" fill="#2C2C2C"></path>
            <path d="M139.334127,368.139865 C137.375372,369.27973 135.912289,371.177633 135.31382,373.354887 C134.685779,375.607945 135.011065,378.06455 136.193922,380.083178 C137.271167,381.915104 139.279209,383.674033 141.429475,384.096569 C142.934802,384.394169 144.373945,384.704403 145.808864,385.170457 C146.263701,385.414713 146.704456,385.674412 147.136762,385.953763 C147.984477,386.735665 148.761783,387.558277 149.503885,388.432828 C153.376336,393.925798 156.198296,400.105213 158.944215,406.217247 C160.779052,410.293808 162.55193,414.391426 164.309318,418.494658 C165.361217,421.362569 166.411707,424.230481 167.465013,427.098392 C168.360605,429.538152 169.015402,432.049504 169.730749,434.55103 C170.446096,437.023077 171.199463,439.485298 171.782443,441.99665 C172.509056,445.143912 173.239893,448.292579 173.966505,451.439841 C176.361792,461.77864 177.938935,472.297122 180.263813,482.648555 C180.137078,484.373793 180.510242,486.138338 181.403018,487.658626 C182.173283,488.957117 183.212508,489.988891 184.510835,490.756756 C186.337223,491.819413 189.136653,492.439881 191.182714,491.6285 C192.84998,490.970129 193.977919,490.59111 195.270614,489.298234 C196.347859,488.222943 197.288512,486.643697 197.695472,485.173945 C198.350268,482.821219 197.816574,480.490953 197.333573,478.177533 C196.964635,476.40597 196.601328,474.634406 196.243655,472.858632 C195.539573,469.387097 194.858022,465.909948 194.165205,462.434202 C192.596511,454.592718 190.963041,446.77931 189.153551,438.986958 C188.290346,435.247303 187.20606,431.589066 186.144305,427.898543 C185.759876,426.549516 185.445856,425.151357 184.961447,423.841635 C184.126406,421.560502 183.289957,419.284983 182.447875,417.00385 C179.692099,409.502079 176.315322,402.224912 173.031484,394.943534 C171.303668,391.115441 169.401238,387.321039 167.315748,383.674033 C165.099298,379.803827 162.326624,375.998194 158.938582,373.069921 C157.343133,371.692818 155.643479,370.536108 153.745274,369.636288 C151.254233,368.452907 148.773048,367.788921 146.083456,367.256891 C145.252639,367.095457 144.441537,367 143.645924,367 C142.16172,367 140.729617,367.327079 139.334127,368.139865" id="Fill-8" fill="#2C2C2C"></path>
            <path d="M43.0881918,367.308322 C40.6156424,367.796031 38.5939124,369.438547 37.0174361,371.343136 C35.5007908,373.176251 33.9785797,375.099059 32.7235209,377.124174 C31.5060304,379.07361 30.2941055,381.021644 29.0821806,382.97108 C28.2765497,384.26323 27.6142349,385.659088 26.8906977,387.000288 C26.0001903,388.652614 24.9886296,390.285319 24.2066528,391.992302 C22.4826862,395.753831 20.7545453,399.509753 19.0319701,403.264275 C17.1354677,407.408403 15.6396937,411.766955 13.9825151,416.009186 C12.6077944,419.535268 11.4445691,423.148242 10.2103816,426.723375 C9.11255294,429.914508 8.05785828,433.139276 7.13952256,436.385066 C6.06395663,440.195646 4.98699928,443.983802 4.2050225,447.860251 C3.66654383,450.503411 3.28112111,453.202631 3.09606255,455.890638 C2.94857226,458.004045 3.30755805,460.123058 3.20459313,462.235064 C3.16980769,462.897956 3.13502224,463.556644 3.08493121,464.213931 C2.33913129,467.884364 1.05624411,471.434272 0.264527406,475.100501 C-0.230817316,477.411514 -0.0777613625,479.660864 1.12859784,481.73503 C2.24729771,483.662043 4.10066617,485.102747 6.23788385,485.694165 C8.44467242,486.306605 10.8518251,485.989874 12.8248555,484.82806 C14.8410199,483.641021 16.0042451,481.84995 16.7542193,479.683287 C17.8687449,476.441702 18.9777049,473.190306 19.8960406,469.888457 C20.4345193,467.967051 20.6293177,465.958753 20.819942,463.981288 C20.8853386,463.26514 20.9284726,462.525167 20.9229069,461.809019 C20.903427,459.380283 20.7197599,456.980977 20.8922957,454.566255 C22.1181347,447.238001 24.3847543,440.167617 26.5762372,433.079013 C28.8595538,425.683489 31.7189173,418.498185 34.5184498,411.294662 C36.3328586,407.247234 38.0526509,403.131136 40.1314291,399.21965 C42.3952658,394.962004 44.6465797,390.702956 47.2373996,386.648521 C49.0323285,385.99684 51.0248387,384.60799 51.7734215,382.867372 C51.9807427,382.39648 52.1811069,381.919983 52.3828624,381.449091 C52.7961135,380.49049 53.1926676,379.527684 53.583656,378.557871 C53.7144492,377.58946 53.8438511,376.625253 53.963513,375.656841 C54.2417966,373.526616 52.8823814,370.981558 51.4478297,369.536649 C50.376438,368.463128 49.1102479,367.724557 47.6589991,367.308322 C46.8951108,367.103708 46.1326139,367 45.3728998,367 C44.6104028,367 43.8492973,367.103708 43.0881918,367.308322" id="Fill-10" fill="#2C2C2C"></path>
            <path d="M109.75479,190.065501 C103.182391,190.131001 96.5776354,190.348408 90.0221168,190.833391 C82.3510346,191.399206 74.7010539,192.090447 67.1228181,193.424152 C64.3543072,193.909135 61.6336263,194.731378 58.9790633,195.634451 C57.7762804,196.048359 56.6114801,196.565396 55.4354257,197.055954 C54.0835258,197.627343 52.9792164,198.503937 51.8692798,199.461362 C49.5438995,201.459829 48.3622181,205.591945 49.3511729,208.454463 C49.9124716,210.071075 50.4118727,211.192948 51.6484179,212.41795 C53.017199,213.773953 53.8640707,213.963487 55.6225253,214.69375 C57.1601179,215.102083 58.6991174,215.102083 60.2381168,214.69375 C61.6673887,214.29099 62.9165948,213.587206 63.9787013,212.568462 C67.9837574,211.128841 72.0886938,210.227162 76.3033577,209.566581 C84.6018564,208.577103 92.9706934,207.89283 101.33109,207.682391 C110.953353,207.437112 120.613599,207.077556 130.230235,207.714445 C132.47121,207.866351 134.88381,206.70685 136.434063,205.172462 C138.071536,203.550275 139,201.323253 139,199.026549 C139,196.734026 138.071536,194.508397 136.434063,192.884816 C134.707964,191.17065 132.6147,190.496133 130.230235,190.337259 C126.227993,190.072469 122.224343,190 118.220694,190 C115.398726,190 112.576758,190.036234 109.75479,190.065501" id="Fill-12" fill="#2C2C2C"></path>
        </g>
    </g>
</svg>