<?xml version="1.0" encoding="utf-8"?>
<!-- Generator: Adobe Illustrator 16.0.0, SVG Export Plug-In . SVG Version: 6.00 Build 0)  -->
<!DOCTYPE svg PUBLIC "-//W3C//DTD SVG 1.1//EN" "http://www.w3.org/Graphics/SVG/1.1/DTD/svg11.dtd">
<svg version="1.1" id="Layer_1" xmlns="http://www.w3.org/2000/svg" xmlns:xlink="http://www.w3.org/1999/xlink" x="0px" y="0px"
	 width="800px" height="1000px" viewBox="0 0 800 1000" enable-background="new 0 0 800 1000" xml:space="preserve">
<title>saturn_DL</title>
<desc>Created with Sketch.</desc>
<g id="saturn_DL">
	<g id="saturn" transform="translate(180.000000, 223.000000)">
		<ellipse id="Oval" fill="#FFFFFF" cx="222.5" cy="222.5" rx="123.5" ry="137.5"/>
		<path id="Fill-1" fill="#2C2C2C" d="M97.734,246.133c-0.002,0.274-0.003,0.546-0.007,0.819
			C97.73,246.68,97.732,246.407,97.734,246.133 M121.403,119.5c-0.08,0.079-0.161,0.158-0.241,0.237
			C121.242,119.658,121.323,119.579,121.403,119.5 M272.624,116.854c6.759,3.087,13.349,6.472,19.823,10.118
			c2.41,1.528,4.787,3.085,7.048,4.835c2.592,2.003,5.047,4.125,7.466,6.333c2.288,2.093,4.395,4.401,6.615,6.568
			c1.709,1.666,3.422,3.316,5.114,4.995c0.905,1.054,1.813,2.109,2.719,3.164c0.944,1.1,1.751,2.349,2.618,3.51
			c1.475,1.982,2.815,4.076,4.146,6.157c2.741,4.274,5.482,8.531,8.057,12.901c2.087,4.313,3.989,8.662,5.319,13.266
			c0.996,4.625,1.273,9.313,1.445,14.04c0.153,4.101,0.389,8.195,0.518,12.296c-0.093,3.086-0.264,6.165-0.35,9.25
			c-0.103,3.719-0.151,7.416-0.479,11.125c-0.328,3.683-1.196,7.337-1.955,10.948c-0.688,3.271-1.455,6.523-2.274,9.764
			c-1.8,6.437-3.699,12.864-6.122,19.094c-1.334,3.435-3.06,6.742-4.625,10.073c-1.278,2.727-2.607,5.402-4.068,8.031
			c-4.502,7.166-10.046,13.706-15.954,19.759c-3.082,2.965-6.231,5.849-9.434,8.681c-3.459,3.059-7.132,5.781-10.987,8.318
			c-4.038,2.657-7.966,5.497-12.021,8.129c-3.749,2.435-7.628,4.698-11.505,6.927c-7.701,3.994-16.097,6.576-24.442,8.87
			c-3.413,0.803-6.849,1.455-10.363,1.651c-3.693,0.21-7.387,0.455-11.084,0.581c-2.303-0.074-4.596-0.211-6.895-0.374
			c-2.725-0.194-5.463-0.276-8.185-0.498c-2.776-0.23-5.554-0.46-8.311-0.844c-2.152-0.3-4.263-0.76-6.365-1.287
			c-6.72-2.079-13.236-4.778-19.827-7.228c-3.204-1.187-6.255-2.695-9.332-4.169c-2.836-1.357-5.775-2.506-8.558-3.963
			c-2.491-1.672-4.856-3.531-7.026-5.608c-1.298-1.413-2.584-2.843-3.852-4.281c-1.746-1.987-3.61-3.849-5.475-5.718
			c-2.821-3.03-5.333-6.317-8.048-9.438c-1.303-1.498-2.482-3.065-3.659-4.655c-1.271-1.713-2.574-3.362-3.719-5.154
			c-1.637-3.271-2.882-6.717-4.143-10.15c-0.701-1.925-1.855-3.629-2.654-5.509c-0.79-1.872-1.52-3.753-2.432-5.566
			c-1.832-3.632-3.2-7.394-4.591-11.206c-1.225-3.341-2.776-6.505-3.756-9.926c-0.328-1.326-0.661-2.65-1.002-3.973
			c-0.339-1.305-0.761-2.585-1.134-3.88c-0.309-1.291-0.619-2.581-0.943-3.869c0.102,0.397,0.204,0.795,0.304,1.192
			c-0.376-1.665-0.485-3.309-0.503-5.003c0.019-1.843,0.043-3.685,0.051-5.525c0.052-2.436,0.258-4.856,0.346-7.293
			c0.104-2.949,0.131-5.894,0.133-8.844c0.046-2.294,0.116-4.597,0.25-6.887c0.177-2.979,0.281-5.985,0.607-8.95
			c0.597-5.346,1.668-10.588,3.016-15.787c0.915-3.282,1.831-6.576,2.868-9.821c1.13-3.534,2.544-6.967,3.802-10.455
			c1.389-3.842,2.809-7.708,4.751-11.313c1.668-3.084,3.372-6.162,5.115-9.208c1.079-1.778,2.198-3.538,3.385-5.248
			c1.18-1.705,2.35-3.447,3.71-5.021c1.21-1.405,2.464-2.758,3.751-4.09c1.261-1.317,2.44-2.704,3.689-4.028
			c1.705-1.541,3.467-3.01,5.292-4.397c1.421-0.6,2.615-1.514,3.576-2.734c0.846-1.084,1.422-2.35,1.698-3.681
			c3.392,1.507,7.843,0.756,10.059-2.434c0.658-0.954,1.311-1.873,2.052-2.74c1.228-0.988,2.542-1.858,3.895-2.667
			c5.907-2.977,12.092-5.534,18.464-7.305c3.727-0.889,7.492-1.629,11.258-2.305c2.373-0.429,4.733-0.788,7.132-1.014
			c1.907-0.181,3.833-0.186,5.751-0.2c8.043,0.073,16.131,0.231,24.113,1.234c4.654,0.583,9.262,1.312,13.847,2.29
			c3.885,0.827,7.746,1.756,11.592,2.754C259.008,111.473,265.929,113.795,272.624,116.854 M324.808,130.02
			c0.153,0.157,0.307,0.315,0.46,0.473C325.114,130.334,324.96,130.177,324.808,130.02 M255.788,91.004
			c-6.154-1.656-12.338-3.085-18.598-4.283c-6.102-1.166-12.383-1.673-18.577-1.96c-6.927-0.316-13.877-0.385-20.805-0.223
			c-5.943,0.143-11.756,1.64-17.526,2.946c-3.755,0.849-7.582,1.83-11.207,3.156c-3.128,1.15-6.118,2.585-9.108,4.051
			c-3.265,1.599-6.552,3.223-9.628,5.173c-1.38,0.881-2.696,1.855-3.971,2.882c-2.271,1.834-4.026,4.015-5.666,6.389
			c-0.665,0.963-1.174,1.967-1.471,3.026c-1.592-0.85-3.573-1.357-5.236-0.961c-0.381,0.089-0.759,0.083-1.142,0.171
			c-2.343,0.544-2.771,0.738-4.848,1.988c-0.342,0.204-0.675,0.414-1.004,0.641c-1.425,0.983-2.535,2.411-3.76,3.628
			c0.579-0.566,1.154-1.134,1.733-1.695c-1.005,0.98-1.986,1.985-2.979,2.977c-0.93,0.905-1.838,1.814-2.669,2.822
			c-0.991,1.206-1.965,2.426-2.977,3.621c-1.46,1.73-3.095,3.302-4.503,5.083c-3.928,4.961-7.14,10.585-10.19,16.11
			c-1.338,2.428-2.726,4.829-4.027,7.274c-1.361,2.555-2.472,5.279-3.462,7.999c-1.835,5.065-3.786,10.136-5.262,15.317
			c-2.351,8.244-4.84,16.471-6.015,24.986c-0.569,4.142-0.709,8.317-0.926,12.487c-0.2,3.858-0.232,7.706-0.233,11.563
			c-0.028,1.818-0.085,3.631-0.194,5.446c-0.136,2.17-0.448,4.308-0.524,6.487c-0.107,3.166-0.141,6.356-0.025,9.521
			c0.104,2.978,0.939,5.75,1.692,8.619c-0.125-0.489-0.25-0.983-0.375-1.475c0.793,3.075,1.768,6.085,2.584,9.146
			c0.588,2.34,1.209,4.653,2.077,6.916c0.898,2.346,1.942,4.625,2.768,7.001c0.9,2.604,1.817,5.174,2.955,7.685
			c1.069,2.355,2.226,4.645,3.21,7.038c1.06,2.574,2.528,4.928,3.548,7.521c1.016,2.577,2.095,5.104,3.29,7.605
			c2.511,5.265,6.144,9.844,9.998,14.18c1.771,1.988,3.377,4.101,5.098,6.129c1.942,2.289,3.874,4.561,5.923,6.76
			c1.773,1.896,3.363,3.979,5.033,5.968c2.277,2.702,4.682,5.296,7.453,7.503c0.993,0.791,1.999,1.572,3.024,2.321
			c1.706,1.255,3.55,2.29,5.403,3.313c2.492,1.376,5.18,2.428,7.729,3.696c2.492,1.24,4.97,2.465,7.562,3.502
			c2.555,1.018,5.226,1.784,7.844,2.635c2.74,0.891,5.455,1.864,8.175,2.835c3.406,1.218,6.851,2.217,10.357,3.108
			c2.793,0.715,5.661,1.096,8.526,1.378c2.867,0.279,5.734,0.529,8.608,0.685c6.692,0.357,13.318,0.915,20.021,0.501
			c2.898-0.18,5.808-0.309,8.702-0.576c3.585-0.324,7.064-1.113,10.547-2.018c5.994-1.549,11.901-3.497,17.687-5.698
			c2.953-1.128,5.872-2.313,8.661-3.813c3.18-1.709,6.247-3.593,9.337-5.452c2.666-1.609,5.323-3.182,7.894-4.943
			c2.594-1.777,5.177-3.563,7.796-5.299c2.618-1.731,5.231-3.449,7.804-5.249c2.472-1.726,4.748-3.756,7.021-5.73
			c9.366-8.125,18.415-16.877,25.816-26.872c4.022-5.433,6.925-11.616,9.867-17.671c1.37-2.824,2.726-5.657,3.883-8.579
			c1.152-2.907,2.086-5.887,3.035-8.867c2.03-6.354,3.926-12.764,5.408-19.274c1.457-6.386,2.883-12.73,3.219-19.288
			c0.159-3.091,0.253-6.184,0.44-9.271c0.217-3.594,0.395-7.188,0.35-10.789c-0.036-3.184-0.199-6.365-0.251-9.548
			c-0.052-3.151-0.11-6.298-0.25-9.447c-0.049-1.186-0.208-2.373-0.317-3.555c-0.146-1.585-0.484-3.169-0.829-4.724
			c-0.407-1.848-0.858-3.73-1.465-5.528c-0.881-2.606-1.716-5.295-2.908-7.786c-0.66-1.369-1.314-2.743-1.975-4.113
			c-0.936-1.958-2.161-3.845-3.234-5.736c-1.354-2.368-2.905-4.652-4.37-6.96c-2.891-4.571-5.864-9.037-9.082-13.39
			c-1.667-2.264-3.714-4.276-5.668-6.285c-2.246-2.311-4.57-4.542-6.858-6.812c-2.104-2.176-4.206-4.358-6.418-6.422
			c-2.376-2.208-4.863-4.249-7.409-6.26c-2.923-2.304-6.167-4.243-9.372-6.111c-2.809-1.633-5.635-3.224-8.512-4.737
			c-5.509-2.898-11.122-5.757-16.917-8.045c-3.263-1.289-6.548-2.464-9.862-3.541C262.134,92.792,258.98,91.863,255.788,91.004"/>
		<path id="Fill-5" fill="#2C2C2C" d="M24.165,328.015c0.122,0.123,0.242,0.247,0.364,0.371
			C24.403,328.265,24.283,328.142,24.165,328.015 M410.519,98.098c-3.112-0.417-6.223-0.546-9.356-0.643
			c-3.896-0.117-7.787-0.021-11.67,0.314c-2.872,0.254-5.725,0.788-8.557,1.32c-3.139,0.587-6.285,1.132-9.438,1.656
			c-3.669,0.613-7.29,1.496-10.874,2.498c-5.833,1.63-11.496,3.92-17.21,5.928c-5.422,1.905-10.766,4.018-16.206,5.879
			c-2.822,0.964-5.646,1.899-8.444,2.938c-2.522,0.946-5.021,1.896-7.603,2.677c-2.206,0.668-4.1,2.816-4.959,4.877
			c-0.894,2.142-0.907,4.592-0.049,6.748c0.883,2.226,2.665,4.035,4.881,4.958c2.294,0.958,4.441,0.749,6.747,0.056
			c3.96-1.193,7.826-2.652,11.76-3.932c4.031-1.31,8.115-2.443,12.141-3.792c4.042-1.359,8.096-2.667,12.169-3.929
			c3.858-1.191,7.677-2.5,11.54-3.67c2.382-0.56,4.765-1.056,7.188-1.437c3.138-0.49,6.278-0.917,9.408-1.458
			c3.009-0.513,6.016-0.988,9.04-1.385c2.662-0.352,5.378-0.39,8.071-0.395c4.052,0.073,8.113,0.115,12.08,0.946
			c0.546,0.19,1.081,0.398,1.612,0.634c0.346,0.249,0.682,0.508,1.012,0.786c0.683,0.805,1.321,1.643,1.912,2.516
			c0.088,0.205,0.171,0.411,0.248,0.62c0.052,0.338,0.094,0.676,0.128,1.019c-0.051,0.49-0.124,0.974-0.218,1.458
			c-0.821,2.36-1.897,4.554-3.048,6.771c-1.903,3.102-3.933,6.099-6.052,9.06c-2.384,3.327-4.757,6.666-7.277,9.889
			c-5.104,6.531-10.789,12.536-16.651,18.385c-4.386,4.162-8.829,8.252-13.325,12.292c-4.687,4.218-9.677,8.067-14.704,11.865
			c-10.008,7.569-19.966,15.213-30.062,22.666c-6.563,4.849-13.33,9.369-20.145,13.856c-6.595,4.34-13.299,8.465-20.152,12.394
			c-5.07,2.808-10.16,5.579-15.301,8.255c-6.233,3.243-12.442,6.479-18.578,9.897c0.653-0.36,1.308-0.728,1.963-1.094
			c-5.388,2.978-10.86,5.724-16.434,8.337c-5.715,2.673-11.378,5.44-17.037,8.229c-5.343,2.63-10.85,4.917-16.308,7.292
			c-6.008,2.616-12.048,5.16-18.117,7.635c-5.498,2.247-11.033,4.399-16.562,6.574c-5.713,2.254-11.402,4.54-17.17,6.65
			c-5.874,2.153-11.708,4.397-17.618,6.442c-5.816,2.008-11.639,3.985-17.431,6.054c-7.807,2.783-15.669,5.284-23.685,7.394
			c-4.214,1.057-8.422,2.122-12.649,3.118c-4.437,1.042-8.937,2.104-13.458,2.709c-4.721,0.628-9.471,1.062-14.215,1.493
			c-4.206,0.38-8.429,0.787-12.652,0.899c-1.216-0.052-2.417-0.155-3.637-0.315c-1.343-0.176-2.681-0.508-4.004-0.861
			c-1.893-0.539-3.763-1.122-5.542-1.965c-0.794-0.546-1.554-1.138-2.291-1.761c-0.008-0.078-0.016-0.158-0.021-0.238
			c0.061-0.63,0.154-1.252,0.275-1.873c0.941-2.893,2.19-5.604,3.638-8.285c2.688-4.285,5.759-8.317,9.062-12.147
			c1.795-2.079,3.686-4.08,5.477-6.16c1.661-1.927,3.403-3.764,5.189-5.569c6.304-5.976,13.202-11.377,20.5-16.086
			c3.927-2.535,7.933-5.016,11.998-7.322c1.853-1.054,3.705-2.102,5.479-3.271c0.775-0.515,1.588-1.013,2.314-1.598
			c0.58-0.465,1.101-0.983,1.603-1.519c1.246-1.017,2.249-2.334,2.871-3.829c0.651-1.588,0.878-3.237,0.675-4.943
			c-0.207-0.806-0.412-1.614-0.619-2.42c-0.656-1.636-1.679-3.001-3.068-4.089c-2.436-2.379-6.938-2.781-9.999-1.474
			c-1.075,0.456-2.075,1.082-3.076,1.684c-0.965,0.578-1.912,1.206-2.858,1.815c-2.325,1.483-4.698,2.888-7.054,4.317
			c-4.904,2.985-9.793,6.124-14.377,9.579c-5.46,4.121-10.762,8.448-15.608,13.279c-2.113,2.107-4.182,4.252-6.196,6.459
			c-1.986,2.177-3.76,4.529-5.674,6.768c-1.931,2.257-3.851,4.503-5.61,6.899c-1.771,2.421-3.444,4.896-5.057,7.422
			c-4.562,7.163-8.259,15.812-7.494,24.445c0.677,7.543,6.628,12.65,12.808,16.091c1.374,0.761,2.907,1.259,4.394,1.731
			c2.003,0.638,4.054,1.173,6.1,1.635c1.453,0.328,2.9,0.669,4.379,0.84c2.113,0.242,4.228,0.226,6.35,0.215
			c2.87-0.013,5.741-0.339,8.597-0.588c6.005-0.523,12.029-0.926,18.01-1.675c6.001-0.75,11.969-2.078,17.835-3.528
			c6.792-1.683,13.592-3.347,20.32-5.267c6.04-1.728,11.974-3.803,17.886-5.911c5.687-2.026,11.407-3.931,17.109-5.897
			c5.918-2.038,11.763-4.269,17.632-6.438c5.867-2.165,11.641-4.549,17.454-6.856c5.534-2.207,11.071-4.396,16.576-6.665
			c5.931-2.448,11.837-4.943,17.718-7.505c5.501-2.4,11.034-4.727,16.414-7.383c5.652-2.795,11.312-5.563,17.021-8.238
			c5.529-2.598,10.978-5.314,16.334-8.254c5.471-2.994,11.022-5.807,16.574-8.648c5.745-2.947,11.426-6.008,17.089-9.117
			c11.354-6.235,22.32-13.173,33.011-20.497c5.508-3.778,10.883-7.724,16.211-11.749c4.792-3.623,9.64-7.181,14.419-10.823
			c5.223-3.982,10.445-7.953,15.627-11.987c4.938-3.847,9.524-8.145,14.104-12.397c9.64-8.958,19.123-18.197,27.289-28.54
			c3.807-4.822,7.389-9.829,10.952-14.826c2.252-3.157,4.196-6.529,6.057-9.923c1.808-3.302,3.037-6.863,3.765-10.558
			c0.453-2.299,0.289-4.856-0.052-7.166c-0.482-3.297-1.903-5.979-3.552-8.806c-3.229-5.533-8.505-9.26-14.45-11.191
			C414.278,98.776,412.411,98.355,410.519,98.098"/>
		<path id="Fill-7" fill="#2C2C2C" d="M63.141,318.411l-0.001,0.12C63.14,318.49,63.14,318.45,63.141,318.411z M375.495,142.48
			c0.078,0.076,0.154,0.154,0.229,0.233L375.495,142.48z M374.95,142.112c0.141,0.219,0.268,0.445,0.382,0.681L374.95,142.112z
			 M375.016,125.38c-1.911-0.332-3.863-0.363-5.796-0.335c-3.623,0.055-7.247,0.396-10.852,0.736
			c-4.208,0.398-8.311,1.305-12.307,2.686c-3.457,1.193-6.792,2.759-10.16,4.184c-3.736,1.581-7.357,3.324-10.959,5.189
			l-1.806,1.007c-1.169,0.875-2.036,1.982-2.604,3.328c-0.793,1.904-0.809,4.081-0.045,6c0.787,1.978,2.372,3.584,4.343,4.407
			c1.749,0.728,4.25,0.942,6,0.048c4.278-2.19,8.644-4.054,13.088-5.878c3.711-1.52,7.353-3.147,11.193-4.283
			c2.584-0.511,5.178-0.797,7.8-1.032c2.289-0.203,4.581-0.396,6.876-0.457c1.405,0.093,2.784,0.305,4.161,0.585
			c0.166,0.063,0.332,0.13,0.494,0.2c0.005,0.05,0.009,0.1,0.012,0.148c-0.09,1.326-0.269,2.627-0.54,3.924
			c-0.46,1.354-1.031,2.649-1.696,3.919c-2.951,4.732-6.491,9.157-10.34,13.182c-4.334,3.956-8.809,7.751-13.458,11.335
			c-4.891,3.763-10.065,7.125-15.213,10.516c-2.595,1.71-5.135,3.49-7.738,5.183c-2.472,1.61-5.004,3.129-7.541,4.631
			c-2.56,1.514-5.168,2.949-7.747,4.433c-2.789,1.608-5.524,3.302-8.256,5.005c-5.029,3.131-10.146,6.105-15.159,9.26
			c-5.303,3.339-10.582,6.707-16.034,9.806c-10.841,6.158-21.455,12.696-32.329,18.795c0.456-0.253,0.914-0.506,1.37-0.76
			c-3.636,2.02-7.266,4.038-10.894,6.064c-5.477,2.979-11.022,5.829-16.562,8.687c-5.602,2.89-11.18,5.865-16.902,8.515
			c-5.978,2.768-11.889,5.654-17.803,8.554c-5.353,2.625-10.844,4.98-16.315,7.349c-11.656,5.04-23.128,10.497-34.813,15.466
			c-5.501,2.338-10.983,4.592-16.656,6.479c-2.878,0.957-5.778,1.838-8.631,2.871c-3.036,1.104-6.067,2.223-9.104,3.33
			c-2.904,1.062-5.825,2.047-8.792,2.914c-3.862,0.944-7.768,1.777-11.742,1.94c-1.798-0.079-3.579-0.273-5.373-0.423
			c0.299-0.433,0.598-0.863,0.899-1.293c1.857-2.658,3.786-5.198,6.01-7.559c2.454-2.313,4.969-4.5,7.645-6.581
			c2.73-2.127,5.71-3.954,8.701-5.696c3.382-1.802,6.882-3.449,10.069-5.564c3.322-2.208,4.406-6.913,2.979-10.494
			c-0.885-2.228-2.669-4.038-4.888-4.962c-2.256-0.936-4.479-0.789-6.752-0.051c-1.734,0.561-3.261,1.634-4.801,2.595
			c-1.191,0.747-2.421,1.438-3.631,2.16c-2.531,1.514-5.047,3.041-7.459,4.738c-5.904,4.148-11.297,8.95-16.146,14.291
			c-2.62,2.89-4.687,6.263-6.81,9.521c-1.453,2.229-2.868,4.531-3.958,6.962c-0.497,1.098-0.944,2.699-1.138,3.814
			c-0.2,1.151-0.331,2.522-0.183,3.657c0.167,1.285,0.491,2.476,1.054,3.639c1.126,2.32,2.81,4.026,5.106,5.168
			c3.185,1.59,6.884,1.657,10.362,1.871c1.455,0.087,2.903,0.257,4.355,0.367c2.061,0.158,4.133,0.132,6.195,0.088
			c2.89-0.056,5.688-0.623,8.512-1.178c3.468-0.679,6.931-1.552,10.291-2.641c5.885-1.915,11.602-4.296,17.452-6.299
			c3.051-1.045,6.124-2.026,9.175-3.057c2.692-0.911,5.326-2.024,7.94-3.14c5.803-2.468,11.603-4.95,17.367-7.522
			c5.509-2.452,10.978-4.991,16.484-7.438c5.979-2.662,11.966-5.297,17.922-8.01c5.621-2.56,11.076-5.474,16.673-8.105
			c5.749-2.702,11.438-5.487,17.087-8.401c5.55-2.863,11.084-5.766,16.618-8.669c5.681-2.98,11.268-6.136,16.874-9.246
			c11.513-6.386,22.701-13.319,34.149-19.817c5.524-3.142,10.876-6.567,16.242-9.969c5.04-3.193,10.192-6.2,15.247-9.366
			c5.422-3.393,11.002-6.483,16.51-9.732c5.046-2.979,9.868-6.263,14.76-9.48c5.333-3.503,10.627-7.034,15.682-10.932
			c2.445-1.89,4.816-3.86,7.166-5.872c2.678-2.292,5.368-4.593,7.835-7.111c5.175-5.283,9.77-11.285,13.324-17.78
			c1.938-3.536,2.91-7.66,3.265-11.652c0.177-1.974,0.191-4.103-0.227-6.053c-0.229-1.054-0.486-2.06-0.881-3.046
			c-0.785-1.954-2.13-3.573-3.627-5.006c-1.826-1.751-4.002-2.864-6.325-3.619C377.919,125.96,376.474,125.636,375.016,125.38z"/>
	</g>
</g>
</svg>
