<?xml version="1.0" encoding="UTF-8"?>
<svg width="800px" height="1000px" viewBox="0 0 800 1000" version="1.1" xmlns="http://www.w3.org/2000/svg" xmlns:xlink="http://www.w3.org/1999/xlink">
    <!-- Generator: Sketch 51.1 (57501) - http://www.bohemiancoding.com/sketch -->
    <title>saturn_DL</title>
    <desc>Created with Sketch.</desc>
    <defs></defs>
    <g id="saturn_DL" stroke="none" stroke-width="1" fill="none" fill-rule="evenodd">
        <g id="logo-footer" transform="translate(441.000000, 685.000000)">
            <g>
                <path d="M110.812545,8.25651402 C110.904572,8.56348079 110.810146,8.81874549 110.573746,9.09365441 C110.548096,9.12348237 110.524607,9.14951827 110.482164,9.19539003 C110.410296,9.27306357 110.388406,9.29969141 110.394575,9.28699974 C110.158488,9.77253772 109.949286,10.3963755 109.78094,11.1092981 C109.323962,13.0450464 110.241419,14.6677006 112.137009,15.2172501 C114.194676,15.8138908 116.608374,14.6870388 117.500673,12.7424366 C118.556971,10.4412591 118.361229,8.87677042 116.832238,7.67717368 C114.960938,6.20902274 112.357851,6.27012948 111.072216,7.83985899 L110.795491,8.1777337 C110.794947,8.20051389 110.804056,8.228204 110.812545,8.25651402 Z M110.106083,6.26944954 C110.423589,5.88663707 110.955421,5.49967933 111.419965,5.30848582 C112.37958,4.91358991 113.68037,4.90617957 115.133698,5.23840657 C117.932917,5.87841333 120.108577,8.22064492 119.995807,10.6570534 C119.760531,15.7499925 113.426094,19.0246323 109.732148,15.5763745 C107.943744,13.9068501 107.553768,11.8021869 108.499361,9.2850154 C108.62423,8.95356867 108.851111,8.49010331 109.049811,8.18524994 C109.270059,7.84733807 109.481086,7.64146186 109.750777,7.55562368 C109.778602,7.54676715 109.806094,7.5393618 109.833231,7.53336632 C109.647627,7.16965375 109.747904,6.70130236 110.106083,6.26944954 Z" id="Fill-4" fill="#000000" fill-rule="nonzero"></path>
                <path d="M116,2.36382675 C116.035222,2.23410526 116.077249,2.03952302 116.14169,1.8509661 C116.280178,1.44230796 116.378641,1.03435869 116.377039,0.600890425 C116.376639,0.410561355 116.256963,0.110004457 116.623996,0.0412449782 C116.938196,-0.017590452 117.272408,-0.0501980398 117.512961,0.20711836 C117.655051,0.358460099 117.796741,0.518308165 117.8896,0.694814455 C118.216208,1.3175485 117.776729,2.53572545 117.114308,2.89086461 C116.612389,3.15987721 116.012808,2.911776 116,2.36382675" id="Fill-103" fill="#000000" fill-rule="nonzero"></path>
                <path d="M113.597281,1.30015424 C113.547641,1.6054057 113.484683,1.90995301 113.451993,2.21696486 C113.409214,2.61727733 113.068594,2.79366831 112.724342,2.93802021 C112.426905,3.06335991 112.146418,3.01090032 112.073774,2.6669203 C111.908307,1.88389925 112.059649,1.1040469 112.154086,0.329475719 C112.197269,-0.0278832593 112.773982,-0.106396611 113.167067,0.152380579 C113.512933,0.380527 113.619074,0.676272361 113.597281,1.30015424" id="Fill-107" fill="#000000" fill-rule="nonzero"></path>
                <path d="M112.19066,11.6823452 C110.632914,12.6206952 108.591708,13.9682577 107.051494,14.9237702 C106.603919,15.2015633 106.260092,15.3386205 105.847581,15.6483439 C105.453117,15.9444969 105.00264,16.1407116 104.673147,15.8744932 C104.334372,15.6006913 103.968388,15.4738054 104.253536,15.0032335 C104.507231,14.584149 104.804932,14.5525935 105.343775,14.3418539 C106.408054,13.9255633 108.032176,12.8044553 108.976827,12.2352987 C109.267132,12.0600815 109.780582,11.6912496 110.031699,11.4841022 C110.690685,10.9400907 110.546085,10.7856194 109.803565,10.2635599 C108.494872,9.34277154 106.87805,8.31351987 105.559045,7.40151231 C105.221301,7.16842154 104.87376,6.94291422 104.554064,6.69585398 C103.681603,6.022525 103.837029,5.29651112 105.037953,5.02270928 C105.314335,4.95964705 105.519044,5.02949445 105.664454,5.21269422 C106.875175,6.74015718 109.059218,7.93310366 110.770108,9.0590438 C111.354328,9.44340412 111.803432,9.85804585 112.62433,10.0292717 C113.067264,10.1214703 112.94712,10.4970498 112.994043,10.9392837 C113.057467,11.2214672 112.602656,11.4340876 112.19066,11.6823452 Z" id="chevron" fill="#000000" fill-rule="nonzero" transform="translate(108.500000, 10.500000) rotate(-2.000000) translate(-108.500000, -10.500000) "></path>
                <path d="M4.80555555,7.71270718 L2.78703703,7.71270718 L2.78703703,12.9005525 L2.01851852,12.9005525 L2.01851852,7.71270718 L0,7.71270718 L0,7.09944751 L4.80555555,7.09944751 L4.80555555,7.71270718 Z M9.97657951,10.2403315 L6.8654684,10.2403315 L6.8654684,12.9005525 L6.09694989,12.9005525 L6.09694989,7.09944751 L6.8654684,7.09944751 L6.8654684,9.62707182 L9.97657951,9.62707182 L9.97657951,7.09944751 L10.745098,7.09944751 L10.745098,12.9005525 L9.97657951,12.9005525 L9.97657951,10.2403315 Z M12.6568627,7.09944751 L16.1846405,7.09944751 L16.1846405,7.71270718 L13.4253813,7.71270718 L13.4253813,9.61049724 L15.953159,9.61049724 L15.953159,10.2237569 L13.4253813,10.2237569 L13.4253813,12.2872928 L16.2309368,12.2872928 L16.2309368,12.9005525 L12.6568627,12.9005525 L12.6568627,7.09944751 Z M20.7674291,7.09944751 C20.8847137,7.08287284 21.0158852,7.07044203 21.1609477,7.0621547 C21.3060102,7.05386736 21.4572432,7.04834254 21.6146514,7.04558011 C21.7720596,7.04281768 21.926379,7.04005525 22.0776143,7.03729282 C22.2288497,7.03453039 22.3692805,7.03314917 22.4989106,7.03314917 C23.0174317,7.03314917 23.4665011,7.10497164 23.8461328,7.24861878 C24.2257645,7.39226593 24.539033,7.59254015 24.7859476,7.84944751 C25.0328623,8.10635488 25.2165027,8.41436285 25.3368736,8.77348066 C25.4572445,9.13259848 25.5174291,9.52762215 25.5174291,9.95856354 C25.5174291,10.3508307 25.4603309,10.7278988 25.3461328,11.089779 C25.2319348,11.4516593 25.0513808,11.7720981 24.8044662,12.051105 C24.5575516,12.3301119 24.236567,12.5538666 23.8415032,12.7223757 C23.4464394,12.8908848 22.9680495,12.9751381 22.406318,12.9751381 C22.3075521,12.9751381 22.179467,12.9737569 22.0220588,12.9709945 C21.8646506,12.968232 21.7026152,12.9627072 21.5359477,12.9544199 C21.3692802,12.9461326 21.2149607,12.9392266 21.0729847,12.9337017 C20.9310087,12.9281767 20.8291578,12.9198895 20.7674291,12.9088398 L20.7674291,7.09944751 Z M22.5174291,7.64640884 L22.2535402,7.64640884 C22.1578608,7.64640884 22.0637259,7.64917122 21.9711328,7.65469613 C21.8785398,7.66022104 21.7936641,7.66574581 21.7165032,7.67127072 C21.6393424,7.67679563 21.5791578,7.6823204 21.5359477,7.6878453 L21.5359477,12.3287293 C21.566812,12.3342542 21.6254534,12.3383978 21.7118736,12.3411602 C21.7982938,12.3439227 21.887799,12.3466851 21.9803921,12.3494475 C22.0729851,12.3522099 22.1624904,12.3549724 22.2489106,12.3577348 C22.3353309,12.3604972 22.3939723,12.3618785 22.4248365,12.3618785 C22.8569374,12.3618785 23.2195881,12.2955808 23.5127995,12.1629834 C23.8060109,12.0303861 24.0405762,11.852211 24.2165032,11.628453 C24.3924302,11.404695 24.5174286,11.1477915 24.5915032,10.8577348 C24.6655778,10.5676781 24.7026143,10.2679574 24.7026143,9.95856354 C24.7026143,9.68784397 24.6686642,9.41574724 24.6007625,9.14226519 C24.5328607,8.86878315 24.4155783,8.62154807 24.2489106,8.40055249 C24.0822429,8.17955691 23.8584801,7.99861948 23.5776143,7.85773481 C23.2967486,7.71685014 22.9433571,7.64640884 22.5174291,7.64640884 Z M26.892157,10 C26.892157,9.03314434 27.1205495,8.29143904 27.5773422,7.77486188 C28.0341344,7.25828471 28.6853622,7 29.5310459,7 C29.9878381,7 30.3828957,7.07182247 30.7162311,7.21546961 C31.0495659,7.35911676 31.3257979,7.56215336 31.5449348,7.82458564 C31.7640716,8.08701791 31.9261071,8.40193186 32.0310459,8.76933702 C32.1359847,9.13674217 32.1884533,9.54695907 32.1884533,10 C32.1884533,10.9668557 31.9585171,11.708561 31.4986385,12.2251381 C31.0387594,12.7417153 30.3829019,13 29.5310459,13 C29.080426,13 28.6899981,12.9281775 28.3597496,12.7845304 C28.0295006,12.6408832 27.7548124,12.4378466 27.5356755,12.1754144 C27.3165387,11.9129821 27.1545032,11.5980681 27.0495644,11.230663 C26.9446256,10.8632578 26.892157,10.4530409 26.892157,10 Z M27.7069718,10 C27.7069718,10.3204436 27.7424651,10.624308 27.8134533,10.9116022 C27.884441,11.1988965 27.9940078,11.4516564 28.142157,11.6698895 C28.2903057,11.8881227 28.4801184,12.0621541 28.7116014,12.191989 C28.943084,12.3218238 29.2162295,12.3867403 29.5310459,12.3867403 C30.1051225,12.3867403 30.5557352,12.1919909 30.8828977,11.8024862 C31.2100598,11.4129815 31.3736385,10.8121587 31.3736385,10 C31.3736385,9.68508131 31.3381447,9.38259816 31.267157,9.09254144 C31.1961688,8.80248476 31.0850587,8.54834365 30.9338237,8.3301105 C30.7825881,8.11187735 30.5912321,7.93784595 30.3597496,7.80801105 C30.1282666,7.67817615 29.8520351,7.61325967 29.5310459,7.61325967 C28.9631416,7.61325967 28.5171585,7.80800912 28.1930829,8.19751381 C27.8690068,8.58701851 27.7069718,9.18784125 27.7069718,10 Z M33.5631807,10 C33.5631807,9.03314434 33.7915737,8.29143904 34.2483658,7.77486188 C34.7051585,7.25828471 35.3563864,7 36.2020695,7 C36.6588622,7 37.0539198,7.07182247 37.3872547,7.21546961 C37.7205896,7.35911676 37.9968216,7.56215336 38.2159584,7.82458564 C38.4350953,8.08701791 38.5971308,8.40193186 38.7020695,8.76933702 C38.8070083,9.13674217 38.8594769,9.54695907 38.8594769,10 C38.8594769,10.9668557 38.6295412,11.708561 38.1696621,12.2251381 C37.7097835,12.7417153 37.053926,13 36.2020695,13 C35.7514502,13 35.3610217,12.9281775 35.0307732,12.7845304 C34.7005248,12.6408832 34.425836,12.4378466 34.2066992,12.1754144 C33.9875623,11.9129821 33.8255268,11.5980681 33.7205881,11.230663 C33.6156493,10.8632578 33.5631807,10.4530409 33.5631807,10 Z M34.3779955,10 C34.3779955,10.3204436 34.4134893,10.624308 34.484477,10.9116022 C34.5554651,11.1988965 34.665032,11.4516564 34.8131807,11.6698895 C34.9613298,11.8881227 35.1511426,12.0621541 35.3826251,12.191989 C35.6141076,12.3218238 35.8872532,12.3867403 36.2020695,12.3867403 C36.7761467,12.3867403 37.2267594,12.1919909 37.5539214,11.8024862 C37.8810834,11.4129815 38.0446621,10.8121587 38.0446621,10 C38.0446621,9.68508131 38.0091688,9.38259816 37.9381806,9.09254144 C37.867193,8.80248476 37.7560829,8.54834365 37.6048473,8.3301105 C37.4536122,8.11187735 37.2622558,7.93784595 37.0307732,7.80801105 C36.7992907,7.67817615 36.5230587,7.61325967 36.2020695,7.61325967 C35.6341657,7.61325967 35.1881822,7.80800912 34.8641066,8.19751381 C34.540031,8.58701851 34.3779955,9.18784125 34.3779955,10 Z M40.5027233,7.09944751 C40.6200078,7.08287284 40.7511791,7.07044203 40.8962419,7.0621547 C41.0413041,7.05386736 41.1925371,7.04834254 41.3499456,7.04558011 C41.5073535,7.04281768 41.6616729,7.04005525 41.8129085,7.03729282 C41.9641436,7.03453039 42.1045747,7.03314917 42.2342048,7.03314917 C42.7527259,7.03314917 43.2017954,7.10497164 43.581427,7.24861878 C43.9610587,7.39226593 44.2743267,7.59254015 44.5212419,7.84944751 C44.7681565,8.10635488 44.9517969,8.41436285 45.0721678,8.77348066 C45.1925387,9.13259848 45.2527233,9.52762215 45.2527233,9.95856354 C45.2527233,10.3508307 45.1956251,10.7278988 45.081427,11.089779 C44.967229,11.4516593 44.786675,11.7720981 44.5397604,12.051105 C44.2928452,12.3301119 43.9718612,12.5538666 43.5767974,12.7223757 C43.1817336,12.8908848 42.7033432,12.9751381 42.1416122,12.9751381 C42.0428463,12.9751381 41.9147609,12.9737569 41.757353,12.9709945 C41.5999445,12.968232 41.437909,12.9627072 41.2712419,12.9544199 C41.1045742,12.9461326 40.9502547,12.9392266 40.8082789,12.9337017 C40.6663026,12.9281767 40.5644517,12.9198895 40.5027233,12.9088398 L40.5027233,7.09944751 Z M42.2527233,7.64640884 L41.9888344,7.64640884 C41.8931549,7.64640884 41.7990201,7.64917122 41.706427,7.65469613 C41.6138339,7.66022104 41.5289584,7.66574581 41.4517974,7.67127072 C41.3746364,7.67679563 41.3144517,7.6823204 41.2712419,7.6878453 L41.2712419,12.3287293 C41.3021061,12.3342542 41.3607475,12.3383978 41.4471678,12.3411602 C41.533588,12.3439227 41.6230932,12.3466851 41.7156863,12.3494475 C41.8082794,12.3522099 41.8977846,12.3549724 41.9842048,12.3577348 C42.0706251,12.3604972 42.1292665,12.3618785 42.1601307,12.3618785 C42.5922316,12.3618785 42.9548823,12.2955808 43.2480937,12.1629834 C43.5413051,12.0303861 43.7758705,11.852211 43.9517974,11.628453 C44.1277244,11.404695 44.2527228,11.1477915 44.3267974,10.8577348 C44.400872,10.5676781 44.4379085,10.2679574 44.4379085,9.95856354 C44.4379085,9.68784397 44.4039584,9.41574724 44.3360567,9.14226519 C44.2681549,8.86878315 44.150872,8.62154807 43.9842048,8.40055249 C43.8175371,8.17955691 43.5937743,7.99861948 43.3129085,7.85773481 C43.0320428,7.71685014 42.6786513,7.64640884 42.2527233,7.64640884 Z M50.7293025,12.9005525 L46.8959692,12.9005525 L46.8959692,7.09944751 L47.6644877,7.09944751 L47.6644877,12.2872928 L50.7293025,12.2872928 L50.7293025,12.9005525 Z M52.0206971,7.09944751 L55.5484749,7.09944751 L55.5484749,7.71270718 L52.7892156,7.71270718 L52.7892156,9.61049724 L55.3169934,9.61049724 L55.3169934,10.2237569 L52.7892156,10.2237569 L52.7892156,12.2872928 L55.5947712,12.2872928 L55.5947712,12.9005525 L52.0206971,12.9005525 L52.0206971,7.09944751 Z M63.9645968,12.9005525 L60.1312634,12.9005525 L60.1312634,7.09944751 L60.8997819,7.09944751 L60.8997819,12.2872928 L63.9645968,12.2872928 L63.9645968,12.9005525 Z M65.4319172,7.09944751 L66.2004357,7.09944751 L66.2004357,12.9005525 L65.4319172,12.9005525 L65.4319172,7.09944751 Z M72.1955335,8.42541436 C72.1955335,8.5635366 72.1708426,8.70441915 72.1214594,8.8480663 C72.0720767,8.99171344 71.9980031,9.12569001 71.8992372,9.25 C71.8004712,9.37431004 71.6739296,9.48342495 71.5196075,9.57734807 C71.365286,9.67127118 71.1831888,9.74309369 70.9733113,9.79281768 L70.9733113,9.82596685 C71.1584975,9.8535913 71.3359651,9.90055216 71.5057187,9.96685083 C71.6754728,10.0331495 71.8251626,10.1243088 71.9547927,10.2403315 C72.0844234,10.3563542 72.1893606,10.4972367 72.2696075,10.6629834 C72.349855,10.8287301 72.3899779,11.0248607 72.3899779,11.2513812 C72.3899779,11.5497252 72.3205345,11.8080099 72.1816446,12.0262431 C72.0427552,12.2444762 71.8606585,12.4226512 71.6353483,12.5607735 C71.4100386,12.6988957 71.1523251,12.8011047 70.8622001,12.8674033 C70.5720757,12.933702 70.2757819,12.9668508 69.9733113,12.9668508 L69.6029409,12.9668508 C69.4609651,12.9668508 69.3128185,12.9627072 69.1584964,12.9544199 C69.0041749,12.9461326 68.8498555,12.935083 68.6955335,12.9212707 C68.541212,12.9074585 68.4054111,12.8867405 68.2881261,12.859116 L68.2881261,7.14917127 C68.5165227,7.11602192 68.7819517,7.08839788 69.0844224,7.06629834 C69.386893,7.0441988 69.7171369,7.03314917 70.0751631,7.03314917 C70.3159054,7.03314917 70.5612732,7.05110479 70.8112742,7.08701657 C71.0612758,7.12292836 71.288125,7.19198844 71.4918298,7.2941989 C71.6955345,7.39640935 71.8637428,7.53867311 71.9964594,7.72099448 C72.1291765,7.90331584 72.1955335,8.13812012 72.1955335,8.42541436 Z M70.0473853,12.3701657 C70.2449172,12.3701657 70.4362737,12.3494477 70.6214594,12.308011 C70.8066456,12.2665744 70.9702243,12.2002767 71.1122001,12.109116 C71.2541765,12.0179553 71.3668298,11.906078 71.4501631,11.7734807 C71.533497,11.6408833 71.5751631,11.4834263 71.5751631,11.301105 C71.5751631,11.0745845 71.5242377,10.8922659 71.4223853,10.7541436 C71.320533,10.6160214 71.1878185,10.5082877 71.0242372,10.4309392 C70.8606564,10.3535908 70.677016,10.3011051 70.4733113,10.2734807 C70.2696065,10.2458562 70.0659049,10.2320442 69.8622001,10.2320442 L69.0566446,10.2320442 L69.0566446,12.3121547 C69.099855,12.3232045 69.1615829,12.3314917 69.2418298,12.3370166 C69.3220772,12.3425415 69.4084964,12.3480663 69.501089,12.3535912 C69.5936821,12.3591161 69.6893601,12.3632597 69.7881261,12.3660221 C69.886892,12.3687845 69.9733113,12.3701657 70.0473853,12.3701657 Z M69.5381261,9.6519337 C69.6430649,9.6519337 69.769607,9.64917132 69.9177557,9.64364641 C70.0659049,9.6381215 70.1893601,9.6298343 70.2881261,9.61878453 C70.4362752,9.57458541 70.5751626,9.52071855 70.7047927,9.45718232 C70.8344234,9.39364609 70.9501626,9.31906119 71.052015,9.23342541 C71.1538673,9.14778964 71.2341137,9.04834309 71.2927557,8.93508287 C71.3513982,8.82182265 71.3807187,8.69889567 71.3807187,8.56629834 C71.3807187,8.38397698 71.3421389,8.23342601 71.2649779,8.11464088 C71.1878174,7.99585576 71.0844234,7.90055285 70.9547927,7.82872928 C70.8251626,7.75690571 70.677016,7.70580124 70.5103483,7.67541436 C70.3436811,7.64502749 70.1739296,7.62983425 70.001089,7.62983425 C69.7973843,7.62983425 69.610658,7.63397785 69.4409038,7.64226519 C69.2711502,7.65055253 69.1430649,7.66298333 69.0566446,7.67955801 L69.0566446,9.6519337 L69.5381261,9.6519337 Z M74.0332243,7.15745856 C74.2677932,7.11878435 74.5378524,7.08839788 74.8434095,7.06629834 C75.1489666,7.0441988 75.428285,7.03314917 75.6813725,7.03314917 C75.9653246,7.03314917 76.2353838,7.0607732 76.4915576,7.1160221 C76.747732,7.17127099 76.9730381,7.26243029 77.1674836,7.38950276 C77.361929,7.51657523 77.5177917,7.68231943 77.6350762,7.88674033 C77.7523606,8.09116123 77.8110021,8.33977753 77.8110021,8.63259669 C77.8110021,9.08563762 77.6721147,9.45303725 77.3943354,9.73480663 C77.1165561,10.016576 76.7647078,10.2044194 76.3387799,10.2983425 L76.7832243,10.6049724 L78.3943354,12.9005525 L77.4961873,12.9005525 L75.7091502,10.3977901 L74.8017428,10.2734807 L74.8017428,12.9005525 L74.0332243,12.9005525 L74.0332243,7.15745856 Z M75.699891,7.62983425 L75.449891,7.62983425 C75.3634707,7.62983425 75.2801384,7.63259664 75.199891,7.63812155 C75.1196436,7.64364645 75.0440273,7.64917122 74.9730391,7.65469613 C74.902051,7.66022104 74.8449527,7.66850824 74.8017428,7.67955801 L74.8017428,9.81767956 L75.5239651,9.81767956 C75.949893,9.81767956 76.3017413,9.72375783 76.5795206,9.5359116 C76.8572999,9.34806538 76.9961873,9.0552506 76.9961873,8.65745856 C76.9961873,8.35911455 76.8819908,8.11326064 76.6535947,7.9198895 C76.4251986,7.72651837 76.1073004,7.62983425 75.699891,7.62983425 Z M82.722767,11.2928177 L80.3338781,11.2928177 L79.68573,12.9005525 L78.9264707,12.9005525 L81.3801744,7.00828729 L81.7320263,7.00828729 L84.1949892,12.9005525 L83.3894337,12.9005525 L82.722767,11.2928177 Z M80.5838781,10.6961326 L82.4912855,10.6961326 L81.7690633,8.93093923 L81.5375818,8.05248619 L81.5283226,8.05248619 L81.2968411,8.94751381 L80.5838781,10.6961326 Z M85.3937907,7.15745856 C85.6283596,7.11878435 85.8984187,7.08839788 86.2039758,7.06629834 C86.5095329,7.0441988 86.7888514,7.03314917 87.0419388,7.03314917 C87.325891,7.03314917 87.5959501,7.0607732 87.852124,7.1160221 C88.1082984,7.17127099 88.3336044,7.26243029 88.5280499,7.38950276 C88.7224954,7.51657523 88.878358,7.68231943 88.9956425,7.88674033 C89.112927,8.09116123 89.1715684,8.33977753 89.1715684,8.63259669 C89.1715684,9.08563762 89.0326811,9.45303725 88.7549018,9.73480663 C88.477123,10.016576 88.1252742,10.2044194 87.6993462,10.2983425 L88.1437906,10.6049724 L89.7549018,12.9005525 L88.8567536,12.9005525 L87.0697166,10.3977901 L86.1623092,10.2734807 L86.1623092,12.9005525 L85.3937907,12.9005525 L85.3937907,7.15745856 Z M87.0604573,7.62983425 L86.8104573,7.62983425 C86.7240371,7.62983425 86.6407047,7.63259664 86.5604573,7.63812155 C86.4802099,7.64364645 86.4045936,7.64917122 86.3336055,7.65469613 C86.2626178,7.66022104 86.2055196,7.66850824 86.1623092,7.67955801 L86.1623092,9.81767956 L86.8845314,9.81767956 C87.3104594,9.81767956 87.6623081,9.72375783 87.9400869,9.5359116 C88.2178663,9.34806538 88.3567536,9.0552506 88.3567536,8.65745856 C88.3567536,8.35911455 88.2425571,8.11326064 88.014161,7.9198895 C87.7857649,7.72651837 87.4678668,7.62983425 87.0604573,7.62983425 Z M92.1111111,10.5966851 L89.9722222,7.09944751 L90.8703704,7.09944751 L92.3888889,9.63535912 L92.5462963,10.140884 L92.5555556,10.140884 L92.7222222,9.61878453 L94.1759259,7.09944751 L95,7.09944751 L92.8796296,10.5883978 L92.8796296,12.9005525 L92.1111111,12.9005525 L92.1111111,10.5966851 Z" id="the-Doodle-Library" fill="#666666" fill-rule="nonzero" opacity="0.595278533"></path>
            </g>
        </g>
        <g id="saturn" transform="translate(180.000000, 223.000000)">
            <ellipse id="Oval" fill="#FFFFFF" cx="222.5" cy="222.5" rx="123.5" ry="137.5"></ellipse>
            <path d="M108.785036,282.637374 C108.867269,282.898701 108.950676,283.157675 109.031733,283.419003 C108.949501,283.158852 108.867269,282.898701 108.785036,282.637374 M92.163547,154.888118 C92.1118582,154.988176 92.0589946,155.088234 92.0073057,155.188292 C92.0589946,155.088234 92.1118582,154.988176 92.163547,154.888118 M235.165449,105.64196 C242.547556,106.48951 249.860354,107.672547 257.144957,109.139279 C259.909136,109.847925 262.650994,110.594239 265.342339,111.559504 C268.426049,112.663672 271.416953,113.923225 274.399635,115.275773 C277.222551,116.558869 279.938565,118.103292 282.720365,119.478206 C284.860753,120.534111 286.999967,121.574714 289.128608,122.648277 C290.315102,123.371048 291.503945,124.093819 292.691614,124.816591 C293.929797,125.571145 295.082223,126.509335 296.266368,127.346291 C298.281058,128.775353 300.202944,130.352737 302.111907,131.920704 C306.039085,135.139038 309.961564,138.340891 313.760694,141.701661 C317.078178,145.157779 320.231198,148.706893 322.919018,152.673895 C325.295531,156.764499 327.008311,161.137619 328.631811,165.580191 C330.045031,169.43301 331.53461,173.254046 332.924335,177.113927 C333.788948,180.077996 334.578378,183.058546 335.45004,186.019083 C336.501438,189.588208 337.597477,193.119665 338.432722,196.747647 C339.258569,200.352087 339.561653,204.095431 339.956368,207.764614 C340.312316,211.087714 340.588382,214.417878 340.810409,217.75275 C341.087649,224.430733 341.267385,231.131083 340.887942,237.804359 C340.681187,241.482959 340.062095,245.161559 339.602769,248.813085 C339.2292,251.801874 338.792194,254.757703 338.215394,257.708824 C336.14784,265.915928 332.896141,273.848756 329.147525,281.430793 C327.132834,285.202388 325.028863,288.918657 322.857932,292.601966 C320.513137,296.579563 317.861734,300.304072 314.978906,303.908512 C311.959807,307.683639 309.101649,311.59767 306.059055,315.353962 C303.245537,318.827738 300.255807,322.17909 297.257854,325.496305 C291.167968,331.675176 283.980868,336.725159 276.752652,341.485562 C273.754699,343.304262 270.688611,344.986412 267.406369,346.258914 C263.958487,347.59969 260.522354,348.974603 257.045104,350.236511 C254.831881,350.878058 252.609261,351.45604 250.372543,352.011656 C247.72114,352.668507 245.090882,353.437187 242.43478,354.066964 C239.722291,354.706157 237.009801,355.345351 234.270292,355.832692 C232.129903,356.212912 229.981292,356.427153 227.818583,356.575475 C220.785376,356.674355 213.753343,356.121094 206.728358,355.827983 C203.314544,355.690256 199.946546,355.198207 196.564451,354.747357 C193.447848,354.333 190.297178,354.149364 187.20172,353.623177 C184.315368,352.802702 181.491277,351.765631 178.785836,350.460169 C177.114171,349.517271 175.449556,348.555537 173.799037,347.578501 C171.524727,346.228308 169.176409,345.034675 166.825741,343.832803 C163.206347,341.822227 159.801931,339.472632 156.255371,337.343164 C154.553163,336.321395 152.947285,335.194861 151.336707,334.04596 C149.598082,332.809951 147.850059,331.643393 146.206589,330.2932 C143.638593,327.688162 141.390128,324.795899 139.129915,321.920117 C137.868238,320.306241 136.243563,319.04198 134.903177,317.501088 C133.573364,315.964904 132.297589,314.401646 130.870272,312.958458 C128.00624,310.070904 125.542796,306.916136 123.041761,303.720168 C120.84381,300.9209 118.390939,298.3912 116.402093,295.44008 C115.680799,294.280585 114.954805,293.123445 114.221764,291.97219 C113.49577,290.836238 112.699292,289.74855 111.94393,288.632609 C111.25083,287.500189 110.557729,286.368946 109.851706,285.243588 C110.071384,285.590848 110.291062,285.936931 110.509564,286.284191 C109.636728,284.816282 109.025859,283.287162 108.484301,281.681526 C107.933345,279.922861 107.387088,278.164196 106.825559,276.410239 C106.123061,274.078301 105.57093,271.712225 104.901324,269.367338 C104.089574,266.530401 103.20499,263.721716 102.294562,260.915386 C101.629655,258.719997 100.984719,256.508128 100.404394,254.289197 C99.6525565,251.401643 98.8220107,248.50938 98.2158414,245.588865 C97.1315503,240.32111 96.5312548,235.003914 96.20585,229.643163 C96.0613562,226.238839 95.9145129,222.822744 95.8980664,219.416065 C95.8804452,215.705682 96.1647339,212.003539 96.2833833,208.297864 C96.4173044,204.214323 96.5723709,200.098999 97.3065876,196.070785 C97.939776,192.621729 98.6093815,189.167965 99.3259769,185.733035 C99.8029241,183.708333 100.323337,181.689518 100.923632,179.696599 C101.519229,177.710743 102.09368,175.691928 102.900731,173.774347 C103.617326,172.063945 104.392659,170.390035 105.204409,168.725541 C105.997363,167.083414 106.690463,165.400087 107.46932,163.754428 C108.614698,161.76151 109.836435,159.820386 111.142753,157.936942 C112.309276,156.926946 113.162142,155.688582 113.699001,154.231268 C114.1689,152.938755 114.325141,151.556778 114.177123,150.205407 C117.868177,150.590336 121.869364,148.500891 122.991247,144.782268 C123.322525,143.672213 123.658503,142.596296 124.095509,141.542745 C124.957773,140.223157 125.938686,138.989502 126.975987,137.802933 C131.673799,133.146119 136.765151,128.803605 142.278236,125.149725 C145.547556,123.153275 148.900283,121.285134 152.27298,119.478206 C154.396922,118.337546 156.531437,117.266337 158.74231,116.31049 C160.499731,115.548872 162.329986,114.949702 164.149668,114.343468 C171.821938,111.927952 179.562343,109.578357 187.464864,108.065716 C192.071045,107.182852 196.678401,106.451841 201.34097,105.9645 C205.291643,105.550142 209.250539,105.241728 213.216483,105.001589 C220.552776,104.732021 227.852651,104.801473 235.165449,105.64196 M288.863115,102.03752 C289.058123,102.139933 289.251956,102.242345 289.446964,102.344757 C289.251956,102.242345 289.056948,102.139933 288.863115,102.03752 M211.165376,86.2601506 C204.800599,86.5873989 198.478113,87.1383061 192.154452,87.9340609 C185.991731,88.7109813 179.860729,90.1694728 173.881269,91.8104228 C167.195786,93.6503115 160.564342,95.7326936 154.025702,98.0269631 C148.417462,99.99987 143.351955,103.219381 138.267651,106.244662 C134.95839,108.21286 131.62211,110.328203 128.584215,112.709581 C125.96453,114.769597 123.564523,117.059158 121.173914,119.376971 C118.562452,121.906671 115.938068,124.466977 113.615594,127.27213 C112.574769,128.536391 111.624399,129.870105 110.729242,131.24031 C109.13746,133.686432 108.141275,136.303241 107.315428,139.067194 C106.980626,140.18902 106.806763,141.300252 106.851404,142.399712 C105.075187,142.083058 103.033477,142.212545 101.574442,143.103649 C101.239639,143.306119 100.877817,143.416771 100.54184,143.619241 C98.4813341,144.861137 98.1336092,145.177791 96.5453518,147.008262 C96.2833833,147.307259 96.0319875,147.609787 95.788815,147.927618 C94.7374168,149.302532 94.1230243,151.003516 93.3335946,152.5397 C93.7095135,151.822814 94.0807334,151.104752 94.4578271,150.392575 C93.804668,151.635647 93.1820523,152.894023 92.5453397,154.144158 C91.9403452,155.291882 91.3576709,156.437251 90.8783743,157.653249 C90.3086222,159.105854 89.7588408,160.567877 89.1667685,162.016952 C88.3127277,164.113459 87.2437083,166.113441 86.4542786,168.242909 C84.2516288,174.174579 82.9347379,180.515897 81.7411953,186.713603 C81.2184331,189.436356 80.6404578,192.148514 80.1588117,194.875976 C79.6536707,197.727038 79.438692,200.660501 79.3376638,203.552764 C79.1579276,208.937057 78.8689399,214.362551 79.0662974,219.746845 C79.37878,228.314158 79.5526425,236.907369 81.0668908,245.368738 C81.8058064,249.484062 82.9629318,253.49815 84.0448734,257.531074 C85.0469322,261.262646 86.2052324,264.931829 87.3964254,268.601012 C87.9321098,270.338488 88.4372509,272.080674 88.895402,273.840516 C89.4369602,275.946441 89.7999569,278.075909 90.4014271,280.172417 C91.2777881,283.216533 92.2316823,286.260648 93.3194977,289.235311 C94.3380029,292.035756 95.9896966,294.413603 97.592051,296.910343 C97.3218593,296.483037 97.0504928,296.052199 96.7803011,295.623716 C98.4848584,298.302914 100.342133,300.864397 102.064311,303.523583 C103.347134,305.56712 104.652278,307.575341 106.177099,309.458784 C107.755958,311.412857 109.453467,313.257454 110.972415,315.262144 C112.633506,317.459887 114.299297,319.621139 116.157746,321.657612 C117.902245,323.566952 119.71018,325.38683 121.385368,327.359737 C123.188604,329.479787 125.312546,331.26435 127.084064,333.416184 C128.846184,335.553892 130.654119,337.623326 132.563082,339.632724 C136.578366,343.863409 141.44769,347.095869 146.453286,350.029332 C148.752265,351.372462 150.932594,352.885103 153.195156,354.282382 C155.75023,355.859766 158.288857,357.423024 160.91794,358.881516 C163.1899,360.13636 165.34556,361.626634 167.54821,363.001548 C170.549688,364.867334 173.638096,366.591862 176.955581,367.833757 C178.144424,368.279898 179.342666,368.711913 180.54913,369.107436 C182.559122,369.773704 184.63255,370.188062 186.711851,370.588293 C189.506573,371.126252 192.388227,371.295762 195.205269,371.714828 C197.958875,372.124477 200.693685,372.523531 203.479009,372.708344 C206.223217,372.887271 209.000318,372.790745 211.752749,372.790745 C214.634403,372.790745 217.517231,372.877854 220.403583,372.960255 C224.019453,373.066199 227.603605,372.952015 231.214776,372.716584 C234.09173,372.532949 236.936966,372.009116 239.74931,371.392288 C242.562828,370.771929 245.366948,370.123318 248.147573,369.38289 C254.622776,367.65483 261.096805,366.137481 267.342932,363.672525 C270.044849,362.606025 272.771436,361.584257 275.441635,360.435356 C278.750896,359.019242 281.81581,357.193479 284.849006,355.257064 C290.070754,351.932787 295.086922,348.254186 299.909257,344.373116 C302.369176,342.38726 304.778582,340.359027 306.967134,338.069466 C309.463471,335.462074 311.798867,332.721664 314.162457,329.998912 C316.200643,327.644607 318.242352,325.327972 320.141917,322.858307 C322.060279,320.366276 323.964543,317.869536 325.919321,315.409288 C327.874099,312.953749 329.828878,310.512336 331.719045,308.006179 C333.536378,305.601257 335.074121,302.966791 336.624787,300.386473 C343.022457,289.76503 348.923209,278.645651 352.873881,266.851764 C355.021318,260.442171 355.87066,253.664129 356.797535,246.996739 C357.228667,243.887881 357.642178,240.774313 357.839535,237.63838 C358.036893,234.516573 358.004,231.394765 357.986379,228.267072 C357.953486,221.596151 357.774924,214.914636 357.173454,208.264904 C356.586081,201.741127 355.981086,195.26679 354.274179,188.925472 C353.470653,185.936682 352.60369,182.966728 351.828357,179.97323 C350.923802,176.487682 349.98283,173.015084 348.826879,169.603697 C347.808374,166.587833 346.670045,163.611993 345.637443,160.600838 C344.614238,157.620288 343.586335,154.645625 342.480898,151.693328 C342.067388,150.580919 341.549324,149.500293 341.080601,148.41025 C340.452111,146.948227 339.640361,145.546239 338.832136,144.174857 C337.873542,142.543324 336.86326,140.89178 335.730805,139.369722 C334.087334,137.162562 332.46266,134.863584 330.558395,132.863603 C329.508172,131.76532 328.461473,130.661151 327.410075,129.561691 C325.914622,127.989016 324.166599,126.572902 322.560721,125.10617 C320.541331,123.272167 318.361002,121.579422 316.254681,119.837237 C312.092554,116.383473 307.884612,113.054487 303.479312,109.909136 C301.19443,108.271718 298.625259,106.989799 296.146544,105.68316 C293.296608,104.179937 290.396159,102.775595 287.51803,101.324166 C284.844307,99.9045207 282.171758,98.4789895 279.4299,97.1994251 C276.488334,95.8339287 273.491556,94.6614852 270.448962,93.5349506 C266.957615,92.2471462 263.272435,91.4054825 259.647167,90.6191449 C256.471827,89.9340423 253.291788,89.2948487 250.088254,88.7439416 C243.953728,87.6903904 237.731095,86.7062913 231.513161,86.3201854 C228.011242,86.1024122 224.524594,86 221.039121,86 C217.753355,86 214.467589,86.0906407 211.165376,86.2601506" id="Fill-1" fill="#2C2C2C" transform="translate(218.500000, 229.500000) rotate(18.000000) translate(-218.500000, -229.500000) "></path>
            <path d="M66.070795,383.569868 C66.2247233,383.649738 66.3774765,383.730782 66.5314047,383.810651 C66.3751264,383.734305 66.2223732,383.654436 66.070795,383.569868 M362.467251,45.5168019 C359.378111,46.0817604 356.380623,46.920389 353.37021,47.7966032 C349.628931,48.8889346 345.956979,50.1832885 342.368454,51.7019815 C339.715248,52.8307239 337.167794,54.2202164 334.637966,55.601487 C331.834357,57.1295763 329.010773,58.6200801 326.174263,60.0929656 C322.874794,61.808983 319.703402,63.7681321 316.604862,65.8282926 C311.560481,69.1816324 306.882708,73.1093271 302.068632,76.7844936 C297.501311,80.2717321 293.071467,83.932804 288.472421,87.3836315 C286.085946,89.1724709 283.69007,90.9342957 281.349421,92.7877354 C279.242602,94.4673417 277.159283,96.1422498 274.946711,97.6832592 C273.054922,98.9999296 271.917498,101.628572 271.737719,103.854344 C271.549715,106.167033 272.293506,108.502038 273.776387,110.287354 C275.303919,112.131397 277.557616,113.301249 279.949967,113.493875 C282.428094,113.695897 284.40566,112.833778 286.384402,111.461904 C289.781398,109.103407 293.008016,106.520572 296.353311,104.08808 C299.782033,101.596859 303.316508,99.257156 306.727604,96.7295247 C310.151626,94.1877988 313.602674,91.6918804 317.086622,89.232373 C320.388442,86.9067643 323.61506,84.4824934 326.927454,82.1756774 C329.020173,80.9071636 331.132868,79.6985518 333.320764,78.5874276 C336.153748,77.1521277 339.007883,75.7755553 341.817367,74.2932734 C344.521099,72.8755917 347.233056,71.4943211 349.987314,70.1823489 C352.410215,69.0254173 354.981169,68.1503776 357.541548,67.3129236 C361.417954,66.1301519 365.293186,64.9156673 369.322345,64.4799093 C369.900458,64.4916548 370.47387,64.5245422 371.051982,64.5844443 C371.457365,64.7136448 371.856874,64.8569398 372.256382,65.0190277 C373.155276,65.5734153 374.021269,66.1724357 374.853187,66.8207872 C375.000065,66.9887478 375.142243,67.1590576 375.280896,67.3340655 C375.433649,67.6394484 375.578177,67.9483551 375.71683,68.2631344 C375.820232,68.7446999 375.900134,69.2274398 375.96006,69.7172271 C375.908359,72.2154947 375.562902,74.6350674 375.153993,77.0980984 C374.3021,80.6358426 373.298629,84.1136847 372.197631,87.5844795 C370.959155,91.4851596 369.733604,95.3940615 368.332975,99.2383632 C365.496465,107.026803 361.94554,114.494591 358.177236,121.86959 C355.29255,127.182079 352.330313,132.446411 349.30345,137.677856 C346.149683,143.137164 342.592884,148.34042 338.985558,153.50609 C331.806157,163.797496 324.697257,174.144106 317.399179,184.352118 C312.656779,190.991849 307.617098,197.382574 302.522191,203.755682 C297.591787,209.920894 292.48983,215.915797 287.185769,221.769753 C283.231811,226.007529 279.247302,230.215941 275.185241,234.349182 C270.259538,239.359812 265.35381,244.356347 260.574984,249.503224 C261.084945,248.958233 261.593731,248.407369 262.103691,247.856505 C257.899453,252.352682 253.543636,256.656233 249.050342,260.86347 C244.441895,265.171719 239.911,269.553965 235.39068,273.953829 C231.121815,278.105862 226.59092,281.983051 222.134051,285.928364 C217.228323,290.273024 212.270894,294.558957 207.262938,298.788511 C202.728518,302.624591 198.129471,306.381976 193.54335,310.158153 C188.806825,314.067055 184.102026,317.999448 179.26915,321.788546 C174.348146,325.65164 169.492944,329.588732 164.503789,333.360211 C159.592186,337.06709 154.666483,340.746955 149.79718,344.50434 C143.232317,349.563126 136.527626,354.371733 129.556205,358.85499 C125.874852,361.161806 122.201725,363.475669 118.489822,365.729631 C114.592265,368.09165 110.640657,370.491256 106.528071,372.464499 C102.23218,374.519962 97.8481631,376.400416 93.4700211,378.277347 C89.5877394,379.93816 85.6972326,381.630686 81.7150739,383.042495 C80.5423993,383.36902 79.3685496,383.641516 78.1582741,383.865855 C76.8269712,384.113685 75.4521923,384.211173 74.0844635,384.283995 C72.1174721,384.356817 70.158706,384.380308 68.2058149,384.127779 C67.2822455,383.854109 66.3763014,383.52641 65.4832827,383.161125 C65.451557,383.089477 65.4198313,383.015481 65.3892807,382.941484 C65.2529778,382.323671 65.1495757,381.703509 65.072024,381.075124 C65.073199,378.03304 65.4233564,375.069651 65.9720929,372.071025 C67.2035188,367.16493 68.8791041,362.380989 70.8366952,357.718026 C71.9012676,355.185697 73.0809924,352.699174 74.1420397,350.166845 C75.1267104,347.821269 76.2159583,345.535595 77.3557323,343.266365 C81.5047445,335.635314 86.3963723,328.3672 91.8813877,321.633505 C94.8330497,318.008845 97.8763637,314.411198 101.028955,310.961545 C102.46601,309.387649 103.903065,307.81845 105.229668,306.157636 C105.80778,305.428241 106.427018,304.703544 106.936979,303.922468 C107.344713,303.301131 107.679595,302.646907 107.992151,301.983286 C108.862845,300.631379 109.409231,299.068054 109.539659,297.454222 C109.667737,295.742903 109.37398,294.104406 108.65369,292.544604 C108.208356,291.842223 107.763022,291.136318 107.317687,290.433938 C106.188488,289.080856 104.793734,288.098932 103.135774,287.492865 C100.084235,285.983568 95.6778925,286.992507 93.1715648,289.181867 C92.2902962,289.947674 91.5324053,290.852077 90.7662892,291.73299 C90.0271987,292.581015 89.3210088,293.471324 88.6089439,294.34284 C86.855807,296.472298 85.0333437,298.540681 83.2343809,300.62903 C79.4931022,304.983087 75.8129248,309.479263 72.5216806,314.182161 C68.6017982,319.788288 64.8969453,325.542407 61.7807798,331.634797 C60.4224513,334.291629 59.1181739,336.970777 57.8843979,339.692209 C56.6682473,342.376056 55.7082522,345.160914 54.5790534,347.881171 C53.4404545,350.624919 52.3077307,353.354573 51.3759361,356.177017 C50.4394414,359.026475 49.613399,361.898249 48.8602082,364.798213 C46.7345885,373.020062 45.8909208,382.388271 49.2867422,390.36229 C52.2619047,397.327371 59.5000569,400.345964 66.4397528,401.708442 C67.9813852,402.006777 69.5935191,402.006777 71.1539519,401.997381 C73.2560711,401.984461 75.3722906,401.859959 77.4603095,401.667332 C78.9431906,401.52991 80.4248968,401.406582 81.8842775,401.112945 C83.9687713,400.690107 85.9745385,400.020614 87.9897058,399.354644 C90.7157631,398.456113 93.3454684,397.258072 95.9845739,396.138726 C101.534216,393.784928 107.139083,391.541538 112.595898,388.981019 C118.071513,386.412279 123.336799,383.305595 128.468132,380.113168 C134.407882,376.414511 140.360557,372.729948 146.166354,368.825744 C151.376413,365.316189 156.378494,361.508298 161.350023,357.676917 C166.132374,353.992354 170.984051,350.4135 175.799302,346.780618 C180.797857,343.013836 185.667159,339.086142 190.578763,335.208953 C195.490366,331.336462 200.244516,327.285439 205.059767,323.294319 C209.641188,319.485254 214.230835,315.691458 218.765255,311.833061 C223.648658,307.671631 228.495635,303.47379 233.296786,299.220745 C237.786555,295.237846 242.330376,291.31485 246.626266,287.126405 C251.138361,282.721843 255.664556,278.339598 260.268303,274.031349 C264.723996,269.8523 269.066888,265.585161 273.252326,261.134791 C277.530591,256.596331 281.941633,252.205863 286.343276,247.787207 C290.896497,243.208812 295.353365,238.542325 299.778508,233.835904 C308.649945,224.397221 316.935044,214.410024 324.839435,204.140934 C328.909721,198.846064 332.802578,193.432563 336.626108,187.957986 C340.06423,183.03075 343.575204,178.149321 346.994526,173.207989 C350.731105,167.807409 354.471208,162.416225 358.152561,156.979234 C361.660009,151.794771 364.693923,146.289656 367.736062,140.829174 C374.135247,129.331505 380.299426,117.614196 384.870272,105.253233 C387.000592,99.4908914 388.859481,93.6228403 390.70427,87.7688839 C391.87107,84.0702264 392.678311,80.2623357 393.398602,76.4591433 C394.096566,72.7604858 394.165893,68.9937044 393.715858,65.2551122 C393.436202,62.928329 392.490308,60.5475164 391.452761,58.4556431 C389.97458,55.4687629 387.794909,53.3580968 385.353207,51.1781322 C380.572032,46.9145163 374.403152,45 368.152021,45 C366.252006,45 364.346116,45.1761825 362.467251,45.5168019" id="Fill-5" fill="#2C2C2C" transform="translate(220.500000, 223.500000) rotate(18.000000) translate(-220.500000, -223.500000) "></path>
            <path d="M98.7317805,362.303932 L98.7682547,362.417913 C98.7553122,362.379136 98.7435463,362.341534 98.7317805,362.303932 Z M341.433368,98.4601961 C341.531025,98.5083734 341.627505,98.5589009 341.722808,98.6117784 L341.433368,98.4601961 Z M340.801541,98.2792374 C341.002737,98.4437453 341.193344,98.6200038 341.374539,98.809188 L340.801541,98.2792374 Z M335.692802,82.3454667 C333.772612,82.62043 331.906546,83.1938577 330.076954,83.8178129 C326.64838,84.9893446 323.306874,86.4346645 319.984193,87.871759 C316.104987,89.5509152 312.483453,91.6812932 309.110179,94.2288165 C306.191068,96.432048 303.502568,98.9513699 300.739942,101.347311 C297.674934,104.005289 294.769941,106.781949 291.920249,109.669063 L290.514228,111.184887 C289.672968,112.377569 289.190568,113.699508 289.067026,115.154229 C288.901127,117.210578 289.558839,119.285728 290.877793,120.874405 C292.237927,122.512434 294.241654,123.55001 296.370099,123.723918 C298.258521,123.8755 300.703468,123.306773 302.09184,121.915506 C305.483939,118.510191 309.059586,115.38924 312.7223,112.281215 C315.782602,109.689039 318.742894,107.015785 322.044396,104.7491 C324.344623,103.464763 326.722505,102.390761 329.14392,101.356711 C331.258247,100.456618 333.378456,99.5647495 335.542199,98.7974374 C336.907039,98.4519707 338.283645,98.2275349 339.680254,98.0677271 C339.857918,98.0771276 340.035583,98.0888781 340.212071,98.1053289 C340.232073,98.1511562 340.250898,98.1969834 340.268547,98.2428106 C340.593285,99.5318479 340.825073,100.82441 340.96744,102.141649 C340.948614,103.571693 340.805071,104.979411 340.565047,106.393005 C339.221385,111.805317 337.221188,117.107173 334.804479,122.124666 C331.905369,127.225587 328.822712,132.218404 325.508268,137.063163 C322.019688,142.153509 318.136952,146.950091 314.289514,151.765474 C312.350499,154.193142 310.484433,156.671337 308.531299,159.086078 C306.678175,161.380964 304.73916,163.607697 302.790733,165.820329 C300.82348,168.050587 298.786808,170.222092 296.792494,172.430024 C294.636987,174.821264 292.559135,177.277133 290.487166,179.741227 C286.671496,184.272246 282.724047,188.68341 278.931909,193.232055 C274.919748,198.046263 270.939355,202.880446 266.71188,207.51252 C258.305168,216.719091 250.230254,226.217075 241.772949,235.377818 C242.128278,234.995925 242.485961,234.614031 242.84129,234.232138 C240.008069,237.275535 237.179555,240.317757 234.355747,243.365855 C230.067088,247.890998 225.673714,252.315087 221.288575,256.745052 C216.85402,261.224368 212.468882,265.777714 207.844896,270.065496 C203.015008,274.544813 198.28513,279.116959 193.556428,283.70203 C189.277183,287.852331 184.782622,291.789947 180.310416,295.733437 C170.782417,304.128043 161.557978,312.863416 151.980562,321.199269 C147.471882,325.122784 142.95379,328.960519 138.142727,332.509191 C135.70131,334.308203 133.215182,336.042587 130.820828,337.906227 C128.274695,339.894423 125.737974,341.895545 123.19184,343.887266 C120.757483,345.794384 118.284297,347.633347 115.729928,349.375957 C112.348418,351.467558 108.891606,353.46633 105.161827,354.849372 C103.427538,355.32997 101.674424,355.695412 99.9213096,356.107857 C100.071913,355.603758 100.223692,355.102009 100.376649,354.600259 C101.321448,351.498109 102.370963,348.486439 103.756982,345.554672 C105.375965,342.597054 107.092605,339.739316 108.993969,336.93328 C110.932984,334.066141 113.20262,331.408163 115.508729,328.826563 C118.168992,326.067529 120.988094,323.420126 123.365975,320.422556 C125.84269,317.296905 125.420295,312.486223 122.956523,309.521554 C121.42696,307.676715 119.170267,306.506358 116.774737,306.313649 C114.339202,306.12094 112.270763,306.947005 110.336455,308.351198 C108.861015,309.420499 107.739728,310.912821 106.572554,312.302914 C105.671289,313.381616 104.714724,314.419191 103.786397,315.479092 C101.847382,317.701125 99.9260159,319.931383 98.1564296,322.290897 C93.823061,328.060426 90.1779955,334.294102 87.2177035,340.87207 C85.6187223,344.428968 84.6951018,348.276104 83.6832372,352.03041 C82.9902277,354.600259 82.3560475,357.226511 82.070137,359.87509 C81.9371827,361.072472 82.0066013,362.734003 82.1666171,363.853832 C82.3325158,365.011263 82.6313688,366.355528 83.123182,367.388403 C83.6797075,368.55876 84.3550682,369.591635 85.2504507,370.523455 C87.0388624,372.382394 89.1673076,373.484598 91.7040284,373.860616 C95.2243757,374.388217 98.7635483,373.309514 102.136822,372.437622 C103.54755,372.071004 104.977102,371.785466 106.392536,371.441174 C108.40097,370.9547 110.363516,370.289618 112.311944,369.610435 C115.042801,368.664515 117.528929,367.260322 120.043294,365.859654 C123.131834,364.142896 126.155662,362.242829 129.014768,360.168854 C134.019967,356.528528 138.721607,352.498083 143.665625,348.784903 C146.244702,346.84841 148.863784,344.965968 151.447569,343.0424 C153.726617,341.344443 155.88683,339.471403 158.028218,337.603062 C162.785158,333.463337 167.533861,329.309511 172.221383,325.081657 C176.703001,321.047687 181.118731,316.943213 185.600349,312.913943 C190.463182,308.534506 195.343663,304.178571 200.170022,299.758007 C204.724589,295.586555 209.01207,291.129565 213.521927,286.89701 C218.154149,282.550475 222.704009,278.144012 227.176215,273.627093 C231.56959,269.188903 235.935903,264.717812 240.302216,260.246721 C244.783834,255.656949 249.121909,250.929695 253.492929,246.238868 C262.469108,236.608103 270.967594,226.556667 279.847293,216.838947 C284.130068,212.143419 288.161054,207.231682 292.214395,202.338745 C296.020653,197.744273 299.991633,193.291983 303.820246,188.719837 C307.928886,183.817499 312.28108,179.153699 316.514439,174.361817 C320.393645,169.969455 323.964586,165.356182 327.622594,160.784035 C331.612399,155.804145 335.555141,150.810153 339.159026,145.541198 C340.900374,142.988975 342.546419,140.381524 344.159519,137.742346 C345.997347,134.735376 347.845765,131.71548 349.412979,128.558102 C352.702715,121.934306 355.21708,114.806412 356.591334,107.53046 C357.340819,103.569343 356.991373,99.346189 356.094814,95.4403 C355.653594,93.5085066 355.010001,91.4791835 354.008726,89.753025 C353.46632,88.8212049 352.909794,87.9446125 352.229727,87.127948 C350.879005,85.5122449 349.100006,84.3877155 347.23394,83.4876219 C344.956068,82.3865937 342.542889,82 340.099119,82 C338.633092,82 337.158829,82.1386567 335.692802,82.3454667 Z" id="Fill-7" fill="#2C2C2C" transform="translate(219.500000, 228.000000) rotate(18.000000) translate(-219.500000, -228.000000) "></path>
        </g>
    </g>
</svg>