<?xml version="1.0" encoding="utf-8"?>
<!-- Generator: Adobe Illustrator 16.0.0, SVG Export Plug-In . SVG Version: 6.00 Build 0)  -->
<!DOCTYPE svg PUBLIC "-//W3C//DTD SVG 1.1//EN" "http://www.w3.org/Graphics/SVG/1.1/DTD/svg11.dtd">
<svg version="1.1" id="Layer_1" xmlns="http://www.w3.org/2000/svg" xmlns:xlink="http://www.w3.org/1999/xlink" x="0px" y="0px"
	 width="800px" height="1000px" viewBox="0 0 800 1000" enable-background="new 0 0 800 1000" xml:space="preserve">
<title>shootingstar_DL</title>
<desc>Created with Sketch.</desc>
<g id="shootingstar_DL">
	<g id="shooting-star" transform="translate(187.000000, 266.000000)">
		<path id="Fill-43" d="M390.303,81.308c-0.822-1.412-0.991-1.973-1.178-1.983c-5.788-0.268-11.59-0.348-17.374-0.73
			c-15.151-0.994-20.69-7.196-23.127-23.721c-1.196-8.131-0.741-16.933-5.471-25.376c-5.997,10.974-8.303,22.354-13.919,32.155
			c-4.975,8.697-9.99,13.245-20.271,10.69c-7.193-1.784-15.441-2.301-22.863,2.4c9.199,13.066,9.199,13.066,19.444,17.399
			c6.384,2.704,8.394,8.042,5.483,14.935c-3.578,8.479-7.984,16.58-10.854,27.19c8.962-3.325,15.319-8.489,21.994-12.837
			c11.596-7.554,19.857-6.878,30.135,3.246c6.339,6.237,13.123,11.729,21.676,16.167c-0.368-8.812-1.928-15.81-5.861-22.359
			c-7.729-12.857-7.039-16.296,4.207-25.123c1.75-1.376,3.892-2.127,5.729-3.385C382.2,87.142,386.266,84.175,390.303,81.308
			 M292.953,97.912c-14.901-4.587-25.765-16.162-35.914-28.741c-1.428-1.774-3.078-3.514-3.938-5.606
			c-2.501-6.098,1.928-13.523,7.635-11.799c12.345,3.732,24.604,0.771,36.877,1.104c2.91,0.084,5.82,0.08,8.722,0.303
			c9.981,0.76,10.19,0.899,14.415-9.433c4.592-11.222,8.78-22.647,13.045-34.024c1.523-4.075,2.588-8.906,7.585-8.796
			c5.043,0.114,9.304,3.032,11.104,8.22c4.502,13.001,8.008,26.38,8.294,40.385c0.214,10.546-0.123,10.73,9.362,10.799
			c9.449,0.075,18.898-0.288,28.348-0.412c6.916-0.09,13.842-0.125,20.472,2.54c3.364,1.352,7.289,2.132,7.753,7.142
			c0.423,4.583-0.4,8.886-4.221,11.535c-11.631,8.061-20.775,20.039-33.871,25.749c-4.92,2.142-6.28,4.518-3.893,10.67
			c5.115,13.18,5.479,27.831,9.121,41.533c1.588,5.944-4.056,6.784-6.18,10.069c-2.019,3.116-4.737,0.671-6.771-0.611
			c-12.991-8.171-23.436-20.034-35.522-29.541c-7.212-5.661-7.039-5.949-14.823-0.597c-13.819,9.518-27.506,19.238-42.739,26.053
			c-4.629,2.067-8.258,1.48-12.146-1.462c-4.079-3.101-5.593-6.545-3.847-12.146c4.72-15.104,12.459-28.641,18.202-43.198
			C291.152,104.8,293.303,102.395,292.953,97.912"/>
		<path id="Fill-58" d="M199.706,74.546c7.722-0.234,15.367-0.88,21.083,6.063c5.191,6.302,4.408,10.337-3.131,13.771
			c-3.065,1.396-6.271,1.263-9.474,1.421c-18.911,0.974-37.661,2.684-56.249,6.858c-43.257,9.721-75.556,34.014-99.365,70.18
			c-15.654,23.776-25.754,50.142-36.722,76.108c-1.389,3.275-2.732,6.625-4.625,9.612c-3.101,4.905-7.15,4.527-9.59-0.899
			c-2.363-5.283-1.792-10.969-0.596-16.326c8.908-39.784,25.567-75.881,53.487-106.396c23.618-25.813,53.397-41.663,86.887-51.418
			C160.459,77.97,180.053,76.007,199.706,74.546"/>
		<path id="Fill-70" d="M143.989,418.395c-5.655-5.06-6.696-9.925-7.393-15.054c-2.672-19.79-1.182-39.297,1.328-59.117
			c3.484-27.503,12.079-53.218,22.027-78.837c10.256-26.425,26.517-48.8,45.474-69.623c7.06-7.743,14.992-14.339,23.996-19.746
			c8.357-5.01,16.821-5.213,25.088-0.129c5.458,3.359,5.857,7.087,1.529,11.664c-1.883,1.983-4.181,3.896-6.681,4.965
			c-13.301,5.681-23.375,15.303-33.03,25.511c-28.759,30.381-45.56,66.835-56.315,106.479c-5.51,20.308-9.196,41.002-12.604,61.647
			C145.777,395.985,146.373,406.367,143.989,418.395"/>
	</g>
</g>
</svg>
