<?xml version="1.0" encoding="utf-8"?>
<!-- Generator: Adobe Illustrator 16.0.0, SVG Export Plug-In . SVG Version: 6.00 Build 0)  -->
<!DOCTYPE svg PUBLIC "-//W3C//DTD SVG 1.1//EN" "http://www.w3.org/Graphics/SVG/1.1/DTD/svg11.dtd">
<svg version="1.1" id="Layer_1" xmlns="http://www.w3.org/2000/svg" xmlns:xlink="http://www.w3.org/1999/xlink" x="0px" y="0px"
	 width="800px" height="1000px" viewBox="0 0 800 1000" enable-background="new 0 0 800 1000" xml:space="preserve">
<title>star0002_DL</title>
<desc>Created with Sketch.</desc>
<g id="star0002_DL">
	<g id="star0002" transform="translate(225.000000, 269.000000)">
		<polygon id="Path-89" fill="#FCFF00" points="134.912,125.425 187.914,21.018 215.676,137.854 334.298,137.854 253.534,207.459 
			278.772,329.268 177.818,262.148 69.292,314.352 99.578,207.459 16.291,117.967 		"/>
		<path id="Fill-43" fill="#000000" d="M276.144,161.488c-1.645-2.821-1.979-3.944-2.353-3.965
			c-11.564-0.536-23.156-0.695-34.712-1.461c-30.271-1.986-41.334-14.389-46.203-47.428c-2.39-16.256-1.479-33.854-10.929-50.737
			c-11.982,21.94-16.588,44.695-27.809,64.291c-9.938,17.389-19.958,26.481-40.498,21.374c-14.371-3.566-30.851-4.601-45.676,4.801
			c18.377,26.124,18.377,26.124,38.845,34.788c12.755,5.405,16.771,16.077,10.955,29.859c-7.147,16.952-15.951,33.148-21.684,54.364
			c17.905-6.648,30.604-16.973,43.94-25.667c23.166-15.104,39.672-13.753,60.202,6.488c12.663,12.471,26.218,23.451,43.306,32.323
			c-0.735-17.616-3.853-31.607-11.71-44.704c-15.443-25.706-14.063-32.583,8.402-50.23c3.498-2.752,7.776-4.253,11.446-6.767
			C259.955,173.154,268.076,167.223,276.144,161.488 M81.655,194.688c-29.77-9.172-51.472-32.313-71.748-57.464
			c-2.853-3.548-6.15-7.024-7.867-11.208c-4.997-12.192,3.852-27.038,15.252-23.59c24.665,7.462,49.156,1.54,73.674,2.206
			c5.814,0.169,11.628,0.159,17.424,0.606c19.94,1.521,20.358,1.798,28.798-18.86c9.177-22.437,17.543-45.282,26.063-68.027
			c3.043-8.148,5.169-17.807,15.152-17.588c10.075,0.229,18.587,6.062,22.185,16.436c8.993,25.995,15.997,52.744,16.569,80.746
			c0.428,21.085-0.245,21.453,18.705,21.592c18.877,0.149,37.755-0.576,56.632-0.825c13.816-0.179,27.653-0.249,40.897,5.078
			c6.724,2.703,14.563,4.263,15.489,14.279c0.846,9.162-0.8,17.768-8.431,23.063c-23.238,16.117-41.507,40.065-67.67,51.482
			c-9.829,4.281-12.546,9.031-7.776,21.334c10.22,26.353,10.947,55.646,18.225,83.041c3.17,11.885-8.104,13.563-12.347,20.132
			c-4.033,6.229-9.466,1.342-13.525-1.222c-25.954-16.336-46.821-40.056-70.969-59.064c-14.407-11.317-14.063-11.894-29.614-1.192
			c-27.607,19.029-54.951,38.467-85.384,52.09c-9.248,4.134-16.497,2.961-24.264-2.923c-8.149-6.199-11.174-13.086-7.686-24.284
			c9.43-30.197,24.891-57.267,36.365-86.37C78.058,208.46,82.355,203.65,81.655,194.688"/>
	</g>
</g>
</svg>
