<?xml version="1.0" encoding="utf-8"?>
<!-- Generator: Adobe Illustrator 16.0.0, SVG Export Plug-In . SVG Version: 6.00 Build 0)  -->
<!DOCTYPE svg PUBLIC "-//W3C//DTD SVG 1.1//EN" "http://www.w3.org/Graphics/SVG/1.1/DTD/svg11.dtd">
<svg version="1.1" id="Layer_1" xmlns="http://www.w3.org/2000/svg" xmlns:xlink="http://www.w3.org/1999/xlink" x="0px" y="0px"
	 width="348.469px" height="339.395px" viewBox="0 0 348.469 339.395" enable-background="new 0 0 348.469 339.395"
	 xml:space="preserve">
<title>star0002_DL</title>
<desc>Created with Sketch.</desc>
<g id="star0002_DL">
	<g id="star0002" transform="translate(225.000000, 269.000000)">
		<polygon id="Path-89" fill="#FDF3B8" points="-90.251,-144.335 -37.249,-248.741 -9.487,-131.906 109.134,-131.906 28.37,-62.301 
			53.608,59.508 -47.345,-7.612 -155.872,44.592 -125.585,-62.301 -208.873,-151.793 		"/>
		<path id="Fill-43" fill="#5B5577" d="M50.979-108.271c-1.645-2.821-1.979-3.944-2.352-3.965
			c-11.564-0.536-23.156-0.695-34.713-1.461c-30.271-1.986-41.334-14.391-46.203-47.43c-2.389-16.256-1.479-33.854-10.928-50.736
			c-11.983,21.939-16.588,44.694-27.811,64.291c-9.938,17.389-19.958,26.48-40.498,21.375c-14.371-3.566-30.851-4.603-45.676,4.801
			c18.377,26.125,18.377,26.125,38.845,34.789c12.757,5.402,16.771,16.074,10.955,29.857c-7.146,16.951-15.95,33.148-21.684,54.363
			c17.905-6.648,30.604-16.973,43.938-25.666c23.166-15.105,39.674-13.754,60.202,6.488C-12.28-9.094,1.276,1.885,18.364,10.756
			C17.628-6.858,14.509-20.85,6.653-33.948C-8.79-59.653-7.409-66.53,15.054-84.176c3.498-2.752,7.777-4.254,11.447-6.768
			C34.792-96.606,42.913-102.537,50.979-108.271 M-143.508-75.073c-29.771-9.172-51.472-32.312-71.748-57.463
			c-2.853-3.548-6.15-7.022-7.867-11.207c-4.997-12.192,3.853-27.038,15.252-23.591c24.665,7.463,49.156,1.54,73.674,2.206
			c5.814,0.169,11.628,0.159,17.424,0.606c19.94,1.521,20.358,1.798,28.798-18.86c9.179-22.437,17.545-45.281,26.063-68.026
			c3.043-8.148,5.169-17.808,15.152-17.588c10.076,0.229,18.588,6.062,22.186,16.436c8.992,25.995,15.996,52.744,16.568,80.746
			c0.428,21.085-0.244,21.453,18.705,21.592c18.877,0.149,37.756-0.576,56.633-0.825c13.816-0.179,27.652-0.249,40.895,5.078
			c6.727,2.703,14.564,4.263,15.49,14.279c0.846,9.162-0.801,17.768-8.432,23.063C92.046-92.51,73.778-68.563,47.614-57.145
			c-9.828,4.279-12.545,9.029-7.775,21.334C50.058-9.459,50.786,19.834,58.065,47.23c3.17,11.885-8.105,13.563-12.35,20.131
			c-4.033,6.229-9.465,1.342-13.523-1.221C6.239,49.804-14.628,26.082-38.778,7.076C-53.183-4.242-52.84-4.819-68.39,5.883
			c-27.607,19.029-54.951,38.469-85.385,52.092c-9.248,4.135-16.496,2.961-24.264-2.924c-8.148-6.197-11.174-13.086-7.686-24.283
			c9.43-30.197,24.891-57.268,36.365-86.369C-147.105-61.299-142.808-66.11-143.508-75.073"/>
	</g>
</g>
</svg>
