<?xml version="1.0" encoding="UTF-8"?>
<svg width="800px" height="1000px" viewBox="0 0 800 1000" version="1.1" xmlns="http://www.w3.org/2000/svg" xmlns:xlink="http://www.w3.org/1999/xlink">
    <!-- Generator: Sketch 51.1 (57501) - http://www.bohemiancoding.com/sketch -->
    <title>telescope_DL</title>
    <desc>Created with Sketch.</desc>
    <defs></defs>
    <g id="telescope_DL" stroke="none" stroke-width="1" fill="none" fill-rule="evenodd">
        <g id="logo-footer" transform="translate(441.000000, 685.000000)">
            <g>
                <path d="M110.812545,8.25651402 C110.904572,8.56348079 110.810146,8.81874549 110.573746,9.09365441 C110.548096,9.12348237 110.524607,9.14951827 110.482164,9.19539003 C110.410296,9.27306357 110.388406,9.29969141 110.394575,9.28699974 C110.158488,9.77253772 109.949286,10.3963755 109.78094,11.1092981 C109.323962,13.0450464 110.241419,14.6677006 112.137009,15.2172501 C114.194676,15.8138908 116.608374,14.6870388 117.500673,12.7424366 C118.556971,10.4412591 118.361229,8.87677042 116.832238,7.67717368 C114.960938,6.20902274 112.357851,6.27012948 111.072216,7.83985899 L110.795491,8.1777337 C110.794947,8.20051389 110.804056,8.228204 110.812545,8.25651402 Z M110.106083,6.26944954 C110.423589,5.88663707 110.955421,5.49967933 111.419965,5.30848582 C112.37958,4.91358991 113.68037,4.90617957 115.133698,5.23840657 C117.932917,5.87841333 120.108577,8.22064492 119.995807,10.6570534 C119.760531,15.7499925 113.426094,19.0246323 109.732148,15.5763745 C107.943744,13.9068501 107.553768,11.8021869 108.499361,9.2850154 C108.62423,8.95356867 108.851111,8.49010331 109.049811,8.18524994 C109.270059,7.84733807 109.481086,7.64146186 109.750777,7.55562368 C109.778602,7.54676715 109.806094,7.5393618 109.833231,7.53336632 C109.647627,7.16965375 109.747904,6.70130236 110.106083,6.26944954 Z" id="Fill-4" fill="#000000" fill-rule="nonzero"></path>
                <path d="M116,2.36382675 C116.035222,2.23410526 116.077249,2.03952302 116.14169,1.8509661 C116.280178,1.44230796 116.378641,1.03435869 116.377039,0.600890425 C116.376639,0.410561355 116.256963,0.110004457 116.623996,0.0412449782 C116.938196,-0.017590452 117.272408,-0.0501980398 117.512961,0.20711836 C117.655051,0.358460099 117.796741,0.518308165 117.8896,0.694814455 C118.216208,1.3175485 117.776729,2.53572545 117.114308,2.89086461 C116.612389,3.15987721 116.012808,2.911776 116,2.36382675" id="Fill-103" fill="#000000" fill-rule="nonzero"></path>
                <path d="M113.597281,1.30015424 C113.547641,1.6054057 113.484683,1.90995301 113.451993,2.21696486 C113.409214,2.61727733 113.068594,2.79366831 112.724342,2.93802021 C112.426905,3.06335991 112.146418,3.01090032 112.073774,2.6669203 C111.908307,1.88389925 112.059649,1.1040469 112.154086,0.329475719 C112.197269,-0.0278832593 112.773982,-0.106396611 113.167067,0.152380579 C113.512933,0.380527 113.619074,0.676272361 113.597281,1.30015424" id="Fill-107" fill="#000000" fill-rule="nonzero"></path>
                <path d="M112.19066,11.6823452 C110.632914,12.6206952 108.591708,13.9682577 107.051494,14.9237702 C106.603919,15.2015633 106.260092,15.3386205 105.847581,15.6483439 C105.453117,15.9444969 105.00264,16.1407116 104.673147,15.8744932 C104.334372,15.6006913 103.968388,15.4738054 104.253536,15.0032335 C104.507231,14.584149 104.804932,14.5525935 105.343775,14.3418539 C106.408054,13.9255633 108.032176,12.8044553 108.976827,12.2352987 C109.267132,12.0600815 109.780582,11.6912496 110.031699,11.4841022 C110.690685,10.9400907 110.546085,10.7856194 109.803565,10.2635599 C108.494872,9.34277154 106.87805,8.31351987 105.559045,7.40151231 C105.221301,7.16842154 104.87376,6.94291422 104.554064,6.69585398 C103.681603,6.022525 103.837029,5.29651112 105.037953,5.02270928 C105.314335,4.95964705 105.519044,5.02949445 105.664454,5.21269422 C106.875175,6.74015718 109.059218,7.93310366 110.770108,9.0590438 C111.354328,9.44340412 111.803432,9.85804585 112.62433,10.0292717 C113.067264,10.1214703 112.94712,10.4970498 112.994043,10.9392837 C113.057467,11.2214672 112.602656,11.4340876 112.19066,11.6823452 Z" id="chevron" fill="#000000" fill-rule="nonzero" transform="translate(108.500000, 10.500000) rotate(-2.000000) translate(-108.500000, -10.500000) "></path>
                <path d="M4.80555555,7.71270718 L2.78703703,7.71270718 L2.78703703,12.9005525 L2.01851852,12.9005525 L2.01851852,7.71270718 L0,7.71270718 L0,7.09944751 L4.80555555,7.09944751 L4.80555555,7.71270718 Z M9.97657951,10.2403315 L6.8654684,10.2403315 L6.8654684,12.9005525 L6.09694989,12.9005525 L6.09694989,7.09944751 L6.8654684,7.09944751 L6.8654684,9.62707182 L9.97657951,9.62707182 L9.97657951,7.09944751 L10.745098,7.09944751 L10.745098,12.9005525 L9.97657951,12.9005525 L9.97657951,10.2403315 Z M12.6568627,7.09944751 L16.1846405,7.09944751 L16.1846405,7.71270718 L13.4253813,7.71270718 L13.4253813,9.61049724 L15.953159,9.61049724 L15.953159,10.2237569 L13.4253813,10.2237569 L13.4253813,12.2872928 L16.2309368,12.2872928 L16.2309368,12.9005525 L12.6568627,12.9005525 L12.6568627,7.09944751 Z M20.7674291,7.09944751 C20.8847137,7.08287284 21.0158852,7.07044203 21.1609477,7.0621547 C21.3060102,7.05386736 21.4572432,7.04834254 21.6146514,7.04558011 C21.7720596,7.04281768 21.926379,7.04005525 22.0776143,7.03729282 C22.2288497,7.03453039 22.3692805,7.03314917 22.4989106,7.03314917 C23.0174317,7.03314917 23.4665011,7.10497164 23.8461328,7.24861878 C24.2257645,7.39226593 24.539033,7.59254015 24.7859476,7.84944751 C25.0328623,8.10635488 25.2165027,8.41436285 25.3368736,8.77348066 C25.4572445,9.13259848 25.5174291,9.52762215 25.5174291,9.95856354 C25.5174291,10.3508307 25.4603309,10.7278988 25.3461328,11.089779 C25.2319348,11.4516593 25.0513808,11.7720981 24.8044662,12.051105 C24.5575516,12.3301119 24.236567,12.5538666 23.8415032,12.7223757 C23.4464394,12.8908848 22.9680495,12.9751381 22.406318,12.9751381 C22.3075521,12.9751381 22.179467,12.9737569 22.0220588,12.9709945 C21.8646506,12.968232 21.7026152,12.9627072 21.5359477,12.9544199 C21.3692802,12.9461326 21.2149607,12.9392266 21.0729847,12.9337017 C20.9310087,12.9281767 20.8291578,12.9198895 20.7674291,12.9088398 L20.7674291,7.09944751 Z M22.5174291,7.64640884 L22.2535402,7.64640884 C22.1578608,7.64640884 22.0637259,7.64917122 21.9711328,7.65469613 C21.8785398,7.66022104 21.7936641,7.66574581 21.7165032,7.67127072 C21.6393424,7.67679563 21.5791578,7.6823204 21.5359477,7.6878453 L21.5359477,12.3287293 C21.566812,12.3342542 21.6254534,12.3383978 21.7118736,12.3411602 C21.7982938,12.3439227 21.887799,12.3466851 21.9803921,12.3494475 C22.0729851,12.3522099 22.1624904,12.3549724 22.2489106,12.3577348 C22.3353309,12.3604972 22.3939723,12.3618785 22.4248365,12.3618785 C22.8569374,12.3618785 23.2195881,12.2955808 23.5127995,12.1629834 C23.8060109,12.0303861 24.0405762,11.852211 24.2165032,11.628453 C24.3924302,11.404695 24.5174286,11.1477915 24.5915032,10.8577348 C24.6655778,10.5676781 24.7026143,10.2679574 24.7026143,9.95856354 C24.7026143,9.68784397 24.6686642,9.41574724 24.6007625,9.14226519 C24.5328607,8.86878315 24.4155783,8.62154807 24.2489106,8.40055249 C24.0822429,8.17955691 23.8584801,7.99861948 23.5776143,7.85773481 C23.2967486,7.71685014 22.9433571,7.64640884 22.5174291,7.64640884 Z M26.892157,10 C26.892157,9.03314434 27.1205495,8.29143904 27.5773422,7.77486188 C28.0341344,7.25828471 28.6853622,7 29.5310459,7 C29.9878381,7 30.3828957,7.07182247 30.7162311,7.21546961 C31.0495659,7.35911676 31.3257979,7.56215336 31.5449348,7.82458564 C31.7640716,8.08701791 31.9261071,8.40193186 32.0310459,8.76933702 C32.1359847,9.13674217 32.1884533,9.54695907 32.1884533,10 C32.1884533,10.9668557 31.9585171,11.708561 31.4986385,12.2251381 C31.0387594,12.7417153 30.3829019,13 29.5310459,13 C29.080426,13 28.6899981,12.9281775 28.3597496,12.7845304 C28.0295006,12.6408832 27.7548124,12.4378466 27.5356755,12.1754144 C27.3165387,11.9129821 27.1545032,11.5980681 27.0495644,11.230663 C26.9446256,10.8632578 26.892157,10.4530409 26.892157,10 Z M27.7069718,10 C27.7069718,10.3204436 27.7424651,10.624308 27.8134533,10.9116022 C27.884441,11.1988965 27.9940078,11.4516564 28.142157,11.6698895 C28.2903057,11.8881227 28.4801184,12.0621541 28.7116014,12.191989 C28.943084,12.3218238 29.2162295,12.3867403 29.5310459,12.3867403 C30.1051225,12.3867403 30.5557352,12.1919909 30.8828977,11.8024862 C31.2100598,11.4129815 31.3736385,10.8121587 31.3736385,10 C31.3736385,9.68508131 31.3381447,9.38259816 31.267157,9.09254144 C31.1961688,8.80248476 31.0850587,8.54834365 30.9338237,8.3301105 C30.7825881,8.11187735 30.5912321,7.93784595 30.3597496,7.80801105 C30.1282666,7.67817615 29.8520351,7.61325967 29.5310459,7.61325967 C28.9631416,7.61325967 28.5171585,7.80800912 28.1930829,8.19751381 C27.8690068,8.58701851 27.7069718,9.18784125 27.7069718,10 Z M33.5631807,10 C33.5631807,9.03314434 33.7915737,8.29143904 34.2483658,7.77486188 C34.7051585,7.25828471 35.3563864,7 36.2020695,7 C36.6588622,7 37.0539198,7.07182247 37.3872547,7.21546961 C37.7205896,7.35911676 37.9968216,7.56215336 38.2159584,7.82458564 C38.4350953,8.08701791 38.5971308,8.40193186 38.7020695,8.76933702 C38.8070083,9.13674217 38.8594769,9.54695907 38.8594769,10 C38.8594769,10.9668557 38.6295412,11.708561 38.1696621,12.2251381 C37.7097835,12.7417153 37.053926,13 36.2020695,13 C35.7514502,13 35.3610217,12.9281775 35.0307732,12.7845304 C34.7005248,12.6408832 34.425836,12.4378466 34.2066992,12.1754144 C33.9875623,11.9129821 33.8255268,11.5980681 33.7205881,11.230663 C33.6156493,10.8632578 33.5631807,10.4530409 33.5631807,10 Z M34.3779955,10 C34.3779955,10.3204436 34.4134893,10.624308 34.484477,10.9116022 C34.5554651,11.1988965 34.665032,11.4516564 34.8131807,11.6698895 C34.9613298,11.8881227 35.1511426,12.0621541 35.3826251,12.191989 C35.6141076,12.3218238 35.8872532,12.3867403 36.2020695,12.3867403 C36.7761467,12.3867403 37.2267594,12.1919909 37.5539214,11.8024862 C37.8810834,11.4129815 38.0446621,10.8121587 38.0446621,10 C38.0446621,9.68508131 38.0091688,9.38259816 37.9381806,9.09254144 C37.867193,8.80248476 37.7560829,8.54834365 37.6048473,8.3301105 C37.4536122,8.11187735 37.2622558,7.93784595 37.0307732,7.80801105 C36.7992907,7.67817615 36.5230587,7.61325967 36.2020695,7.61325967 C35.6341657,7.61325967 35.1881822,7.80800912 34.8641066,8.19751381 C34.540031,8.58701851 34.3779955,9.18784125 34.3779955,10 Z M40.5027233,7.09944751 C40.6200078,7.08287284 40.7511791,7.07044203 40.8962419,7.0621547 C41.0413041,7.05386736 41.1925371,7.04834254 41.3499456,7.04558011 C41.5073535,7.04281768 41.6616729,7.04005525 41.8129085,7.03729282 C41.9641436,7.03453039 42.1045747,7.03314917 42.2342048,7.03314917 C42.7527259,7.03314917 43.2017954,7.10497164 43.581427,7.24861878 C43.9610587,7.39226593 44.2743267,7.59254015 44.5212419,7.84944751 C44.7681565,8.10635488 44.9517969,8.41436285 45.0721678,8.77348066 C45.1925387,9.13259848 45.2527233,9.52762215 45.2527233,9.95856354 C45.2527233,10.3508307 45.1956251,10.7278988 45.081427,11.089779 C44.967229,11.4516593 44.786675,11.7720981 44.5397604,12.051105 C44.2928452,12.3301119 43.9718612,12.5538666 43.5767974,12.7223757 C43.1817336,12.8908848 42.7033432,12.9751381 42.1416122,12.9751381 C42.0428463,12.9751381 41.9147609,12.9737569 41.757353,12.9709945 C41.5999445,12.968232 41.437909,12.9627072 41.2712419,12.9544199 C41.1045742,12.9461326 40.9502547,12.9392266 40.8082789,12.9337017 C40.6663026,12.9281767 40.5644517,12.9198895 40.5027233,12.9088398 L40.5027233,7.09944751 Z M42.2527233,7.64640884 L41.9888344,7.64640884 C41.8931549,7.64640884 41.7990201,7.64917122 41.706427,7.65469613 C41.6138339,7.66022104 41.5289584,7.66574581 41.4517974,7.67127072 C41.3746364,7.67679563 41.3144517,7.6823204 41.2712419,7.6878453 L41.2712419,12.3287293 C41.3021061,12.3342542 41.3607475,12.3383978 41.4471678,12.3411602 C41.533588,12.3439227 41.6230932,12.3466851 41.7156863,12.3494475 C41.8082794,12.3522099 41.8977846,12.3549724 41.9842048,12.3577348 C42.0706251,12.3604972 42.1292665,12.3618785 42.1601307,12.3618785 C42.5922316,12.3618785 42.9548823,12.2955808 43.2480937,12.1629834 C43.5413051,12.0303861 43.7758705,11.852211 43.9517974,11.628453 C44.1277244,11.404695 44.2527228,11.1477915 44.3267974,10.8577348 C44.400872,10.5676781 44.4379085,10.2679574 44.4379085,9.95856354 C44.4379085,9.68784397 44.4039584,9.41574724 44.3360567,9.14226519 C44.2681549,8.86878315 44.150872,8.62154807 43.9842048,8.40055249 C43.8175371,8.17955691 43.5937743,7.99861948 43.3129085,7.85773481 C43.0320428,7.71685014 42.6786513,7.64640884 42.2527233,7.64640884 Z M50.7293025,12.9005525 L46.8959692,12.9005525 L46.8959692,7.09944751 L47.6644877,7.09944751 L47.6644877,12.2872928 L50.7293025,12.2872928 L50.7293025,12.9005525 Z M52.0206971,7.09944751 L55.5484749,7.09944751 L55.5484749,7.71270718 L52.7892156,7.71270718 L52.7892156,9.61049724 L55.3169934,9.61049724 L55.3169934,10.2237569 L52.7892156,10.2237569 L52.7892156,12.2872928 L55.5947712,12.2872928 L55.5947712,12.9005525 L52.0206971,12.9005525 L52.0206971,7.09944751 Z M63.9645968,12.9005525 L60.1312634,12.9005525 L60.1312634,7.09944751 L60.8997819,7.09944751 L60.8997819,12.2872928 L63.9645968,12.2872928 L63.9645968,12.9005525 Z M65.4319172,7.09944751 L66.2004357,7.09944751 L66.2004357,12.9005525 L65.4319172,12.9005525 L65.4319172,7.09944751 Z M72.1955335,8.42541436 C72.1955335,8.5635366 72.1708426,8.70441915 72.1214594,8.8480663 C72.0720767,8.99171344 71.9980031,9.12569001 71.8992372,9.25 C71.8004712,9.37431004 71.6739296,9.48342495 71.5196075,9.57734807 C71.365286,9.67127118 71.1831888,9.74309369 70.9733113,9.79281768 L70.9733113,9.82596685 C71.1584975,9.8535913 71.3359651,9.90055216 71.5057187,9.96685083 C71.6754728,10.0331495 71.8251626,10.1243088 71.9547927,10.2403315 C72.0844234,10.3563542 72.1893606,10.4972367 72.2696075,10.6629834 C72.349855,10.8287301 72.3899779,11.0248607 72.3899779,11.2513812 C72.3899779,11.5497252 72.3205345,11.8080099 72.1816446,12.0262431 C72.0427552,12.2444762 71.8606585,12.4226512 71.6353483,12.5607735 C71.4100386,12.6988957 71.1523251,12.8011047 70.8622001,12.8674033 C70.5720757,12.933702 70.2757819,12.9668508 69.9733113,12.9668508 L69.6029409,12.9668508 C69.4609651,12.9668508 69.3128185,12.9627072 69.1584964,12.9544199 C69.0041749,12.9461326 68.8498555,12.935083 68.6955335,12.9212707 C68.541212,12.9074585 68.4054111,12.8867405 68.2881261,12.859116 L68.2881261,7.14917127 C68.5165227,7.11602192 68.7819517,7.08839788 69.0844224,7.06629834 C69.386893,7.0441988 69.7171369,7.03314917 70.0751631,7.03314917 C70.3159054,7.03314917 70.5612732,7.05110479 70.8112742,7.08701657 C71.0612758,7.12292836 71.288125,7.19198844 71.4918298,7.2941989 C71.6955345,7.39640935 71.8637428,7.53867311 71.9964594,7.72099448 C72.1291765,7.90331584 72.1955335,8.13812012 72.1955335,8.42541436 Z M70.0473853,12.3701657 C70.2449172,12.3701657 70.4362737,12.3494477 70.6214594,12.308011 C70.8066456,12.2665744 70.9702243,12.2002767 71.1122001,12.109116 C71.2541765,12.0179553 71.3668298,11.906078 71.4501631,11.7734807 C71.533497,11.6408833 71.5751631,11.4834263 71.5751631,11.301105 C71.5751631,11.0745845 71.5242377,10.8922659 71.4223853,10.7541436 C71.320533,10.6160214 71.1878185,10.5082877 71.0242372,10.4309392 C70.8606564,10.3535908 70.677016,10.3011051 70.4733113,10.2734807 C70.2696065,10.2458562 70.0659049,10.2320442 69.8622001,10.2320442 L69.0566446,10.2320442 L69.0566446,12.3121547 C69.099855,12.3232045 69.1615829,12.3314917 69.2418298,12.3370166 C69.3220772,12.3425415 69.4084964,12.3480663 69.501089,12.3535912 C69.5936821,12.3591161 69.6893601,12.3632597 69.7881261,12.3660221 C69.886892,12.3687845 69.9733113,12.3701657 70.0473853,12.3701657 Z M69.5381261,9.6519337 C69.6430649,9.6519337 69.769607,9.64917132 69.9177557,9.64364641 C70.0659049,9.6381215 70.1893601,9.6298343 70.2881261,9.61878453 C70.4362752,9.57458541 70.5751626,9.52071855 70.7047927,9.45718232 C70.8344234,9.39364609 70.9501626,9.31906119 71.052015,9.23342541 C71.1538673,9.14778964 71.2341137,9.04834309 71.2927557,8.93508287 C71.3513982,8.82182265 71.3807187,8.69889567 71.3807187,8.56629834 C71.3807187,8.38397698 71.3421389,8.23342601 71.2649779,8.11464088 C71.1878174,7.99585576 71.0844234,7.90055285 70.9547927,7.82872928 C70.8251626,7.75690571 70.677016,7.70580124 70.5103483,7.67541436 C70.3436811,7.64502749 70.1739296,7.62983425 70.001089,7.62983425 C69.7973843,7.62983425 69.610658,7.63397785 69.4409038,7.64226519 C69.2711502,7.65055253 69.1430649,7.66298333 69.0566446,7.67955801 L69.0566446,9.6519337 L69.5381261,9.6519337 Z M74.0332243,7.15745856 C74.2677932,7.11878435 74.5378524,7.08839788 74.8434095,7.06629834 C75.1489666,7.0441988 75.428285,7.03314917 75.6813725,7.03314917 C75.9653246,7.03314917 76.2353838,7.0607732 76.4915576,7.1160221 C76.747732,7.17127099 76.9730381,7.26243029 77.1674836,7.38950276 C77.361929,7.51657523 77.5177917,7.68231943 77.6350762,7.88674033 C77.7523606,8.09116123 77.8110021,8.33977753 77.8110021,8.63259669 C77.8110021,9.08563762 77.6721147,9.45303725 77.3943354,9.73480663 C77.1165561,10.016576 76.7647078,10.2044194 76.3387799,10.2983425 L76.7832243,10.6049724 L78.3943354,12.9005525 L77.4961873,12.9005525 L75.7091502,10.3977901 L74.8017428,10.2734807 L74.8017428,12.9005525 L74.0332243,12.9005525 L74.0332243,7.15745856 Z M75.699891,7.62983425 L75.449891,7.62983425 C75.3634707,7.62983425 75.2801384,7.63259664 75.199891,7.63812155 C75.1196436,7.64364645 75.0440273,7.64917122 74.9730391,7.65469613 C74.902051,7.66022104 74.8449527,7.66850824 74.8017428,7.67955801 L74.8017428,9.81767956 L75.5239651,9.81767956 C75.949893,9.81767956 76.3017413,9.72375783 76.5795206,9.5359116 C76.8572999,9.34806538 76.9961873,9.0552506 76.9961873,8.65745856 C76.9961873,8.35911455 76.8819908,8.11326064 76.6535947,7.9198895 C76.4251986,7.72651837 76.1073004,7.62983425 75.699891,7.62983425 Z M82.722767,11.2928177 L80.3338781,11.2928177 L79.68573,12.9005525 L78.9264707,12.9005525 L81.3801744,7.00828729 L81.7320263,7.00828729 L84.1949892,12.9005525 L83.3894337,12.9005525 L82.722767,11.2928177 Z M80.5838781,10.6961326 L82.4912855,10.6961326 L81.7690633,8.93093923 L81.5375818,8.05248619 L81.5283226,8.05248619 L81.2968411,8.94751381 L80.5838781,10.6961326 Z M85.3937907,7.15745856 C85.6283596,7.11878435 85.8984187,7.08839788 86.2039758,7.06629834 C86.5095329,7.0441988 86.7888514,7.03314917 87.0419388,7.03314917 C87.325891,7.03314917 87.5959501,7.0607732 87.852124,7.1160221 C88.1082984,7.17127099 88.3336044,7.26243029 88.5280499,7.38950276 C88.7224954,7.51657523 88.878358,7.68231943 88.9956425,7.88674033 C89.112927,8.09116123 89.1715684,8.33977753 89.1715684,8.63259669 C89.1715684,9.08563762 89.0326811,9.45303725 88.7549018,9.73480663 C88.477123,10.016576 88.1252742,10.2044194 87.6993462,10.2983425 L88.1437906,10.6049724 L89.7549018,12.9005525 L88.8567536,12.9005525 L87.0697166,10.3977901 L86.1623092,10.2734807 L86.1623092,12.9005525 L85.3937907,12.9005525 L85.3937907,7.15745856 Z M87.0604573,7.62983425 L86.8104573,7.62983425 C86.7240371,7.62983425 86.6407047,7.63259664 86.5604573,7.63812155 C86.4802099,7.64364645 86.4045936,7.64917122 86.3336055,7.65469613 C86.2626178,7.66022104 86.2055196,7.66850824 86.1623092,7.67955801 L86.1623092,9.81767956 L86.8845314,9.81767956 C87.3104594,9.81767956 87.6623081,9.72375783 87.9400869,9.5359116 C88.2178663,9.34806538 88.3567536,9.0552506 88.3567536,8.65745856 C88.3567536,8.35911455 88.2425571,8.11326064 88.014161,7.9198895 C87.7857649,7.72651837 87.4678668,7.62983425 87.0604573,7.62983425 Z M92.1111111,10.5966851 L89.9722222,7.09944751 L90.8703704,7.09944751 L92.3888889,9.63535912 L92.5462963,10.140884 L92.5555556,10.140884 L92.7222222,9.61878453 L94.1759259,7.09944751 L95,7.09944751 L92.8796296,10.5883978 L92.8796296,12.9005525 L92.1111111,12.9005525 L92.1111111,10.5966851 Z" id="the-Doodle-Library" fill="#666666" fill-rule="nonzero" opacity="0.595278533"></path>
            </g>
        </g>
        <g id="telescope" transform="translate(224.000000, 279.000000)">
            <polygon id="Path-4" fill="#FFFFFF" points="311.320312 5.8046875 355.5 142.304688 274.265625 158.09375 263.648438 142.304688 131.339844 175.589844 124.640625 165.40625 70.0078125 182.902344 70.0078125 175.589844 19.6640625 190.101562 10.7382812 165.40625 58.96875 149.886719 58.96875 135.074219 107.886719 115.746094 107.886719 108.304688 240.6875 58.390625 233.09375 42.4414063"></polygon>
            <g id="Group-13" fill="#2C2C2C">
                <path d="M274.257206,30.8052826 C278.240744,28.653103 282.29019,26.7719054 286.506083,25.128097 C293.01089,22.5873605 299.399519,19.7398096 305.955712,17.3312048 C307.35319,22.1842467 308.566348,27.0921569 310.187244,31.8768934 C311.843886,36.7724862 313.508348,41.6602407 315.096848,46.5726299 C316.753491,51.8623784 318.36545,57.1633246 319.791972,62.5258575 C321.3235,68.273588 322.960035,73.9989234 324.430124,79.7645701 C325.961652,85.7608874 327.323383,91.784079 328.501912,97.8643784 C329.635757,103.725205 330.722684,109.59051 331.979409,115.425582 C332.476513,117.72669 332.978086,120.027798 333.615943,122.293073 C334.239279,124.5046 334.992197,126.679175 335.712719,128.860468 C336.380738,131.169414 336.950453,133.471642 337.386117,135.839935 C337.48107,136.359504 337.581608,136.881313 337.681029,137.40536 C337.418513,137.386325 337.155997,137.367289 336.892364,137.348253 C335.552975,137.256432 334.209117,137.244115 332.86526,137.152295 C330.072538,136.955217 327.301041,136.561061 324.5005,136.460283 C318.325234,136.241929 312.203589,137.554289 306.112105,138.350438 C303.323852,138.71772 300.574697,139.291037 297.798731,139.727744 C295.04064,140.161091 292.288133,140.537331 289.555734,141.124085 C284.601447,142.187857 279.528747,142.498031 274.48956,142.998564 C274.434823,141.326762 274.38232,139.657199 274.314178,137.987636 C274.195766,135.266618 273.991339,132.581432 273.389228,129.922001 C272.734614,127.021822 271.709127,124.174271 270.718269,121.374869 C268.968909,116.400893 266.71239,111.585923 264.61338,106.756396 C263.287396,103.69945 261.847469,100.698492 260.511431,97.6449054 C259.892564,96.2328874 259.229013,94.8376659 258.705098,93.3853365 C258.100753,91.7101749 257.493057,90.0350132 256.887595,88.357612 C256.37932,86.5917497 255.871045,84.8236479 255.362769,83.0577856 C254.774064,81.0063844 254.40319,78.8676419 253.92731,76.7893665 C252.984488,72.6652886 252.208111,68.4964204 251.283162,64.3678635 C250.331402,60.1026958 249.026643,55.8823186 247.586716,51.766079 C247.053864,50.2320072 246.409304,48.7494443 245.749105,47.269121 C246.700864,46.5088036 247.659326,45.7652826 248.649067,45.0564743 C250.789409,43.8202587 253.048162,42.7755222 255.227602,41.6087317 C258.134266,40.055624 260.851026,38.190103 263.568902,36.3313006 C267.034111,34.3101329 270.726089,32.7088754 274.257206,30.8052826 M307.11525,0.799061078 C305.989225,0.904318563 304.82857,1.24920479 303.738291,1.52130659 C300.622731,2.29058204 297.558557,3.3230012 294.539067,4.39461198 C291.903855,5.33073174 289.31556,6.35419281 286.746257,7.45603713 C284.105459,8.58923473 281.440086,9.63957006 278.778064,10.7156599 C276.028909,11.8219832 273.353481,13.0548395 270.722738,14.4198275 C268.234981,15.7109114 265.84888,17.1845162 263.352187,18.4655222 C262.060833,19.1261808 260.773947,19.7868395 259.481475,20.4519772 C257.697484,21.3746599 256.030788,22.5246539 254.359624,23.636576 C252.494086,24.8694323 250.744725,26.2635341 248.895943,27.5221449 C247.178978,28.5444862 245.45531,29.5522707 243.720472,30.5432587 C241.032757,32.0874084 238.567342,33.8711868 236.158899,35.8094922 C235.251823,36.5384563 234.574867,37.4577796 234.129149,38.4722826 C233.925839,38.5473066 233.72588,38.6301689 233.527038,38.7219892 C230.533241,40.1172108 228.534769,43.6433365 229.276516,46.9589473 C229.878627,49.653091 230.935393,52.1244024 231.999978,54.6573006 C232.72832,56.3839713 233.347187,58.1487138 233.932541,59.9257737 C235.467421,65.0475581 236.700687,70.2264503 237.803253,75.4602108 C238.418769,78.3861449 239.086788,81.2908036 239.767095,84.2044204 C240.396016,86.8761689 241.229364,89.4964084 242.001272,92.1345641 C243.659032,97.7815162 246.094285,103.169804 248.58651,108.479708 C252.037197,115.828696 255.587304,123.211277 258.212462,130.904031 C258.669352,132.463857 259.049162,134.031522 259.311678,135.647337 C259.625579,137.624834 259.717181,139.628085 259.831124,141.617899 C259.90932,143.008642 259.961823,144.408343 260.092522,145.794606 C260.167367,146.604193 260.245564,147.41378 260.319291,148.226726 C260.398605,149.084462 260.638779,149.919804 260.877836,150.746187 C261.376057,152.473977 261.712301,153.187265 262.689753,154.692223 C264.544121,157.55657 268.213757,158.480372 271.35501,157.627115 C273.615997,157.014606 275.994279,156.918307 278.311121,156.682037 C281.085969,156.402097 283.874222,156.280043 286.64125,155.929558 C289.47307,155.575714 292.244567,154.954247 295.054045,154.486187 C297.789795,154.031564 300.556823,153.756103 303.297041,153.322756 C306.155671,152.868133 309.026589,152.540043 311.897507,152.18172 C314.777361,151.817798 317.631522,151.323983 320.520314,151.061959 C320.786181,151.038444 321.054282,151.018289 321.320149,151.000372 C323.936371,150.976857 326.505674,151.176175 329.11631,151.415804 C331.844241,151.661031 334.575522,151.686786 337.306804,151.796522 C340.231342,151.909618 343.320092,152.028313 346.055842,150.798816 C347.941488,149.954516 349.800323,148.834756 350.926348,147.03754 C351.62006,145.939055 352.231108,144.552792 352.291431,143.226995 C352.339466,142.208013 352.256801,141.180073 352.13057,140.170049 C351.798795,137.471426 351.33632,134.772804 350.899538,132.090977 C350.454937,129.357642 349.695317,126.680295 348.861969,124.047738 C347.993991,121.292007 347.225434,118.544115 346.636728,115.710001 C345.419102,109.865971 344.345579,104.000666 343.289931,98.1264024 C342.242102,92.3305222 341.129481,86.5268036 339.689554,80.8137856 C338.214997,74.9831928 336.622029,69.1828335 335.103905,63.3611988 C333.59807,57.5966719 332.03638,51.8578994 330.285902,46.1627976 C328.366744,39.8854204 326.306833,33.6573126 324.269263,27.4202467 C324.196652,27.1996539 324.124041,26.9790611 324.051431,26.7573485 C323.275054,24.1460671 322.554532,21.523588 321.873108,18.8854323 C320.856557,14.9539533 319.984111,10.8377138 318.272731,7.15034251 C317.38688,5.23891138 315.951421,3.38458802 314.162962,2.2603485 C312.735323,1.3678994 311.592541,0.925594012 309.921377,0.71171976 C309.635402,0.675887425 309.349428,0.661330539 309.062336,0.661330539 C308.413307,0.661330539 307.763162,0.735234731 307.11525,0.799061078" id="Fill-1"></path>
                <path d="M233.036301,50.3453269 C231.41764,50.5468838 229.80233,50.747321 228.192605,51.0194228 C226.665545,51.2724886 225.182051,51.7192731 223.698558,52.1649377 C220.556187,53.1100156 217.462969,54.2387341 214.373102,55.3271413 C208.813352,57.2912012 203.364194,59.517285 197.856947,61.6168359 C195.400469,62.5529557 192.912713,63.4062132 190.477459,64.3860036 C187.70708,65.5057641 184.983618,66.7083868 182.282497,67.9905126 C177.115963,70.4483868 171.784099,72.5221832 166.626501,74.9845365 C161.590665,77.389782 156.345934,79.3280874 151.174931,81.4007641 C145.697846,83.6010934 140.200653,85.7051234 134.798412,88.0846144 C132.288314,89.1909377 129.822899,90.3991593 127.327323,91.5312371 C124.844035,92.6599557 122.234516,93.4818599 119.747877,94.5982611 C117.129422,95.7740096 114.43277,96.6843749 111.745054,97.6776024 C109.318738,98.5734108 106.901358,99.5666383 104.536482,100.612495 C103.449554,101.097351 102.354808,101.560932 101.30251,102.116333 C100.958447,102.299974 100.626672,102.510489 100.294896,102.719884 C99.5833108,103.171147 98.9030038,103.547387 98.2696146,104.071435 C97.0698614,105.07362 96.4286525,106.14971 95.778507,107.535974 C94.2905449,110.698177 95.5293962,114.102249 96.6464848,117.141279 C97.0698614,118.278956 97.5714342,119.394237 98.1042854,120.483764 C99.081738,122.469099 100.364156,124.28871 101.359482,126.270686 C101.952656,127.450914 102.345871,128.737519 102.812814,129.970375 C103.171399,130.925531 103.514346,131.882926 103.846121,132.84592 C104.681703,135.802087 105.363127,138.798566 105.949599,141.81968 C106.595276,145.148728 106.89689,148.538243 107.411868,151.889686 C108.022915,155.852519 108.785887,159.758243 110.300659,163.493764 C110.889365,164.955051 111.701488,166.302123 112.521431,167.640237 C113.677618,169.516956 114.720978,171.524686 116.112871,173.230081 C118.347048,175.985812 122.327235,176.839069 125.520991,175.347549 C129.439738,173.514501 131.124308,168.755519 129.334732,164.836357 C128.553887,163.122004 127.659099,161.534183 126.711808,159.907171 C125.964475,158.623926 125.346725,157.331722 124.831747,155.966734 C123.872168,152.33983 123.363893,148.59871 122.858969,144.886704 C122.295956,140.770465 121.528516,136.737087 120.467282,132.721626 C119.342374,128.471016 117.849944,124.253998 116.016801,120.256453 C115.122013,118.30471 113.761399,116.494057 112.504675,114.761788 C111.995282,114.063057 111.488124,113.368806 110.992137,112.666716 C112.019858,112.278159 113.060985,111.920956 114.088706,111.542477 C116.593219,110.619794 119.118956,109.745261 121.624586,108.822578 C124.259798,107.855105 126.816814,106.696153 129.448675,105.711884 C131.992285,104.767926 134.466637,103.669441 136.940988,102.545201 C147.386884,97.7951772 158.221526,94.0204647 168.842804,89.6903509 C171.190925,88.736315 173.434039,87.5381713 175.767637,86.5539018 C178.255393,85.5035665 180.782247,84.5461713 183.268887,83.4879976 C188.199716,81.3884467 193.030007,79.1175725 198.088184,77.3203569 C203.053643,75.5578539 208.006814,73.7987102 212.933175,71.9186323 C217.679684,70.1057401 222.512209,68.4977641 227.326861,66.8696323 C228.380276,66.5460216 229.443744,66.2336084 230.52732,66.0443689 C232.264393,65.7465126 234.000349,65.5102431 235.750827,65.2963689 C239.848308,64.7879976 242.557247,60.3537461 241.851247,56.4603389 C241.49713,54.5265126 240.38451,52.7684886 238.787073,51.630812 C237.41864,50.6555006 235.919507,50.2647042 234.333241,50.2647042 C233.906513,50.2647042 233.475317,50.2926982 233.036301,50.3453269" id="Fill-3"></path>
                <path d="M256.830065,135.7807 C251.070356,137.338287 245.318467,138.873478 239.497318,140.185838 C236.726939,140.810664 233.943154,141.397419 231.16272,141.992011 C228.483942,142.565329 225.84873,143.286454 223.186708,143.91688 C220.314673,144.589856 217.434818,145.145257 214.550496,145.732011 C211.723144,146.304209 208.939359,147.013017 206.164511,147.809167 C203.200875,148.662425 200.233888,149.414904 197.218866,150.057646 C194.355768,150.665676 191.45804,151.094544 188.591591,151.698095 C185.982072,152.253496 183.429524,153.067562 180.854635,153.766293 C178.061913,154.523251 175.256904,155.179431 172.437372,155.822173 C169.553049,156.478353 166.6866,157.161407 163.8626,158.03146 C161.014024,158.910472 158.168799,159.785005 155.284477,160.529646 C149.676692,161.977496 144.047682,163.336886 138.379575,164.522712 C135.783461,165.069155 133.169473,165.532736 130.555486,165.961604 C129.372489,166.158682 128.190609,166.372556 127.003144,166.560676 C125.590027,166.780149 124.253989,166.971628 122.923537,167.579658 C120.043682,168.892017 118.398211,172.147161 118.961223,175.252257 C119.292999,177.053951 120.327423,178.685443 121.815385,179.749215 C123.425109,180.89473 125.244847,181.179149 127.165122,180.94288 C129.228385,180.685335 131.27154,180.256466 133.321397,179.905981 C135.971132,179.460317 138.610812,178.944107 141.237087,178.379748 C147.128613,177.10658 152.984391,175.663209 158.823413,174.167209 C161.607198,173.455041 164.351885,172.57491 167.096572,171.735089 C169.758594,170.917664 172.472002,170.300676 175.182059,169.67585 C178.197081,168.983838 181.195347,168.235838 184.180208,167.418413 C186.929363,166.665934 189.651708,165.874263 192.444429,165.288628 C194.996977,164.750023 197.580803,164.382742 200.13335,163.848616 C203.148372,163.219311 206.10754,162.453395 209.074527,161.627011 C214.65997,160.073904 220.376113,159.20385 226.018527,157.895969 C228.588948,157.296898 231.137027,156.636239 233.720853,156.094275 C236.504638,155.50752 239.288423,154.930844 242.054334,154.29146 C247.875483,152.948868 253.609499,151.34761 259.369208,149.782185 C261.215755,149.279413 262.747284,148.513496 263.885597,146.904401 C264.985929,145.351293 265.426062,143.378275 265.086467,141.506035 C264.754692,139.695383 263.715799,138.045975 262.214432,136.978844 C261.101812,136.187173 259.555761,135.620574 258.097961,135.620574 C257.662296,135.620574 257.235568,135.670963 256.830065,135.7807" id="Fill-5"></path>
                <path d="M99.642293,110.361353 C97.6695146,110.707359 95.7369513,111.070162 93.8166759,111.634521 C91.9556063,112.178725 90.1191127,112.80803 88.2815019,113.426138 C86.038388,114.082317 83.7751665,114.653395 81.537638,115.321892 C78.6443785,116.182988 75.8259639,117.272515 72.9718025,118.247826 C68.5950494,119.743826 64.2048911,121.235347 59.9990525,123.164695 C59.1087329,123.571168 58.253043,124.02579 57.4196949,124.533042 C56.6299133,125.01006 55.7664038,125.526269 55.0201886,126.099587 C54.1823722,126.73785 53.4920114,127.564234 52.8117044,128.360383 C50.7439734,130.771228 50.599869,134.305192 50.9484006,137.274796 C51.1059101,138.609551 51.2712392,139.943186 51.4421538,141.27682 C51.747119,143.630557 52.0956506,145.970856 52.3972646,148.318994 C52.705581,150.71976 53.4126981,153.015269 54.155562,155.30294 C54.5956949,156.877323 54.936407,158.472982 55.277119,160.068641 C55.4781949,160.995802 55.6435241,161.931922 55.8222582,162.863563 C56.1283405,164.428988 56.6165082,165.933946 57.1191981,167.446743 C57.9134481,169.839671 59.3611949,172.022084 60.7575557,174.086922 C61.8791127,175.749766 63.0274797,177.381257 64.1311633,179.056419 C65.8727044,181.702413 68.2018342,183.880347 71.3877709,184.61603 C72.9718025,184.983311 74.4463595,185.267731 76.0739576,185.236377 C77.5362266,185.210623 79.0152519,185.096407 80.4641158,184.878054 C81.6292392,184.698892 82.7898943,184.515251 83.946081,184.283461 C85.8708247,183.898263 87.7430652,183.329425 89.6231253,182.769545 C91.8617709,182.106647 94.0847772,181.415754 96.3044323,180.696868 C97.6460557,180.284796 98.9943816,179.901838 100.358347,179.550234 C102.041799,179.116886 103.748711,178.811192 105.419875,178.317377 C108.391331,177.441725 111.437632,176.89976 114.418024,176.046503 C115.024603,175.849425 115.634534,175.653467 116.245581,175.460868 C117.441983,174.896509 118.422787,174.077964 119.191344,173.001874 C120.356467,171.358066 120.818942,169.275311 120.461473,167.294455 C120.111825,165.374066 119.008141,163.637317 117.424109,162.50412 C115.691505,161.271263 113.789103,161.00812 111.729192,161.236551 C110.232293,161.402275 108.762204,161.865856 107.292116,162.193946 C105.661166,162.560108 104.072666,163.022569 102.487518,163.526461 C100.425372,164.154647 98.318543,164.619347 96.2385241,165.190425 C93.5474576,165.929467 90.9144797,166.885743 88.2647456,167.765874 C84.387331,168.987533 80.5076823,170.161042 76.4537677,170.601108 C76.3744544,170.597749 76.2962582,170.595509 76.2169449,170.59103 C75.095388,168.775898 73.973831,166.963006 72.800888,165.179228 C72.2222361,164.18488 71.7005557,163.160299 71.2738278,162.090928 C70.784543,160.188455 70.5019196,158.240072 70.0617867,156.324162 C69.5121791,153.931234 68.7827203,151.620048 68.0219829,149.298784 C67.3483785,146.88682 66.9953785,144.427826 66.5262013,141.968832 C66.1586791,140.01485 65.7319513,138.066467 65.3756,136.110246 C66.8926063,135.319695 68.4978627,134.660156 70.0874797,134.082359 C72.0077551,133.384749 73.9470209,132.719611 75.8907551,132.084707 C78.2142994,131.352383 80.5344924,130.601024 82.8502171,129.838467 C85.0061981,129.221479 87.1945747,128.732144 89.3617266,128.163305 C91.7925114,127.523922 94.1763785,126.69306 96.5580114,125.882353 C98.431369,125.354946 100.301375,124.96191 102.22947,124.620383 C106.104651,123.938449 108.753268,120.062958 108.050619,116.196425 C107.416113,112.707251 104.303904,110.254976 100.87891,110.253856 C100.470056,110.253856 100.056733,110.289689 99.642293,110.361353" id="Fill-7"></path>
                <path d="M50.6038905,138.721079 C44.6911405,139.827402 38.9526563,141.550714 33.1192196,143.003043 C30.526457,143.645786 27.9649728,144.42066 25.3822639,145.093636 C23.7680709,145.513546 22.1840392,145.986085 20.6000076,146.520211 C19.5220171,146.883013 18.5009981,147.421618 17.5883367,148.108031 C15.6725297,149.551402 14.5208114,151.742774 13.7656595,153.977816 C13.25515,155.491732 12.9066184,157.082911 12.7278842,158.670732 C12.6139411,159.694193 12.6887861,160.744528 12.7189475,161.776947 C12.7625139,163.062432 12.8317734,164.344558 12.8407101,165.634522 C12.8496468,166.855061 12.7189475,168.089037 12.6005361,169.303977 C12.334669,172.121295 12.7100108,174.943091 13.9712038,177.497265 C14.6995456,178.96639 15.6289633,180.392965 16.759457,181.582151 C17.3749728,182.226013 18.121188,182.890031 18.8372418,183.45439 C19.5745203,184.027708 20.4771278,184.369235 21.3104759,184.789145 C22.3147386,185.287438 23.5580582,185.353504 24.6617418,185.448684 C26.0536342,185.571857 27.5940994,185.257205 28.951362,184.963828 C30.6057703,184.605504 32.2289,184.053462 33.8520297,183.585402 C35.2740835,183.178929 36.7061911,182.80269 38.1193082,182.378301 C41.898419,181.241744 45.6026848,180.060396 49.2209348,178.477055 C50.7524633,177.807438 52.1834538,176.880277 53.6714158,176.123319 C54.8264854,175.534325 55.9904918,175.004678 57.1935962,174.550055 C57.9699728,174.350738 58.7497006,174.186133 59.5540044,174.111109 C61.3782101,173.940905 63.2236405,172.568079 64.2491278,171.120229 C65.3963778,169.501055 65.8499158,167.454133 65.4969158,165.507989 C65.1517354,163.622313 64.0703937,161.907959 62.5120551,160.797157 L60.7582259,159.878953 C59.5059696,159.423211 58.2224348,159.314594 56.913207,159.550863 C56.1022006,159.611331 55.3336437,159.812887 54.5527987,160.044678 C53.1743114,160.446672 51.8036437,160.910253 50.4865962,161.492528 C48.6489854,162.309953 46.916381,163.316618 45.1837766,164.331121 C41.9788494,166.202241 38.570612,167.473169 35.0730076,168.631001 C33.7972924,169.015079 32.5238114,169.398037 31.2514475,169.789953 C29.7176848,170.261372 28.1861563,170.78766 26.6267006,171.173977 C26.6244665,171.16278 26.6222323,171.151582 26.6199981,171.140384 C26.6736184,169.680217 26.8154886,168.222289 26.8266595,166.758762 C26.8445329,164.700642 26.6032418,162.642522 26.4457323,160.590001 C26.4479665,159.998768 26.4792449,159.419851 26.5507386,158.837576 C27.9850804,158.471414 29.4406468,158.169079 30.8761057,157.800678 C33.2152892,157.197127 35.5578241,156.637247 37.8970076,156.029217 C40.2886943,155.403271 42.6669759,154.691103 45.0441405,154.012528 C47.6760013,153.264528 50.3637165,152.718085 53.0514316,152.210834 C56.7132481,151.52442 59.2311658,147.933349 58.5586785,144.241498 C57.9643873,140.984115 55.0320297,138.609103 51.8103462,138.609103 C51.4115456,138.609103 51.0082766,138.644935 50.6038905,138.721079" id="Fill-9"></path>
                <path d="M7.0750807,161.021781 C5.80048259,161.262529 4.66663766,161.791056 3.66684335,162.61408 C2.26601424,163.78199 0.970191456,165.84235 1.00928956,167.740344 C1.01822627,168.112104 0.961254747,168.465949 0.913219937,168.83435 C0.765764241,169.988823 0.931093354,171.248553 1.18802373,172.389589 C1.55107753,173.986368 2.28388766,175.372631 2.99994146,176.816002 C4.26001741,179.371296 5.58711867,181.842607 7.63809335,183.867134 C8.12626108,184.322877 8.61107753,184.77302 9.09924525,185.227643 C10.2565491,186.03723 11.5344984,186.50529 12.9397959,186.627344 C14.9293307,186.789709 16.9322706,186.150326 18.4682674,184.873799 C20.0522991,183.55696 21.0565617,181.619775 21.2218908,179.559416 C21.3704636,177.735326 20.8253244,175.351356 19.4725301,174.02108 C18.9452642,173.500392 18.4593307,172.983062 18.0124953,172.415344 C17.7175839,171.863302 17.4383117,171.304541 17.1545712,170.745781 C16.7870491,170.025775 16.370375,169.327044 15.9983845,168.607038 C15.967106,168.36741 15.9436472,168.125541 15.9201883,167.875835 C15.828587,166.944194 15.4789383,166.051745 15.1214699,165.195128 C14.0077326,162.535697 11.1613908,160.908685 8.34409335,160.908685 C7.91848259,160.908685 7.49398892,160.945637 7.0750807,161.021781" id="Fill-11"></path>
            </g>
            <g id="Group-26" transform="translate(140.000000, 42.000000)" fill="#2C2C2C">
                <path d="M45.356972,102.064916 C47.0321548,102.09173 48.6804989,102.262668 50.3232516,102.55315 C51.3062194,102.819054 52.2578753,103.134116 53.1894022,103.526268 C53.5852731,103.786585 53.9654882,104.060309 54.3378753,104.350792 C55.2615742,105.347371 56.0857462,106.406516 56.8584774,107.524874 C57.7072516,109.008571 58.4464344,110.529137 59.0592516,112.126792 C59.2515957,112.877578 59.4059183,113.623895 59.5177462,114.39144 C59.4964989,115.210378 59.4215742,116.012557 59.2985634,116.82144 C58.9228215,118.089509 58.4587355,119.305068 57.9085419,120.501633 C56.8819613,122.217716 55.7211871,123.810902 54.4195097,125.324764 C53.1301333,126.605123 51.7691871,127.782695 50.2941763,128.838488 C49.3525849,129.354654 48.3953376,129.797081 47.3944774,130.181412 C45.3245419,130.702047 43.2054022,131.037219 41.0750796,131.224916 C40.0965849,131.226033 39.1303914,131.171288 38.1586065,131.048392 C37.8220043,130.944488 37.4909935,130.829412 37.1644559,130.70093 C37.0850581,130.64395 37.0045419,130.586971 36.9262624,130.528874 C36.7663484,130.341178 36.6142624,130.15013 36.4644129,129.954612 C35.8985634,128.855247 35.4378323,127.72013 35.0072946,126.56155 C34.8440258,125.922488 34.708714,125.286778 34.6136602,124.636543 C34.6259613,124.301371 34.6505634,123.967316 34.6852301,123.634378 C35.1593806,122.295923 35.8281118,121.031206 36.4599398,119.760902 C37.1241978,118.430268 37.7873376,117.099633 38.4560688,115.77235 C38.9671226,114.354571 39.0934882,112.905509 38.8273376,111.421812 C38.6573591,110.49115 38.3274667,109.597357 37.8622624,108.781771 C37.9483699,108.592957 38.036714,108.405261 38.1261763,108.217564 C39.0711226,106.61544 40.1346065,105.113868 41.3356387,103.700557 C41.6509935,103.411192 41.9730581,103.140819 42.3074237,102.884971 C42.6451441,102.718502 42.9839828,102.56544 43.3295312,102.421316 C43.9993806,102.263785 44.6714667,102.147592 45.356972,102.064916 M40.2162409,87.0469572 C37.7314237,87.7362952 35.5910366,88.7015917 33.4584774,90.1540055 C31.7765849,91.2980607 30.4749075,92.7638814 29.1430366,94.2956193 C26.5743484,97.2641297 24.6699183,100.824778 23.136757,104.421178 C22.4859183,105.952916 21.908886,107.506999 21.3374452,109.068902 C20.8666495,110.358199 20.7783054,111.706709 21.0142624,112.98595 C20.5714237,113.80824 20.1364129,114.633881 19.7338323,115.475164 C18.9476817,117.111923 18.5059613,118.683881 18.1615312,120.499399 C17.8294022,122.222185 17.9602409,123.955026 18.060886,125.701274 C18.1827785,127.80504 18.7642839,129.698764 19.4151226,131.701978 C19.6991656,132.579012 20.0223484,133.434819 20.3500043,134.298447 C21.1272086,136.367578 22.2891011,138.199854 23.5080258,140.033247 C24.5692731,141.630902 26.1292731,142.94813 27.6534882,144.078778 C29.2045419,145.221716 31.1827785,146.059647 33.0391226,146.601509 C36.8401548,147.705343 40.6624344,147.705343 44.5674667,147.268502 C46.1710796,147.089743 47.7601548,146.841716 49.3414022,146.505426 C51.5175742,146.042888 53.6747355,145.305509 55.7200688,144.427357 C58.0170151,143.446419 60.152929,141.922502 62.1278108,140.40864 C63.9192946,139.033316 65.4479828,137.37533 66.9811441,135.725164 C68.0994237,134.520778 69.1349505,133.26835 70.0955527,131.937716 C71.5280688,129.951261 72.6340473,127.730185 73.6818753,125.526985 C74.8784344,123.004254 75.4375742,120.188806 75.8882409,117.452681 C76.0582194,116.413647 76.0101333,115.357854 75.9620473,114.31435 C75.892714,112.865288 75.8133161,111.548061 75.5516387,110.138102 C75.3067355,108.824226 74.7956817,107.39304 74.3595527,106.158488 C74.0140043,105.180902 73.6337892,104.23795 73.2099613,103.294999 C72.244886,101.134254 70.8861763,99.1187503 69.5755527,97.159109 C68.2090151,95.1167917 66.456671,93.2789297 64.5746065,91.7036193 C62.9531011,90.346171 61.1403699,89.4032193 59.2314667,88.4960193 C57.2878968,87.5798814 55.0692301,87.2480607 52.9981763,86.7978124 C51.1899183,86.4101297 49.3291011,86.2749434 47.4895312,86.23584 C47.2390366,86.2302538 46.9863054,86.2269021 46.7346925,86.2269021 C44.5395097,86.2269021 42.3241978,86.4559366 40.2162409,87.0469572" id="Fill-14"></path>
                <path d="M58.6059011,305.987052 C58.6148473,306.012749 58.6226753,306.04068 58.6305032,306.067494 C58.6226753,306.04068 58.613729,306.013866 58.6059011,305.987052 M47.1088688,136.218873 C45.1820731,136.571921 43.9061161,137.619894 42.661471,139.046611 C41.7925677,140.037604 41.5331269,141.304556 41.3105892,142.558101 C41.009772,143.545742 40.5960086,144.486459 40.1800086,145.440583 C39.1948043,147.707466 39.957471,150.307287 41.6035785,152.03119 C41.4939871,152.992018 41.3788043,153.950611 41.2770409,154.905852 C40.9628043,157.808446 40.7480946,160.715508 40.5389763,163.63039 C40.3421591,166.345287 40.3242667,169.111577 40.3555785,171.835411 C40.3902452,174.964804 40.4204387,178.088611 40.5434495,181.213535 C41.0108903,193.280859 41.1148903,205.339246 41.0064172,217.415508 C40.9225462,226.108763 40.7659871,234.810956 40.8532129,243.504211 C40.8968258,248.030156 40.9795785,252.551632 41.2021161,257.073108 C41.4168258,261.449342 41.7702022,265.811052 42.0866753,270.182818 C42.1548903,274.449563 41.5756215,278.666032 41.3340731,282.926073 C41.1506753,286.226404 40.997471,289.525618 41.1506753,292.83377 C41.3206538,296.66479 41.3161806,300.579604 42.141471,304.341356 C42.4299871,305.66417 42.7274495,306.982514 42.8884817,308.331025 C42.9634065,308.92428 43.0237935,309.513066 43.1121376,310.10297 C43.2250839,310.88839 43.7148903,312.429066 43.9240086,312.830156 C44.7671914,314.423342 45.4314495,315.147314 46.793514,316.321535 C48.353514,317.665577 50.9400946,318.032032 52.8970839,317.678983 C53.5512774,317.468942 54.2065892,317.260018 54.857428,317.054446 C56.1423312,316.452252 57.1946323,315.575218 58.0210409,314.427811 C58.0243957,314.418873 58.0288688,314.414404 58.0333419,314.409935 C58.8765247,313.205549 59.3663312,311.870446 59.4926968,310.407977 C59.5843957,309.270625 59.4256,308.15897 59.0554495,307.119935 C58.9425032,306.473052 58.8709333,305.817232 58.7803527,305.166997 C58.6360946,304.119025 58.4090839,303.093397 58.1608258,302.063301 C57.665428,300.005342 57.4730839,297.957439 57.3299441,295.862611 C57.2449548,293.353287 57.2259441,290.854018 57.2304172,288.333521 C57.233772,286.968252 57.3914495,285.58399 57.469729,284.218721 C57.5491269,282.909314 57.6531269,281.617783 57.7806108,280.312846 C57.9684817,278.330859 58.1641806,276.354459 58.2871914,274.368004 C58.4705892,271.478818 58.1954925,268.572873 58.0243957,265.688156 C57.8846108,263.353121 57.7157505,261.019204 57.5659011,258.68417 C57.1241806,247.022404 57.2404817,235.351701 57.325471,223.682114 C57.4138151,211.475135 57.3523097,199.290501 56.8367828,187.096928 C56.7204817,184.384266 56.569514,181.673839 56.4263742,178.966763 C56.1591054,173.035328 56.2843527,167.074846 56.6008258,161.151232 C56.7450839,158.376004 56.9765677,155.604128 57.1252989,152.828901 C57.2080516,151.274818 57.2259441,149.73079 57.185686,148.176708 C57.1387183,146.112046 57.0291269,143.856335 56.1031914,141.953673 C55.0151054,139.71919 53.3600516,137.152887 50.7522237,136.528349 C49.9683097,136.246804 49.1732129,136.107149 48.3680516,136.107149 C47.9509333,136.107149 47.5315785,136.144018 47.1088688,136.218873" id="Fill-16"></path>
                <path d="M38.6952688,219.339732 C38.3206452,219.671553 37.9762151,219.998905 37.5892903,220.294974 C37.5143656,220.339663 37.4416774,220.383236 37.367871,220.426808 C35.8425376,221.32507 34.6716989,222.32947 34.0476989,224.048905 C33.6227527,225.214188 33.5500645,226.480022 33.824043,227.676588 C31.5886022,232.258394 29.5689892,236.948574 27.4990538,241.606353 C25.3452473,246.463001 23.1746667,251.316298 21.0957849,256.208698 C19.5223656,259.917939 17.9500645,263.623829 16.3732903,267.33307 C15.3332903,269.785415 14.411828,272.291388 13.4467527,274.773898 C11.2884731,280.321001 9.31470968,285.916146 7.46619355,291.571622 C6.23049462,295.355719 4.97690323,299.135346 3.692,302.901567 C3.14627957,304.503691 2.55247312,306.087939 2.00563441,307.688946 C1.56503226,308.980477 1.25862366,310.246312 0.996946237,311.599291 C0.769935484,312.803677 1.19376344,314.623663 1.7048172,315.719677 C2.57372043,317.583236 4.09010753,318.844601 5.97217204,319.625553 C10.3580645,321.442188 15.3075699,317.919526 15.7504086,313.497484 C16.4515699,311.432822 17.2925161,309.408381 17.9936774,307.344836 C18.9285591,304.603126 19.8332473,301.850243 20.7021505,299.082836 C22.4712688,293.444119 24.2191398,287.793112 26.280129,282.254946 C27.3984086,279.260739 28.4249892,276.218491 29.6349677,273.260036 C30.9981505,269.920601 32.3613333,266.577815 33.7245161,263.235029 C35.8425376,258.04656 38.0142366,252.879319 40.175871,247.703139 C41.5166882,244.495539 42.7971183,241.252188 44.1994409,238.066932 C44.9766452,236.290519 45.7583226,234.514105 46.5411183,232.733222 L47.5632258,230.402657 C47.815957,229.831746 48.0910538,229.277594 48.3661505,228.714505 C48.62,228.211746 48.855957,227.696698 49.0740215,227.173829 C49.2618925,226.44427 49.4150968,225.706891 49.5325161,224.965043 C49.9037849,222.748436 48.523828,220.287153 46.768129,219.038077 C45.6397849,218.238132 44.2508817,217.823636 42.8653333,217.823636 C41.3545376,217.823636 39.8482151,218.317457 38.6952688,219.339732" id="Fill-18"></path>
                <path d="M46.8345548,221.766269 C43.3622968,224.642048 42.615286,230.310931 45.7162753,233.763207 C48.2234581,236.551841 50.9229849,239.153897 53.4178667,241.950352 C55.9798452,244.825014 58.1817376,247.95329 60.2773935,251.173179 C67.7128344,263.406972 71.9768344,277.211607 76.4488344,290.731345 C78.3185978,296.777855 80.2096086,302.813193 82.1744258,308.83289 C82.6105548,310.167993 83.135028,311.481869 83.6203613,312.799097 C83.8909849,313.549883 84.2007484,314.28391 84.4892645,315.025759 C84.6547699,315.444724 84.8213935,315.80671 85.0137376,316.230145 C85.9173075,318.233359 87.1887914,319.85671 88.8483183,321.266669 C91.3823398,323.421828 95.2482323,323.845262 98.2496946,322.44871 C99.607286,321.816352 100.926856,320.69911 101.795759,319.481317 C102.844705,318.006559 103.163415,316.71391 103.442985,314.96431 C103.910426,312.084062 102.787673,308.981483 100.892189,306.829676 C100.611501,306.510145 100.309566,306.214076 99.9930925,305.943703 C99.4809204,304.481234 99.0201892,302.998655 98.5203183,301.561883 C97.9276301,299.856972 97.3819097,298.137538 96.8317161,296.422572 C93.0485763,284.405524 89.3280602,272.322559 84.5507699,260.656324 C81.5973935,253.450117 78.1027699,246.585786 73.7783828,240.104669 C72.2977806,237.883593 70.7556731,235.683745 69.0558882,233.623552 C65.911286,229.80929 62.1538667,226.54471 58.8426409,222.879041 C57.0645763,220.916048 54.611071,219.836793 52.1463828,219.836793 C50.2866839,219.836793 48.4202753,220.452393 46.8345548,221.766269" id="Fill-20"></path>
                <path d="M31.7737892,10.0162924 C29.7989075,10.3782786 28.0085419,11.5133959 26.8466495,13.1456855 C24.9466925,15.8214786 25.0204989,19.4625683 26.8164559,22.0668579 C27.1385204,23.7561269 27.3219183,25.4722097 27.5321548,27.1804717 C27.8072516,29.4104855 28.0085419,31.6539062 28.2266065,33.888389 C28.4144774,35.8133959 29.8425204,37.7417545 31.3678538,38.8288303 C33.0665204,40.0332166 35.2203269,40.5136303 37.2645419,40.1382372 C39.2438968,39.78072 41.0432086,38.6411338 42.2095742,36.9999062 C43.4978323,35.1888579 43.7259613,33.2560303 43.5201978,31.1086924 C43.2585204,28.3770372 42.9912516,25.6442648 42.6725419,22.9170786 C42.1793806,18.7363614 41.492757,13.8171476 37.644757,11.3212303 C36.2536172,10.4207338 34.7282839,9.89339586 33.1179613,9.89339586 C32.6762409,9.89339586 32.2266925,9.93361655 31.7737892,10.0162924" id="Fill-22"></path>
                <path d="M42.5754753,1.15802069 C41.1888086,1.69988276 39.786486,2.20487586 38.3841634,2.70986897 C36.2672602,3.28748276 34.1481204,3.81258621 32.0133247,4.33545517 C30.6848086,4.65833793 29.3618839,4.97675172 28.0467871,5.3432069 C25.8840344,5.94093103 23.6787871,6.53083448 21.6815398,7.55981379 C18.3099269,9.29712414 16.658228,13.2778552 18.3099269,16.8172759 C19.0916043,18.4842 20.5151742,19.7891379 22.2451527,20.4170276 C24.0668301,21.080669 25.8147011,20.8750966 27.5748731,20.1857586 C27.7057118,20.1343655 27.8365505,20.0818552 27.9673892,20.0304621 C30.9476043,19.2115241 34.0295828,18.6696621 37.0321634,17.9825586 C41.0154753,17.0653034 44.882486,15.7302 48.6824,14.2375655 C52.3470022,12.8019103 53.7627441,8.04916552 52.1770237,4.6494 C51.3685075,2.92102759 49.8923785,1.56804828 48.1008946,0.917813793 C47.3046796,0.627331034 46.5230022,0.497731034 45.750271,0.497731034 C44.6856688,0.497731034 43.634486,0.743524138 42.5754753,1.15802069" id="Fill-24"></path>
            </g>
        </g>
    </g>
</svg>