<?xml version="1.0" encoding="utf-8"?>
<!-- Generator: Adobe Illustrator 16.0.0, SVG Export Plug-In . SVG Version: 6.00 Build 0)  -->
<!DOCTYPE svg PUBLIC "-//W3C//DTD SVG 1.1//EN" "http://www.w3.org/Graphics/SVG/1.1/DTD/svg11.dtd">
<svg version="1.1" id="Layer_1" xmlns="http://www.w3.org/2000/svg" xmlns:xlink="http://www.w3.org/1999/xlink" x="0px" y="0px"
	 width="800px" height="1000px" viewBox="0 0 800 1000" enable-background="new 0 0 800 1000" xml:space="preserve">
<title>telescope_DL</title>
<desc>Created with Sketch.</desc>
<g id="telescope_DL">
	<g id="telescope" transform="translate(224.000000, 279.000000)">
		<polygon id="Path-4" fill="#FFFFFF" points="311.32,5.805 355.5,142.305 274.266,158.094 263.648,142.305 131.34,175.59 
			124.641,165.406 70.008,182.902 70.008,175.59 19.664,190.102 10.738,165.406 58.969,149.887 58.969,135.074 107.887,115.746 
			107.887,108.305 240.688,58.391 233.094,42.441 		"/>
		<g id="Group-13">
			<path id="Fill-1" fill="#2C2C2C" d="M274.257,30.805c3.984-2.152,8.033-4.033,12.249-5.677c6.505-2.541,12.894-5.388,19.45-7.797
				c1.397,4.853,2.61,9.761,4.231,14.546c1.656,4.896,3.321,9.783,4.909,14.696c1.657,5.29,3.269,10.59,4.695,15.953
				c1.531,5.748,3.168,11.473,4.638,17.239c1.532,5.996,2.894,12.02,4.072,18.1c1.134,5.861,2.221,11.726,3.478,17.562
				c0.497,2.301,0.999,4.602,1.637,6.867c0.623,2.212,1.376,4.386,2.097,6.567c0.668,2.31,1.237,4.611,1.673,6.979
				c0.096,0.52,0.196,1.041,0.295,1.565c-0.262-0.019-0.524-0.038-0.788-0.057c-1.34-0.092-2.684-0.104-4.027-0.196
				c-2.793-0.197-5.564-0.591-8.365-0.692c-6.175-0.218-12.297,1.095-18.388,1.891c-2.788,0.367-5.538,0.94-8.313,1.377
				c-2.758,0.434-5.511,0.81-8.243,1.396c-4.954,1.063-10.027,1.374-15.066,1.875c-0.055-1.672-0.106-3.342-0.175-5.012
				c-0.119-2.721-0.323-5.406-0.925-8.065c-0.655-2.9-1.681-5.748-2.671-8.547c-1.75-4.974-4.006-9.789-6.105-14.619
				c-1.326-3.057-2.766-6.058-4.102-9.111c-0.619-1.412-1.283-2.807-1.807-4.26c-0.604-1.675-1.212-3.35-1.817-5.028
				c-0.509-1.766-1.017-3.534-1.525-5.3c-0.588-2.051-0.959-4.19-1.435-6.268c-0.943-4.125-1.72-8.293-2.645-12.422
				c-0.952-4.265-2.257-8.485-3.696-12.602c-0.533-1.534-1.178-3.017-1.838-4.497c0.952-0.76,1.91-1.504,2.9-2.212
				c2.14-1.236,4.398-2.281,6.578-3.448c2.907-1.553,5.623-3.419,8.342-5.278C267.034,34.31,270.727,32.709,274.257,30.805
				 M307.115,0.799c-1.126,0.105-2.287,0.45-3.377,0.723c-3.115,0.769-6.18,1.802-9.199,2.873c-2.635,0.936-5.224,1.959-7.793,3.062
				c-2.641,1.133-5.306,2.184-7.968,3.26c-2.749,1.106-5.425,2.339-8.056,3.704c-2.487,1.291-4.874,2.765-7.37,4.045
				c-1.292,0.661-2.578,1.321-3.871,1.987c-1.784,0.922-3.45,2.072-5.122,3.185c-1.865,1.233-3.614,2.627-5.464,3.885
				c-1.717,1.022-3.44,2.03-5.175,3.021c-2.688,1.544-5.153,3.328-7.562,5.266c-0.907,0.729-1.584,1.648-2.03,2.663
				c-0.203,0.075-0.403,0.158-0.602,0.25c-2.994,1.395-4.992,4.921-4.251,8.237c0.603,2.694,1.659,5.166,2.724,7.698
				c0.729,1.727,1.348,3.492,1.933,5.269c1.535,5.122,2.769,10.301,3.871,15.534c0.615,2.926,1.283,5.831,1.964,8.745
				c0.629,2.671,1.462,5.292,2.233,7.93c1.658,5.647,4.094,11.035,6.586,16.345c3.45,7.349,7,14.731,9.626,22.425
				c0.456,1.56,0.836,3.127,1.099,4.743c0.314,1.978,0.405,3.98,0.52,5.971c0.078,1.391,0.131,2.79,0.262,4.177
				c0.074,0.81,0.152,1.619,0.227,2.432c0.079,0.857,0.319,1.693,0.559,2.52c0.498,1.728,0.834,2.441,1.812,3.946
				c1.854,2.864,5.524,3.788,8.666,2.935c2.261-0.612,4.639-0.709,6.956-0.945c2.774-0.279,5.563-0.401,8.33-0.752
				c2.831-0.354,5.603-0.976,8.412-1.443c2.736-0.455,5.503-0.73,8.243-1.164c2.858-0.454,5.729-0.782,8.601-1.141
				c2.88-0.364,5.734-0.857,8.623-1.12c0.266-0.023,0.534-0.043,0.8-0.062c2.616-0.023,5.186,0.176,7.796,0.416
				c2.728,0.245,5.459,0.271,8.19,0.381c2.925,0.112,6.014,0.231,8.749-0.998c1.886-0.845,3.745-1.964,4.871-3.762
				c0.693-1.098,1.305-2.484,1.364-3.811c0.049-1.019-0.034-2.047-0.16-3.057c-0.332-2.698-0.795-5.397-1.231-8.079
				c-0.444-2.733-1.204-5.41-2.037-8.043c-0.868-2.756-1.637-5.504-2.226-8.338c-1.218-5.844-2.291-11.709-3.347-17.583
				c-1.048-5.796-2.16-11.6-3.601-17.313c-1.475-5.831-3.067-11.631-4.586-17.453c-1.506-5.765-3.067-11.503-4.817-17.199
				c-1.919-6.277-3.979-12.505-6.017-18.742c-0.073-0.221-0.146-0.441-0.218-0.663c-0.776-2.611-1.497-5.234-2.179-7.872
				c-1.017-3.931-1.889-8.047-3.601-11.735c-0.886-1.912-2.321-3.766-4.109-4.89c-1.428-0.893-2.57-1.334-4.241-1.548
				c-0.286-0.036-0.572-0.051-0.859-0.051C308.413,0.661,307.764,0.735,307.115,0.799"/>
			<path id="Fill-3" fill="#2C2C2C" d="M233.036,50.345c-1.618,0.202-3.233,0.402-4.844,0.674c-1.526,0.253-3.011,0.7-4.494,1.146
				c-3.142,0.945-6.235,2.074-9.325,3.162c-5.56,1.964-11.009,4.19-16.516,6.29c-2.457,0.936-4.944,1.79-7.38,2.769
				c-2.771,1.12-5.494,2.323-8.195,3.605c-5.166,2.458-10.498,4.531-15.655,6.994c-5.036,2.405-10.281,4.344-15.452,6.417
				c-5.477,2.2-10.975,4.304-16.376,6.684c-2.511,1.106-4.976,2.315-7.472,3.447c-2.483,1.129-5.093,1.951-7.579,3.067
				c-2.618,1.176-5.315,2.086-8.003,3.08c-2.427,0.896-4.844,1.889-7.209,2.935c-1.087,0.485-2.182,0.949-3.233,1.504
				c-0.345,0.184-0.676,0.395-1.008,0.604c-0.712,0.451-1.392,0.828-2.025,1.352c-1.199,1.002-1.841,2.079-2.491,3.465
				c-1.487,3.162-0.249,6.566,0.868,9.605c0.424,1.138,0.925,2.253,1.458,3.342c0.978,1.985,2.26,3.806,3.255,5.787
				c0.594,1.181,0.986,2.467,1.453,3.7c0.359,0.955,0.702,1.912,1.033,2.875c0.836,2.956,1.518,5.953,2.104,8.974
				c0.646,3.329,0.947,6.719,1.463,10.07c0.61,3.963,1.374,7.868,2.889,11.604c0.589,1.461,1.4,2.808,2.221,4.146
				c1.156,1.876,2.199,3.884,3.592,5.59c2.233,2.755,6.214,3.608,9.408,2.117c3.918-1.833,5.603-6.592,3.813-10.512
				c-0.781-1.714-1.676-3.302-2.623-4.929c-0.747-1.283-1.365-2.575-1.88-3.94c-0.96-3.627-1.468-7.368-1.973-11.08
				c-0.563-4.116-1.331-8.149-2.393-12.165c-1.124-4.251-2.617-8.468-4.45-12.465c-0.895-1.952-2.255-3.763-3.512-5.495
				c-0.51-0.699-1.017-1.393-1.513-2.095c1.027-0.388,2.068-0.746,3.097-1.124c2.504-0.923,5.03-1.797,7.536-2.72
				c2.635-0.968,5.191-2.126,7.823-3.111c2.544-0.944,5.019-2.042,7.493-3.167c10.445-4.75,21.28-8.525,31.901-12.855
				c2.349-0.954,4.591-2.152,6.925-3.137c2.488-1.05,5.015-2.007,7.501-3.066c4.931-2.099,9.762-4.37,14.819-6.167
				c4.966-1.763,9.919-3.521,14.846-5.402c4.746-1.813,9.578-3.421,14.394-5.049c1.053-0.324,2.116-0.636,3.2-0.825
				c1.737-0.298,3.473-0.534,5.224-0.748c4.098-0.508,6.807-4.943,6.101-8.836c-0.354-1.934-1.467-3.692-3.064-4.83
				c-1.368-0.976-2.867-1.366-4.454-1.366C233.906,50.265,233.476,50.292,233.036,50.345"/>
			<path id="Fill-5" fill="#2C2C2C" d="M256.83,135.78c-5.76,1.558-11.512,3.093-17.333,4.405c-2.771,0.625-5.554,1.212-8.334,1.807
				c-2.679,0.573-5.314,1.294-7.977,1.925c-2.872,0.673-5.752,1.229-8.636,1.815c-2.828,0.572-5.611,1.28-8.387,2.077
				c-2.963,0.853-5.93,1.605-8.945,2.248c-2.863,0.608-5.761,1.037-8.627,1.641c-2.609,0.556-5.162,1.369-7.737,2.068
				c-2.793,0.757-5.598,1.413-8.417,2.056c-2.885,0.656-5.751,1.339-8.575,2.209c-2.849,0.879-5.693,1.754-8.578,2.498
				c-5.607,1.448-11.236,2.808-16.904,3.993c-2.597,0.547-5.21,1.011-7.824,1.439c-1.184,0.196-2.365,0.411-3.553,0.599
				c-1.413,0.22-2.749,0.411-4.079,1.02c-2.88,1.312-4.525,4.567-3.963,7.672c0.332,1.802,1.366,3.434,2.854,4.497
				c1.609,1.146,3.43,1.43,5.35,1.194c2.063-0.258,4.106-0.687,6.156-1.037c2.649-0.446,5.289-0.962,7.916-1.526
				c5.892-1.273,11.747-2.717,17.586-4.213c2.784-0.712,5.528-1.592,8.273-2.432c2.662-0.817,5.375-1.435,8.085-2.06
				c3.016-0.692,6.014-1.439,8.999-2.258c2.749-0.752,5.471-1.544,8.264-2.129c2.553-0.539,5.137-0.906,7.689-1.44
				c3.015-0.629,5.974-1.396,8.94-2.222c5.586-1.553,11.302-2.423,16.944-3.731c2.57-0.599,5.118-1.259,7.702-1.801
				c2.784-0.587,5.567-1.164,8.334-1.804c5.82-1.342,11.555-2.943,17.314-4.509c1.847-0.503,3.378-1.269,4.517-2.878
				c1.101-1.553,1.54-3.526,1.201-5.398c-0.332-1.811-1.371-3.46-2.872-4.527c-1.113-0.791-2.659-1.358-4.117-1.358
				C257.662,135.62,257.235,135.671,256.83,135.78"/>
			<path id="Fill-7" fill="#2C2C2C" d="M99.643,110.361c-1.973,0.346-3.905,0.709-5.826,1.273c-1.86,0.544-3.697,1.173-5.535,1.792
				c-2.243,0.656-4.506,1.227-6.744,1.896c-2.893,0.861-5.711,1.951-8.566,2.926c-4.376,1.496-8.767,2.987-12.973,4.917
				c-0.89,0.406-1.746,0.86-2.579,1.368c-0.79,0.477-1.653,0.993-2.4,1.566c-0.837,0.639-1.528,1.465-2.208,2.261
				c-2.067,2.411-2.212,5.944-1.863,8.914c0.158,1.335,0.323,2.669,0.494,4.002c0.305,2.354,0.653,4.694,0.955,7.043
				c0.308,2.4,1.015,4.696,1.758,6.983c0.44,1.574,0.781,3.17,1.122,4.766c0.201,0.928,0.366,1.863,0.545,2.795
				c0.306,1.565,0.794,3.07,1.297,4.583c0.794,2.394,2.242,4.576,3.639,6.641c1.121,1.663,2.27,3.294,3.374,4.97
				c1.741,2.646,4.07,4.823,7.256,5.56c1.584,0.367,3.059,0.651,4.687,0.62c1.462-0.025,2.941-0.14,4.39-0.358
				c1.166-0.179,2.326-0.362,3.482-0.595c1.925-0.385,3.797-0.954,5.677-1.514c2.238-0.663,4.462-1.354,6.682-2.072
				c1.342-0.412,2.689-0.795,4.054-1.147c1.684-0.433,3.391-0.738,5.062-1.232c2.972-0.876,6.018-1.418,8.998-2.271
				c0.606-0.197,1.217-0.394,1.827-0.586c1.197-0.564,2.178-1.383,2.946-2.459c1.165-1.644,1.628-3.727,1.271-5.707
				c-0.351-1.921-1.454-3.657-3.038-4.791c-1.732-1.232-3.635-1.496-5.694-1.268c-1.497,0.166-2.968,0.63-4.438,0.958
				c-1.631,0.366-3.22,0.828-4.805,1.332c-2.062,0.628-4.169,1.093-6.249,1.664c-2.69,0.739-5.324,1.695-7.974,2.575
				c-3.877,1.222-7.757,2.396-11.811,2.836c-0.079-0.004-0.157-0.006-0.237-0.011c-1.122-1.815-2.243-3.628-3.416-5.411
				c-0.579-0.995-1.1-2.02-1.527-3.089c-0.489-1.902-0.772-3.851-1.212-5.767c-0.55-2.393-1.279-4.704-2.04-7.025
				c-0.673-2.412-1.027-4.871-1.496-7.33c-0.368-1.954-0.794-3.902-1.151-5.858c1.517-0.791,3.123-1.45,4.712-2.028
				c1.92-0.697,3.86-1.362,5.803-1.997c2.324-0.732,4.644-1.484,6.96-2.246c2.155-0.617,4.344-1.106,6.511-1.676
				c2.432-0.64,4.815-1.47,7.196-2.28c1.874-0.528,3.744-0.921,5.672-1.263c3.875-0.682,6.523-4.558,5.821-8.424
				c-0.635-3.489-3.747-5.941-7.172-5.942C100.47,110.254,100.057,110.29,99.643,110.361"/>
			<path id="Fill-9" fill="#2C2C2C" d="M50.604,138.721c-5.913,1.106-11.651,2.83-17.485,4.282
				c-2.593,0.643-5.154,1.418-7.737,2.091c-1.614,0.42-3.198,0.893-4.782,1.427c-1.078,0.362-2.099,0.901-3.012,1.588
				c-1.916,1.443-3.067,3.635-3.823,5.869c-0.51,1.515-0.859,3.105-1.038,4.693c-0.114,1.023-0.039,2.073-0.009,3.106
				c0.044,1.285,0.113,2.567,0.122,3.857c0.009,1.221-0.122,2.454-0.24,3.669c-0.266,2.817,0.109,5.64,1.371,8.193
				c0.729,1.47,1.658,2.896,2.788,4.085c0.616,0.644,1.362,1.308,2.078,1.872c0.737,0.573,1.64,0.915,2.473,1.335
				c1.004,0.498,2.248,0.564,3.351,0.659c1.392,0.124,2.933-0.191,4.29-0.484c1.655-0.358,3.278-0.91,4.901-1.379
				c1.422-0.406,2.854-0.782,4.267-1.207c3.779-1.136,7.483-2.317,11.102-3.901c1.532-0.669,2.963-1.597,4.451-2.354
				c1.155-0.589,2.319-1.118,3.522-1.573c0.776-0.199,1.556-0.363,2.361-0.438c1.824-0.17,3.669-1.543,4.695-2.991
				c1.147-1.619,1.601-3.666,1.248-5.612c-0.345-1.886-1.427-3.6-2.985-4.711l-1.754-0.918c-1.252-0.456-2.536-0.564-3.845-0.328
				c-0.811,0.061-1.58,0.262-2.36,0.494c-1.378,0.401-2.749,0.865-4.066,1.447c-1.838,0.817-3.57,1.824-5.303,2.839
				c-3.205,1.871-6.613,3.143-10.11,4.3c-1.276,0.384-2.549,0.768-3.822,1.159c-1.534,0.472-3.065,0.998-4.625,1.384
				c-0.002-0.011-0.005-0.022-0.007-0.033c0.054-1.46,0.195-2.918,0.207-4.382c0.018-2.059-0.224-4.116-0.381-6.169
				c0.002-0.591,0.034-1.17,0.105-1.752c1.434-0.366,2.89-0.669,4.325-1.037c2.339-0.604,4.682-1.163,7.021-1.771
				c2.392-0.626,4.77-1.338,7.147-2.017c2.632-0.748,5.32-1.295,8.007-1.802c3.662-0.687,6.18-4.277,5.507-7.97
				c-0.594-3.257-3.526-5.632-6.748-5.632C51.412,138.609,51.008,138.645,50.604,138.721"/>
			<path id="Fill-11" fill="#2C2C2C" d="M7.075,161.021c-1.275,0.241-2.409,0.77-3.408,1.593c-1.401,1.168-2.697,3.229-2.658,5.126
				c0.009,0.372-0.048,0.726-0.096,1.094c-0.147,1.155,0.018,2.414,0.275,3.556c0.363,1.597,1.096,2.983,1.812,4.427
				c1.26,2.555,2.587,5.026,4.638,7.051c0.488,0.456,0.973,0.906,1.461,1.36c1.157,0.81,2.436,1.277,3.841,1.399
				c1.989,0.163,3.992-0.477,5.528-1.753c1.584-1.317,2.588-3.254,2.753-5.314c0.149-1.824-0.396-4.208-1.749-5.538
				c-0.527-0.521-1.013-1.038-1.46-1.606c-0.295-0.552-0.574-1.11-0.858-1.669c-0.368-0.721-0.784-1.419-1.156-2.139
				c-0.031-0.24-0.055-0.481-0.078-0.731c-0.092-0.932-0.441-1.824-0.799-2.681c-1.114-2.659-3.96-4.287-6.777-4.287
				C7.918,160.908,7.494,160.945,7.075,161.021"/>
		</g>
		<g id="Group-26" transform="translate(140.000000, 42.000000)">
			<path id="Fill-14" fill="#2C2C2C" d="M45.357,102.064c1.675,0.027,3.323,0.198,4.966,0.488c0.983,0.267,1.935,0.581,2.866,0.974
				c0.396,0.26,0.776,0.534,1.148,0.824c0.924,0.997,1.748,2.056,2.521,3.174c0.849,1.484,1.588,3.005,2.201,4.603
				c0.192,0.751,0.347,1.497,0.458,2.265c-0.021,0.818-0.096,1.621-0.219,2.43c-0.376,1.269-0.84,2.483-1.391,3.681
				c-1.026,1.716-2.188,3.309-3.488,4.823c-1.29,1.28-2.65,2.457-4.126,3.514c-0.941,0.516-1.898,0.958-2.899,1.343
				c-2.07,0.521-4.189,0.855-6.319,1.043c-0.979,0.001-1.944-0.054-2.917-0.176c-0.336-0.104-0.667-0.22-0.994-0.348
				c-0.079-0.058-0.159-0.114-0.238-0.172c-0.159-0.188-0.312-0.379-0.461-0.574c-0.566-1.1-1.027-2.235-1.458-3.394
				c-0.163-0.639-0.298-1.274-0.394-1.925c0.013-0.335,0.037-0.669,0.072-1.002c0.474-1.339,1.143-2.604,1.774-3.874
				c0.664-1.33,1.327-2.661,1.996-3.988c0.511-1.418,0.638-2.867,0.371-4.351c-0.17-0.931-0.5-1.824-0.965-2.64
				c0.086-0.189,0.175-0.377,0.264-0.564c0.945-1.603,2.009-3.104,3.21-4.518c0.315-0.289,0.637-0.56,0.972-0.815
				c0.338-0.166,0.677-0.319,1.021-0.464C43.999,102.264,44.672,102.147,45.357,102.064 M40.216,87.047
				c-2.484,0.689-4.625,1.654-6.758,3.107c-1.682,1.144-2.983,2.609-4.315,4.142c-2.568,2.968-4.473,6.529-6.006,10.125
				c-0.65,1.532-1.228,3.086-1.799,4.648c-0.472,1.289-0.56,2.638-0.323,3.917c-0.443,0.822-0.878,1.647-1.281,2.489
				c-0.786,1.637-1.228,3.208-1.572,5.023c-0.332,1.724-0.201,3.456-0.101,5.202c0.122,2.104,0.704,3.998,1.354,6.001
				c0.284,0.877,0.607,1.732,0.935,2.597c0.777,2.068,1.939,3.901,3.158,5.734c1.062,1.598,2.621,2.915,4.146,4.046
				c1.551,1.143,3.529,1.98,5.386,2.522c3.801,1.104,7.623,1.104,11.528,0.667c1.604-0.179,3.192-0.427,4.774-0.763
				c2.176-0.463,4.333-1.2,6.378-2.078c2.297-0.981,4.434-2.505,6.408-4.02c1.791-1.375,3.32-3.033,4.854-4.683
				c1.118-1.205,2.153-2.457,3.114-3.788c1.433-1.986,2.538-4.207,3.586-6.41c1.197-2.523,1.756-5.339,2.207-8.074
				c0.17-1.039,0.121-2.096,0.073-3.139c-0.069-1.449-0.148-2.767-0.41-4.177c-0.245-1.313-0.756-2.745-1.192-3.979
				c-0.346-0.978-0.726-1.92-1.149-2.863c-0.965-2.161-2.324-4.176-3.635-6.136c-1.366-2.042-3.118-3.88-5.001-5.456
				c-1.621-1.357-3.434-2.3-5.343-3.207c-1.943-0.916-4.162-1.248-6.233-1.698c-1.809-0.388-3.669-0.522-5.509-0.562
				c-0.25-0.006-0.503-0.01-0.755-0.01C44.539,86.227,42.324,86.456,40.216,87.047"/>
			<path id="Fill-16" fill="#2C2C2C" d="M58.605,305.987c0.01,0.025,0.018,0.054,0.025,0.08
				C58.623,306.041,58.613,306.014,58.605,305.987 M47.108,136.219c-1.927,0.354-3.202,1.401-4.447,2.828
				c-0.868,0.99-1.128,2.258-1.351,3.512c-0.301,0.987-0.715,1.928-1.131,2.882c-0.985,2.267-0.223,4.867,1.424,6.591
				c-0.109,0.961-0.225,1.919-0.326,2.875c-0.314,2.902-0.529,5.81-0.738,8.725c-0.197,2.715-0.215,5.48-0.184,8.204
				c0.035,3.13,0.065,6.254,0.188,9.379c0.468,12.067,0.572,24.125,0.464,36.201c-0.084,8.693-0.241,17.396-0.153,26.089
				c0.043,4.526,0.126,9.048,0.349,13.569c0.215,4.376,0.568,8.738,0.885,13.109c0.068,4.267-0.512,8.483-0.753,12.743
				c-0.184,3.301-0.337,6.6-0.184,9.908c0.17,3.831,0.166,7.746,0.991,11.508c0.288,1.322,0.586,2.641,0.747,3.989
				c0.075,0.593,0.135,1.182,0.224,1.771c0.112,0.786,0.603,2.326,0.812,2.728c0.844,1.594,1.508,2.317,2.87,3.491
				c1.56,1.345,4.146,1.711,6.104,1.357c0.653-0.21,1.31-0.419,1.96-0.624c1.285-0.603,2.337-1.479,3.164-2.627
				c0.003-0.009,0.008-0.014,0.012-0.018c0.844-1.205,1.333-2.54,1.46-4.002c0.091-1.138-0.067-2.249-0.438-3.288
				c-0.113-0.647-0.185-1.303-0.275-1.953c-0.145-1.048-0.371-2.073-0.619-3.104c-0.496-2.059-0.688-4.106-0.831-6.201
				c-0.085-2.509-0.104-5.009-0.1-7.528c0.003-1.365,0.161-2.75,0.239-4.115c0.079-1.31,0.184-2.601,0.311-3.906
				c0.188-1.981,0.384-3.958,0.507-5.944c0.184-2.89-0.092-5.795-0.263-8.68c-0.14-2.335-0.309-4.669-0.458-7.004
				c-0.442-11.662-0.326-23.333-0.241-35.003c0.089-12.206,0.027-24.392-0.488-36.585c-0.116-2.712-0.268-5.423-0.41-8.13
				c-0.268-5.932-0.143-11.892,0.174-17.815c0.145-2.775,0.376-5.547,0.524-8.322c0.083-1.555,0.101-3.099,0.061-4.652
				c-0.047-2.064-0.156-4.32-1.082-6.223c-1.089-2.235-2.743-4.801-5.352-5.426c-0.783-0.281-1.579-0.421-2.384-0.421
				C47.951,136.107,47.531,136.144,47.108,136.219"/>
			<path id="Fill-18" fill="#2C2C2C" d="M38.695,219.34c-0.375,0.332-0.719,0.659-1.106,0.955c-0.074,0.045-0.147,0.088-0.221,0.132
				c-1.525,0.898-2.696,1.902-3.32,3.622c-0.425,1.165-0.498,2.432-0.224,3.628c-2.235,4.582-4.255,9.271-6.325,13.93
				c-2.153,4.856-4.324,9.71-6.403,14.603c-1.573,3.709-3.146,7.415-4.723,11.124c-1.04,2.452-1.961,4.958-2.927,7.44
				c-2.158,5.548-4.132,11.143-5.98,16.798c-1.235,3.784-2.489,7.564-3.773,11.33c-0.546,1.603-1.14,3.187-1.687,4.787
				c-0.44,1.292-0.747,2.558-1.009,3.911c-0.228,1.204,0.196,3.024,0.708,4.12c0.869,1.863,2.385,3.125,4.268,3.906
				c4.386,1.816,9.335-1.706,9.777-6.129c0.701-2.064,1.543-4.089,2.244-6.152c0.935-2.741,1.839-5.494,2.708-8.262
				c1.77-5.639,3.517-11.29,5.578-16.828c1.118-2.994,2.145-6.036,3.354-8.995c1.363-3.339,2.727-6.682,4.09-10.024
				c2.118-5.188,4.29-10.356,6.451-15.532c1.341-3.208,2.621-6.451,4.023-9.636c0.777-1.777,1.56-3.554,2.342-5.334l1.022-2.331
				c0.253-0.57,0.527-1.125,0.803-1.688c0.254-0.503,0.489-1.019,0.708-1.541c0.188-0.729,0.341-1.467,0.458-2.209
				c0.371-2.217-1.009-4.678-2.764-5.927c-1.129-0.8-2.518-1.215-3.903-1.215C41.354,217.823,39.849,218.317,38.695,219.34"/>
			<path id="Fill-20" fill="#2C2C2C" d="M46.835,221.767c-3.473,2.875-4.22,8.544-1.119,11.997c2.508,2.788,5.207,5.391,7.702,8.187
				c2.562,2.875,4.764,6.003,6.859,9.223c7.436,12.234,11.699,26.039,16.172,39.559c1.869,6.047,3.761,12.082,5.726,18.102
				c0.436,1.335,0.96,2.648,1.445,3.966c0.271,0.751,0.581,1.485,0.869,2.227c0.165,0.419,0.332,0.781,0.524,1.205
				c0.903,2.003,2.175,3.626,3.835,5.036c2.534,2.155,6.399,2.579,9.401,1.182c1.357-0.632,2.677-1.749,3.546-2.967
				c1.049-1.475,1.367-2.768,1.647-4.518c0.467-2.88-0.655-5.982-2.551-8.134c-0.281-0.32-0.583-0.616-0.899-0.887
				c-0.513-1.462-0.973-2.944-1.473-4.382c-0.593-1.704-1.139-3.424-1.688-5.139c-3.783-12.018-7.504-24.101-12.281-35.767
				c-2.953-7.206-6.448-14.07-10.772-20.552c-1.48-2.221-3.022-4.421-4.723-6.48c-3.145-3.814-6.901-7.079-10.213-10.745
				c-1.778-1.963-4.231-3.042-6.696-3.042C50.287,219.837,48.42,220.452,46.835,221.767"/>
			<path id="Fill-22" fill="#2C2C2C" d="M31.773,10.016c-1.975,0.362-3.765,1.497-4.927,3.129c-1.9,2.676-1.826,6.317-0.03,8.921
				c0.322,1.689,0.506,3.405,0.716,5.114c0.275,2.23,0.477,4.473,0.694,6.708c0.188,1.925,1.616,3.854,3.142,4.94
				c1.698,1.205,3.853,1.685,5.896,1.31c1.979-0.357,3.778-1.497,4.945-3.138c1.288-1.811,1.516-3.744,1.311-5.891
				c-0.262-2.732-0.529-5.465-0.848-8.192c-0.493-4.181-1.18-9.1-5.028-11.596c-1.391-0.9-2.916-1.428-4.526-1.428
				C32.676,9.894,32.227,9.934,31.773,10.016"/>
			<path id="Fill-24" fill="#2C2C2C" d="M42.575,1.158C41.188,1.7,39.786,2.205,38.384,2.71c-2.116,0.578-4.235,1.103-6.37,1.625
				c-1.329,0.323-2.651,0.641-3.967,1.008c-2.163,0.598-4.368,1.188-6.365,2.216c-3.372,1.737-5.023,5.718-3.372,9.258
				c0.782,1.667,2.206,2.972,3.936,3.6c1.821,0.664,3.569,0.458,5.33-0.231c0.131-0.051,0.262-0.104,0.393-0.155
				c2.979-0.819,6.062-1.36,9.064-2.048c3.983-0.917,7.851-2.252,11.65-3.745c3.664-1.436,5.08-6.188,3.494-9.588
				c-0.809-1.729-2.284-3.082-4.076-3.731c-0.796-0.291-1.577-0.42-2.351-0.42C44.686,0.498,43.635,0.744,42.575,1.158"/>
		</g>
	</g>
</g>
</svg>
