<?xml version="1.0" encoding="utf-8"?>
<!-- Generator: Adobe Illustrator 16.0.0, SVG Export Plug-In . SVG Version: 6.00 Build 0)  -->
<!DOCTYPE svg PUBLIC "-//W3C//DTD SVG 1.1//EN" "http://www.w3.org/Graphics/SVG/1.1/DTD/svg11.dtd">
<svg version="1.1" id="Layer_1" xmlns="http://www.w3.org/2000/svg" xmlns:xlink="http://www.w3.org/1999/xlink" x="0px" y="0px"
	 width="800px" height="1000px" viewBox="0 0 800 1000" enable-background="new 0 0 800 1000" xml:space="preserve">
<title>flying_saucer_DL</title>
<desc>Created with Sketch.</desc>
<g id="flying_saucer_DL">
	<g id="flying_saucer" transform="translate(166.000000, 287.000000)">
		<path id="Path-10" fill="#FFFFFF" d="M234,5.887c55.575,4.451,93.956,32.923,115.141,85.418l113.813,51.133
			c-62.523,40.18-108.195,60.27-137.016,60.27c0,5.035-47.586,49.781-91.938,49.781c-29.567,0-60.771-16.594-93.609-49.781
			c-53.305-14.323-83.561-21.484-90.77-21.484s-22.451-8.863-45.727-26.59c32.081-35.203,53.23-52.805,63.449-52.805
			s21.712,0,34.48,0C134.366,33.417,178.425,1.436,234,5.887z"/>
		<path id="Fill-1" fill="#000000" d="M214.31,145.678c-0.215,0.011-0.431,0.021-0.646,0.033
			C213.879,145.699,214.094,145.688,214.31,145.678 M228.078,0.063c-2.392,0.038-4.779,0.163-7.172,0.27
			c-5.393,0.241-10.743,1.01-16.076,1.79c-4.658,0.68-9.283,1.646-13.89,2.608c-2.128,0.448-4.246,0.948-6.344,1.521
			c-2.62,0.711-5.258,1.462-7.795,2.429c-4.44,1.69-8.749,3.609-12.954,5.82c-4.434,2.332-8.822,4.722-13.122,7.296
			c-4.437,2.657-8.822,5.406-13.196,8.166c-4.06,2.563-7.836,5.727-11.089,9.246c-0.904,0.973-1.804,1.949-2.707,2.922
			c-0.889,0.963-1.672,2.049-2.499,3.066c-1.363,1.674-2.614,3.46-3.804,5.262c-1.35,2.039-2.606,4.102-3.853,6.209
			c-0.661,1.121-1.236,2.301-1.852,3.45c-0.713,1.325-1.391,2.664-2.063,4.009c-2.115,4.216-4.205,8.449-6.268,12.692
			c-0.966,1.991-1.908,3.985-2.731,6.037c-0.848,2.104-1.485,4.244-2.087,6.427c-0.64,2.329-0.952,4.754-1.284,7.142
			c-0.138,1-0.211,2.07-0.236,3.082c-0.021,1.063-0.073,2.125-0.055,3.187c0.062,4.657,0.218,9.312,0.492,13.958
			c0.131,2.232,0.263,4.458,0.429,6.686c0.1,1.356,0.211,2.912,0.795,4.165c0.399,0.852,0.824,1.7,1.648,2.238
			c0.745,0.483,1.453,0.866,2.364,0.938c1.52,0.121,2.949-0.587,4.032-1.594c0.706-0.655,1.329-1.425,1.976-2.139
			c0.695-0.77,0.869-2.118,0.688-3.092c-0.187-1.038-0.789-1.979-1.651-2.591c-0.364-0.257-0.767-0.451-1.19-0.577
			c-0.006-1.528,0.006-3.057,0.006-4.583c-0.003-2.398-0.003-4.796,0.027-7.197c0.032-2.467,0.066-4.926,0.215-7.39
			c0.139-2.295,0.476-4.544,0.87-6.806c0.462-1.889,0.97-3.751,1.649-5.586c0.834-2.264,1.841-4.434,2.887-6.607
			c0.952-1.99,2.039-3.926,3.052-5.889c1.067-2.059,2.135-4.118,3.208-6.177c0.892-1.683,1.783-3.36,2.722-5.017
			c1.152-2.032,2.364-4.012,3.595-5.997c1.111-1.79,2.399-3.5,3.673-5.182c1.377-1.817,2.82-3.565,4.286-5.314
			c0.701-0.735,1.402-1.47,2.103-2.206c0.956-1,2.073-1.884,3.099-2.815c1.017-0.921,2.19-1.711,3.273-2.556
			c0.931-0.727,1.96-1.357,2.958-2.008c6.457-3.935,12.948-7.84,19.653-11.34c3.684-1.921,7.373-3.822,11.139-5.575
			c3.153-1.471,6.393-2.671,9.682-3.768c11.917-3.185,24.163-5.132,36.45-6.191c2.92-0.121,5.835-0.211,8.761-0.257
			c4.881-0.071,9.78,0.414,14.559,1.373c7.328,1.729,14.396,4.531,21.451,7.111c6.079,2.22,12.2,4.412,17.991,7.318
			c2.914,1.572,5.71,3.312,8.44,5.188c1.277,0.876,2.495,1.835,3.735,2.763c2.287,1.714,4.526,3.478,6.763,5.261
			c4.112,3.279,8.171,6.613,12.203,9.991c1.511,1.418,3.023,2.839,4.534,4.258c0.617,0.579,1.171,1.228,1.745,1.846
			c0.973,1.038,1.944,2.08,2.914,3.122c0.626,0.666,1.169,1.424,1.744,2.136c0.803,0.993,1.609,1.99,2.412,2.984
			c0.634,0.783,1.178,1.656,1.755,2.473c0.708,1.003,1.42,2.003,2.128,3.004c1.36,2.166,2.73,4.328,4.019,6.538
			c1.689,2.898,3.352,5.81,4.998,8.736c1.537,2.735,3.049,5.485,4.597,8.214c1.31,2.315,2.812,4.583,3.793,7.064
			c0.06,0.253,0.11,0.507,0.151,0.763c-0.002,0.022-0.005,0.045-0.007,0.067c-0.233,0.786-0.532,1.54-0.863,2.296
			c-0.306,0.544-0.631,1.078-1.001,1.576c-0.639,0.853-1.296,1.663-1.98,2.47c-1.876,1.868-3.838,3.715-6.026,5.205
			c-1.741,1.053-3.522,2.038-5.294,3.041c-1.398,0.793-2.832,1.59-4.281,2.284c-1.835,0.879-3.666,1.759-5.496,2.639
			c-1.797,0.858-3.652,1.607-5.473,2.407c-6.421,2.824-12.98,5.284-19.595,7.611c-4.09,1.218-8.19,2.366-12.351,3.318
			c-4.815,1.098-9.636,2.242-14.502,3.108c-9.612,1.711-19.237,3.298-28.911,4.609c-4.842,0.655-9.698,1.314-14.571,1.69
			c-2.627,0.203-5.254,0.469-7.888,0.604c-2.162,0.113-4.325,0.226-6.486,0.339c-6.391,0.202-12.777,0.403-19.164,0.093
			c-1.558-0.079-3.156-0.056-4.707-0.234l-5.805-0.674c-2.882-0.333-5.729-0.936-8.586-1.461c-6.685-1.551-13.345-3.19-20.036-4.703
			c-7.053-1.598-14.177-2.803-21.284-4.102c-2.089-0.478-4.189-0.955-6.2-1.698c-2.179-0.805-4.332-1.635-6.43-2.62
			c-0.935-0.563-1.806-1.204-2.693-1.836c-0.88-0.938-2.359-1.495-3.556-1.591c-2.066-0.166-3.783,0.8-5.053,2.349
			c-1.056,1.287-1.215,2.87-1.059,4.45c0.169,1.705,1.294,3.188,2.603,4.216c0.603,0.474,1.232,0.915,1.859,1.353
			c1.668,1.177,3.551,2.087,5.378,2.978c3.036,1.477,6.179,2.697,9.459,3.495c3.866,0.941,7.759,1.665,11.673,2.353
			c3.532,0.615,7.046,1.292,10.567,1.975c4.446,0.996,8.882,2.021,13.314,3.09c2.367,0.573,4.749,1.093,7.126,1.632
			c2.715,0.621,5.445,1.104,8.186,1.597c9.259,1.667,18.753,1.891,28.143,1.594c5.157-0.161,10.335-0.304,15.479-0.717
			c2.665-0.215,5.333-0.429,7.998-0.642c2.721-0.218,5.438-0.607,8.151-0.911c4.45-0.497,8.888-1.207,13.312-1.897
			c4.61-0.721,9.224-1.421,13.81-2.271c2.547-0.469,5.112-0.876,7.646-1.411c2.61-0.548,5.22-1.101,7.829-1.652
			c4.808-1.014,9.556-2.314,14.298-3.584c1.242-0.331,2.468-0.769,3.696-1.159c1.115-0.355,2.257-0.67,3.357-1.079
			c2.264-0.843,4.526-1.678,6.772-2.567c4.483-1.772,8.938-3.605,13.325-5.603c2.299-1.049,4.601-2.077,6.864-3.198
			c2.381-1.18,4.718-2.388,7.044-3.667c2.353-1.298,4.689-2.64,6.967-4.063c1.26-0.791,2.439-1.584,3.571-2.547
			c0.461-0.394,0.921-0.783,1.381-1.176c0.956-0.814,1.849-1.694,2.734-2.581c1.793-1.801,3.621-3.795,4.866-6.03
			c0.769-1.373,1.499-2.747,2.066-4.213c0.427-1.104,0.634-2.293,0.866-3.442c0.26-1.28,0.076-2.653-0.098-3.937
			c-0.193-1.39-0.682-2.74-1.121-4.061c-0.343-1.032-0.782-2.032-1.236-3.016c-0.975-2.118-2.048-4.188-3.121-6.254
			c-4.531-8.732-9.276-17.439-14.963-25.484c-0.733-1.039-1.467-2.078-2.204-3.116c-0.665-0.941-1.468-1.815-2.194-2.711
			c-0.641-0.791-1.242-1.643-1.938-2.384c-0.996-1.063-1.997-2.129-2.994-3.192c-1.672-1.783-3.443-3.426-5.229-5.092
			c-1.083-1.015-2.146-2.111-3.288-3.06c-0.945-0.791-1.89-1.576-2.838-2.363c-3.808-3.171-7.701-6.231-11.595-9.294
			c-1.918-1.504-3.866-2.953-5.825-4.402c-4.07-3.008-8.327-5.654-12.823-7.993c-4.555-2.371-9.341-4.327-14.159-6.093
			c-4.855-1.78-9.719-3.557-14.589-5.299c-2.174-0.776-4.374-1.47-6.565-2.19c-3.066-1.008-6.261-1.697-9.421-2.325
			c-2.842-0.563-5.767-0.966-8.664-1.059c-1.426-0.049-2.854-0.094-4.281-0.142C231.47,0.002,231.216,0,230.961,0
			C230.001,0,229.037,0.046,228.078,0.063"/>
		<path id="Fill-3" fill="#000000" d="M10.731,150.545c0.045,0.139,0.089,0.277,0.134,0.417
			C10.814,150.825,10.769,150.687,10.731,150.545z M455.739,147.821c-0.153,0.164-0.305,0.327-0.456,0.49
			C455.435,148.147,455.587,147.984,455.739,147.821z M459.601,143.477c0.006,0.076,0.011,0.152,0.012,0.229
			C459.607,143.629,459.604,143.553,459.601,143.477z M459.459,143.273c0.002,0.003,0.004,0.005,0.006,0.007
			c-0.016,0.071-0.033,0.143-0.053,0.212C459.427,143.42,459.443,143.347,459.459,143.273z M459.211,142.766
			c0.06,0.086,0.117,0.175,0.171,0.266v0.001C459.325,142.943,459.269,142.854,459.211,142.766z M459.418,142.695
			c0.018,0.045,0.034,0.09,0.048,0.135c-0.001,0.003-0.002,0.006-0.003,0.009L459.418,142.695z M351.481,90.186
			c-0.709,0.044-1.418,0.12-2.127,0.199c-1.421,0.159-2.76,0.676-3.897,1.537c-2.331,1.761-2.503,5.364-0.702,7.532
			c0.917,1.1,2.269,1.799,3.701,1.916c1.004,0.115,2.107-0.044,3.155-0.136c4.27-0.126,8.517,0.172,12.745,0.83
			c2.693,0.42,5.373,0.885,8.057,1.362c1.809,0.324,3.605,0.726,5.403,1.118c1.988,0.53,3.975,1.061,5.964,1.591
			c1.839,0.492,3.634,1.161,5.442,1.761c1.688,0.562,3.319,1.157,4.974,1.819c1.794,0.721,3.617,1.387,5.38,2.179
			c3.866,1.741,7.712,3.499,11.522,5.357c3.215,1.569,6.384,3.224,9.557,4.874c5.247,2.782,10.475,5.647,15.889,8.101
			c5.227,2.369,10.547,4.54,15.686,7.099c1.76,1.017,3.416,2.14,4.944,3.468c0.756,0.747,1.493,1.517,2.168,2.337
			c-0.014,0.029-0.027,0.059-0.04,0.087c-1.259,1.988-2.865,3.745-4.411,5.515c-0.512,0.544-1.029,1.081-1.572,1.597
			c-0.995,0.955-2.009,1.838-3.074,2.717c-1.781,1.477-3.73,2.729-5.678,3.976c-4.132,2.543-8.286,5.033-12.471,7.492
			c-4.388,2.585-8.983,4.754-13.576,6.938c-2.175,1.03-4.43,1.907-6.646,2.841c-2.036,0.861-4.084,1.695-6.134,2.523
			c-4.825,1.943-9.658,3.86-14.493,5.783c-3.043,1.213-6.101,2.396-9.153,3.585c-2.589,1.013-5.235,1.876-7.866,2.775
			c-2.396,0.692-4.795,1.385-7.19,2.078c-2.435,0.703-4.942,1.21-7.403,1.81c-4.693,1.138-9.473,1.948-14.231,2.774
			c-9.692,1.689-19.476,2.857-29.245,4.026c-9.896,1.186-19.797,2.307-29.694,3.509c-5.273,0.638-10.544,1.244-15.824,1.813
			c-4.999,0.54-10.018,0.854-15.034,1.165c-2.384,0.066-4.766,0.133-7.148,0.204c-2.587,0.072-5.188-0.025-7.775-0.038
			c-4.993-0.021-9.986-0.238-14.973-0.429c-4.548-0.172-9.102-0.413-13.633-0.841c-2.465-0.234-4.951-0.382-7.407-0.716
			c-2.953-0.397-5.909-0.797-8.862-1.197c-4.724-0.638-9.427-1.488-14.141-2.206c-4.758-0.727-9.527-1.416-14.313-1.913
			c-10.212-1.062-20.438-1.964-30.66-2.916c-2.13-0.196-4.254-0.396-6.377-0.645c-2.248-0.258-4.502-0.465-6.732-0.83
			c-2.341-0.383-4.72-0.673-7.042-1.166c-2.061-0.435-4.123-0.871-6.184-1.309c-4.713-1.113-9.423-2.239-14.129-3.382
			c-4.509-1.093-9.043-2.21-13.493-3.537c-2.576-0.769-5.146-1.53-7.691-2.382c-2.569-0.858-5.086-1.799-7.618-2.761
			c-4.357-1.654-8.604-3.605-12.933-5.34c-5.056-2.023-10.198-3.864-15.164-6.101c-4.357-1.961-8.603-4.162-12.839-6.366
			c-2.521-1.378-5.03-2.761-7.381-4.42c-2.501-1.765-4.928-3.633-7.237-5.646c-0.242-0.243-0.476-0.491-0.697-0.75
			c0.064-0.925,0.195-1.842,0.364-2.755c0.378-1.299,0.834-2.533,1.404-3.747c2.226-3.714,5.036-6.99,7.924-10.209
			c0.871-0.91,1.747-1.81,2.654-2.687c1.208-1.165,2.462-2.251,3.735-3.347c2.014-1.738,4.256-3.201,6.481-4.658
			c1.39-0.827,2.769-1.701,4.211-2.426c1.865-0.941,3.704-1.985,5.633-2.795c1.224-0.518,2.452-1.031,3.676-1.548
			c0.726-0.304,1.446-0.652,2.185-0.917c2.245-0.797,4.489-1.589,6.73-2.385c3.517-1.248,7.109-2.304,10.665-3.444
			c3.611-1.159,7.218-2.325,10.825-3.495c1.613-0.474,3.223-0.95,4.836-1.424c1.477-0.435,2.991-0.724,4.493-1.058
			c3.222-0.71,6.539-1.031,9.813-1.396c1.401-0.155,2.784-1.152,3.579-2.269c0.872-1.219,1.217-2.774,0.948-4.25
			c-0.259-1.427-1.086-2.723-2.272-3.564c-1.303-0.92-2.721-1.11-4.263-0.948c-5.07,0.541-10.126,1.068-15.057,2.409
			c-4.816,1.314-9.585,2.761-14.368,4.182c-5.028,1.492-10.095,2.895-15.067,4.557c-2.389,0.796-4.813,1.516-7.147,2.461
			c-2.442,0.986-4.873,1.93-7.231,3.098c-1.183,0.584-2.366,1.169-3.548,1.755c-1.293,0.642-2.524,1.476-3.77,2.206
			c-2.244,1.313-4.454,2.778-6.5,4.385c-1.906,1.496-3.8,3.012-5.499,4.746c-2.079,2.127-4.112,4.285-6.021,6.567
			c-3.151,3.767-5.917,7.752-8.005,12.212c-1.104,2.357-1.75,4.87-2.203,7.429c-0.215,1.206-0.367,2.405-0.381,3.633
			c-0.018,1.81,0.419,3.626,1.379,5.167c0.547,0.875,1.052,1.609,1.726,2.371c0.806,0.91,1.764,1.699,2.66,2.52
			c3.427,3.157,7.182,6.153,11.246,8.455c4.613,2.617,9.315,5.085,14.088,7.397c2.141,1.038,4.285,2.086,6.487,2.979
			c2.611,1.062,5.225,2.106,7.846,3.13c4.41,1.724,8.749,3.599,13.114,5.422c2.489,1.041,4.976,2.052,7.496,3.013
			c2.391,0.91,4.818,1.703,7.245,2.509c2.072,0.693,4.198,1.297,6.311,1.868c2.344,0.631,4.683,1.286,7.037,1.876
			c4.776,1.199,9.555,2.382,14.344,3.523c2.777,0.658,5.551,1.329,8.341,1.926c2.428,0.518,4.852,1.117,7.304,1.521
			c2.514,0.41,5.032,0.921,7.563,1.214c2.538,0.296,5.073,0.641,7.618,0.879c5.436,0.503,10.872,0.992,16.308,1.475
			c4.569,0.403,9.137,0.841,13.698,1.313c4.903,0.51,9.821,1.003,14.697,1.751c5.542,0.845,11.086,1.706,16.626,2.585
			c4.399,0.696,8.829,1.311,13.265,1.724c2.473,0.231,4.952,0.538,7.433,0.68c2.832,0.161,5.664,0.323,8.493,0.486
			c5.148,0.293,10.325,0.323,15.481,0.412c10.188,0.177,20.354-0.289,30.494-1.271c9.73-0.943,19.406-2.316,29.11-3.506
			c10.404-1.271,20.81-2.561,31.202-3.939c9.842-1.307,19.617-2.937,29.342-4.942c4.547-0.938,9.063-2.085,13.518-3.396
			c5.015-1.473,10.021-2.992,14.887-4.901c9.662-3.799,19.3-7.659,28.882-11.651c2.279-0.947,4.537-1.94,6.807-2.916
			c2.32-0.996,4.567-2.188,6.843-3.288c2.244-1.082,4.398-2.378,6.581-3.578c2.096-1.154,4.129-2.427,6.183-3.653
			c2.123-1.27,4.216-2.603,6.297-3.94c2.082-1.338,4.185-2.657,6.162-4.146c0.996-0.752,1.965-1.493,2.905-2.313
			c1.034-0.903,1.995-1.827,2.964-2.803c1.84-1.854,3.496-3.875,5.079-5.949c0.782-1.021,1.515-2.086,2.138-3.209
			c0.553-1.004,1.055-1.982,1.411-3.068c0.388-1.188,0.436-2.254,0.359-3.481c-0.059-0.958-0.397-1.837-0.733-2.733
			c-0.3-0.811-0.892-1.523-1.355-2.244c-0.297-0.462-0.691-0.876-1.054-1.288c-1.104-1.255-2.282-2.396-3.518-3.527
			c-1.978-1.813-4.323-3.136-6.66-4.415c-2.853-1.558-5.816-2.902-8.773-4.25c-2.693-1.228-5.354-2.514-8.023-3.792
			c-4.129-2.182-8.231-4.403-12.32-6.663c-4.73-2.612-9.517-5.108-14.333-7.556c-4.351-2.213-8.806-4.206-13.312-6.074l-3.247-1.344
			c-1.234-0.514-2.551-0.879-3.813-1.314c-1.128-0.386-2.255-0.775-3.379-1.161c-1.241-0.427-2.556-0.703-3.821-1.051
			c-6.225-1.714-12.591-2.927-18.981-3.861c-2.808-0.414-5.644-0.683-8.482-0.73c-0.251-0.004-0.502-0.006-0.752-0.006
			C354.766,90,353.126,90.083,351.481,90.186z"/>
		<path id="Fill-5" fill="#000000" d="M139.301,206.173c-0.903,0.62-1.442,1.534-1.885,2.51c-0.516,1.136-0.457,2.304-0.322,3.505
			c0.131,1.176,0.788,2.172,1.394,3.134c0.588,0.934,1.401,1.638,2.214,2.38c1.293,1.185,2.698,2.227,4.103,3.276
			c1.314,0.979,2.626,1.951,3.926,2.947c1.418,1.091,2.762,2.267,4.123,3.424c1.316,1.229,2.628,2.461,3.899,3.742
			c3.445,3.478,6.798,7.108,10.717,10.05c2.667,2.007,5.711,3.53,8.772,4.816c3.311,1.394,6.718,2.366,10.223,3.136
			c2.5,0.552,5.036,0.983,7.568,1.367c5.054,0.766,10.094,1.6,15.128,2.509c2.432,0.438,4.877,0.76,7.344,0.919
			c3.47,0.23,7.008,0.084,10.468-0.243c2.386-0.223,4.777-0.429,7.156-0.715c2.646-0.32,5.29-0.658,7.934-1.007
			c2.116-0.278,4.258-0.558,6.354-0.969c2.404-0.471,4.802-0.924,7.186-1.492c2.587-0.616,5.158-1.274,7.731-1.954
			c2.328-0.613,4.649-1.255,6.97-1.889c2.004-0.547,4.03-1.061,6.009-1.69c2.713-0.867,5.425-1.697,8.077-2.739
			c2.136-0.843,4.225-1.777,6.297-2.768c2.78-1.324,5.542-2.689,8.274-4.115c2.896-1.505,5.681-3.174,8.423-4.938
			c2.588-1.659,5.041-3.485,7.438-5.412c1.162-0.938,2.287-1.917,3.418-2.894c1.366-1.178,2.598-2.48,3.805-3.819
			c1.198-1.323,2.11-2.847,3.051-4.355c0.717-1.154,1.076-2.394,0.827-3.757c-0.228-1.262-0.947-2.408-1.985-3.15
			c-2.097-1.502-5.42-1.111-6.856,1.168c-0.859,1.363-1.721,2.683-2.752,3.91c-1.828,1.853-3.9,3.48-5.961,5.063
			c-1.738,1.333-3.513,2.593-5.304,3.849c-1.821,1.115-3.641,2.205-5.518,3.229c-2.037,1.108-4.1,2.161-6.185,3.168
			c-2.145,1.039-4.28,2.102-6.452,3.073c-2.337,1.05-4.683,2.021-7.063,2.958c-1.566,0.501-3.131,1.004-4.716,1.438
			c-2.436,0.665-4.871,1.331-7.31,1.976c-4.694,1.244-9.396,2.429-14.121,3.544c-2.027,0.477-4.1,0.857-6.157,1.185
			c-2.608,0.415-5.213,0.813-7.832,1.168c-4.965,0.667-9.941,1.266-14.939,1.569c-2.947,0.103-5.888-0.007-8.819-0.363
			c-1.826-0.22-3.632-0.558-5.441-0.889c-2.311-0.426-4.624-0.826-6.942-1.224c-4.284-0.73-8.61-1.278-12.868-2.159
			c-3.969-0.937-7.852-2.251-11.511-4.068c-2.408-1.391-4.571-3.032-6.646-4.884c-2.277-2.189-4.447-4.507-6.657-6.763
			c-0.878-0.899-1.83-1.735-2.743-2.6c-1.055-0.997-2.114-1.98-3.218-2.924c-1.836-1.565-3.718-3.046-5.676-4.454
			c-1.575-1.13-3.192-2.212-4.71-3.419c-0.108-0.984-0.5-1.93-1.134-2.697c-0.86-1.046-2.13-1.711-3.476-1.819
			c-0.137-0.011-0.27-0.016-0.4-0.016C141.313,205,140.319,205.471,139.301,206.173"/>
		<path id="Fill-7" fill="#000000" d="M160.853,285.667c0.059,0.183,0.117,0.365,0.176,0.548
			C160.961,286.036,160.902,285.853,160.853,285.667 M173.202,280.513c0.116,0.103,0.229,0.21,0.336,0.323
			c-0.115-0.107-0.229-0.213-0.345-0.32C173.196,280.514,173.199,280.514,173.202,280.513 M189.505,236.182
			c-4.394,6.373-8.889,12.671-13.593,18.823c-2.305,3.016-4.598,6.019-6.674,9.195c-1.09,1.671-2.007,3.514-2.764,5.353
			c-0.62,1.504-1.239,3.043-1.675,4.606c-0.401,1.425-0.463,2.761,0.18,4.134c0.567,1.214,1.727,2.423,3.059,2.794
			c1.415,0.398,2.885,0.556,4.252-0.15c0.077-0.041,0.156-0.081,0.235-0.119c-0.082,0.234-0.17,0.466-0.266,0.696
			c-0.255,0.387-0.525,0.753-0.816,1.11c-0.688,0.644-1.406,1.225-2.176,1.765c-1.333,0.761-2.699,1.401-4.139,1.936
			c-0.834,0.223-1.666,0.389-2.522,0.493c-0.38-0.013-0.752-0.042-1.126-0.088c-0.081-0.028-0.161-0.058-0.241-0.088
			c-0.012-0.015-0.023-0.03-0.036-0.045c-0.006-0.031-0.012-0.064-0.018-0.097c0.022-0.371,0.06-0.736,0.109-1.106
			c0.284-0.987,0.646-1.943,1.072-2.877c0.012-0.01,0.023-0.019,0.035-0.028c2.069-1.601,2.646-4.634,1.564-6.949
			c-1.36-2.909-4.861-4.116-7.764-2.818c-1.653,0.741-2.757,1.722-3.882,3.122c-0.543,0.68-0.982,1.671-1.349,2.402
			c-0.443,0.88-0.782,1.772-1.083,2.708c-0.54,1.688-0.886,3.495-0.89,5.27c-0.004,1.063,0.104,2.07,0.319,3.105
			c0.328,1.573,1.027,2.871,1.884,4.202c0.876,1.363,2.083,2.505,3.45,3.381c1.871,1.198,3.954,1.732,6.138,2.026
			c0.985,0.131,2.15,0.027,3.112-0.052c0.989-0.083,1.935-0.231,2.899-0.466c1.93-0.47,3.833-1.201,5.625-2.05
			c1.546-0.735,2.996-1.711,4.411-2.667c1.634-1.101,2.976-2.599,4.252-4.079c0.478-0.555,0.841-1.187,1.187-1.825
			c0.588-1.084,1.094-2.094,1.445-3.268c0.651-2.153,0.717-4.371,0.336-6.58c-0.546-3.152-2.695-6.079-5.529-7.603
			c2.633-4.161,5.629-8.086,8.487-12.093c3.765-5.28,7.399-10.648,11.043-16.007c1.604-2.36,1.131-5.622-1.235-7.302
			c-0.9-0.638-1.968-0.947-3.031-0.947C192.136,234,190.49,234.751,189.505,236.182"/>
		<path id="Fill-9" fill="#000000" d="M290.341,281.022c0.007,0.123,0.013,0.246,0.019,0.369c-0.014-0.119-0.021-0.238-0.023-0.356
			C290.338,281.031,290.34,281.026,290.341,281.022 M290.904,280.061c0.027,0.006,0.054,0.012,0.081,0.018
			C290.958,280.072,290.932,280.066,290.904,280.061 M301.563,276.483c-0.093,0.112-0.189,0.219-0.293,0.317
			C301.368,276.696,301.466,276.591,301.563,276.483 M265.438,221.562c-1.432,0.671-2.554,1.901-3.094,3.396
			c-0.576,1.591-0.376,3.065,0.201,4.604c0.197,0.536,0.394,1.067,0.622,1.592c0.388,0.897,1.026,1.703,1.559,2.523
			c0.981,1.498,2.305,2.78,3.466,4.136c1.044,1.217,2.104,2.412,3.097,3.677c1.038,1.325,2.004,2.71,2.925,4.119
			c2.228,3.717,3.969,7.661,5.548,11.698c0.851,2.183,1.659,4.403,2.706,6.498c1.099,2.201,2.73,4.186,4.178,6.17
			c0.771,1.056,1.618,2.071,2.37,3.145c0.061,0.111,0.122,0.225,0.184,0.338c0.754,1.414,1.8,2.478,3.154,3.309
			c1.235,0.755,2.59,1.306,3.913,1.902c-1.802,0.465-3.642,0.854-5.465,1.116c0.776-2.845-1.065-6.016-3.769-7.009
			c-1.477-0.538-3.121-0.466-4.538,0.202l-1.285,0.813c-0.819,0.691-1.414,1.543-1.783,2.555c-1.417,2.742-1.41,5.988,0.072,8.71
			c1.59,2.916,4.126,5.474,7.354,6.446c2.694,0.813,5.5,0.515,8.214-0.059c1.918-0.406,3.814-0.824,5.69-1.396
			c2.92-0.887,5.699-1.909,8.132-3.816c0.124-0.136,0.252-0.271,0.38-0.406c0.57-0.467,1.03-1.022,1.372-1.662
			c0.694-1.144,1.157-2.272,1.31-3.61c0.249-2.18-0.467-4.414-1.853-6.117c-1.793-2.207-4.05-4.021-6.544-5.353
			c-1.186-0.633-2.371-1.24-3.612-1.752c-0.198-0.08-0.397-0.161-0.595-0.242c-0.055-0.119-0.111-0.238-0.172-0.354
			c-0.626-1.221-1.482-2.364-2.232-3.515c-0.813-1.233-1.632-2.463-2.447-3.695c-0.933-1.71-1.569-3.538-2.297-5.348
			c-0.892-2.21-1.783-4.41-2.765-6.582c-1.908-4.24-4.406-8.255-7.171-11.98c-1.3-1.751-2.723-3.392-4.198-4.997
			c-1.364-1.49-2.803-2.928-4.008-4.548c-0.252-0.516-0.456-1.041-0.661-1.594c-0.536-1.436-1.99-2.606-3.38-3.114
			c-0.659-0.239-1.352-0.359-2.044-0.359C267.104,221,266.235,221.188,265.438,221.562"/>
		<path id="Fill-11" fill="#000000" d="M281.462,76.544c-0.027,0.05-0.054,0.101-0.079,0.15
			C281.407,76.644,281.435,76.593,281.462,76.544 M281.656,76.348c-0.02,0.089-0.039,0.178-0.059,0.267
			C281.613,76.524,281.632,76.436,281.656,76.348 M282.053,75.767c-0.084,0.092-0.166,0.182-0.25,0.273
			C281.88,75.945,281.963,75.854,282.053,75.767 M288.359,75.121c0.714,0.194,1.403,0.418,2.087,0.701
			c0.437,0.268,0.852,0.555,1.26,0.874c0.437,0.461,0.839,0.943,1.212,1.458c0.301,0.545,0.568,1.095,0.807,1.672
			c0.155,0.621,0.271,1.242,0.35,1.878c-0.015,0.384-0.047,0.76-0.097,1.142c-0.157,0.548-0.345,1.079-0.569,1.603
			c-0.256,0.387-0.528,0.751-0.82,1.106c-0.612,0.568-1.252,1.083-1.931,1.566c-0.911,0.507-1.847,0.921-2.826,1.278
			c-1.652,0.453-3.313,0.775-5.019,0.938c-1.338,0.014-2.658-0.074-3.986-0.276c-0.556-0.157-1.092-0.343-1.624-0.569
			c-0.358-0.233-0.701-0.478-1.033-0.741c-0.15-0.173-0.292-0.348-0.429-0.527c-0.19-0.379-0.362-0.759-0.518-1.149
			c-0.105-0.488-0.179-0.972-0.229-1.465c0.013-0.936,0.106-1.845,0.261-2.761c0.194-0.692,0.409-1.369,0.66-2.036
			c0.399,0.165,0.825,0.269,1.26,0.304c1.086,0.086,2.187-0.26,3.025-0.959c0.938-0.778,1.305-1.75,1.51-2.91
			c0.004-0.021,0.008-0.042,0.011-0.063c0.067-0.056,0.136-0.111,0.205-0.165c0.521-0.283,1.057-0.519,1.614-0.73
			c0.704-0.177,1.402-0.306,2.125-0.394C286.574,74.897,287.461,74.971,288.359,75.121 M285.846,66.065
			c-1.229,0.069-2.388,0.26-3.575,0.583c-2.175,0.598-4.201,1.549-5.95,2.983c-0.112,0.092-0.224,0.189-0.332,0.29
			c-0.716-0.449-1.536-0.728-2.386-0.797c-1.263-0.101-2.858,0.278-3.789,1.202c-0.7,0.691-1.367,1.417-2.029,2.149
			c-0.906,1-1.492,2.31-2.065,3.511c-0.389,0.813-0.642,1.688-0.892,2.549c-0.41,1.406-0.652,2.882-0.787,4.341
			c-0.111,1.181,0.038,2.396,0.11,3.577c0.083,1.403,0.569,2.733,1.023,4.052c0.372,1.077,0.996,2.056,1.617,3
			c0.777,1.177,1.764,2.066,2.814,3c0.878,0.781,2.037,1.361,3.078,1.865c1.305,0.632,2.641,0.979,4.063,1.253
			c2.468,0.476,4.886,0.427,7.382,0.253c2.558-0.177,5.017-0.958,7.439-1.747c2.522-0.823,4.852-2.299,6.86-4.018
			c3.834-3.282,6.065-8.369,5.479-13.432c-0.569-4.914-3.339-9.584-7.551-12.237c-2.215-1.396-4.692-1.983-7.253-2.348
			c-0.506-0.071-1.015-0.096-1.525-0.096C287,66,286.42,66.032,285.846,66.065"/>
		<path id="Fill-13" fill="#000000" d="M162.145,79.893c-0.039,0.076-0.078,0.152-0.118,0.228
			C162.063,80.043,162.103,79.966,162.145,79.893 M162.598,77.983c0.044,0.139,0.087,0.277,0.131,0.416
			C162.685,78.26,162.641,78.122,162.598,77.983 M177.456,75.994c1.092,0.298,2.13,0.675,3.157,1.148
			c0.536,0.319,1.053,0.665,1.555,1.033c-0.139,0.191-0.281,0.379-0.431,0.566c-0.851,0.829-1.759,1.572-2.729,2.258
			c-1.438,0.837-2.931,1.533-4.492,2.109c-1.672,0.47-3.361,0.801-5.092,0.975c-1.039,0.013-2.067-0.042-3.103-0.174
			c-0.371-0.115-0.73-0.248-1.089-0.402c-0.104-0.07-0.206-0.142-0.309-0.216c-0.233-0.267-0.452-0.542-0.661-0.829
			c-0.434-0.85-0.778-1.736-1.085-2.64c-0.063-0.201-0.126-0.4-0.189-0.601c-0.01-0.032-0.02-0.065-0.028-0.097
			c0.778-0.612,1.62-1.158,2.436-1.684c0.203-0.172,0.391-0.354,0.563-0.547c0.475,0.065,0.949,0.051,1.387-0.067
			c1.887-0.51,3.738-1.035,5.673-1.229C174.517,75.595,175.984,75.728,177.456,75.994 M172.041,66.11
			c-2.191,0.176-4.265,0.794-6.378,1.381c-0.709,0.197-1.348,0.449-1.907,0.836c-1.199-0.417-2.833-0.462-3.952,0.204
			c-1.062,0.632-2.097,1.309-3.124,1.994c-0.661,0.438-1.277,0.884-1.853,1.437c-0.864,0.829-1.885,1.976-2.251,3.157
			c-0.339,1.095-0.558,2.169-0.575,3.313c-0.017,1.272,0.171,2.391,0.541,3.589c0.579,1.887,1.13,3.786,2.097,5.513
			c1.188,2.122,2.736,3.917,4.799,5.213c2.12,1.336,4.507,1.941,6.977,2.173c2.233,0.21,4.559-0.025,6.768-0.398
			c2.568-0.432,5.117-1.298,7.494-2.362c3.9-1.752,7.501-4.488,10.032-7.97c0.667-0.919,1.146-2.017,1.606-3.046
			c0.447-1.009,0.64-2.232,0.681-3.331c0.096-2.557-1.318-5.126-3.329-6.643c-1.644-1.24-3.37-2.259-5.227-3.146
			c-1.925-0.919-4.048-1.355-6.131-1.725c-1.205-0.215-2.443-0.3-3.679-0.3C173.763,66,172.896,66.042,172.041,66.11"/>
		<path id="Fill-15" fill="#000000" d="M229.545,252.407c-0.139,3.354-0.284,6.71-0.454,10.065
			c-0.056,1.156-0.128,2.313-0.212,3.467c-0.028,0.425-0.055,0.848-0.084,1.271c-0.009,0.004-0.016,0.008-0.023,0.012
			c-1.351,0.713-2.658,1.512-3.897,2.402c-0.677,0.489-1.231,1.198-1.689,1.881c-0.573,0.856-1.097,2.082-1.163,3.12
			c-0.19,2.962,0.872,5.873,2.926,8.044c1.214,1.283,2.734,2.133,4.383,2.751c1.843,0.696,3.733,0.614,5.652,0.512
			c0.462-0.051,0.91-0.157,1.344-0.313c0.867-0.271,1.571-0.499,2.355-0.915c1.61-0.86,2.939-2.105,3.9-3.635
			c1.857-2.952,1.896-6.796,0.084-9.771c-0.729-1.201-1.6-2.249-2.808-3.024c-0.358-0.23-0.733-0.424-1.121-0.585
			c0.066-1.032,0.108-2.066,0.149-3.101c0.149-3.806,0.229-7.611,0.368-11.416c0.094-2.604-1.732-4.942-4.467-5.157
			c-0.122-0.01-0.243-0.015-0.365-0.015C231.985,248,229.647,249.921,229.545,252.407"/>
		<path id="Fill-17" fill="#000000" d="M228.563,89.563c-0.087,0.006-0.174,0.01-0.262,0.013
			C228.389,89.571,228.476,89.567,228.563,89.563 M224.043,80.867c-0.036,0.163-0.072,0.326-0.107,0.489
			C223.962,81.191,223.998,81.028,224.043,80.867 M239.006,79.994c0.001,0.035,0.004,0.07,0.005,0.105
			C239.009,80.064,239.007,80.029,239.006,79.994 M233.28,76.376c0.54,0.018,1.065,0.061,1.604,0.129
			c0.714,0.197,1.399,0.438,2.076,0.74c0.379,0.241,0.738,0.494,1.092,0.769c0.209,0.224,0.406,0.453,0.6,0.695
			c0.097,0.187,0.186,0.374,0.27,0.565c0.012,0.065,0.021,0.13,0.031,0.196c-0.005,0.097-0.01,0.195-0.02,0.294
			c-0.137,0.441-0.301,0.865-0.491,1.288c-0.567,0.897-1.222,1.717-1.92,2.518c-1.281,1.299-2.645,2.523-4.089,3.632
			c-0.856,0.66-1.704,1.336-2.594,1.954c-0.222,0.12-0.442,0.232-0.669,0.335c-0.049,0.008-0.099,0.016-0.148,0.022
			c-0.174-0.006-0.347-0.019-0.52-0.039c-0.555-0.158-1.093-0.344-1.63-0.568c-0.31-0.189-0.607-0.391-0.897-0.611
			c-0.078-0.092-0.154-0.187-0.229-0.283c-0.266-0.5-0.491-1.005-0.693-1.537c-0.482-1.751-0.771-3.581-0.917-5.395
			c0.003-0.143,0.01-0.285,0.021-0.427c0.532-0.463,1.093-0.877,1.676-1.274c0.001-0.001,0.003-0.002,0.004-0.003
			c1.086,0.131,2.225-0.165,3.133-0.89c0.601-0.478,1.202-0.945,1.83-1.384c0.316-0.162,0.633-0.311,0.96-0.447
			C232.264,76.529,232.763,76.438,233.28,76.376 M233.537,68.012c-2.287,0.092-4.476,0.641-6.464,1.789
			c-0.063,0.036-0.126,0.074-0.188,0.11c-0.359-0.241-0.749-0.441-1.161-0.59c-1.211-0.438-2.954-0.518-4.107,0.178
			c-1.132,0.685-2.222,1.384-3.24,2.224c-0.888,0.733-1.648,1.618-2.401,2.481c-0.421,0.555-0.768,1.158-1.043,1.799
			c-0.43,0.84-0.64,1.614-0.795,2.571c-0.307,1.888-0.051,3.838,0.3,5.708c0.251,1.357,0.516,2.702,0.922,4.024
			c0.323,1.053,0.674,2.08,1.118,3.091c0.207,0.432,0.447,0.843,0.719,1.237c0.521,0.819,0.991,1.508,1.648,2.21
			c1.689,1.813,4.052,2.958,6.412,3.629c1.146,0.326,2.326,0.521,3.517,0.525c1.563,0.003,2.907-0.313,4.362-0.857
			c0.933-0.346,1.786-1.028,2.607-1.566c0.537-0.349,1.032-0.768,1.532-1.168c2.875-2.292,5.565-4.781,7.809-7.711
			c0.656-0.86,1.211-1.847,1.669-2.824c0.608-1.302,0.938-2.587,1.207-4.002c0.045-0.404,0.055-0.809,0.021-1.217
			c0-0.597-0.044-1.189-0.138-1.778c-0.183-1.419-0.9-2.749-1.679-3.917c-2.581-3.879-7.436-5.958-12.03-5.958
			C233.934,68,233.735,68.004,233.537,68.012"/>
	</g>
</g>
</svg>
